<?xml version="1.0" standalone="no"?>
<mlt LC_NUMERIC="C" version="6.25.0" title="Shotcut version 21.01.29" producer="main_bin">
  <profile description="automatic" width="720" height="540" progressive="1" sample_aspect_num="1" sample_aspect_den="1" display_aspect_num="720" display_aspect_den="540" frame_rate_num="25" frame_rate_den="1" colorspace="601"/>
  <producer id="producer0" in="00:00:00.000" out="00:00:11.040">
    <property name="length">00:00:11.080</property>
    <property name="eof">pause</property>
    <property name="resource">/Users/div/projects/laghu-sangitamrita/media/Караталы/2 - Видео диск/08 - Дубль кахарва тал/01 - Мантра 1 (Д-Кахарва тал).divx</property>
    <property name="audio_index">1</property>
    <property name="video_index">0</property>
    <property name="mute_on_pause">0</property>
    <property name="mlt_service">avformat-novalidate</property>
    <property name="seekable">1</property>
    <property name="aspect_ratio">1</property>
    <property name="creation_time">2021-02-01T20:32:54</property>
    <property name="global_feed">1</property>
    <property name="xml">was here</property>
    <property name="shotcut:hash">16f9880072189bb69d2cb8f4fdabed05</property>
  </producer>
  <producer id="producer1" in="00:00:00.000" out="00:00:27.400">
    <property name="length">00:00:27.440</property>
    <property name="eof">pause</property>
    <property name="resource">/Users/div/projects/laghu-sangitamrita/media/Караталы/2 - Видео диск/08 - Дубль кахарва тал/02 - Мантра 1_вариант 1 (Д-Кахарва тал).divx</property>
    <property name="audio_index">1</property>
    <property name="video_index">0</property>
    <property name="mute_on_pause">0</property>
    <property name="mlt_service">avformat-novalidate</property>
    <property name="seekable">1</property>
    <property name="aspect_ratio">1</property>
    <property name="creation_time">2021-02-01T20:32:56</property>
    <property name="global_feed">1</property>
    <property name="xml">was here</property>
    <property name="shotcut:hash">171578395acd24ce46f3cfbd68e84fe9</property>
  </producer>
  <producer id="producer2" in="00:00:00.000" out="00:00:34.160">
    <property name="length">00:00:34.200</property>
    <property name="eof">pause</property>
    <property name="resource">/Users/div/projects/laghu-sangitamrita/media/Караталы/2 - Видео диск/08 - Дубль кахарва тал/03 - Мантра 1_вариант 2 (Д-Кахарва тал).divx</property>
    <property name="audio_index">1</property>
    <property name="video_index">0</property>
    <property name="mute_on_pause">0</property>
    <property name="mlt_service">avformat-novalidate</property>
    <property name="seekable">1</property>
    <property name="aspect_ratio">1</property>
    <property name="creation_time">2021-02-01T20:33:04</property>
    <property name="global_feed">1</property>
    <property name="xml">was here</property>
    <property name="shotcut:hash">12d29b8fd16090dd42a60de599e529a4</property>
  </producer>
  <producer id="producer3" in="00:00:00.000" out="00:00:18.880">
    <property name="length">00:00:18.920</property>
    <property name="eof">pause</property>
    <property name="resource">/Users/div/projects/laghu-sangitamrita/media/Караталы/2 - Видео диск/08 - Дубль кахарва тал/04 - Мантра 1_вариант 3 (Д-Кахарва тал).divx</property>
    <property name="audio_index">1</property>
    <property name="video_index">0</property>
    <property name="mute_on_pause">0</property>
    <property name="mlt_service">avformat-novalidate</property>
    <property name="seekable">1</property>
    <property name="aspect_ratio">1</property>
    <property name="creation_time">2021-02-01T20:33:16</property>
    <property name="global_feed">1</property>
    <property name="xml">was here</property>
    <property name="shotcut:hash">e9c3b2d3c0a84ca01dccc54cd0ef01ab</property>
  </producer>
  <producer id="producer4" in="00:00:00.000" out="00:01:37.160">
    <property name="length">00:01:37.200</property>
    <property name="eof">pause</property>
    <property name="resource">/Users/div/projects/laghu-sangitamrita/media/Караталы/2 - Видео диск/08 - Дубль кахарва тал/05 - Мантра 1_примеры всех вариантов (Д-Кахарва тал).divx</property>
    <property name="audio_index">1</property>
    <property name="video_index">0</property>
    <property name="mute_on_pause">0</property>
    <property name="mlt_service">avformat-novalidate</property>
    <property name="seekable">1</property>
    <property name="aspect_ratio">1</property>
    <property name="creation_time">2021-02-01T20:33:24</property>
    <property name="global_feed">1</property>
    <property name="xml">was here</property>
    <property name="shotcut:hash">cf54bb4dd9d02f1d0bfcef922e5601eb</property>
  </producer>
  <producer id="producer5" in="00:00:00.000" out="00:00:57.880">
    <property name="length">00:00:57.920</property>
    <property name="eof">pause</property>
    <property name="resource">/Users/div/projects/laghu-sangitamrita/media/Караталы/2 - Видео диск/08 - Дубль кахарва тал/06 - Мантра 2 (Д-Кахарва тал).divx</property>
    <property name="audio_index">1</property>
    <property name="video_index">0</property>
    <property name="mute_on_pause">0</property>
    <property name="mlt_service">avformat-novalidate</property>
    <property name="seekable">1</property>
    <property name="aspect_ratio">1</property>
    <property name="creation_time">2021-02-01T20:33:56</property>
    <property name="global_feed">1</property>
    <property name="xml">was here</property>
    <property name="shotcut:hash">f9c0679e48892f668153871cd2e2284f</property>
  </producer>
  <producer id="producer6" in="00:00:00.000" out="00:01:45.440">
    <property name="length">00:01:45.480</property>
    <property name="eof">pause</property>
    <property name="resource">/Users/div/projects/laghu-sangitamrita/media/Караталы/2 - Видео диск/08 - Дубль кахарва тал/07 - Мантра 3 (Д-Кахарва тал).divx</property>
    <property name="audio_index">1</property>
    <property name="video_index">0</property>
    <property name="mute_on_pause">0</property>
    <property name="mlt_service">avformat-novalidate</property>
    <property name="seekable">1</property>
    <property name="aspect_ratio">1</property>
    <property name="creation_time">2021-02-01T20:34:16</property>
    <property name="global_feed">1</property>
    <property name="xml">was here</property>
    <property name="shotcut:hash">5ab177bd842c69b4a22803802f4b53d9</property>
  </producer>
  <producer id="producer7" in="00:00:00.000" out="00:00:55.160">
    <property name="length">00:00:55.200</property>
    <property name="eof">pause</property>
    <property name="resource">/Users/div/projects/laghu-sangitamrita/media/Караталы/2 - Видео диск/08 - Дубль кахарва тал/08 - Мантра 4 (Д-Кахарва тал).divx</property>
    <property name="audio_index">1</property>
    <property name="video_index">0</property>
    <property name="mute_on_pause">0</property>
    <property name="mlt_service">avformat-novalidate</property>
    <property name="seekable">1</property>
    <property name="aspect_ratio">1</property>
    <property name="creation_time">2021-02-01T20:34:48</property>
    <property name="global_feed">1</property>
    <property name="xml">was here</property>
    <property name="shotcut:hash">ccc7906b74c829300ff637dc8f594379</property>
  </producer>
  <producer id="producer8" in="00:00:00.000" out="00:00:25.960">
    <property name="length">00:00:26.000</property>
    <property name="eof">pause</property>
    <property name="resource">/Users/div/projects/laghu-sangitamrita/media/Караталы/2 - Видео диск/08 - Дубль кахарва тал/09 - Мантра 5 (Д-Кахарва тал).divx</property>
    <property name="audio_index">1</property>
    <property name="video_index">0</property>
    <property name="mute_on_pause">0</property>
    <property name="mlt_service">avformat-novalidate</property>
    <property name="seekable">1</property>
    <property name="aspect_ratio">1</property>
    <property name="creation_time">2021-02-01T20:35:06</property>
    <property name="global_feed">1</property>
    <property name="xml">was here</property>
    <property name="shotcut:hash">0a74bda4123001de3f537eb24026f3a1</property>
  </producer>
  <producer id="producer9" in="00:00:00.000" out="03:59:59.960">
    <property name="length">04:00:00.000</property>
    <property name="eof">pause</property>
    <property name="resource">karatals-8.png</property>
    <property name="ttl">1</property>
    <property name="aspect_ratio">1</property>
    <property name="progressive">1</property>
    <property name="seekable">1</property>
    <property name="mlt_service">qimage</property>
    <property name="creation_time">2021-02-14T16:10:46</property>
    <property name="global_feed">1</property>
    <property name="xml">was here</property>
    <property name="shotcut:hash">59bc75b6d3c3f757a0c573496ffb53df</property>
  </producer>
  <playlist id="main_bin" title="Shotcut version 21.01.29">
    <property name="shotcut:projectAudioChannels">2</property>
    <property name="shotcut:projectFolder">1</property>
    <property name="xml_retain">1</property>
    <entry producer="producer0" in="00:00:00.000" out="00:00:11.040"/>
    <entry producer="producer1" in="00:00:00.000" out="00:00:27.400"/>
    <entry producer="producer2" in="00:00:00.000" out="00:00:34.160"/>
    <entry producer="producer3" in="00:00:00.000" out="00:00:18.880"/>
    <entry producer="producer4" in="00:00:00.000" out="00:01:37.160"/>
    <entry producer="producer5" in="00:00:00.000" out="00:00:57.880"/>
    <entry producer="producer6" in="00:00:00.000" out="00:01:45.440"/>
    <entry producer="producer7" in="00:00:00.000" out="00:00:55.160"/>
    <entry producer="producer8" in="00:00:00.000" out="00:00:25.960"/>
    <entry producer="producer9" in="00:00:00.000" out="00:00:03.960"/>
  </playlist>
  <producer id="black" in="00:00:00.000" out="00:07:10.280">
    <property name="length">00:07:10.320</property>
    <property name="eof">pause</property>
    <property name="resource">0</property>
    <property name="aspect_ratio">1</property>
    <property name="mlt_service">color</property>
    <property name="mlt_image_format">rgb24a</property>
    <property name="set.test_audio">0</property>
  </producer>
  <playlist id="background">
    <entry producer="black" in="00:00:00.000" out="00:07:10.280"/>
  </playlist>
  <producer id="producer11" in="00:00:00.000" out="00:00:11.040">
    <property name="length">00:00:11.080</property>
    <property name="eof">pause</property>
    <property name="resource">/Users/div/projects/laghu-sangitamrita/media/Караталы/2 - Видео диск/08 - Дубль кахарва тал/01 - Мантра 1 (Д-Кахарва тал).divx</property>
    <property name="audio_index">1</property>
    <property name="video_index">0</property>
    <property name="mute_on_pause">0</property>
    <property name="mlt_service">avformat-novalidate</property>
    <property name="seekable">1</property>
    <property name="aspect_ratio">1</property>
    <property name="creation_time">2021-02-01T20:32:54</property>
    <property name="global_feed">1</property>
    <property name="xml">was here</property>
    <property name="shotcut:hash">16f9880072189bb69d2cb8f4fdabed05</property>
    <property name="shotcut:caption">01 - Мантра 1 (Д-Кахарва тал).divx</property>
    <filter id="filter1" out="00:00:11.000">
      <property name="version">0.2</property>
      <property name="mlt_service">frei0r.IIRblur</property>
      <property name="shotcut:filter">blur_gaussian</property>
      <property name="1">0.99</property>
      <property name="0">00:00:00.440=0;00:00:01.240=0.44794;00:00:02.240=0.446809;00:00:03.080=0</property>
      <property name="shotcut:animIn">00:00:00.000</property>
      <property name="shotcut:animOut">00:00:00.000</property>
    </filter>
    <filter id="filter2" out="00:00:11.000">
      <property name="window">75</property>
      <property name="max_gain">20dB</property>
      <property name="level">00:00:00.000=-60;00:00:00.120=0</property>
      <property name="mlt_service">volume</property>
      <property name="shotcut:filter">fadeInVolume</property>
      <property name="shotcut:animIn">00:00:00.160</property>
    </filter>
  </producer>
  <producer id="producer12" in="00:00:00.000" out="00:00:27.400">
    <property name="length">00:00:27.440</property>
    <property name="eof">pause</property>
    <property name="resource">/Users/div/projects/laghu-sangitamrita/media/Караталы/2 - Видео диск/08 - Дубль кахарва тал/02 - Мантра 1_вариант 1 (Д-Кахарва тал).divx</property>
    <property name="audio_index">1</property>
    <property name="video_index">0</property>
    <property name="mute_on_pause">0</property>
    <property name="mlt_service">avformat-novalidate</property>
    <property name="seekable">1</property>
    <property name="aspect_ratio">1</property>
    <property name="creation_time">2021-02-01T20:32:56</property>
    <property name="global_feed">1</property>
    <property name="xml">was here</property>
    <property name="shotcut:hash">171578395acd24ce46f3cfbd68e84fe9</property>
    <property name="shotcut:caption">02 - Мантра 1_вариант 1 (Д-Кахарва тал).divx</property>
  </producer>
  <tractor id="tractor0" global_feed="1" in="00:00:00.000" out="00:00:00.120">
    <property name="shotcut:transition">lumaMix</property>
    <track producer="producer11" in="00:00:10.880" out="00:00:11.000"/>
    <track producer="producer12" in="00:00:00.040" out="00:00:00.160"/>
    <transition id="transition0" out="00:00:00.120">
      <property name="a_track">0</property>
      <property name="b_track">1</property>
      <property name="factory">loader</property>
      <property name="mlt_service">luma</property>
      <property name="alpha_over">1</property>
    </transition>
    <transition id="transition1" out="00:00:00.120">
      <property name="a_track">0</property>
      <property name="b_track">1</property>
      <property name="mlt_service">mix</property>
      <property name="start">-1</property>
      <property name="accepts_blanks">1</property>
    </transition>
  </tractor>
  <producer id="producer13" in="00:00:00.000" out="00:00:34.160">
    <property name="length">00:00:34.200</property>
    <property name="eof">pause</property>
    <property name="resource">/Users/div/projects/laghu-sangitamrita/media/Караталы/2 - Видео диск/08 - Дубль кахарва тал/03 - Мантра 1_вариант 2 (Д-Кахарва тал).divx</property>
    <property name="audio_index">1</property>
    <property name="video_index">0</property>
    <property name="mute_on_pause">0</property>
    <property name="mlt_service">avformat-novalidate</property>
    <property name="seekable">1</property>
    <property name="aspect_ratio">1</property>
    <property name="creation_time">2021-02-01T20:33:04</property>
    <property name="global_feed">1</property>
    <property name="xml">was here</property>
    <property name="shotcut:hash">12d29b8fd16090dd42a60de599e529a4</property>
    <property name="shotcut:caption">03 - Мантра 1_вариант 2 (Д-Кахарва тал).divx</property>
  </producer>
  <tractor id="tractor1" global_feed="1" in="00:00:00.000" out="00:00:00.240">
    <property name="shotcut:transition">lumaMix</property>
    <track producer="producer12" in="00:00:26.400" out="00:00:26.640"/>
    <track producer="producer13" in="00:00:00.000" out="00:00:00.240"/>
    <transition id="transition2" out="00:00:00.240">
      <property name="a_track">0</property>
      <property name="b_track">1</property>
      <property name="factory">loader</property>
      <property name="mlt_service">luma</property>
      <property name="alpha_over">1</property>
    </transition>
    <transition id="transition3" out="00:00:00.240">
      <property name="a_track">0</property>
      <property name="b_track">1</property>
      <property name="mlt_service">mix</property>
      <property name="start">-1</property>
      <property name="accepts_blanks">1</property>
    </transition>
  </tractor>
  <producer id="producer14" in="00:00:00.000" out="00:00:18.880">
    <property name="length">00:00:18.920</property>
    <property name="eof">pause</property>
    <property name="resource">/Users/div/projects/laghu-sangitamrita/media/Караталы/2 - Видео диск/08 - Дубль кахарва тал/04 - Мантра 1_вариант 3 (Д-Кахарва тал).divx</property>
    <property name="audio_index">1</property>
    <property name="video_index">0</property>
    <property name="mute_on_pause">0</property>
    <property name="mlt_service">avformat-novalidate</property>
    <property name="seekable">1</property>
    <property name="aspect_ratio">1</property>
    <property name="creation_time">2021-02-01T20:33:16</property>
    <property name="global_feed">1</property>
    <property name="xml">was here</property>
    <property name="shotcut:hash">e9c3b2d3c0a84ca01dccc54cd0ef01ab</property>
    <property name="shotcut:caption">04 - Мантра 1_вариант 3 (Д-Кахарва тал).divx</property>
  </producer>
  <tractor id="tractor2" global_feed="1" in="00:00:00.000" out="00:00:00.400">
    <property name="shotcut:transition">lumaMix</property>
    <track producer="producer13" in="00:00:33.760" out="00:00:34.160"/>
    <track producer="producer14" in="00:00:00.000" out="00:00:00.400"/>
    <transition id="transition4" out="00:00:00.400">
      <property name="a_track">0</property>
      <property name="b_track">1</property>
      <property name="factory">loader</property>
      <property name="mlt_service">luma</property>
      <property name="alpha_over">1</property>
    </transition>
    <transition id="transition5" out="00:00:00.400">
      <property name="a_track">0</property>
      <property name="b_track">1</property>
      <property name="mlt_service">mix</property>
      <property name="start">-1</property>
      <property name="accepts_blanks">1</property>
    </transition>
  </tractor>
  <producer id="producer15" in="00:00:00.000" out="00:01:37.160">
    <property name="length">00:01:37.200</property>
    <property name="eof">pause</property>
    <property name="resource">/Users/div/projects/laghu-sangitamrita/media/Караталы/2 - Видео диск/08 - Дубль кахарва тал/05 - Мантра 1_примеры всех вариантов (Д-Кахарва тал).divx</property>
    <property name="audio_index">1</property>
    <property name="video_index">0</property>
    <property name="mute_on_pause">0</property>
    <property name="mlt_service">avformat-novalidate</property>
    <property name="seekable">1</property>
    <property name="aspect_ratio">1</property>
    <property name="creation_time">2021-02-01T20:33:24</property>
    <property name="global_feed">1</property>
    <property name="xml">was here</property>
    <property name="shotcut:hash">cf54bb4dd9d02f1d0bfcef922e5601eb</property>
    <property name="shotcut:caption">05 - Мантра 1_примеры всех вариантов (Д-Кахарва тал).divx</property>
  </producer>
  <tractor id="tractor3" global_feed="1" in="00:00:00.000" out="00:00:00.360">
    <property name="shotcut:transition">lumaMix</property>
    <track producer="producer14" in="00:00:18.520" out="00:00:18.880"/>
    <track producer="producer15" in="00:00:00.000" out="00:00:00.360"/>
    <transition id="transition6" out="00:00:00.360">
      <property name="a_track">0</property>
      <property name="b_track">1</property>
      <property name="factory">loader</property>
      <property name="mlt_service">luma</property>
      <property name="alpha_over">1</property>
    </transition>
    <transition id="transition7" out="00:00:00.360">
      <property name="a_track">0</property>
      <property name="b_track">1</property>
      <property name="mlt_service">mix</property>
      <property name="start">-1</property>
      <property name="accepts_blanks">1</property>
    </transition>
  </tractor>
  <producer id="producer16" in="00:00:00.000" out="00:00:57.880">
    <property name="length">00:00:57.920</property>
    <property name="eof">pause</property>
    <property name="resource">/Users/div/projects/laghu-sangitamrita/media/Караталы/2 - Видео диск/08 - Дубль кахарва тал/06 - Мантра 2 (Д-Кахарва тал).divx</property>
    <property name="audio_index">1</property>
    <property name="video_index">0</property>
    <property name="mute_on_pause">0</property>
    <property name="mlt_service">avformat-novalidate</property>
    <property name="seekable">1</property>
    <property name="aspect_ratio">1</property>
    <property name="creation_time">2021-02-01T20:33:56</property>
    <property name="global_feed">1</property>
    <property name="xml">was here</property>
    <property name="shotcut:hash">f9c0679e48892f668153871cd2e2284f</property>
    <property name="shotcut:caption">06 - Мантра 2 (Д-Кахарва тал).divx</property>
  </producer>
  <tractor id="tractor4" global_feed="1" in="00:00:00.000" out="00:00:00.160">
    <property name="shotcut:transition">lumaMix</property>
    <track producer="producer15" in="00:01:37.000" out="00:01:37.160"/>
    <track producer="producer16" in="00:00:00.000" out="00:00:00.160"/>
    <transition id="transition8" out="00:00:00.160">
      <property name="a_track">0</property>
      <property name="b_track">1</property>
      <property name="factory">loader</property>
      <property name="mlt_service">luma</property>
      <property name="alpha_over">1</property>
    </transition>
    <transition id="transition9" out="00:00:00.160">
      <property name="a_track">0</property>
      <property name="b_track">1</property>
      <property name="mlt_service">mix</property>
      <property name="start">-1</property>
      <property name="accepts_blanks">1</property>
    </transition>
  </tractor>
  <producer id="producer17" in="00:00:00.000" out="00:01:45.440">
    <property name="length">00:01:45.480</property>
    <property name="eof">pause</property>
    <property name="resource">/Users/div/projects/laghu-sangitamrita/media/Караталы/2 - Видео диск/08 - Дубль кахарва тал/07 - Мантра 3 (Д-Кахарва тал).divx</property>
    <property name="audio_index">1</property>
    <property name="video_index">0</property>
    <property name="mute_on_pause">0</property>
    <property name="mlt_service">avformat-novalidate</property>
    <property name="seekable">1</property>
    <property name="aspect_ratio">1</property>
    <property name="creation_time">2021-02-01T20:34:16</property>
    <property name="global_feed">1</property>
    <property name="xml">was here</property>
    <property name="shotcut:hash">5ab177bd842c69b4a22803802f4b53d9</property>
    <property name="shotcut:caption">07 - Мантра 3 (Д-Кахарва тал).divx</property>
  </producer>
  <tractor id="tractor5" global_feed="1" in="00:00:00.000" out="00:00:00.080">
    <property name="shotcut:transition">lumaMix</property>
    <track producer="producer16" in="00:00:57.800" out="00:00:57.880"/>
    <track producer="producer17" in="00:00:00.000" out="00:00:00.080"/>
    <transition id="transition10" out="00:00:00.080">
      <property name="a_track">0</property>
      <property name="b_track">1</property>
      <property name="factory">loader</property>
      <property name="mlt_service">luma</property>
      <property name="alpha_over">1</property>
    </transition>
    <transition id="transition11" out="00:00:00.080">
      <property name="a_track">0</property>
      <property name="b_track">1</property>
      <property name="mlt_service">mix</property>
      <property name="start">-1</property>
      <property name="accepts_blanks">1</property>
    </transition>
  </tractor>
  <producer id="producer18" in="00:00:00.000" out="00:00:55.160">
    <property name="length">00:00:55.200</property>
    <property name="eof">pause</property>
    <property name="resource">/Users/div/projects/laghu-sangitamrita/media/Караталы/2 - Видео диск/08 - Дубль кахарва тал/08 - Мантра 4 (Д-Кахарва тал).divx</property>
    <property name="audio_index">1</property>
    <property name="video_index">0</property>
    <property name="mute_on_pause">0</property>
    <property name="mlt_service">avformat-novalidate</property>
    <property name="seekable">1</property>
    <property name="aspect_ratio">1</property>
    <property name="creation_time">2021-02-01T20:34:48</property>
    <property name="global_feed">1</property>
    <property name="xml">was here</property>
    <property name="shotcut:hash">ccc7906b74c829300ff637dc8f594379</property>
    <property name="shotcut:caption">08 - Мантра 4 (Д-Кахарва тал).divx</property>
  </producer>
  <tractor id="tractor6" global_feed="1" in="00:00:00.000" out="00:00:00.480">
    <property name="shotcut:transition">lumaMix</property>
    <track producer="producer17" in="00:01:44.960" out="00:01:45.440"/>
    <track producer="producer18" in="00:00:00.000" out="00:00:00.480"/>
    <transition id="transition12" out="00:00:00.480">
      <property name="a_track">0</property>
      <property name="b_track">1</property>
      <property name="factory">loader</property>
      <property name="mlt_service">luma</property>
      <property name="alpha_over">1</property>
    </transition>
    <transition id="transition13" out="00:00:00.480">
      <property name="a_track">0</property>
      <property name="b_track">1</property>
      <property name="mlt_service">mix</property>
      <property name="start">-1</property>
      <property name="accepts_blanks">1</property>
    </transition>
  </tractor>
  <producer id="producer19" in="00:00:00.000" out="00:00:25.960">
    <property name="length">00:00:26.000</property>
    <property name="eof">pause</property>
    <property name="resource">/Users/div/projects/laghu-sangitamrita/media/Караталы/2 - Видео диск/08 - Дубль кахарва тал/09 - Мантра 5 (Д-Кахарва тал).divx</property>
    <property name="audio_index">1</property>
    <property name="video_index">0</property>
    <property name="mute_on_pause">0</property>
    <property name="mlt_service">avformat-novalidate</property>
    <property name="seekable">1</property>
    <property name="aspect_ratio">1</property>
    <property name="creation_time">2021-02-01T20:35:06</property>
    <property name="global_feed">1</property>
    <property name="xml">was here</property>
    <property name="shotcut:hash">0a74bda4123001de3f537eb24026f3a1</property>
    <property name="shotcut:caption">09 - Мантра 5 (Д-Кахарва тал).divx</property>
  </producer>
  <tractor id="tractor7" global_feed="1" in="00:00:00.000" out="00:00:00.120">
    <property name="shotcut:transition">lumaMix</property>
    <track producer="producer18" in="00:00:55.040" out="00:00:55.160"/>
    <track producer="producer19" in="00:00:00.000" out="00:00:00.120"/>
    <transition id="transition14" out="00:00:00.120">
      <property name="a_track">0</property>
      <property name="b_track">1</property>
      <property name="factory">loader</property>
      <property name="mlt_service">luma</property>
      <property name="alpha_over">1</property>
    </transition>
    <transition id="transition15" out="00:00:00.120">
      <property name="a_track">0</property>
      <property name="b_track">1</property>
      <property name="mlt_service">mix</property>
      <property name="start">-1</property>
      <property name="accepts_blanks">1</property>
    </transition>
  </tractor>
  <playlist id="playlist0">
    <property name="shotcut:video">1</property>
    <property name="shotcut:name">V1</property>
    <entry producer="producer11" in="00:00:00.000" out="00:00:10.840"/>
    <entry producer="tractor0" in="00:00:00.000" out="00:00:00.120"/>
    <entry producer="producer12" in="00:00:00.200" out="00:00:26.360"/>
    <entry producer="tractor1" in="00:00:00.000" out="00:00:00.240"/>
    <entry producer="producer13" in="00:00:00.280" out="00:00:33.720"/>
    <entry producer="tractor2" in="00:00:00.000" out="00:00:00.400"/>
    <entry producer="producer14" in="00:00:00.440" out="00:00:18.480"/>
    <entry producer="tractor3" in="00:00:00.000" out="00:00:00.360"/>
    <entry producer="producer15" in="00:00:00.400" out="00:01:36.960"/>
    <entry producer="tractor4" in="00:00:00.000" out="00:00:00.160"/>
    <entry producer="producer16" in="00:00:00.200" out="00:00:57.760"/>
    <entry producer="tractor5" in="00:00:00.000" out="00:00:00.080"/>
    <entry producer="producer17" in="00:00:00.120" out="00:01:44.920"/>
    <entry producer="tractor6" in="00:00:00.000" out="00:00:00.480"/>
    <entry producer="producer18" in="00:00:00.520" out="00:00:55.000"/>
    <entry producer="tractor7" in="00:00:00.000" out="00:00:00.120"/>
    <entry producer="producer19" in="00:00:00.160" out="00:00:25.960"/>
  </playlist>
  <producer id="producer32" in="00:00:00.000" out="03:59:59.960">
    <property name="length">04:00:00.000</property>
    <property name="eof">pause</property>
    <property name="resource">#00000000</property>
    <property name="aspect_ratio">1</property>
    <property name="mlt_service">color</property>
    <property name="mlt_image_format">rgb24a</property>
    <property name="shotcut:caption">transparent</property>
    <property name="shotcut:detail">transparent</property>
    <property name="ignore_points">0</property>
    <property name="global_feed">1</property>
    <property name="xml">was here</property>
    <property name="seekable">1</property>
    <filter id="filter5" out="00:00:01.760">
      <property name="argument">Уроки Игры на Караталах</property>
      <property name="geometry">111 128 498 77 1</property>
      <property name="family">Jost</property>
      <property name="size">32</property>
      <property name="weight">500</property>
      <property name="style">normal</property>
      <property name="fgcolour">#ffffffff</property>
      <property name="bgcolour">#00000000</property>
      <property name="olcolour">#aa000000</property>
      <property name="pad">0</property>
      <property name="halign">center</property>
      <property name="valign">top</property>
      <property name="outline">0</property>
      <property name="mlt_service">dynamictext</property>
      <property name="shotcut:filter">dynamicText</property>
      <property name="shotcut:usePointSize">1</property>
      <property name="shotcut:pointSize">32</property>
      <property name="shotcut:animIn">00:00:00.000</property>
      <property name="shotcut:animOut">00:00:00.000</property>
    </filter>
    <filter id="filter6" out="00:00:01.760">
      <property name="argument">8.  Д−Кахарва Тал</property>
      <property name="geometry">0 153 720 189 1</property>
      <property name="family">Jost</property>
      <property name="size">64</property>
      <property name="weight">750</property>
      <property name="style">normal</property>
      <property name="fgcolour">#ffffffff</property>
      <property name="bgcolour">#00000000</property>
      <property name="olcolour">#aa000000</property>
      <property name="pad">0</property>
      <property name="halign">center</property>
      <property name="valign">middle</property>
      <property name="outline">0</property>
      <property name="mlt_service">dynamictext</property>
      <property name="shotcut:filter">dynamicText</property>
      <property name="shotcut:usePointSize">1</property>
      <property name="shotcut:animIn">00:00:00.000</property>
      <property name="shotcut:animOut">00:00:00.000</property>
      <property name="shotcut:pointSize">64</property>
    </filter>
    <filter id="filter3" out="00:00:01.760">
      <property name="argument">* Дубль кахарва</property>
      <property name="geometry">185 261 349 94 1</property>
      <property name="family">Jost</property>
      <property name="size">48</property>
      <property name="weight">630</property>
      <property name="style">italic</property>
      <property name="fgcolour">#ffffffff</property>
      <property name="bgcolour">#00000000</property>
      <property name="olcolour">#aa000000</property>
      <property name="pad">0</property>
      <property name="halign">center</property>
      <property name="valign">bottom</property>
      <property name="outline">0</property>
      <property name="mlt_service">dynamictext</property>
      <property name="shotcut:filter">dynamicText</property>
      <property name="shotcut:usePointSize">1</property>
      <property name="shotcut:animIn">00:00:00.000</property>
      <property name="shotcut:animOut">00:00:00.000</property>
      <property name="shotcut:pointSize">48</property>
      <property name="disable">0</property>
    </filter>
    <filter id="filter7" out="00:00:01.760">
      <property name="argument">Размер 4/4</property>
      <property name="geometry">-1 338 721 171 1</property>
      <property name="family">Jost</property>
      <property name="size">48</property>
      <property name="weight">570</property>
      <property name="style">normal</property>
      <property name="fgcolour">#ffffffff</property>
      <property name="bgcolour">#00000000</property>
      <property name="olcolour">#aaffffff</property>
      <property name="pad">0</property>
      <property name="halign">center</property>
      <property name="valign">middle</property>
      <property name="outline">0</property>
      <property name="mlt_service">dynamictext</property>
      <property name="shotcut:filter">dynamicText</property>
      <property name="shotcut:usePointSize">1</property>
      <property name="shotcut:animIn">00:00:00.000</property>
      <property name="shotcut:animOut">00:00:00.000</property>
      <property name="shotcut:pointSize">48</property>
      <property name="disable">0</property>
    </filter>
    <filter id="filter8" out="00:00:01.760">
      <property name="start">1</property>
      <property name="level">1</property>
      <property name="mlt_service">brightness</property>
      <property name="shotcut:filter">fadeOutBrightness</property>
      <property name="alpha">00:00:01.120=1;00:00:01.760=0</property>
      <property name="shotcut:animOut">00:00:00.680</property>
    </filter>
    <filter id="filter10" out="00:00:01.760">
      <property name="background">color:#00000000</property>
      <property name="mlt_service">affine</property>
      <property name="shotcut:filter">affineSizePosition</property>
      <property name="transition.fill">1</property>
      <property name="transition.distort">0</property>
      <property name="transition.rect">00:00:00.000=0 0 720 540 1;00:00:00.560=-5.04 -4 730.08 548 1;00:00:01.760=0 0 720 540 1</property>
      <property name="transition.valign">middle</property>
      <property name="transition.halign">center</property>
      <property name="shotcut:animIn">00:00:01.120</property>
      <property name="shotcut:animOut">00:00:01.240</property>
      <property name="transition.threads">0</property>
      <property name="transition.fix_rotate_x">00:00:00.000=0;00:00:00.560=0;00:00:01.760=0</property>
    </filter>
    <filter id="filter4" out="00:00:01.760">
      <property name="start">1</property>
      <property name="hori">00:00:00.000=5.18636;00:00:00.760=0</property>
      <property name="vert">00:00:00.000=6.98458;00:00:00.600=0</property>
      <property name="mlt_service">boxblur</property>
      <property name="shotcut:animIn">00:00:00.000</property>
      <property name="shotcut:animOut">00:00:00.000</property>
    </filter>
    <filter id="filter9" out="00:00:01.760">
      <property name="version">0.2</property>
      <property name="mlt_service">frei0r.premultiply</property>
      <property name="threads">0</property>
      <property name="0">1</property>
    </filter>
    <filter id="filter0" out="00:00:01.760">
      <property name="start">1</property>
      <property name="level">1</property>
      <property name="mlt_service">brightness</property>
      <property name="shotcut:filter">fadeInBrightness</property>
      <property name="alpha">00:00:00.000=0;00:00:00.320=1</property>
      <property name="shotcut:animIn">00:00:00.360</property>
    </filter>
  </producer>
  <playlist id="playlist1">
    <property name="shotcut:video">1</property>
    <property name="shotcut:name">V2</property>
    <blank length="00:00:00.880"/>
    <entry producer="producer32" in="00:00:00.000" out="00:00:01.760"/>
  </playlist>
  <producer id="producer33" in="00:00:00.000" out="03:59:59.960">
    <property name="length">04:00:00.000</property>
    <property name="eof">pause</property>
    <property name="resource">#00000000</property>
    <property name="aspect_ratio">1</property>
    <property name="mlt_service">color</property>
    <property name="mlt_image_format">rgb24a</property>
    <property name="shotcut:caption">transparent</property>
    <property name="shotcut:detail">transparent</property>
    <property name="ignore_points">0</property>
    <property name="global_feed">1</property>
    <property name="xml">was here</property>
    <property name="seekable">1</property>
    <filter id="filter11" out="00:00:01.480">
      <property name="argument">Мантра 1.</property>
      <property name="geometry">19 426 389 79 1</property>
      <property name="family">Jost</property>
      <property name="size">48</property>
      <property name="weight">750</property>
      <property name="style">normal</property>
      <property name="fgcolour">#ffffffff</property>
      <property name="bgcolour">#00000000</property>
      <property name="olcolour">#aa000000</property>
      <property name="pad">0</property>
      <property name="halign">center</property>
      <property name="valign">middle</property>
      <property name="outline">0</property>
      <property name="mlt_service">dynamictext</property>
      <property name="shotcut:filter">dynamicText</property>
      <property name="shotcut:usePointSize">1</property>
      <property name="shotcut:animIn">00:00:00.000</property>
      <property name="shotcut:animOut">00:00:00.000</property>
      <property name="shotcut:pointSize">48</property>
    </filter>
    <filter id="filter12" out="00:00:01.480">
      <property name="argument">Тихая техника</property>
      <property name="geometry">244 430 476 72 1</property>
      <property name="family">Jost</property>
      <property name="size">48</property>
      <property name="weight">500</property>
      <property name="style">normal</property>
      <property name="fgcolour">#ffffffff</property>
      <property name="bgcolour">#00000000</property>
      <property name="olcolour">#aa000000</property>
      <property name="pad">0</property>
      <property name="halign">center</property>
      <property name="valign">middle</property>
      <property name="outline">0</property>
      <property name="mlt_service">dynamictext</property>
      <property name="shotcut:filter">dynamicText</property>
      <property name="shotcut:usePointSize">1</property>
      <property name="shotcut:animIn">00:00:00.000</property>
      <property name="shotcut:animOut">00:00:00.000</property>
      <property name="shotcut:pointSize">48</property>
      <property name="disable">0</property>
    </filter>
    <filter id="filter13" out="00:00:01.480">
      <property name="start">1</property>
      <property name="level">1</property>
      <property name="mlt_service">brightness</property>
      <property name="shotcut:filter">fadeOutBrightness</property>
      <property name="alpha">00:00:01.080=1;00:00:01.480=0</property>
      <property name="shotcut:animOut">00:00:00.440</property>
    </filter>
    <filter id="filter14" out="00:00:01.480">
      <property name="start">1</property>
      <property name="level">1</property>
      <property name="mlt_service">brightness</property>
      <property name="shotcut:filter">fadeInBrightness</property>
      <property name="alpha">00:00:00.000=0;00:00:00.480=1</property>
      <property name="shotcut:animIn">00:00:00.520</property>
    </filter>
    <filter id="filter15" out="00:00:01.480">
      <property name="background">color:#00000000</property>
      <property name="mlt_service">affine</property>
      <property name="shotcut:filter">affineSizePosition</property>
      <property name="transition.fill">1</property>
      <property name="transition.distort">0</property>
      <property name="transition.rect">00:00:00.000=0 0 720 540 1;00:00:00.280=-5.04 -4 730.08 548 1;00:00:01.480=0 0 720 540 1</property>
      <property name="transition.valign">middle</property>
      <property name="transition.halign">center</property>
      <property name="shotcut:animIn">00:00:01.120</property>
      <property name="shotcut:animOut">00:00:01.240</property>
      <property name="transition.threads">0</property>
      <property name="transition.fix_rotate_x">00:00:00.000=0;00:00:00.280=0;00:00:01.480=0</property>
    </filter>
  </producer>
  <producer id="producer20" in="00:00:00.000" out="03:59:59.960">
    <property name="length">04:00:00.000</property>
    <property name="eof">pause</property>
    <property name="resource">#00000000</property>
    <property name="aspect_ratio">1</property>
    <property name="mlt_service">color</property>
    <property name="mlt_image_format">rgb24a</property>
    <property name="shotcut:caption">transparent</property>
    <property name="shotcut:detail">transparent</property>
    <property name="ignore_points">0</property>
    <property name="global_feed">1</property>
    <property name="xml">was here</property>
    <property name="seekable">1</property>
    <filter id="filter16" out="00:00:03.440">
      <property name="argument">Мантра 1</property>
      <property name="geometry">0 297 720 184 1</property>
      <property name="family">Jost</property>
      <property name="size">48</property>
      <property name="weight">750</property>
      <property name="style">normal</property>
      <property name="fgcolour">#ffffffff</property>
      <property name="bgcolour">#00000000</property>
      <property name="olcolour">#aa000000</property>
      <property name="pad">0</property>
      <property name="halign">center</property>
      <property name="valign">middle</property>
      <property name="outline">0</property>
      <property name="mlt_service">dynamictext</property>
      <property name="shotcut:filter">dynamicText</property>
      <property name="shotcut:usePointSize">1</property>
      <property name="shotcut:animIn">00:00:00.000</property>
      <property name="shotcut:animOut">00:00:00.000</property>
      <property name="shotcut:pointSize">48</property>
      <property name="disable">1</property>
    </filter>
    <filter id="filter17" out="00:00:03.440">
      <property name="argument">та теке та теке | та теке та теке</property>
      <property name="geometry">72 432 576 72 1</property>
      <property name="family">Jost</property>
      <property name="size">48</property>
      <property name="weight">500</property>
      <property name="style">normal</property>
      <property name="fgcolour">#ffffffff</property>
      <property name="bgcolour">#00000000</property>
      <property name="olcolour">#aa000000</property>
      <property name="pad">0</property>
      <property name="halign">center</property>
      <property name="valign">middle</property>
      <property name="outline">0</property>
      <property name="mlt_service">dynamictext</property>
      <property name="shotcut:filter">dynamicText</property>
      <property name="shotcut:usePointSize">1</property>
      <property name="shotcut:animIn">00:00:00.000</property>
      <property name="shotcut:animOut">00:00:00.000</property>
      <property name="shotcut:pointSize">48</property>
      <property name="disable">0</property>
    </filter>
    <filter id="filter18" out="00:00:03.440">
      <property name="start">1</property>
      <property name="level">1</property>
      <property name="mlt_service">brightness</property>
      <property name="shotcut:filter">fadeOutBrightness</property>
      <property name="alpha">00:00:02.480=1;00:00:03.440=0</property>
      <property name="shotcut:animOut">00:00:01.000</property>
    </filter>
    <filter id="filter19" out="00:00:03.440">
      <property name="start">1</property>
      <property name="level">1</property>
      <property name="mlt_service">brightness</property>
      <property name="shotcut:filter">fadeInBrightness</property>
      <property name="alpha">00:00:00.000=0;00:00:00.280=1</property>
      <property name="shotcut:animIn">00:00:00.320</property>
    </filter>
    <filter id="filter20" out="00:00:03.440">
      <property name="background">color:#00000000</property>
      <property name="mlt_service">affine</property>
      <property name="shotcut:filter">affineSizePosition</property>
      <property name="transition.fill">1</property>
      <property name="transition.distort">0</property>
      <property name="transition.rect">00:00:00.000=0 0 720 540 1;00:00:04.160=-5.04 -4 730.08 548 1;00:00:05.360=0 0 720 540 1</property>
      <property name="transition.valign">middle</property>
      <property name="transition.halign">center</property>
      <property name="shotcut:animIn">00:00:01.120</property>
      <property name="shotcut:animOut">00:00:01.240</property>
      <property name="transition.threads">0</property>
      <property name="transition.fix_rotate_x">00:00:00.000=0;00:00:04.160=0;00:00:05.360=0</property>
    </filter>
  </producer>
  <producer id="producer21" in="00:00:00.000" out="03:59:59.960">
    <property name="length">04:00:00.000</property>
    <property name="eof">pause</property>
    <property name="resource">#00000000</property>
    <property name="aspect_ratio">1</property>
    <property name="mlt_service">color</property>
    <property name="mlt_image_format">rgb24a</property>
    <property name="shotcut:caption">transparent</property>
    <property name="shotcut:detail">transparent</property>
    <property name="ignore_points">0</property>
    <property name="global_feed">1</property>
    <property name="xml">was here</property>
    <property name="seekable">1</property>
    <filter id="filter21" out="00:00:01.480">
      <property name="argument">Мантра 1.</property>
      <property name="geometry">72 432 201 73 1</property>
      <property name="family">Jost</property>
      <property name="size">48</property>
      <property name="weight">750</property>
      <property name="style">normal</property>
      <property name="fgcolour">#ffffffff</property>
      <property name="bgcolour">#00000000</property>
      <property name="olcolour">#aa000000</property>
      <property name="pad">0</property>
      <property name="halign">center</property>
      <property name="valign">middle</property>
      <property name="outline">0</property>
      <property name="mlt_service">dynamictext</property>
      <property name="shotcut:filter">dynamicText</property>
      <property name="shotcut:usePointSize">1</property>
      <property name="shotcut:animIn">00:00:00.000</property>
      <property name="shotcut:animOut">00:00:00.000</property>
      <property name="shotcut:pointSize">48</property>
    </filter>
    <filter id="filter22" out="00:00:01.480">
      <property name="argument">Смешанная техника</property>
      <property name="geometry">294 428 354 83 1</property>
      <property name="family">Jost</property>
      <property name="size">48</property>
      <property name="weight">500</property>
      <property name="style">normal</property>
      <property name="fgcolour">#ffffffff</property>
      <property name="bgcolour">#00000000</property>
      <property name="olcolour">#aa000000</property>
      <property name="pad">0</property>
      <property name="halign">center</property>
      <property name="valign">middle</property>
      <property name="outline">0</property>
      <property name="mlt_service">dynamictext</property>
      <property name="shotcut:filter">dynamicText</property>
      <property name="shotcut:usePointSize">1</property>
      <property name="shotcut:animIn">00:00:00.000</property>
      <property name="shotcut:animOut">00:00:00.000</property>
      <property name="shotcut:pointSize">48</property>
      <property name="disable">0</property>
    </filter>
    <filter id="filter23" out="00:00:01.480">
      <property name="start">1</property>
      <property name="level">1</property>
      <property name="mlt_service">brightness</property>
      <property name="shotcut:filter">fadeOutBrightness</property>
      <property name="alpha">00:00:01.080=1;00:00:01.480=0</property>
      <property name="shotcut:animOut">00:00:00.440</property>
    </filter>
    <filter id="filter24" out="00:00:01.480">
      <property name="start">1</property>
      <property name="level">1</property>
      <property name="mlt_service">brightness</property>
      <property name="shotcut:filter">fadeInBrightness</property>
      <property name="alpha">00:00:00.000=0;00:00:00.480=1</property>
      <property name="shotcut:animIn">00:00:00.520</property>
    </filter>
    <filter id="filter25" out="00:00:01.480">
      <property name="background">color:#00000000</property>
      <property name="mlt_service">affine</property>
      <property name="shotcut:filter">affineSizePosition</property>
      <property name="transition.fill">1</property>
      <property name="transition.distort">0</property>
      <property name="transition.rect">00:00:00.000=0 0 720 540 1;00:00:00.280=-5.04 -4 730.08 548 1;00:00:01.480=0 0 720 540 1</property>
      <property name="transition.valign">middle</property>
      <property name="transition.halign">center</property>
      <property name="shotcut:animIn">00:00:01.120</property>
      <property name="shotcut:animOut">00:00:01.240</property>
      <property name="transition.threads">0</property>
      <property name="transition.fix_rotate_x">00:00:00.000=0;00:00:00.280=0;00:00:01.480=0</property>
    </filter>
  </producer>
  <producer id="producer22" in="00:00:00.000" out="03:59:59.960">
    <property name="length">04:00:00.000</property>
    <property name="eof">pause</property>
    <property name="resource">#00000000</property>
    <property name="aspect_ratio">1</property>
    <property name="mlt_service">color</property>
    <property name="mlt_image_format">rgb24a</property>
    <property name="shotcut:caption">transparent</property>
    <property name="shotcut:detail">transparent</property>
    <property name="ignore_points">0</property>
    <property name="global_feed">1</property>
    <property name="xml">was here</property>
    <property name="seekable">1</property>
    <filter id="filter26" out="00:00:03.440">
      <property name="argument">Мантра 1</property>
      <property name="geometry">0 297 720 184 1</property>
      <property name="family">Jost</property>
      <property name="size">48</property>
      <property name="weight">750</property>
      <property name="style">normal</property>
      <property name="fgcolour">#ffffffff</property>
      <property name="bgcolour">#00000000</property>
      <property name="olcolour">#aa000000</property>
      <property name="pad">0</property>
      <property name="halign">center</property>
      <property name="valign">middle</property>
      <property name="outline">0</property>
      <property name="mlt_service">dynamictext</property>
      <property name="shotcut:filter">dynamicText</property>
      <property name="shotcut:usePointSize">1</property>
      <property name="shotcut:animIn">00:00:00.000</property>
      <property name="shotcut:animOut">00:00:00.000</property>
      <property name="shotcut:pointSize">48</property>
      <property name="disable">1</property>
    </filter>
    <filter id="filter27" out="00:00:03.440">
      <property name="argument">Тек теке Тек теке | Тек теке Тек теке</property>
      <property name="geometry">72 430 576 83 1</property>
      <property name="family">Jost</property>
      <property name="size">48</property>
      <property name="weight">500</property>
      <property name="style">normal</property>
      <property name="fgcolour">#ffffffff</property>
      <property name="bgcolour">#00000000</property>
      <property name="olcolour">#aa000000</property>
      <property name="pad">0</property>
      <property name="halign">center</property>
      <property name="valign">middle</property>
      <property name="outline">0</property>
      <property name="mlt_service">dynamictext</property>
      <property name="shotcut:filter">dynamicText</property>
      <property name="shotcut:usePointSize">1</property>
      <property name="shotcut:animIn">00:00:00.000</property>
      <property name="shotcut:animOut">00:00:00.000</property>
      <property name="shotcut:pointSize">48</property>
      <property name="disable">0</property>
    </filter>
    <filter id="filter28" out="00:00:03.440">
      <property name="start">1</property>
      <property name="level">1</property>
      <property name="mlt_service">brightness</property>
      <property name="shotcut:filter">fadeOutBrightness</property>
      <property name="alpha">00:00:02.480=1;00:00:03.440=0</property>
      <property name="shotcut:animOut">00:00:01.000</property>
    </filter>
    <filter id="filter29" out="00:00:03.440">
      <property name="start">1</property>
      <property name="level">1</property>
      <property name="mlt_service">brightness</property>
      <property name="shotcut:filter">fadeInBrightness</property>
      <property name="alpha">00:00:00.000=0;00:00:00.280=1</property>
      <property name="shotcut:animIn">00:00:00.320</property>
    </filter>
    <filter id="filter30" out="00:00:03.440">
      <property name="background">color:#00000000</property>
      <property name="mlt_service">affine</property>
      <property name="shotcut:filter">affineSizePosition</property>
      <property name="transition.fill">1</property>
      <property name="transition.distort">0</property>
      <property name="transition.rect">00:00:00.000=0 0 720 540 1;00:00:04.160=-5.04 -4 730.08 548 1;00:00:05.360=0 0 720 540 1</property>
      <property name="transition.valign">middle</property>
      <property name="transition.halign">center</property>
      <property name="shotcut:animIn">00:00:01.120</property>
      <property name="shotcut:animOut">00:00:01.240</property>
      <property name="transition.threads">0</property>
      <property name="transition.fix_rotate_x">00:00:00.000=0;00:00:04.160=0;00:00:05.360=0</property>
    </filter>
  </producer>
  <tractor id="tractor8" global_feed="1" in="00:00:00.000" out="00:00:00.000">
    <property name="shotcut:transition">lumaMix</property>
    <track producer="producer21" in="00:00:01.480" out="00:00:01.480"/>
    <track producer="producer22" in="00:00:00.000" out="00:00:00.000"/>
    <transition id="transition16">
      <property name="a_track">0</property>
      <property name="b_track">1</property>
      <property name="factory">loader</property>
      <property name="mlt_service">luma</property>
      <property name="alpha_over">1</property>
    </transition>
    <transition id="transition17">
      <property name="a_track">0</property>
      <property name="b_track">1</property>
      <property name="mlt_service">mix</property>
      <property name="start">-1</property>
      <property name="accepts_blanks">1</property>
    </transition>
  </tractor>
  <producer id="producer23" in="00:00:00.000" out="03:59:59.960">
    <property name="length">04:00:00.000</property>
    <property name="eof">pause</property>
    <property name="resource">#00000000</property>
    <property name="aspect_ratio">1</property>
    <property name="mlt_service">color</property>
    <property name="mlt_image_format">rgb24a</property>
    <property name="shotcut:caption">transparent</property>
    <property name="shotcut:detail">transparent</property>
    <property name="ignore_points">0</property>
    <property name="global_feed">1</property>
    <property name="xml">was here</property>
    <property name="seekable">1</property>
    <filter id="filter31" out="00:00:02.040">
      <property name="argument">Мантра 1.</property>
      <property name="geometry">-6 426 389 79 1</property>
      <property name="family">Jost</property>
      <property name="size">48</property>
      <property name="weight">750</property>
      <property name="style">normal</property>
      <property name="fgcolour">#ffffffff</property>
      <property name="bgcolour">#00000000</property>
      <property name="olcolour">#aa000000</property>
      <property name="pad">0</property>
      <property name="halign">center</property>
      <property name="valign">middle</property>
      <property name="outline">0</property>
      <property name="mlt_service">dynamictext</property>
      <property name="shotcut:filter">dynamicText</property>
      <property name="shotcut:usePointSize">1</property>
      <property name="shotcut:animIn">00:00:00.000</property>
      <property name="shotcut:animOut">00:00:00.000</property>
      <property name="shotcut:pointSize">48</property>
    </filter>
    <filter id="filter32" out="00:00:02.040">
      <property name="argument">Громкая техника</property>
      <property name="geometry">244 430 476 72 1</property>
      <property name="family">Jost</property>
      <property name="size">48</property>
      <property name="weight">500</property>
      <property name="style">normal</property>
      <property name="fgcolour">#ffffffff</property>
      <property name="bgcolour">#00000000</property>
      <property name="olcolour">#aa000000</property>
      <property name="pad">0</property>
      <property name="halign">center</property>
      <property name="valign">middle</property>
      <property name="outline">0</property>
      <property name="mlt_service">dynamictext</property>
      <property name="shotcut:filter">dynamicText</property>
      <property name="shotcut:usePointSize">1</property>
      <property name="shotcut:animIn">00:00:00.000</property>
      <property name="shotcut:animOut">00:00:00.000</property>
      <property name="shotcut:pointSize">48</property>
      <property name="disable">0</property>
    </filter>
    <filter id="filter33" out="00:00:02.040">
      <property name="start">1</property>
      <property name="level">1</property>
      <property name="mlt_service">brightness</property>
      <property name="shotcut:filter">fadeOutBrightness</property>
      <property name="alpha">00:00:01.640=1;00:00:02.040=0</property>
      <property name="shotcut:animOut">00:00:00.440</property>
    </filter>
    <filter id="filter34" out="00:00:02.040">
      <property name="start">1</property>
      <property name="level">1</property>
      <property name="mlt_service">brightness</property>
      <property name="shotcut:filter">fadeInBrightness</property>
      <property name="alpha">00:00:00.000=0;00:00:00.480=1</property>
      <property name="shotcut:animIn">00:00:00.520</property>
    </filter>
    <filter id="filter35" out="00:00:02.040">
      <property name="background">color:#00000000</property>
      <property name="mlt_service">affine</property>
      <property name="shotcut:filter">affineSizePosition</property>
      <property name="transition.fill">1</property>
      <property name="transition.distort">0</property>
      <property name="transition.rect">00:00:00.000=0 0 720 540 1;00:00:00.280=-5.04 -4 730.08 548 1;00:00:01.480=0 0 720 540 1</property>
      <property name="transition.valign">middle</property>
      <property name="transition.halign">center</property>
      <property name="shotcut:animIn">00:00:01.120</property>
      <property name="shotcut:animOut">00:00:01.240</property>
      <property name="transition.threads">0</property>
      <property name="transition.fix_rotate_x">00:00:00.000=0;00:00:00.280=0;00:00:01.480=0</property>
    </filter>
  </producer>
  <producer id="producer24" in="00:00:00.000" out="03:59:59.960">
    <property name="length">04:00:00.000</property>
    <property name="eof">pause</property>
    <property name="resource">#00000000</property>
    <property name="aspect_ratio">1</property>
    <property name="mlt_service">color</property>
    <property name="mlt_image_format">rgb24a</property>
    <property name="shotcut:caption">transparent</property>
    <property name="shotcut:detail">transparent</property>
    <property name="ignore_points">0</property>
    <property name="global_feed">1</property>
    <property name="xml">was here</property>
    <property name="seekable">1</property>
    <filter id="filter36" out="00:00:03.440">
      <property name="argument">Мантра 1</property>
      <property name="geometry">0 297 720 184 1</property>
      <property name="family">Jost</property>
      <property name="size">48</property>
      <property name="weight">750</property>
      <property name="style">normal</property>
      <property name="fgcolour">#ffffffff</property>
      <property name="bgcolour">#00000000</property>
      <property name="olcolour">#aa000000</property>
      <property name="pad">0</property>
      <property name="halign">center</property>
      <property name="valign">middle</property>
      <property name="outline">0</property>
      <property name="mlt_service">dynamictext</property>
      <property name="shotcut:filter">dynamicText</property>
      <property name="shotcut:usePointSize">1</property>
      <property name="shotcut:animIn">00:00:00.000</property>
      <property name="shotcut:animOut">00:00:00.000</property>
      <property name="shotcut:pointSize">48</property>
      <property name="disable">1</property>
    </filter>
    <filter id="filter37" out="00:00:03.440">
      <property name="argument">Тек РиТи Тек РиТи | Тек РиТи Тек РиТи</property>
      <property name="geometry">72 430 576 83 1</property>
      <property name="family">Jost</property>
      <property name="size">48</property>
      <property name="weight">500</property>
      <property name="style">normal</property>
      <property name="fgcolour">#ffffffff</property>
      <property name="bgcolour">#00000000</property>
      <property name="olcolour">#aa000000</property>
      <property name="pad">0</property>
      <property name="halign">center</property>
      <property name="valign">middle</property>
      <property name="outline">0</property>
      <property name="mlt_service">dynamictext</property>
      <property name="shotcut:filter">dynamicText</property>
      <property name="shotcut:usePointSize">1</property>
      <property name="shotcut:animIn">00:00:00.000</property>
      <property name="shotcut:animOut">00:00:00.000</property>
      <property name="shotcut:pointSize">48</property>
      <property name="disable">0</property>
    </filter>
    <filter id="filter38" out="00:00:03.440">
      <property name="start">1</property>
      <property name="level">1</property>
      <property name="mlt_service">brightness</property>
      <property name="shotcut:filter">fadeOutBrightness</property>
      <property name="alpha">00:00:02.480=1;00:00:03.440=0</property>
      <property name="shotcut:animOut">00:00:01.000</property>
    </filter>
    <filter id="filter39" out="00:00:03.440">
      <property name="start">1</property>
      <property name="level">1</property>
      <property name="mlt_service">brightness</property>
      <property name="shotcut:filter">fadeInBrightness</property>
      <property name="alpha">00:00:00.000=0;00:00:00.280=1</property>
      <property name="shotcut:animIn">00:00:00.320</property>
    </filter>
    <filter id="filter40" out="00:00:03.440">
      <property name="background">color:#00000000</property>
      <property name="mlt_service">affine</property>
      <property name="shotcut:filter">affineSizePosition</property>
      <property name="transition.fill">1</property>
      <property name="transition.distort">0</property>
      <property name="transition.rect">00:00:00.000=0 0 720 540 1;00:00:04.160=-5.04 -4 730.08 548 1;00:00:05.360=0 0 720 540 1</property>
      <property name="transition.valign">middle</property>
      <property name="transition.halign">center</property>
      <property name="shotcut:animIn">00:00:01.120</property>
      <property name="shotcut:animOut">00:00:01.240</property>
      <property name="transition.threads">0</property>
      <property name="transition.fix_rotate_x">00:00:00.000=0;00:00:04.160=0;00:00:05.360=0</property>
    </filter>
  </producer>
  <producer id="producer25" in="00:00:00.000" out="03:59:59.960">
    <property name="length">04:00:00.000</property>
    <property name="eof">pause</property>
    <property name="resource">#00000000</property>
    <property name="aspect_ratio">1</property>
    <property name="mlt_service">color</property>
    <property name="mlt_image_format">rgb24a</property>
    <property name="shotcut:caption">transparent</property>
    <property name="shotcut:detail">transparent</property>
    <property name="ignore_points">0</property>
    <property name="global_feed">1</property>
    <property name="xml">was here</property>
    <property name="seekable">1</property>
    <filter id="filter41" out="00:00:03.520">
      <property name="argument">Мантра 1.</property>
      <property name="geometry">72 426 209 78 1</property>
      <property name="family">Jost</property>
      <property name="size">48</property>
      <property name="weight">750</property>
      <property name="style">normal</property>
      <property name="fgcolour">#ffffffff</property>
      <property name="bgcolour">#00000000</property>
      <property name="olcolour">#aa000000</property>
      <property name="pad">0</property>
      <property name="halign">center</property>
      <property name="valign">middle</property>
      <property name="outline">0</property>
      <property name="mlt_service">dynamictext</property>
      <property name="shotcut:filter">dynamicText</property>
      <property name="shotcut:usePointSize">1</property>
      <property name="shotcut:animIn">00:00:00.000</property>
      <property name="shotcut:animOut">00:00:00.000</property>
      <property name="shotcut:pointSize">48</property>
    </filter>
    <filter id="filter42" out="00:00:03.520">
      <property name="argument">Громкая техника 2</property>
      <property name="geometry">301 431 347 71 1</property>
      <property name="family">Jost</property>
      <property name="size">48</property>
      <property name="weight">500</property>
      <property name="style">normal</property>
      <property name="fgcolour">#ffffffff</property>
      <property name="bgcolour">#00000000</property>
      <property name="olcolour">#aa000000</property>
      <property name="pad">0</property>
      <property name="halign">center</property>
      <property name="valign">middle</property>
      <property name="outline">0</property>
      <property name="mlt_service">dynamictext</property>
      <property name="shotcut:filter">dynamicText</property>
      <property name="shotcut:usePointSize">1</property>
      <property name="shotcut:animIn">00:00:00.000</property>
      <property name="shotcut:animOut">00:00:00.000</property>
      <property name="shotcut:pointSize">48</property>
      <property name="disable">0</property>
    </filter>
    <filter id="filter43" out="00:00:03.520">
      <property name="start">1</property>
      <property name="level">1</property>
      <property name="mlt_service">brightness</property>
      <property name="shotcut:filter">fadeOutBrightness</property>
      <property name="alpha">00:00:03.120=1;00:00:03.520=0</property>
      <property name="shotcut:animOut">00:00:00.440</property>
    </filter>
    <filter id="filter44" out="00:00:03.520">
      <property name="start">1</property>
      <property name="level">1</property>
      <property name="mlt_service">brightness</property>
      <property name="shotcut:filter">fadeInBrightness</property>
      <property name="alpha">00:00:00.000=0;00:00:00.480=1</property>
      <property name="shotcut:animIn">00:00:00.520</property>
    </filter>
    <filter id="filter45" out="00:00:03.520">
      <property name="background">color:#00000000</property>
      <property name="mlt_service">affine</property>
      <property name="shotcut:filter">affineSizePosition</property>
      <property name="transition.fill">1</property>
      <property name="transition.distort">0</property>
      <property name="transition.rect">00:00:00.000=0 0 720 540 1;00:00:02.320=-5.04 -4 730.08 548 1;00:00:03.520=0 0 720 540 1</property>
      <property name="transition.valign">middle</property>
      <property name="transition.halign">center</property>
      <property name="shotcut:animIn">00:00:01.120</property>
      <property name="shotcut:animOut">00:00:01.240</property>
      <property name="transition.threads">0</property>
      <property name="transition.fix_rotate_x">00:00:00.000=0;00:00:02.320=0;00:00:03.520=0</property>
    </filter>
  </producer>
  <producer id="producer26" in="00:00:00.000" out="03:59:59.960">
    <property name="length">04:00:00.000</property>
    <property name="eof">pause</property>
    <property name="resource">#00000000</property>
    <property name="aspect_ratio">1</property>
    <property name="mlt_service">color</property>
    <property name="mlt_image_format">rgb24a</property>
    <property name="shotcut:caption">transparent</property>
    <property name="shotcut:detail">transparent</property>
    <property name="ignore_points">0</property>
    <property name="global_feed">1</property>
    <property name="xml">was here</property>
    <property name="seekable">1</property>
    <filter id="filter46" out="00:00:03.440">
      <property name="argument">Мантра 1</property>
      <property name="geometry">0 297 720 184 1</property>
      <property name="family">Jost</property>
      <property name="size">48</property>
      <property name="weight">750</property>
      <property name="style">normal</property>
      <property name="fgcolour">#ffffffff</property>
      <property name="bgcolour">#00000000</property>
      <property name="olcolour">#aa000000</property>
      <property name="pad">0</property>
      <property name="halign">center</property>
      <property name="valign">middle</property>
      <property name="outline">0</property>
      <property name="mlt_service">dynamictext</property>
      <property name="shotcut:filter">dynamicText</property>
      <property name="shotcut:usePointSize">1</property>
      <property name="shotcut:animIn">00:00:00.000</property>
      <property name="shotcut:animOut">00:00:00.000</property>
      <property name="shotcut:pointSize">48</property>
      <property name="disable">1</property>
    </filter>
    <filter id="filter47" out="00:00:03.440">
      <property name="argument">Тек ДиНи Тек ДиНи | Тек ДиНи Тек ДиНи</property>
      <property name="geometry">36 430 648 83 1</property>
      <property name="family">Jost</property>
      <property name="size">48</property>
      <property name="weight">500</property>
      <property name="style">normal</property>
      <property name="fgcolour">#ffffffff</property>
      <property name="bgcolour">#00000000</property>
      <property name="olcolour">#aa000000</property>
      <property name="pad">0</property>
      <property name="halign">center</property>
      <property name="valign">middle</property>
      <property name="outline">0</property>
      <property name="mlt_service">dynamictext</property>
      <property name="shotcut:filter">dynamicText</property>
      <property name="shotcut:usePointSize">1</property>
      <property name="shotcut:animIn">00:00:00.000</property>
      <property name="shotcut:animOut">00:00:00.000</property>
      <property name="shotcut:pointSize">48</property>
      <property name="disable">0</property>
    </filter>
    <filter id="filter48" out="00:00:03.440">
      <property name="start">1</property>
      <property name="level">1</property>
      <property name="mlt_service">brightness</property>
      <property name="shotcut:filter">fadeOutBrightness</property>
      <property name="alpha">00:00:02.480=1;00:00:03.440=0</property>
      <property name="shotcut:animOut">00:00:01.000</property>
    </filter>
    <filter id="filter49" out="00:00:03.440">
      <property name="start">1</property>
      <property name="level">1</property>
      <property name="mlt_service">brightness</property>
      <property name="shotcut:filter">fadeInBrightness</property>
      <property name="alpha">00:00:00.000=0;00:00:00.280=1</property>
      <property name="shotcut:animIn">00:00:00.320</property>
    </filter>
    <filter id="filter50" out="00:00:03.440">
      <property name="background">color:#00000000</property>
      <property name="mlt_service">affine</property>
      <property name="shotcut:filter">affineSizePosition</property>
      <property name="transition.fill">1</property>
      <property name="transition.distort">0</property>
      <property name="transition.rect">00:00:00.000=0 0 720 540 1;00:00:04.160=-5.04 -4 730.08 548 1;00:00:05.360=0 0 720 540 1</property>
      <property name="transition.valign">middle</property>
      <property name="transition.halign">center</property>
      <property name="shotcut:animIn">00:00:01.120</property>
      <property name="shotcut:animOut">00:00:01.240</property>
      <property name="transition.threads">0</property>
      <property name="transition.fix_rotate_x">00:00:00.000=0;00:00:04.160=0;00:00:05.360=0</property>
    </filter>
  </producer>
  <producer id="producer27" in="00:00:00.000" out="03:59:59.960">
    <property name="length">04:00:00.000</property>
    <property name="eof">pause</property>
    <property name="resource">#00000000</property>
    <property name="aspect_ratio">1</property>
    <property name="mlt_service">color</property>
    <property name="mlt_image_format">rgb24a</property>
    <property name="shotcut:caption">transparent</property>
    <property name="shotcut:detail">transparent</property>
    <property name="ignore_points">0</property>
    <property name="global_feed">1</property>
    <property name="xml">was here</property>
    <property name="seekable">1</property>
    <filter id="filter51" out="00:00:02.080">
      <property name="argument">Примеры</property>
      <property name="geometry">213 432 302 74 1</property>
      <property name="family">Jost</property>
      <property name="size">48</property>
      <property name="weight">500</property>
      <property name="style">normal</property>
      <property name="fgcolour">#ffffffff</property>
      <property name="bgcolour">#00000000</property>
      <property name="olcolour">#aa000000</property>
      <property name="pad">0</property>
      <property name="halign">center</property>
      <property name="valign">middle</property>
      <property name="outline">0</property>
      <property name="mlt_service">dynamictext</property>
      <property name="shotcut:filter">dynamicText</property>
      <property name="shotcut:usePointSize">1</property>
      <property name="shotcut:animIn">00:00:00.000</property>
      <property name="shotcut:animOut">00:00:00.000</property>
      <property name="shotcut:pointSize">48</property>
    </filter>
    <filter id="filter52" out="00:00:02.080">
      <property name="argument">Громкая техника 2</property>
      <property name="geometry">301 431 347 71 1</property>
      <property name="family">Jost</property>
      <property name="size">48</property>
      <property name="weight">500</property>
      <property name="style">normal</property>
      <property name="fgcolour">#ffffffff</property>
      <property name="bgcolour">#00000000</property>
      <property name="olcolour">#aa000000</property>
      <property name="pad">0</property>
      <property name="halign">center</property>
      <property name="valign">middle</property>
      <property name="outline">0</property>
      <property name="mlt_service">dynamictext</property>
      <property name="shotcut:filter">dynamicText</property>
      <property name="shotcut:usePointSize">1</property>
      <property name="shotcut:animIn">00:00:00.000</property>
      <property name="shotcut:animOut">00:00:00.000</property>
      <property name="shotcut:pointSize">48</property>
      <property name="disable">1</property>
    </filter>
    <filter id="filter53" out="00:00:02.080">
      <property name="start">1</property>
      <property name="level">1</property>
      <property name="mlt_service">brightness</property>
      <property name="shotcut:filter">fadeOutBrightness</property>
      <property name="alpha">00:00:01.680=1;00:00:02.080=0</property>
      <property name="shotcut:animOut">00:00:00.440</property>
    </filter>
    <filter id="filter54" out="00:00:02.080">
      <property name="start">1</property>
      <property name="level">1</property>
      <property name="mlt_service">brightness</property>
      <property name="shotcut:filter">fadeInBrightness</property>
      <property name="alpha">00:00:00.000=0;00:00:00.480=1</property>
      <property name="shotcut:animIn">00:00:00.520</property>
    </filter>
    <filter id="filter55" out="00:00:02.080">
      <property name="background">color:#00000000</property>
      <property name="mlt_service">affine</property>
      <property name="shotcut:filter">affineSizePosition</property>
      <property name="transition.fill">1</property>
      <property name="transition.distort">0</property>
      <property name="transition.rect">00:00:00.000=0 0 720 540 1;00:00:00.880=-5.04 -4 730.08 548 1;00:00:02.080=0 0 720 540 1</property>
      <property name="transition.valign">middle</property>
      <property name="transition.halign">center</property>
      <property name="shotcut:animIn">00:00:01.120</property>
      <property name="shotcut:animOut">00:00:01.240</property>
      <property name="transition.threads">0</property>
      <property name="transition.fix_rotate_x">00:00:00.000=0;00:00:00.880=0;00:00:02.080=0</property>
    </filter>
  </producer>
  <producer id="producer28" in="00:00:00.000" out="03:59:59.960">
    <property name="length">04:00:00.000</property>
    <property name="eof">pause</property>
    <property name="resource">#00000000</property>
    <property name="aspect_ratio">1</property>
    <property name="mlt_service">color</property>
    <property name="mlt_image_format">rgb24a</property>
    <property name="shotcut:caption">transparent</property>
    <property name="shotcut:detail">transparent</property>
    <property name="ignore_points">0</property>
    <property name="global_feed">1</property>
    <property name="xml">was here</property>
    <property name="seekable">1</property>
    <filter id="filter56" out="00:00:02.240">
      <property name="argument">Мантра 1</property>
      <property name="geometry">0 297 720 184 1</property>
      <property name="family">Jost</property>
      <property name="size">48</property>
      <property name="weight">750</property>
      <property name="style">normal</property>
      <property name="fgcolour">#ffffffff</property>
      <property name="bgcolour">#00000000</property>
      <property name="olcolour">#aa000000</property>
      <property name="pad">0</property>
      <property name="halign">center</property>
      <property name="valign">middle</property>
      <property name="outline">0</property>
      <property name="mlt_service">dynamictext</property>
      <property name="shotcut:filter">dynamicText</property>
      <property name="shotcut:usePointSize">1</property>
      <property name="shotcut:animIn">00:00:00.000</property>
      <property name="shotcut:animOut">00:00:00.000</property>
      <property name="shotcut:pointSize">48</property>
      <property name="disable">1</property>
    </filter>
    <filter id="filter57" out="00:00:02.240">
      <property name="argument">та теке та теке | та теке та теке</property>
      <property name="geometry">72 432 576 72 1</property>
      <property name="family">Jost</property>
      <property name="size">48</property>
      <property name="weight">500</property>
      <property name="style">normal</property>
      <property name="fgcolour">#ffffffff</property>
      <property name="bgcolour">#00000000</property>
      <property name="olcolour">#aa000000</property>
      <property name="pad">0</property>
      <property name="halign">center</property>
      <property name="valign">middle</property>
      <property name="outline">0</property>
      <property name="mlt_service">dynamictext</property>
      <property name="shotcut:filter">dynamicText</property>
      <property name="shotcut:usePointSize">1</property>
      <property name="shotcut:animIn">00:00:00.000</property>
      <property name="shotcut:animOut">00:00:00.000</property>
      <property name="shotcut:pointSize">48</property>
      <property name="disable">0</property>
    </filter>
    <filter id="filter58" out="00:00:02.240">
      <property name="start">1</property>
      <property name="level">1</property>
      <property name="mlt_service">brightness</property>
      <property name="shotcut:filter">fadeOutBrightness</property>
      <property name="alpha">00:00:01.280=1;00:00:02.240=0</property>
      <property name="shotcut:animOut">00:00:01.000</property>
    </filter>
    <filter id="filter59" out="00:00:02.240">
      <property name="start">1</property>
      <property name="level">1</property>
      <property name="mlt_service">brightness</property>
      <property name="shotcut:filter">fadeInBrightness</property>
      <property name="alpha">00:00:00.000=0;00:00:00.280=1</property>
      <property name="shotcut:animIn">00:00:00.320</property>
    </filter>
    <filter id="filter60" out="00:00:02.240">
      <property name="background">color:#00000000</property>
      <property name="mlt_service">affine</property>
      <property name="shotcut:filter">affineSizePosition</property>
      <property name="transition.fill">1</property>
      <property name="transition.distort">0</property>
      <property name="transition.rect">00:00:00.000=0 0 720 540 1;00:00:01.040=-5.04 -4 730.08 548 1;00:00:02.240=0 0 720 540 1</property>
      <property name="transition.valign">middle</property>
      <property name="transition.halign">center</property>
      <property name="shotcut:animIn">00:00:01.120</property>
      <property name="shotcut:animOut">00:00:01.240</property>
      <property name="transition.threads">0</property>
      <property name="transition.fix_rotate_x">00:00:00.000=0;00:00:01.040=0;00:00:02.240=0</property>
    </filter>
  </producer>
  <producer id="producer29" in="00:00:00.000" out="03:59:59.960">
    <property name="length">04:00:00.000</property>
    <property name="eof">pause</property>
    <property name="resource">#00000000</property>
    <property name="aspect_ratio">1</property>
    <property name="mlt_service">color</property>
    <property name="mlt_image_format">rgb24a</property>
    <property name="shotcut:caption">transparent</property>
    <property name="shotcut:detail">transparent</property>
    <property name="ignore_points">0</property>
    <property name="global_feed">1</property>
    <property name="xml">was here</property>
    <property name="seekable">1</property>
    <filter id="filter61" out="00:00:02.560">
      <property name="argument">Мантра 1</property>
      <property name="geometry">0 297 720 184 1</property>
      <property name="family">Jost</property>
      <property name="size">48</property>
      <property name="weight">750</property>
      <property name="style">normal</property>
      <property name="fgcolour">#ffffffff</property>
      <property name="bgcolour">#00000000</property>
      <property name="olcolour">#aa000000</property>
      <property name="pad">0</property>
      <property name="halign">center</property>
      <property name="valign">middle</property>
      <property name="outline">0</property>
      <property name="mlt_service">dynamictext</property>
      <property name="shotcut:filter">dynamicText</property>
      <property name="shotcut:usePointSize">1</property>
      <property name="shotcut:animIn">00:00:00.000</property>
      <property name="shotcut:animOut">00:00:00.000</property>
      <property name="shotcut:pointSize">48</property>
      <property name="disable">1</property>
    </filter>
    <filter id="filter62" out="00:00:02.560">
      <property name="argument">Тек теке Тек теке | Тек теке Тек теке</property>
      <property name="geometry">72 430 576 83 1</property>
      <property name="family">Jost</property>
      <property name="size">48</property>
      <property name="weight">500</property>
      <property name="style">normal</property>
      <property name="fgcolour">#ffffffff</property>
      <property name="bgcolour">#00000000</property>
      <property name="olcolour">#aa000000</property>
      <property name="pad">0</property>
      <property name="halign">center</property>
      <property name="valign">middle</property>
      <property name="outline">0</property>
      <property name="mlt_service">dynamictext</property>
      <property name="shotcut:filter">dynamicText</property>
      <property name="shotcut:usePointSize">1</property>
      <property name="shotcut:animIn">00:00:00.000</property>
      <property name="shotcut:animOut">00:00:00.000</property>
      <property name="shotcut:pointSize">48</property>
      <property name="disable">0</property>
    </filter>
    <filter id="filter63" out="00:00:02.560">
      <property name="start">1</property>
      <property name="level">1</property>
      <property name="mlt_service">brightness</property>
      <property name="shotcut:filter">fadeOutBrightness</property>
      <property name="alpha">00:00:01.600=1;00:00:02.560=0</property>
      <property name="shotcut:animOut">00:00:01.000</property>
    </filter>
    <filter id="filter64" out="00:00:02.560">
      <property name="start">1</property>
      <property name="level">1</property>
      <property name="mlt_service">brightness</property>
      <property name="shotcut:filter">fadeInBrightness</property>
      <property name="alpha">00:00:00.000=0;00:00:00.280=1</property>
      <property name="shotcut:animIn">00:00:00.320</property>
    </filter>
    <filter id="filter65" out="00:00:02.560">
      <property name="background">color:#00000000</property>
      <property name="mlt_service">affine</property>
      <property name="shotcut:filter">affineSizePosition</property>
      <property name="transition.fill">1</property>
      <property name="transition.distort">0</property>
      <property name="transition.rect">00:00:00.000=0 0 720 540 1;00:00:01.360=-5.04 -4 730.08 548 1;00:00:02.560=0 0 720 540 1</property>
      <property name="transition.valign">middle</property>
      <property name="transition.halign">center</property>
      <property name="shotcut:animIn">00:00:01.120</property>
      <property name="shotcut:animOut">00:00:01.240</property>
      <property name="transition.threads">0</property>
      <property name="transition.fix_rotate_x">00:00:00.000=0;00:00:01.360=0;00:00:02.560=0</property>
    </filter>
  </producer>
  <producer id="producer30" in="00:00:00.000" out="03:59:59.960">
    <property name="length">04:00:00.000</property>
    <property name="eof">pause</property>
    <property name="resource">#00000000</property>
    <property name="aspect_ratio">1</property>
    <property name="mlt_service">color</property>
    <property name="mlt_image_format">rgb24a</property>
    <property name="shotcut:caption">transparent</property>
    <property name="shotcut:detail">transparent</property>
    <property name="ignore_points">0</property>
    <property name="global_feed">1</property>
    <property name="xml">was here</property>
    <property name="seekable">1</property>
    <filter id="filter66" out="00:00:02.440">
      <property name="argument">Мантра 1</property>
      <property name="geometry">0 297 720 184 1</property>
      <property name="family">Jost</property>
      <property name="size">48</property>
      <property name="weight">750</property>
      <property name="style">normal</property>
      <property name="fgcolour">#ffffffff</property>
      <property name="bgcolour">#00000000</property>
      <property name="olcolour">#aa000000</property>
      <property name="pad">0</property>
      <property name="halign">center</property>
      <property name="valign">middle</property>
      <property name="outline">0</property>
      <property name="mlt_service">dynamictext</property>
      <property name="shotcut:filter">dynamicText</property>
      <property name="shotcut:usePointSize">1</property>
      <property name="shotcut:animIn">00:00:00.000</property>
      <property name="shotcut:animOut">00:00:00.000</property>
      <property name="shotcut:pointSize">48</property>
      <property name="disable">1</property>
    </filter>
    <filter id="filter67" out="00:00:02.440">
      <property name="argument">Тек РиТи Тек РиТи | Тек РиТи Тек РиТи</property>
      <property name="geometry">72 430 576 83 1</property>
      <property name="family">Jost</property>
      <property name="size">48</property>
      <property name="weight">500</property>
      <property name="style">normal</property>
      <property name="fgcolour">#ffffffff</property>
      <property name="bgcolour">#00000000</property>
      <property name="olcolour">#aa000000</property>
      <property name="pad">0</property>
      <property name="halign">center</property>
      <property name="valign">middle</property>
      <property name="outline">0</property>
      <property name="mlt_service">dynamictext</property>
      <property name="shotcut:filter">dynamicText</property>
      <property name="shotcut:usePointSize">1</property>
      <property name="shotcut:animIn">00:00:00.000</property>
      <property name="shotcut:animOut">00:00:00.000</property>
      <property name="shotcut:pointSize">48</property>
      <property name="disable">0</property>
    </filter>
    <filter id="filter68" out="00:00:02.440">
      <property name="start">1</property>
      <property name="level">1</property>
      <property name="mlt_service">brightness</property>
      <property name="shotcut:filter">fadeOutBrightness</property>
      <property name="alpha">00:00:01.480=1;00:00:02.440=0</property>
      <property name="shotcut:animOut">00:00:01.000</property>
    </filter>
    <filter id="filter69" out="00:00:02.440">
      <property name="start">1</property>
      <property name="level">1</property>
      <property name="mlt_service">brightness</property>
      <property name="shotcut:filter">fadeInBrightness</property>
      <property name="alpha">00:00:00.000=0;00:00:00.280=1</property>
      <property name="shotcut:animIn">00:00:00.320</property>
    </filter>
    <filter id="filter70" out="00:00:02.440">
      <property name="background">color:#00000000</property>
      <property name="mlt_service">affine</property>
      <property name="shotcut:filter">affineSizePosition</property>
      <property name="transition.fill">1</property>
      <property name="transition.distort">0</property>
      <property name="transition.rect">00:00:00.000=0 0 720 540 1;00:00:01.240=-5.04 -4 730.08 548 1;00:00:02.440=0 0 720 540 1</property>
      <property name="transition.valign">middle</property>
      <property name="transition.halign">center</property>
      <property name="shotcut:animIn">00:00:01.120</property>
      <property name="shotcut:animOut">00:00:01.240</property>
      <property name="transition.threads">0</property>
      <property name="transition.fix_rotate_x">00:00:00.000=0;00:00:01.240=0;00:00:02.440=0</property>
    </filter>
  </producer>
  <producer id="producer31" in="00:00:00.000" out="03:59:59.960">
    <property name="length">04:00:00.000</property>
    <property name="eof">pause</property>
    <property name="resource">#00000000</property>
    <property name="aspect_ratio">1</property>
    <property name="mlt_service">color</property>
    <property name="mlt_image_format">rgb24a</property>
    <property name="shotcut:caption">transparent</property>
    <property name="shotcut:detail">transparent</property>
    <property name="ignore_points">0</property>
    <property name="global_feed">1</property>
    <property name="xml">was here</property>
    <property name="seekable">1</property>
    <filter id="filter71" out="00:00:02.520">
      <property name="argument">Мантра 1</property>
      <property name="geometry">0 297 720 184 1</property>
      <property name="family">Jost</property>
      <property name="size">48</property>
      <property name="weight">750</property>
      <property name="style">normal</property>
      <property name="fgcolour">#ffffffff</property>
      <property name="bgcolour">#00000000</property>
      <property name="olcolour">#aa000000</property>
      <property name="pad">0</property>
      <property name="halign">center</property>
      <property name="valign">middle</property>
      <property name="outline">0</property>
      <property name="mlt_service">dynamictext</property>
      <property name="shotcut:filter">dynamicText</property>
      <property name="shotcut:usePointSize">1</property>
      <property name="shotcut:animIn">00:00:00.000</property>
      <property name="shotcut:animOut">00:00:00.000</property>
      <property name="shotcut:pointSize">48</property>
      <property name="disable">1</property>
    </filter>
    <filter id="filter72" out="00:00:02.520">
      <property name="argument">Тек ДиНи Тек ДиНи | Тек ДиНи Тек ДиНи</property>
      <property name="geometry">72 430 576 83 1</property>
      <property name="family">Jost</property>
      <property name="size">48</property>
      <property name="weight">500</property>
      <property name="style">normal</property>
      <property name="fgcolour">#ffffffff</property>
      <property name="bgcolour">#00000000</property>
      <property name="olcolour">#aa000000</property>
      <property name="pad">0</property>
      <property name="halign">center</property>
      <property name="valign">middle</property>
      <property name="outline">0</property>
      <property name="mlt_service">dynamictext</property>
      <property name="shotcut:filter">dynamicText</property>
      <property name="shotcut:usePointSize">1</property>
      <property name="shotcut:animIn">00:00:00.000</property>
      <property name="shotcut:animOut">00:00:00.000</property>
      <property name="shotcut:pointSize">48</property>
      <property name="disable">0</property>
    </filter>
    <filter id="filter73" out="00:00:02.520">
      <property name="start">1</property>
      <property name="level">1</property>
      <property name="mlt_service">brightness</property>
      <property name="shotcut:filter">fadeOutBrightness</property>
      <property name="alpha">00:00:01.560=1;00:00:02.520=0</property>
      <property name="shotcut:animOut">00:00:01.000</property>
    </filter>
    <filter id="filter74" out="00:00:02.520">
      <property name="start">1</property>
      <property name="level">1</property>
      <property name="mlt_service">brightness</property>
      <property name="shotcut:filter">fadeInBrightness</property>
      <property name="alpha">00:00:00.000=0;00:00:00.280=1</property>
      <property name="shotcut:animIn">00:00:00.320</property>
    </filter>
    <filter id="filter75" out="00:00:02.520">
      <property name="background">color:#00000000</property>
      <property name="mlt_service">affine</property>
      <property name="shotcut:filter">affineSizePosition</property>
      <property name="transition.fill">1</property>
      <property name="transition.distort">0</property>
      <property name="transition.rect">00:00:00.000=0 0 720 540 1;00:00:01.320=-5.04 -4 730.08 548 1;00:00:02.520=0 0 720 540 1</property>
      <property name="transition.valign">middle</property>
      <property name="transition.halign">center</property>
      <property name="shotcut:animIn">00:00:01.120</property>
      <property name="shotcut:animOut">00:00:01.240</property>
      <property name="transition.threads">0</property>
      <property name="transition.fix_rotate_x">00:00:00.000=0;00:00:01.320=0;00:00:02.520=0</property>
    </filter>
  </producer>
  <producer id="producer34" in="00:00:00.000" out="03:59:59.960">
    <property name="length">04:00:00.000</property>
    <property name="eof">pause</property>
    <property name="resource">#00000000</property>
    <property name="aspect_ratio">1</property>
    <property name="mlt_service">color</property>
    <property name="mlt_image_format">rgb24a</property>
    <property name="shotcut:caption">transparent</property>
    <property name="shotcut:detail">transparent</property>
    <property name="ignore_points">0</property>
    <property name="global_feed">1</property>
    <property name="xml">was here</property>
    <property name="seekable">1</property>
    <filter id="filter76" out="00:00:02.440">
      <property name="argument">Мантра 2.</property>
      <property name="geometry">51 429 302 74 1</property>
      <property name="family">Jost</property>
      <property name="size">48</property>
      <property name="weight">750</property>
      <property name="style">normal</property>
      <property name="fgcolour">#ffffffff</property>
      <property name="bgcolour">#00000000</property>
      <property name="olcolour">#aa000000</property>
      <property name="pad">0</property>
      <property name="halign">center</property>
      <property name="valign">middle</property>
      <property name="outline">0</property>
      <property name="mlt_service">dynamictext</property>
      <property name="shotcut:filter">dynamicText</property>
      <property name="shotcut:usePointSize">1</property>
      <property name="shotcut:animIn">00:00:00.000</property>
      <property name="shotcut:animOut">00:00:00.000</property>
      <property name="shotcut:pointSize">48</property>
    </filter>
    <filter id="filter77" out="00:00:02.440">
      <property name="argument">Тихая техника</property>
      <property name="geometry">301 431 347 71 1</property>
      <property name="family">Jost</property>
      <property name="size">48</property>
      <property name="weight">500</property>
      <property name="style">normal</property>
      <property name="fgcolour">#ffffffff</property>
      <property name="bgcolour">#00000000</property>
      <property name="olcolour">#aa000000</property>
      <property name="pad">0</property>
      <property name="halign">center</property>
      <property name="valign">middle</property>
      <property name="outline">0</property>
      <property name="mlt_service">dynamictext</property>
      <property name="shotcut:filter">dynamicText</property>
      <property name="shotcut:usePointSize">1</property>
      <property name="shotcut:animIn">00:00:00.000</property>
      <property name="shotcut:animOut">00:00:00.000</property>
      <property name="shotcut:pointSize">48</property>
      <property name="disable">0</property>
    </filter>
    <filter id="filter78" out="00:00:02.440">
      <property name="start">1</property>
      <property name="level">1</property>
      <property name="mlt_service">brightness</property>
      <property name="shotcut:filter">fadeInBrightness</property>
      <property name="alpha">00:00:00.000=0;00:00:00.480=1</property>
      <property name="shotcut:animIn">00:00:00.520</property>
    </filter>
    <filter id="filter79" out="00:00:02.440">
      <property name="background">color:#00000000</property>
      <property name="mlt_service">affine</property>
      <property name="shotcut:filter">affineSizePosition</property>
      <property name="transition.fill">1</property>
      <property name="transition.distort">0</property>
      <property name="transition.rect">00:00:00.000=0 0 720 540 1;00:00:01.240=-5.04 -4 730.08 548 1;00:00:02.440=0 0 720 540 1</property>
      <property name="transition.valign">middle</property>
      <property name="transition.halign">center</property>
      <property name="shotcut:animIn">00:00:01.120</property>
      <property name="shotcut:animOut">00:00:01.240</property>
      <property name="transition.threads">0</property>
      <property name="transition.fix_rotate_x">00:00:00.000=0;00:00:01.240=0;00:00:02.440=0</property>
    </filter>
    <filter id="filter80" out="00:00:02.440">
      <property name="start">1</property>
      <property name="level">1</property>
      <property name="mlt_service">brightness</property>
      <property name="shotcut:filter">fadeOutBrightness</property>
      <property name="alpha">00:00:02.040=1;00:00:02.440=0</property>
      <property name="shotcut:animOut">00:00:00.440</property>
    </filter>
  </producer>
  <producer id="producer35" in="00:00:00.000" out="03:59:59.960">
    <property name="length">04:00:00.000</property>
    <property name="eof">pause</property>
    <property name="resource">#00000000</property>
    <property name="aspect_ratio">1</property>
    <property name="mlt_service">color</property>
    <property name="mlt_image_format">rgb24a</property>
    <property name="shotcut:caption">transparent</property>
    <property name="shotcut:detail">transparent</property>
    <property name="ignore_points">0</property>
    <property name="global_feed">1</property>
    <property name="xml">was here</property>
    <property name="seekable">1</property>
    <filter id="filter81" out="00:00:03.720">
      <property name="argument">Мантра 1</property>
      <property name="geometry">0 297 720 184 1</property>
      <property name="family">Jost</property>
      <property name="size">48</property>
      <property name="weight">750</property>
      <property name="style">normal</property>
      <property name="fgcolour">#ffffffff</property>
      <property name="bgcolour">#00000000</property>
      <property name="olcolour">#aa000000</property>
      <property name="pad">0</property>
      <property name="halign">center</property>
      <property name="valign">middle</property>
      <property name="outline">0</property>
      <property name="mlt_service">dynamictext</property>
      <property name="shotcut:filter">dynamicText</property>
      <property name="shotcut:usePointSize">1</property>
      <property name="shotcut:animIn">00:00:00.000</property>
      <property name="shotcut:animOut">00:00:00.000</property>
      <property name="shotcut:pointSize">48</property>
      <property name="disable">1</property>
    </filter>
    <filter id="filter82" out="00:00:03.720">
      <property name="argument">та теке та теке | та теке теке теке</property>
      <property name="geometry">72 430 576 83 1</property>
      <property name="family">Jost</property>
      <property name="size">48</property>
      <property name="weight">500</property>
      <property name="style">normal</property>
      <property name="fgcolour">#ffffffff</property>
      <property name="bgcolour">#00000000</property>
      <property name="olcolour">#aa000000</property>
      <property name="pad">0</property>
      <property name="halign">center</property>
      <property name="valign">middle</property>
      <property name="outline">0</property>
      <property name="mlt_service">dynamictext</property>
      <property name="shotcut:filter">dynamicText</property>
      <property name="shotcut:usePointSize">1</property>
      <property name="shotcut:animIn">00:00:00.000</property>
      <property name="shotcut:animOut">00:00:00.000</property>
      <property name="shotcut:pointSize">48</property>
      <property name="disable">0</property>
    </filter>
    <filter id="filter83" out="00:00:03.720">
      <property name="start">1</property>
      <property name="level">1</property>
      <property name="mlt_service">brightness</property>
      <property name="shotcut:filter">fadeOutBrightness</property>
      <property name="alpha">00:00:02.760=1;00:00:03.720=0</property>
      <property name="shotcut:animOut">00:00:01.000</property>
    </filter>
    <filter id="filter84" out="00:00:03.720">
      <property name="start">1</property>
      <property name="level">1</property>
      <property name="mlt_service">brightness</property>
      <property name="shotcut:filter">fadeInBrightness</property>
      <property name="alpha">00:00:00.000=0;00:00:00.280=1</property>
      <property name="shotcut:animIn">00:00:00.320</property>
    </filter>
    <filter id="filter85" out="00:00:03.720">
      <property name="background">color:#00000000</property>
      <property name="mlt_service">affine</property>
      <property name="shotcut:filter">affineSizePosition</property>
      <property name="transition.fill">1</property>
      <property name="transition.distort">0</property>
      <property name="transition.rect">00:00:00.000=0 0 720 540 1;00:00:02.520=-5.04 -4 730.08 548 1;00:00:03.720=0 0 720 540 1</property>
      <property name="transition.valign">middle</property>
      <property name="transition.halign">center</property>
      <property name="shotcut:animIn">00:00:01.120</property>
      <property name="shotcut:animOut">00:00:01.240</property>
      <property name="transition.threads">0</property>
      <property name="transition.fix_rotate_x">00:00:00.000=0;00:00:02.520=0;00:00:03.720=0</property>
    </filter>
  </producer>
  <producer id="producer36" in="00:00:00.000" out="03:59:59.960">
    <property name="length">04:00:00.000</property>
    <property name="eof">pause</property>
    <property name="resource">#00000000</property>
    <property name="aspect_ratio">1</property>
    <property name="mlt_service">color</property>
    <property name="mlt_image_format">rgb24a</property>
    <property name="shotcut:caption">transparent</property>
    <property name="shotcut:detail">transparent</property>
    <property name="ignore_points">0</property>
    <property name="global_feed">1</property>
    <property name="xml">was here</property>
    <property name="seekable">1</property>
    <filter id="filter86" out="00:00:02.440">
      <property name="argument">Мантра 2.</property>
      <property name="geometry">78 431 206 69 1</property>
      <property name="family">Jost</property>
      <property name="size">48</property>
      <property name="weight">750</property>
      <property name="style">normal</property>
      <property name="fgcolour">#ffffffff</property>
      <property name="bgcolour">#00000000</property>
      <property name="olcolour">#aa000000</property>
      <property name="pad">0</property>
      <property name="halign">center</property>
      <property name="valign">middle</property>
      <property name="outline">0</property>
      <property name="mlt_service">dynamictext</property>
      <property name="shotcut:filter">dynamicText</property>
      <property name="shotcut:usePointSize">1</property>
      <property name="shotcut:animIn">00:00:00.000</property>
      <property name="shotcut:animOut">00:00:00.000</property>
      <property name="shotcut:pointSize">48</property>
    </filter>
    <filter id="filter87" out="00:00:02.440">
      <property name="argument">Смешанная техника</property>
      <property name="geometry">301 431 347 71 1</property>
      <property name="family">Jost</property>
      <property name="size">48</property>
      <property name="weight">500</property>
      <property name="style">normal</property>
      <property name="fgcolour">#ffffffff</property>
      <property name="bgcolour">#00000000</property>
      <property name="olcolour">#aa000000</property>
      <property name="pad">0</property>
      <property name="halign">center</property>
      <property name="valign">middle</property>
      <property name="outline">0</property>
      <property name="mlt_service">dynamictext</property>
      <property name="shotcut:filter">dynamicText</property>
      <property name="shotcut:usePointSize">1</property>
      <property name="shotcut:animIn">00:00:00.000</property>
      <property name="shotcut:animOut">00:00:00.000</property>
      <property name="shotcut:pointSize">48</property>
      <property name="disable">0</property>
    </filter>
    <filter id="filter88" out="00:00:02.440">
      <property name="start">1</property>
      <property name="level">1</property>
      <property name="mlt_service">brightness</property>
      <property name="shotcut:filter">fadeInBrightness</property>
      <property name="alpha">00:00:00.000=0;00:00:00.480=1</property>
      <property name="shotcut:animIn">00:00:00.520</property>
    </filter>
    <filter id="filter89" out="00:00:02.440">
      <property name="background">color:#00000000</property>
      <property name="mlt_service">affine</property>
      <property name="shotcut:filter">affineSizePosition</property>
      <property name="transition.fill">1</property>
      <property name="transition.distort">0</property>
      <property name="transition.rect">00:00:00.000=0 0 720 540 1;00:00:01.240=-5.04 -4 730.08 548 1;00:00:02.440=0 0 720 540 1</property>
      <property name="transition.valign">middle</property>
      <property name="transition.halign">center</property>
      <property name="shotcut:animIn">00:00:01.120</property>
      <property name="shotcut:animOut">00:00:01.240</property>
      <property name="transition.threads">0</property>
      <property name="transition.fix_rotate_x">00:00:00.000=0;00:00:01.240=0;00:00:02.440=0</property>
    </filter>
    <filter id="filter90" out="00:00:02.440">
      <property name="start">1</property>
      <property name="level">1</property>
      <property name="mlt_service">brightness</property>
      <property name="shotcut:filter">fadeOutBrightness</property>
      <property name="alpha">00:00:02.040=1;00:00:02.440=0</property>
      <property name="shotcut:animOut">00:00:00.440</property>
    </filter>
  </producer>
  <producer id="producer37" in="00:00:00.000" out="03:59:59.960">
    <property name="length">04:00:00.000</property>
    <property name="eof">pause</property>
    <property name="resource">#00000000</property>
    <property name="aspect_ratio">1</property>
    <property name="mlt_service">color</property>
    <property name="mlt_image_format">rgb24a</property>
    <property name="shotcut:caption">transparent</property>
    <property name="shotcut:detail">transparent</property>
    <property name="ignore_points">0</property>
    <property name="global_feed">1</property>
    <property name="xml">was here</property>
    <property name="seekable">1</property>
    <filter id="filter91" out="00:00:03.720">
      <property name="argument">Мантра 1</property>
      <property name="geometry">0 297 720 184 1</property>
      <property name="family">Jost</property>
      <property name="size">48</property>
      <property name="weight">750</property>
      <property name="style">normal</property>
      <property name="fgcolour">#ffffffff</property>
      <property name="bgcolour">#00000000</property>
      <property name="olcolour">#aa000000</property>
      <property name="pad">0</property>
      <property name="halign">center</property>
      <property name="valign">middle</property>
      <property name="outline">0</property>
      <property name="mlt_service">dynamictext</property>
      <property name="shotcut:filter">dynamicText</property>
      <property name="shotcut:usePointSize">1</property>
      <property name="shotcut:animIn">00:00:00.000</property>
      <property name="shotcut:animOut">00:00:00.000</property>
      <property name="shotcut:pointSize">48</property>
      <property name="disable">1</property>
    </filter>
    <filter id="filter92" out="00:00:03.720">
      <property name="argument">Тек теке Тек теке | Тек теке теке теке</property>
      <property name="geometry">72 430 576 83 1</property>
      <property name="family">Jost</property>
      <property name="size">48</property>
      <property name="weight">500</property>
      <property name="style">normal</property>
      <property name="fgcolour">#ffffffff</property>
      <property name="bgcolour">#00000000</property>
      <property name="olcolour">#aa000000</property>
      <property name="pad">0</property>
      <property name="halign">center</property>
      <property name="valign">middle</property>
      <property name="outline">0</property>
      <property name="mlt_service">dynamictext</property>
      <property name="shotcut:filter">dynamicText</property>
      <property name="shotcut:usePointSize">1</property>
      <property name="shotcut:animIn">00:00:00.000</property>
      <property name="shotcut:animOut">00:00:00.000</property>
      <property name="shotcut:pointSize">48</property>
      <property name="disable">0</property>
    </filter>
    <filter id="filter93" out="00:00:03.720">
      <property name="start">1</property>
      <property name="level">1</property>
      <property name="mlt_service">brightness</property>
      <property name="shotcut:filter">fadeOutBrightness</property>
      <property name="alpha">00:00:02.760=1;00:00:03.720=0</property>
      <property name="shotcut:animOut">00:00:01.000</property>
    </filter>
    <filter id="filter94" out="00:00:03.720">
      <property name="start">1</property>
      <property name="level">1</property>
      <property name="mlt_service">brightness</property>
      <property name="shotcut:filter">fadeInBrightness</property>
      <property name="alpha">00:00:00.000=0;00:00:00.280=1</property>
      <property name="shotcut:animIn">00:00:00.320</property>
    </filter>
    <filter id="filter95" out="00:00:03.720">
      <property name="background">color:#00000000</property>
      <property name="mlt_service">affine</property>
      <property name="shotcut:filter">affineSizePosition</property>
      <property name="transition.fill">1</property>
      <property name="transition.distort">0</property>
      <property name="transition.rect">00:00:00.000=0 0 720 540 1;00:00:02.520=-5.04 -4 730.08 548 1;00:00:03.720=0 0 720 540 1</property>
      <property name="transition.valign">middle</property>
      <property name="transition.halign">center</property>
      <property name="shotcut:animIn">00:00:01.120</property>
      <property name="shotcut:animOut">00:00:01.240</property>
      <property name="transition.threads">0</property>
      <property name="transition.fix_rotate_x">00:00:00.000=0;00:00:02.520=0;00:00:03.720=0</property>
    </filter>
  </producer>
  <producer id="producer38" in="00:00:00.000" out="03:59:59.960">
    <property name="length">04:00:00.000</property>
    <property name="eof">pause</property>
    <property name="resource">#00000000</property>
    <property name="aspect_ratio">1</property>
    <property name="mlt_service">color</property>
    <property name="mlt_image_format">rgb24a</property>
    <property name="shotcut:caption">transparent</property>
    <property name="shotcut:detail">transparent</property>
    <property name="ignore_points">0</property>
    <property name="global_feed">1</property>
    <property name="xml">was here</property>
    <property name="seekable">1</property>
    <filter id="filter96" out="00:00:02.440">
      <property name="argument">Мантра 3.</property>
      <property name="geometry">81 431 239 70 1</property>
      <property name="family">Jost</property>
      <property name="size">48</property>
      <property name="weight">750</property>
      <property name="style">normal</property>
      <property name="fgcolour">#ffffffff</property>
      <property name="bgcolour">#00000000</property>
      <property name="olcolour">#aa000000</property>
      <property name="pad">0</property>
      <property name="halign">center</property>
      <property name="valign">middle</property>
      <property name="outline">0</property>
      <property name="mlt_service">dynamictext</property>
      <property name="shotcut:filter">dynamicText</property>
      <property name="shotcut:usePointSize">1</property>
      <property name="shotcut:animIn">00:00:00.000</property>
      <property name="shotcut:animOut">00:00:00.000</property>
      <property name="shotcut:pointSize">48</property>
    </filter>
    <filter id="filter97" out="00:00:02.440">
      <property name="argument">Тихая техника</property>
      <property name="geometry">301 431 347 71 1</property>
      <property name="family">Jost</property>
      <property name="size">48</property>
      <property name="weight">500</property>
      <property name="style">normal</property>
      <property name="fgcolour">#ffffffff</property>
      <property name="bgcolour">#00000000</property>
      <property name="olcolour">#aa000000</property>
      <property name="pad">0</property>
      <property name="halign">center</property>
      <property name="valign">middle</property>
      <property name="outline">0</property>
      <property name="mlt_service">dynamictext</property>
      <property name="shotcut:filter">dynamicText</property>
      <property name="shotcut:usePointSize">1</property>
      <property name="shotcut:animIn">00:00:00.000</property>
      <property name="shotcut:animOut">00:00:00.000</property>
      <property name="shotcut:pointSize">48</property>
      <property name="disable">0</property>
    </filter>
    <filter id="filter98" out="00:00:02.440">
      <property name="start">1</property>
      <property name="level">1</property>
      <property name="mlt_service">brightness</property>
      <property name="shotcut:filter">fadeInBrightness</property>
      <property name="alpha">00:00:00.000=0;00:00:00.480=1</property>
      <property name="shotcut:animIn">00:00:00.520</property>
    </filter>
    <filter id="filter99" out="00:00:02.440">
      <property name="background">color:#00000000</property>
      <property name="mlt_service">affine</property>
      <property name="shotcut:filter">affineSizePosition</property>
      <property name="transition.fill">1</property>
      <property name="transition.distort">0</property>
      <property name="transition.rect">00:00:00.000=0 0 720 540 1;00:00:01.240=-5.04 -4 730.08 548 1;00:00:02.440=0 0 720 540 1</property>
      <property name="transition.valign">middle</property>
      <property name="transition.halign">center</property>
      <property name="shotcut:animIn">00:00:01.120</property>
      <property name="shotcut:animOut">00:00:01.240</property>
      <property name="transition.threads">0</property>
      <property name="transition.fix_rotate_x">00:00:00.000=0;00:00:01.240=0;00:00:02.440=0</property>
    </filter>
    <filter id="filter100" out="00:00:02.440">
      <property name="start">1</property>
      <property name="level">1</property>
      <property name="mlt_service">brightness</property>
      <property name="shotcut:filter">fadeOutBrightness</property>
      <property name="alpha">00:00:02.040=1;00:00:02.440=0</property>
      <property name="shotcut:animOut">00:00:00.440</property>
    </filter>
  </producer>
  <producer id="producer39" in="00:00:00.000" out="03:59:59.960">
    <property name="length">04:00:00.000</property>
    <property name="eof">pause</property>
    <property name="resource">#00000000</property>
    <property name="aspect_ratio">1</property>
    <property name="mlt_service">color</property>
    <property name="mlt_image_format">rgb24a</property>
    <property name="shotcut:caption">transparent</property>
    <property name="shotcut:detail">transparent</property>
    <property name="ignore_points">0</property>
    <property name="global_feed">1</property>
    <property name="xml">was here</property>
    <property name="seekable">1</property>
    <filter id="filter101" out="00:00:03.720">
      <property name="argument">Мантра 1</property>
      <property name="geometry">0 297 720 184 1</property>
      <property name="family">Jost</property>
      <property name="size">48</property>
      <property name="weight">750</property>
      <property name="style">normal</property>
      <property name="fgcolour">#ffffffff</property>
      <property name="bgcolour">#00000000</property>
      <property name="olcolour">#aa000000</property>
      <property name="pad">0</property>
      <property name="halign">center</property>
      <property name="valign">middle</property>
      <property name="outline">0</property>
      <property name="mlt_service">dynamictext</property>
      <property name="shotcut:filter">dynamicText</property>
      <property name="shotcut:usePointSize">1</property>
      <property name="shotcut:animIn">00:00:00.000</property>
      <property name="shotcut:animOut">00:00:00.000</property>
      <property name="shotcut:pointSize">48</property>
      <property name="disable">1</property>
    </filter>
    <filter id="filter102" out="00:00:03.720">
      <property name="argument">теке тхаке теке тхаке | теке тхаке теке тхаке</property>
      <property name="geometry">36 430 648 83 1</property>
      <property name="family">Jost</property>
      <property name="size">48</property>
      <property name="weight">500</property>
      <property name="style">normal</property>
      <property name="fgcolour">#ffffffff</property>
      <property name="bgcolour">#00000000</property>
      <property name="olcolour">#aa000000</property>
      <property name="pad">0</property>
      <property name="halign">center</property>
      <property name="valign">middle</property>
      <property name="outline">0</property>
      <property name="mlt_service">dynamictext</property>
      <property name="shotcut:filter">dynamicText</property>
      <property name="shotcut:usePointSize">1</property>
      <property name="shotcut:animIn">00:00:00.000</property>
      <property name="shotcut:animOut">00:00:00.000</property>
      <property name="shotcut:pointSize">48</property>
      <property name="disable">0</property>
    </filter>
    <filter id="filter103" out="00:00:03.720">
      <property name="start">1</property>
      <property name="level">1</property>
      <property name="mlt_service">brightness</property>
      <property name="shotcut:filter">fadeOutBrightness</property>
      <property name="alpha">00:00:02.760=1;00:00:03.720=0</property>
      <property name="shotcut:animOut">00:00:01.000</property>
    </filter>
    <filter id="filter104" out="00:00:03.720">
      <property name="start">1</property>
      <property name="level">1</property>
      <property name="mlt_service">brightness</property>
      <property name="shotcut:filter">fadeInBrightness</property>
      <property name="alpha">00:00:00.000=0;00:00:00.280=1</property>
      <property name="shotcut:animIn">00:00:00.320</property>
    </filter>
    <filter id="filter105" out="00:00:03.720">
      <property name="background">color:#00000000</property>
      <property name="mlt_service">affine</property>
      <property name="shotcut:filter">affineSizePosition</property>
      <property name="transition.fill">1</property>
      <property name="transition.distort">0</property>
      <property name="transition.rect">00:00:00.000=0 0 720 540 1;00:00:02.520=-5.04 -4 730.08 548 1;00:00:03.720=0 0 720 540 1</property>
      <property name="transition.valign">middle</property>
      <property name="transition.halign">center</property>
      <property name="shotcut:animIn">00:00:01.120</property>
      <property name="shotcut:animOut">00:00:01.240</property>
      <property name="transition.threads">0</property>
      <property name="transition.fix_rotate_x">00:00:00.000=0;00:00:02.520=0;00:00:03.720=0</property>
    </filter>
  </producer>
  <producer id="producer40" in="00:00:00.000" out="03:59:59.960">
    <property name="length">04:00:00.000</property>
    <property name="eof">pause</property>
    <property name="resource">#00000000</property>
    <property name="aspect_ratio">1</property>
    <property name="mlt_service">color</property>
    <property name="mlt_image_format">rgb24a</property>
    <property name="shotcut:caption">transparent</property>
    <property name="shotcut:detail">transparent</property>
    <property name="ignore_points">0</property>
    <property name="global_feed">1</property>
    <property name="xml">was here</property>
    <property name="seekable">1</property>
    <filter id="filter106" out="00:00:01.680">
      <property name="argument">Мантра 3.</property>
      <property name="geometry">72 432 206 69 1</property>
      <property name="family">Jost</property>
      <property name="size">48</property>
      <property name="weight">750</property>
      <property name="style">normal</property>
      <property name="fgcolour">#ffffffff</property>
      <property name="bgcolour">#00000000</property>
      <property name="olcolour">#aa000000</property>
      <property name="pad">0</property>
      <property name="halign">center</property>
      <property name="valign">middle</property>
      <property name="outline">0</property>
      <property name="mlt_service">dynamictext</property>
      <property name="shotcut:filter">dynamicText</property>
      <property name="shotcut:usePointSize">1</property>
      <property name="shotcut:animIn">00:00:00.000</property>
      <property name="shotcut:animOut">00:00:00.000</property>
      <property name="shotcut:pointSize">48</property>
    </filter>
    <filter id="filter107" out="00:00:01.680">
      <property name="argument">Смешанная техника</property>
      <property name="geometry">301 431 347 71 1</property>
      <property name="family">Jost</property>
      <property name="size">48</property>
      <property name="weight">500</property>
      <property name="style">normal</property>
      <property name="fgcolour">#ffffffff</property>
      <property name="bgcolour">#00000000</property>
      <property name="olcolour">#aa000000</property>
      <property name="pad">0</property>
      <property name="halign">center</property>
      <property name="valign">middle</property>
      <property name="outline">0</property>
      <property name="mlt_service">dynamictext</property>
      <property name="shotcut:filter">dynamicText</property>
      <property name="shotcut:usePointSize">1</property>
      <property name="shotcut:animIn">00:00:00.000</property>
      <property name="shotcut:animOut">00:00:00.000</property>
      <property name="shotcut:pointSize">48</property>
      <property name="disable">0</property>
    </filter>
    <filter id="filter108" out="00:00:01.680">
      <property name="start">1</property>
      <property name="level">1</property>
      <property name="mlt_service">brightness</property>
      <property name="shotcut:filter">fadeInBrightness</property>
      <property name="alpha">00:00:00.000=0;00:00:00.480=1</property>
      <property name="shotcut:animIn">00:00:00.520</property>
    </filter>
    <filter id="filter109" out="00:00:01.680">
      <property name="background">color:#00000000</property>
      <property name="mlt_service">affine</property>
      <property name="shotcut:filter">affineSizePosition</property>
      <property name="transition.fill">1</property>
      <property name="transition.distort">0</property>
      <property name="transition.rect">00:00:00.000=0 0 720 540 1;00:00:00.480=-5.04 -4 730.08 548 1;00:00:01.680=0 0 720 540 1</property>
      <property name="transition.valign">middle</property>
      <property name="transition.halign">center</property>
      <property name="shotcut:animIn">00:00:01.120</property>
      <property name="shotcut:animOut">00:00:01.240</property>
      <property name="transition.threads">0</property>
      <property name="transition.fix_rotate_x">00:00:00.000=0;00:00:00.480=0;00:00:01.680=0</property>
    </filter>
    <filter id="filter110" out="00:00:01.680">
      <property name="start">1</property>
      <property name="level">1</property>
      <property name="mlt_service">brightness</property>
      <property name="shotcut:filter">fadeOutBrightness</property>
      <property name="alpha">00:00:01.280=1;00:00:01.680=0</property>
      <property name="shotcut:animOut">00:00:00.440</property>
    </filter>
  </producer>
  <producer id="producer41" in="00:00:00.000" out="03:59:59.960">
    <property name="length">04:00:00.000</property>
    <property name="eof">pause</property>
    <property name="resource">#00000000</property>
    <property name="aspect_ratio">1</property>
    <property name="mlt_service">color</property>
    <property name="mlt_image_format">rgb24a</property>
    <property name="shotcut:caption">transparent</property>
    <property name="shotcut:detail">transparent</property>
    <property name="ignore_points">0</property>
    <property name="global_feed">1</property>
    <property name="xml">was here</property>
    <property name="seekable">1</property>
    <filter id="filter112" out="00:00:03.720">
      <property name="argument">теке Тхакке теке Тхакке | теке Тхакке теке Тхакке</property>
      <property name="geometry">36 428 648 85 1</property>
      <property name="family">Jost</property>
      <property name="size">48</property>
      <property name="weight">500</property>
      <property name="style">normal</property>
      <property name="fgcolour">#ffffffff</property>
      <property name="bgcolour">#00000000</property>
      <property name="olcolour">#aa000000</property>
      <property name="pad">0</property>
      <property name="halign">center</property>
      <property name="valign">middle</property>
      <property name="outline">0</property>
      <property name="mlt_service">dynamictext</property>
      <property name="shotcut:filter">dynamicText</property>
      <property name="shotcut:usePointSize">1</property>
      <property name="shotcut:animIn">00:00:00.000</property>
      <property name="shotcut:animOut">00:00:00.000</property>
      <property name="shotcut:pointSize">48</property>
      <property name="disable">0</property>
    </filter>
    <filter id="filter113" out="00:00:03.720">
      <property name="start">1</property>
      <property name="level">1</property>
      <property name="mlt_service">brightness</property>
      <property name="shotcut:filter">fadeOutBrightness</property>
      <property name="alpha">00:00:02.760=1;00:00:03.720=0</property>
      <property name="shotcut:animOut">00:00:01.000</property>
    </filter>
    <filter id="filter114" out="00:00:03.720">
      <property name="start">1</property>
      <property name="level">1</property>
      <property name="mlt_service">brightness</property>
      <property name="shotcut:filter">fadeInBrightness</property>
      <property name="alpha">00:00:00.000=0;00:00:00.280=1</property>
      <property name="shotcut:animIn">00:00:00.320</property>
    </filter>
    <filter id="filter115" out="00:00:03.720">
      <property name="background">color:#00000000</property>
      <property name="mlt_service">affine</property>
      <property name="shotcut:filter">affineSizePosition</property>
      <property name="transition.fill">1</property>
      <property name="transition.distort">0</property>
      <property name="transition.rect">00:00:00.000=0 0 720 540 1;00:00:02.520=-5.04 -4 730.08 548 1;00:00:03.720=0 0 720 540 1</property>
      <property name="transition.valign">middle</property>
      <property name="transition.halign">center</property>
      <property name="shotcut:animIn">00:00:01.120</property>
      <property name="shotcut:animOut">00:00:01.240</property>
      <property name="transition.threads">0</property>
      <property name="transition.fix_rotate_x">00:00:00.000=0;00:00:02.520=0;00:00:03.720=0</property>
    </filter>
  </producer>
  <producer id="producer42" in="00:00:00.000" out="03:59:59.960">
    <property name="length">04:00:00.000</property>
    <property name="eof">pause</property>
    <property name="resource">#00000000</property>
    <property name="aspect_ratio">1</property>
    <property name="mlt_service">color</property>
    <property name="mlt_image_format">rgb24a</property>
    <property name="shotcut:caption">transparent</property>
    <property name="shotcut:detail">transparent</property>
    <property name="ignore_points">0</property>
    <property name="global_feed">1</property>
    <property name="xml">was here</property>
    <property name="seekable">1</property>
    <filter id="filter116" out="00:00:01.920">
      <property name="argument">Мантра 3.</property>
      <property name="geometry">72 432 206 69 1</property>
      <property name="family">Jost</property>
      <property name="size">48</property>
      <property name="weight">750</property>
      <property name="style">normal</property>
      <property name="fgcolour">#ffffffff</property>
      <property name="bgcolour">#00000000</property>
      <property name="olcolour">#aa000000</property>
      <property name="pad">0</property>
      <property name="halign">center</property>
      <property name="valign">middle</property>
      <property name="outline">0</property>
      <property name="mlt_service">dynamictext</property>
      <property name="shotcut:filter">dynamicText</property>
      <property name="shotcut:usePointSize">1</property>
      <property name="shotcut:animIn">00:00:00.000</property>
      <property name="shotcut:animOut">00:00:00.000</property>
      <property name="shotcut:pointSize">48</property>
    </filter>
    <filter id="filter117" out="00:00:01.920">
      <property name="argument">Громкая техника</property>
      <property name="geometry">301 431 347 71 1</property>
      <property name="family">Jost</property>
      <property name="size">48</property>
      <property name="weight">500</property>
      <property name="style">normal</property>
      <property name="fgcolour">#ffffffff</property>
      <property name="bgcolour">#00000000</property>
      <property name="olcolour">#aa000000</property>
      <property name="pad">0</property>
      <property name="halign">center</property>
      <property name="valign">middle</property>
      <property name="outline">0</property>
      <property name="mlt_service">dynamictext</property>
      <property name="shotcut:filter">dynamicText</property>
      <property name="shotcut:usePointSize">1</property>
      <property name="shotcut:animIn">00:00:00.000</property>
      <property name="shotcut:animOut">00:00:00.000</property>
      <property name="shotcut:pointSize">48</property>
      <property name="disable">0</property>
    </filter>
    <filter id="filter118" out="00:00:01.920">
      <property name="start">1</property>
      <property name="level">1</property>
      <property name="mlt_service">brightness</property>
      <property name="shotcut:filter">fadeInBrightness</property>
      <property name="alpha">00:00:00.000=0;00:00:00.480=1</property>
      <property name="shotcut:animIn">00:00:00.520</property>
    </filter>
    <filter id="filter119" out="00:00:01.920">
      <property name="background">color:#00000000</property>
      <property name="mlt_service">affine</property>
      <property name="shotcut:filter">affineSizePosition</property>
      <property name="transition.fill">1</property>
      <property name="transition.distort">0</property>
      <property name="transition.rect">00:00:00.000=0 0 720 540 1;00:00:00.720=-5.04 -4 730.08 548 1;00:00:01.920=0 0 720 540 1</property>
      <property name="transition.valign">middle</property>
      <property name="transition.halign">center</property>
      <property name="shotcut:animIn">00:00:01.120</property>
      <property name="shotcut:animOut">00:00:01.240</property>
      <property name="transition.threads">0</property>
      <property name="transition.fix_rotate_x">00:00:00.000=0;00:00:00.720=0;00:00:01.920=0</property>
    </filter>
    <filter id="filter120" out="00:00:01.920">
      <property name="start">1</property>
      <property name="level">1</property>
      <property name="mlt_service">brightness</property>
      <property name="shotcut:filter">fadeOutBrightness</property>
      <property name="alpha">00:00:01.520=1;00:00:01.920=0</property>
      <property name="shotcut:animOut">00:00:00.440</property>
    </filter>
  </producer>
  <producer id="producer43" in="00:00:00.000" out="03:59:59.960">
    <property name="length">04:00:00.000</property>
    <property name="eof">pause</property>
    <property name="resource">#00000000</property>
    <property name="aspect_ratio">1</property>
    <property name="mlt_service">color</property>
    <property name="mlt_image_format">rgb24a</property>
    <property name="shotcut:caption">transparent</property>
    <property name="shotcut:detail">transparent</property>
    <property name="ignore_points">0</property>
    <property name="global_feed">1</property>
    <property name="xml">was here</property>
    <property name="seekable">1</property>
    <filter id="filter122" out="00:00:03.720">
      <property name="argument">ДиНи ДаНи ДиНи ДаНи | ДиНи ДаНи ДиНи ДаНи</property>
      <property name="geometry">36 427 648 86 1</property>
      <property name="family">Jost</property>
      <property name="size">48</property>
      <property name="weight">500</property>
      <property name="style">normal</property>
      <property name="fgcolour">#ffffffff</property>
      <property name="bgcolour">#00000000</property>
      <property name="olcolour">#aa000000</property>
      <property name="pad">0</property>
      <property name="halign">center</property>
      <property name="valign">middle</property>
      <property name="outline">0</property>
      <property name="mlt_service">dynamictext</property>
      <property name="shotcut:filter">dynamicText</property>
      <property name="shotcut:usePointSize">1</property>
      <property name="shotcut:animIn">00:00:00.000</property>
      <property name="shotcut:animOut">00:00:00.000</property>
      <property name="shotcut:pointSize">48</property>
      <property name="disable">0</property>
    </filter>
    <filter id="filter123" out="00:00:03.720">
      <property name="start">1</property>
      <property name="level">1</property>
      <property name="mlt_service">brightness</property>
      <property name="shotcut:filter">fadeOutBrightness</property>
      <property name="alpha">00:00:02.760=1;00:00:03.720=0</property>
      <property name="shotcut:animOut">00:00:01.000</property>
    </filter>
    <filter id="filter124" out="00:00:03.720">
      <property name="start">1</property>
      <property name="level">1</property>
      <property name="mlt_service">brightness</property>
      <property name="shotcut:filter">fadeInBrightness</property>
      <property name="alpha">00:00:00.000=0;00:00:00.280=1</property>
      <property name="shotcut:animIn">00:00:00.320</property>
    </filter>
    <filter id="filter125" out="00:00:03.720">
      <property name="background">color:#00000000</property>
      <property name="mlt_service">affine</property>
      <property name="shotcut:filter">affineSizePosition</property>
      <property name="transition.fill">1</property>
      <property name="transition.distort">0</property>
      <property name="transition.rect">00:00:00.000=0 0 720 540 1;00:00:02.520=-5.04 -4 730.08 548 1;00:00:03.720=0 0 720 540 1</property>
      <property name="transition.valign">middle</property>
      <property name="transition.halign">center</property>
      <property name="shotcut:animIn">00:00:01.120</property>
      <property name="shotcut:animOut">00:00:01.240</property>
      <property name="transition.threads">0</property>
      <property name="transition.fix_rotate_x">00:00:00.000=0;00:00:02.520=0;00:00:03.720=0</property>
    </filter>
  </producer>
  <producer id="producer44" in="00:00:00.000" out="03:59:59.960">
    <property name="length">04:00:00.000</property>
    <property name="eof">pause</property>
    <property name="resource">#00000000</property>
    <property name="aspect_ratio">1</property>
    <property name="mlt_service">color</property>
    <property name="mlt_image_format">rgb24a</property>
    <property name="shotcut:caption">transparent</property>
    <property name="shotcut:detail">transparent</property>
    <property name="ignore_points">0</property>
    <property name="global_feed">1</property>
    <property name="xml">was here</property>
    <property name="seekable">1</property>
    <filter id="filter126" out="00:00:01.920">
      <property name="argument">Мантра 4.</property>
      <property name="geometry">108 432 206 69 1</property>
      <property name="family">Jost</property>
      <property name="size">48</property>
      <property name="weight">750</property>
      <property name="style">normal</property>
      <property name="fgcolour">#ffffffff</property>
      <property name="bgcolour">#00000000</property>
      <property name="olcolour">#aa000000</property>
      <property name="pad">0</property>
      <property name="halign">center</property>
      <property name="valign">middle</property>
      <property name="outline">0</property>
      <property name="mlt_service">dynamictext</property>
      <property name="shotcut:filter">dynamicText</property>
      <property name="shotcut:usePointSize">1</property>
      <property name="shotcut:animIn">00:00:00.000</property>
      <property name="shotcut:animOut">00:00:00.000</property>
      <property name="shotcut:pointSize">48</property>
    </filter>
    <filter id="filter127" out="00:00:01.920">
      <property name="argument">Тихая техника</property>
      <property name="geometry">301 431 347 71 1</property>
      <property name="family">Jost</property>
      <property name="size">48</property>
      <property name="weight">500</property>
      <property name="style">normal</property>
      <property name="fgcolour">#ffffffff</property>
      <property name="bgcolour">#00000000</property>
      <property name="olcolour">#aa000000</property>
      <property name="pad">0</property>
      <property name="halign">center</property>
      <property name="valign">middle</property>
      <property name="outline">0</property>
      <property name="mlt_service">dynamictext</property>
      <property name="shotcut:filter">dynamicText</property>
      <property name="shotcut:usePointSize">1</property>
      <property name="shotcut:animIn">00:00:00.000</property>
      <property name="shotcut:animOut">00:00:00.000</property>
      <property name="shotcut:pointSize">48</property>
      <property name="disable">0</property>
    </filter>
    <filter id="filter128" out="00:00:01.920">
      <property name="start">1</property>
      <property name="level">1</property>
      <property name="mlt_service">brightness</property>
      <property name="shotcut:filter">fadeInBrightness</property>
      <property name="alpha">00:00:00.000=0;00:00:00.480=1</property>
      <property name="shotcut:animIn">00:00:00.520</property>
    </filter>
    <filter id="filter129" out="00:00:01.920">
      <property name="background">color:#00000000</property>
      <property name="mlt_service">affine</property>
      <property name="shotcut:filter">affineSizePosition</property>
      <property name="transition.fill">1</property>
      <property name="transition.distort">0</property>
      <property name="transition.rect">00:00:00.000=0 0 720 540 1;00:00:00.720=-5.04 -4 730.08 548 1;00:00:01.920=0 0 720 540 1</property>
      <property name="transition.valign">middle</property>
      <property name="transition.halign">center</property>
      <property name="shotcut:animIn">00:00:01.120</property>
      <property name="shotcut:animOut">00:00:01.240</property>
      <property name="transition.threads">0</property>
      <property name="transition.fix_rotate_x">00:00:00.000=0;00:00:00.720=0;00:00:01.920=0</property>
    </filter>
    <filter id="filter130" out="00:00:01.920">
      <property name="start">1</property>
      <property name="level">1</property>
      <property name="mlt_service">brightness</property>
      <property name="shotcut:filter">fadeOutBrightness</property>
      <property name="alpha">00:00:01.520=1;00:00:01.920=0</property>
      <property name="shotcut:animOut">00:00:00.440</property>
    </filter>
  </producer>
  <producer id="producer45" in="00:00:00.000" out="03:59:59.960">
    <property name="length">04:00:00.000</property>
    <property name="eof">pause</property>
    <property name="resource">#00000000</property>
    <property name="aspect_ratio">1</property>
    <property name="mlt_service">color</property>
    <property name="mlt_image_format">rgb24a</property>
    <property name="shotcut:caption">transparent</property>
    <property name="shotcut:detail">transparent</property>
    <property name="ignore_points">0</property>
    <property name="global_feed">1</property>
    <property name="xml">was here</property>
    <property name="seekable">1</property>
    <filter id="filter132" out="00:00:03.320">
      <property name="argument">тхаке теке тхаке теке | тхаке теке тхаке теке</property>
      <property name="geometry">36 429 648 84 1</property>
      <property name="family">Jost</property>
      <property name="size">48</property>
      <property name="weight">500</property>
      <property name="style">normal</property>
      <property name="fgcolour">#ffffffff</property>
      <property name="bgcolour">#00000000</property>
      <property name="olcolour">#aa000000</property>
      <property name="pad">0</property>
      <property name="halign">center</property>
      <property name="valign">middle</property>
      <property name="outline">0</property>
      <property name="mlt_service">dynamictext</property>
      <property name="shotcut:filter">dynamicText</property>
      <property name="shotcut:usePointSize">1</property>
      <property name="shotcut:animIn">00:00:00.000</property>
      <property name="shotcut:animOut">00:00:00.000</property>
      <property name="shotcut:pointSize">48</property>
      <property name="disable">0</property>
    </filter>
    <filter id="filter133" out="00:00:03.320">
      <property name="start">1</property>
      <property name="level">1</property>
      <property name="mlt_service">brightness</property>
      <property name="shotcut:filter">fadeOutBrightness</property>
      <property name="alpha">00:00:02.360=1;00:00:03.320=0</property>
      <property name="shotcut:animOut">00:00:01.000</property>
    </filter>
    <filter id="filter134" out="00:00:03.320">
      <property name="start">1</property>
      <property name="level">1</property>
      <property name="mlt_service">brightness</property>
      <property name="shotcut:filter">fadeInBrightness</property>
      <property name="alpha">00:00:00.000=0;00:00:00.280=1</property>
      <property name="shotcut:animIn">00:00:00.320</property>
    </filter>
    <filter id="filter135" out="00:00:03.320">
      <property name="background">color:#00000000</property>
      <property name="mlt_service">affine</property>
      <property name="shotcut:filter">affineSizePosition</property>
      <property name="transition.fill">1</property>
      <property name="transition.distort">0</property>
      <property name="transition.rect">00:00:00.000=0 0 720 540 1;00:00:02.120=-5.04 -4 730.08 548 1;00:00:03.320=0 0 720 540 1</property>
      <property name="transition.valign">middle</property>
      <property name="transition.halign">center</property>
      <property name="shotcut:animIn">00:00:01.120</property>
      <property name="shotcut:animOut">00:00:01.240</property>
      <property name="transition.threads">0</property>
      <property name="transition.fix_rotate_x">00:00:00.000=0;00:00:02.120=0;00:00:03.320=0</property>
    </filter>
  </producer>
  <producer id="producer46" in="00:00:00.000" out="03:59:59.960">
    <property name="length">04:00:00.000</property>
    <property name="eof">pause</property>
    <property name="resource">#00000000</property>
    <property name="aspect_ratio">1</property>
    <property name="mlt_service">color</property>
    <property name="mlt_image_format">rgb24a</property>
    <property name="shotcut:caption">transparent</property>
    <property name="shotcut:detail">transparent</property>
    <property name="ignore_points">0</property>
    <property name="global_feed">1</property>
    <property name="xml">was here</property>
    <property name="seekable">1</property>
    <filter id="filter136" out="00:00:01.920">
      <property name="argument">Мантра 4.</property>
      <property name="geometry">72 432 219 70 1</property>
      <property name="family">Jost</property>
      <property name="size">48</property>
      <property name="weight">750</property>
      <property name="style">normal</property>
      <property name="fgcolour">#ffffffff</property>
      <property name="bgcolour">#00000000</property>
      <property name="olcolour">#aa000000</property>
      <property name="pad">0</property>
      <property name="halign">center</property>
      <property name="valign">middle</property>
      <property name="outline">0</property>
      <property name="mlt_service">dynamictext</property>
      <property name="shotcut:filter">dynamicText</property>
      <property name="shotcut:usePointSize">1</property>
      <property name="shotcut:animIn">00:00:00.000</property>
      <property name="shotcut:animOut">00:00:00.000</property>
      <property name="shotcut:pointSize">48</property>
    </filter>
    <filter id="filter137" out="00:00:01.920">
      <property name="argument">Громкая техника</property>
      <property name="geometry">301 431 347 71 1</property>
      <property name="family">Jost</property>
      <property name="size">48</property>
      <property name="weight">500</property>
      <property name="style">normal</property>
      <property name="fgcolour">#ffffffff</property>
      <property name="bgcolour">#00000000</property>
      <property name="olcolour">#aa000000</property>
      <property name="pad">0</property>
      <property name="halign">center</property>
      <property name="valign">middle</property>
      <property name="outline">0</property>
      <property name="mlt_service">dynamictext</property>
      <property name="shotcut:filter">dynamicText</property>
      <property name="shotcut:usePointSize">1</property>
      <property name="shotcut:animIn">00:00:00.000</property>
      <property name="shotcut:animOut">00:00:00.000</property>
      <property name="shotcut:pointSize">48</property>
      <property name="disable">0</property>
    </filter>
    <filter id="filter138" out="00:00:01.920">
      <property name="start">1</property>
      <property name="level">1</property>
      <property name="mlt_service">brightness</property>
      <property name="shotcut:filter">fadeInBrightness</property>
      <property name="alpha">00:00:00.000=0;00:00:00.480=1</property>
      <property name="shotcut:animIn">00:00:00.520</property>
    </filter>
    <filter id="filter139" out="00:00:01.920">
      <property name="background">color:#00000000</property>
      <property name="mlt_service">affine</property>
      <property name="shotcut:filter">affineSizePosition</property>
      <property name="transition.fill">1</property>
      <property name="transition.distort">0</property>
      <property name="transition.rect">00:00:00.000=0 0 720 540 1;00:00:00.720=-5.04 -4 730.08 548 1;00:00:01.920=0 0 720 540 1</property>
      <property name="transition.valign">middle</property>
      <property name="transition.halign">center</property>
      <property name="shotcut:animIn">00:00:01.120</property>
      <property name="shotcut:animOut">00:00:01.240</property>
      <property name="transition.threads">0</property>
      <property name="transition.fix_rotate_x">00:00:00.000=0;00:00:00.720=0;00:00:01.920=0</property>
    </filter>
    <filter id="filter140" out="00:00:01.920">
      <property name="start">1</property>
      <property name="level">1</property>
      <property name="mlt_service">brightness</property>
      <property name="shotcut:filter">fadeOutBrightness</property>
      <property name="alpha">00:00:01.520=1;00:00:01.920=0</property>
      <property name="shotcut:animOut">00:00:00.440</property>
    </filter>
  </producer>
  <producer id="producer47" in="00:00:00.000" out="03:59:59.960">
    <property name="length">04:00:00.000</property>
    <property name="eof">pause</property>
    <property name="resource">#00000000</property>
    <property name="aspect_ratio">1</property>
    <property name="mlt_service">color</property>
    <property name="mlt_image_format">rgb24a</property>
    <property name="shotcut:caption">transparent</property>
    <property name="shotcut:detail">transparent</property>
    <property name="ignore_points">0</property>
    <property name="global_feed">1</property>
    <property name="xml">was here</property>
    <property name="seekable">1</property>
    <filter id="filter142" out="00:00:03.520">
      <property name="argument">ДаНи ДиНи ДаНи ДиНи | ДаНи ДиНи ДаНи ДиНи</property>
      <property name="geometry">36 427 648 86 1</property>
      <property name="family">Jost</property>
      <property name="size">48</property>
      <property name="weight">500</property>
      <property name="style">normal</property>
      <property name="fgcolour">#ffffffff</property>
      <property name="bgcolour">#00000000</property>
      <property name="olcolour">#aa000000</property>
      <property name="pad">0</property>
      <property name="halign">center</property>
      <property name="valign">middle</property>
      <property name="outline">0</property>
      <property name="mlt_service">dynamictext</property>
      <property name="shotcut:filter">dynamicText</property>
      <property name="shotcut:usePointSize">1</property>
      <property name="shotcut:animIn">00:00:00.000</property>
      <property name="shotcut:animOut">00:00:00.000</property>
      <property name="shotcut:pointSize">48</property>
      <property name="disable">0</property>
    </filter>
    <filter id="filter143" out="00:00:03.520">
      <property name="start">1</property>
      <property name="level">1</property>
      <property name="mlt_service">brightness</property>
      <property name="shotcut:filter">fadeOutBrightness</property>
      <property name="alpha">00:00:02.560=1;00:00:03.520=0</property>
      <property name="shotcut:animOut">00:00:01.000</property>
    </filter>
    <filter id="filter144" out="00:00:03.520">
      <property name="start">1</property>
      <property name="level">1</property>
      <property name="mlt_service">brightness</property>
      <property name="shotcut:filter">fadeInBrightness</property>
      <property name="alpha">00:00:00.000=0;00:00:00.280=1</property>
      <property name="shotcut:animIn">00:00:00.320</property>
    </filter>
    <filter id="filter145" out="00:00:03.520">
      <property name="background">color:#00000000</property>
      <property name="mlt_service">affine</property>
      <property name="shotcut:filter">affineSizePosition</property>
      <property name="transition.fill">1</property>
      <property name="transition.distort">0</property>
      <property name="transition.rect">00:00:00.000=0 0 720 540 1;00:00:02.320=-5.04 -4 730.08 548 1;00:00:03.520=0 0 720 540 1</property>
      <property name="transition.valign">middle</property>
      <property name="transition.halign">center</property>
      <property name="shotcut:animIn">00:00:01.120</property>
      <property name="shotcut:animOut">00:00:01.240</property>
      <property name="transition.threads">0</property>
      <property name="transition.fix_rotate_x">00:00:00.000=0;00:00:02.320=0;00:00:03.520=0</property>
    </filter>
  </producer>
  <producer id="producer48" in="00:00:00.000" out="03:59:59.960">
    <property name="length">04:00:00.000</property>
    <property name="eof">pause</property>
    <property name="resource">#00000000</property>
    <property name="aspect_ratio">1</property>
    <property name="mlt_service">color</property>
    <property name="mlt_image_format">rgb24a</property>
    <property name="shotcut:caption">transparent</property>
    <property name="shotcut:detail">transparent</property>
    <property name="ignore_points">0</property>
    <property name="global_feed">1</property>
    <property name="xml">was here</property>
    <property name="seekable">1</property>
    <filter id="filter146" out="00:00:01.920">
      <property name="argument">Мантра 5.</property>
      <property name="geometry">72 431 219 70 1</property>
      <property name="family">Jost</property>
      <property name="size">48</property>
      <property name="weight">750</property>
      <property name="style">normal</property>
      <property name="fgcolour">#ffffffff</property>
      <property name="bgcolour">#00000000</property>
      <property name="olcolour">#aa000000</property>
      <property name="pad">0</property>
      <property name="halign">center</property>
      <property name="valign">middle</property>
      <property name="outline">0</property>
      <property name="mlt_service">dynamictext</property>
      <property name="shotcut:filter">dynamicText</property>
      <property name="shotcut:usePointSize">1</property>
      <property name="shotcut:animIn">00:00:00.000</property>
      <property name="shotcut:animOut">00:00:00.000</property>
      <property name="shotcut:pointSize">48</property>
    </filter>
    <filter id="filter147" out="00:00:01.920">
      <property name="argument">Громкая техника</property>
      <property name="geometry">301 431 347 71 1</property>
      <property name="family">Jost</property>
      <property name="size">48</property>
      <property name="weight">500</property>
      <property name="style">normal</property>
      <property name="fgcolour">#ffffffff</property>
      <property name="bgcolour">#00000000</property>
      <property name="olcolour">#aa000000</property>
      <property name="pad">0</property>
      <property name="halign">center</property>
      <property name="valign">middle</property>
      <property name="outline">0</property>
      <property name="mlt_service">dynamictext</property>
      <property name="shotcut:filter">dynamicText</property>
      <property name="shotcut:usePointSize">1</property>
      <property name="shotcut:animIn">00:00:00.000</property>
      <property name="shotcut:animOut">00:00:00.000</property>
      <property name="shotcut:pointSize">48</property>
      <property name="disable">0</property>
    </filter>
    <filter id="filter148" out="00:00:01.920">
      <property name="start">1</property>
      <property name="level">1</property>
      <property name="mlt_service">brightness</property>
      <property name="shotcut:filter">fadeInBrightness</property>
      <property name="alpha">00:00:00.000=0;00:00:00.480=1</property>
      <property name="shotcut:animIn">00:00:00.520</property>
    </filter>
    <filter id="filter149" out="00:00:01.920">
      <property name="background">color:#00000000</property>
      <property name="mlt_service">affine</property>
      <property name="shotcut:filter">affineSizePosition</property>
      <property name="transition.fill">1</property>
      <property name="transition.distort">0</property>
      <property name="transition.rect">00:00:00.000=0 0 720 540 1;00:00:00.720=-5.04 -4 730.08 548 1;00:00:01.920=0 0 720 540 1</property>
      <property name="transition.valign">middle</property>
      <property name="transition.halign">center</property>
      <property name="shotcut:animIn">00:00:01.120</property>
      <property name="shotcut:animOut">00:00:01.240</property>
      <property name="transition.threads">0</property>
      <property name="transition.fix_rotate_x">00:00:00.000=0;00:00:00.720=0;00:00:01.920=0</property>
    </filter>
    <filter id="filter150" out="00:00:01.920">
      <property name="start">1</property>
      <property name="level">1</property>
      <property name="mlt_service">brightness</property>
      <property name="shotcut:filter">fadeOutBrightness</property>
      <property name="alpha">00:00:01.520=1;00:00:01.920=0</property>
      <property name="shotcut:animOut">00:00:00.440</property>
    </filter>
  </producer>
  <producer id="producer49" in="00:00:00.000" out="03:59:59.960">
    <property name="length">04:00:00.000</property>
    <property name="eof">pause</property>
    <property name="resource">#00000000</property>
    <property name="aspect_ratio">1</property>
    <property name="mlt_service">color</property>
    <property name="mlt_image_format">rgb24a</property>
    <property name="shotcut:caption">transparent</property>
    <property name="shotcut:detail">transparent</property>
    <property name="ignore_points">0</property>
    <property name="global_feed">1</property>
    <property name="xml">was here</property>
    <property name="seekable">1</property>
    <filter id="filter151" out="00:00:03.120">
      <property name="argument">Мантра 1</property>
      <property name="geometry">0 297 720 184 1</property>
      <property name="family">Jost</property>
      <property name="size">48</property>
      <property name="weight">750</property>
      <property name="style">normal</property>
      <property name="fgcolour">#ffffffff</property>
      <property name="bgcolour">#00000000</property>
      <property name="olcolour">#aa000000</property>
      <property name="pad">0</property>
      <property name="halign">center</property>
      <property name="valign">middle</property>
      <property name="outline">0</property>
      <property name="mlt_service">dynamictext</property>
      <property name="shotcut:filter">dynamicText</property>
      <property name="shotcut:usePointSize">1</property>
      <property name="shotcut:animIn">00:00:00.000</property>
      <property name="shotcut:animOut">00:00:00.000</property>
      <property name="shotcut:pointSize">48</property>
      <property name="disable">1</property>
    </filter>
    <filter id="filter152" out="00:00:03.120">
      <property name="argument">Ди Ни Ди Ни | Ди Ни Ди Ни</property>
      <property name="geometry">72 430 576 83 1</property>
      <property name="family">Jost</property>
      <property name="size">48</property>
      <property name="weight">500</property>
      <property name="style">normal</property>
      <property name="fgcolour">#ffffffff</property>
      <property name="bgcolour">#00000000</property>
      <property name="olcolour">#aa000000</property>
      <property name="pad">0</property>
      <property name="halign">center</property>
      <property name="valign">middle</property>
      <property name="outline">0</property>
      <property name="mlt_service">dynamictext</property>
      <property name="shotcut:filter">dynamicText</property>
      <property name="shotcut:usePointSize">1</property>
      <property name="shotcut:animIn">00:00:00.000</property>
      <property name="shotcut:animOut">00:00:00.000</property>
      <property name="shotcut:pointSize">48</property>
      <property name="disable">0</property>
    </filter>
    <filter id="filter153" out="00:00:03.120">
      <property name="start">1</property>
      <property name="level">1</property>
      <property name="mlt_service">brightness</property>
      <property name="shotcut:filter">fadeOutBrightness</property>
      <property name="alpha">00:00:02.160=1;00:00:03.120=0</property>
      <property name="shotcut:animOut">00:00:01.000</property>
    </filter>
    <filter id="filter154" out="00:00:03.120">
      <property name="start">1</property>
      <property name="level">1</property>
      <property name="mlt_service">brightness</property>
      <property name="shotcut:filter">fadeInBrightness</property>
      <property name="alpha">00:00:00.000=0;00:00:00.280=1</property>
      <property name="shotcut:animIn">00:00:00.320</property>
    </filter>
    <filter id="filter155" out="00:00:03.120">
      <property name="background">color:#00000000</property>
      <property name="mlt_service">affine</property>
      <property name="shotcut:filter">affineSizePosition</property>
      <property name="transition.fill">1</property>
      <property name="transition.distort">0</property>
      <property name="transition.rect">00:00:00.000=0 0 720 540 1;00:00:01.920=-5.04 -4 730.08 548 1;00:00:03.120=0 0 720 540 1</property>
      <property name="transition.valign">middle</property>
      <property name="transition.halign">center</property>
      <property name="shotcut:animIn">00:00:01.120</property>
      <property name="shotcut:animOut">00:00:01.240</property>
      <property name="transition.threads">0</property>
      <property name="transition.fix_rotate_x">00:00:00.000=0;00:00:01.920=0;00:00:03.120=0</property>
    </filter>
  </producer>
  <playlist id="playlist3">
    <property name="shotcut:video">1</property>
    <property name="shotcut:name">V3</property>
    <blank length="00:00:02.160"/>
    <entry producer="producer33" in="00:00:00.000" out="00:00:01.480"/>
    <entry producer="producer20" in="00:00:00.000" out="00:00:03.440"/>
    <blank length="00:00:04.040"/>
    <entry producer="producer21" in="00:00:00.000" out="00:00:01.440"/>
    <entry producer="tractor8" in="00:00:00.000" out="00:00:00.000"/>
    <entry producer="producer22" in="00:00:00.040" out="00:00:03.440"/>
    <blank length="00:00:22.040"/>
    <entry producer="producer23" in="00:00:00.000" out="00:00:02.040"/>
    <blank length="00:00:01.400"/>
    <entry producer="producer24" in="00:00:00.040" out="00:00:03.440"/>
    <blank length="00:00:28.080"/>
    <entry producer="producer25" in="00:00:00.000" out="00:00:03.520"/>
    <blank length="00:00:00.760"/>
    <entry producer="producer26" in="00:00:00.040" out="00:00:03.440"/>
    <blank length="00:00:09.680"/>
    <entry producer="producer27" in="00:00:00.000" out="00:00:02.080"/>
    <blank length="00:00:06.600"/>
    <entry producer="producer28" in="00:00:00.000" out="00:00:02.240"/>
    <blank length="00:00:09.520"/>
    <entry producer="producer29" in="00:00:00.040" out="00:00:02.560"/>
    <blank length="00:00:08.640"/>
    <entry producer="producer30" in="00:00:00.040" out="00:00:02.440"/>
    <blank length="00:00:08.680"/>
    <entry producer="producer31" in="00:00:00.040" out="00:00:02.520"/>
    <blank length="00:00:50.920"/>
    <entry producer="producer34" in="00:00:00.000" out="00:00:02.440"/>
    <entry producer="producer35" in="00:00:00.040" out="00:00:03.720"/>
    <blank length="00:00:14.480"/>
    <entry producer="producer36" in="00:00:00.000" out="00:00:02.440"/>
    <entry producer="producer37" in="00:00:00.040" out="00:00:03.720"/>
    <blank length="00:00:30.800"/>
    <entry producer="producer38" in="00:00:00.000" out="00:00:02.440"/>
    <blank length="00:00:03.000"/>
    <entry producer="producer39" in="00:00:00.040" out="00:00:03.720"/>
    <blank length="00:00:34.720"/>
    <entry producer="producer40" in="00:00:00.000" out="00:00:01.680"/>
    <blank length="00:00:00.040"/>
    <entry producer="producer41" in="00:00:00.040" out="00:00:03.720"/>
    <blank length="00:00:22.040"/>
    <entry producer="producer42" in="00:00:00.000" out="00:00:01.920"/>
    <blank length="00:00:05.040"/>
    <entry producer="producer43" in="00:00:00.040" out="00:00:03.720"/>
    <blank length="00:00:23.400"/>
    <entry producer="producer44" in="00:00:00.000" out="00:00:01.920"/>
    <blank length="00:00:18.560"/>
    <entry producer="producer45" in="00:00:00.040" out="00:00:03.320"/>
    <blank length="00:00:19.560"/>
    <entry producer="producer46" in="00:00:00.000" out="00:00:01.920"/>
    <blank length="00:00:00.480"/>
    <entry producer="producer47" in="00:00:00.040" out="00:00:03.520"/>
    <blank length="00:00:05.200"/>
    <entry producer="producer48" in="00:00:00.000" out="00:00:01.920"/>
    <blank length="00:00:02.720"/>
    <entry producer="producer49" in="00:00:00.040" out="00:00:03.120"/>
  </playlist>
  <playlist id="playlist2">
    <property name="shotcut:audio">1</property>
    <property name="shotcut:name">A1</property>
    <blank length="00:00:00.040"/>
  </playlist>
  <tractor id="tractor9" title="Shotcut version 21.01.29" global_feed="1" in="00:00:00.000" out="00:07:10.280">
    <property name="shotcut">1</property>
    <property name="shotcut:projectAudioChannels">2</property>
    <property name="shotcut:projectFolder">1</property>
    <property name="shotcut:scaleFactor">1.42324</property>
    <property name="shotcut:trackHeight">52</property>
    <track producer="background"/>
    <track producer="playlist0"/>
    <track producer="playlist1"/>
    <track producer="playlist3"/>
    <track producer="playlist2" hide="video"/>
    <transition id="transition18">
      <property name="a_track">0</property>
      <property name="b_track">1</property>
      <property name="mlt_service">mix</property>
      <property name="always_active">1</property>
      <property name="sum">1</property>
    </transition>
    <transition id="transition19">
      <property name="a_track">0</property>
      <property name="b_track">1</property>
      <property name="version">0.9</property>
      <property name="mlt_service">frei0r.cairoblend</property>
      <property name="threads">0</property>
      <property name="disable">1</property>
    </transition>
    <transition id="transition20">
      <property name="a_track">0</property>
      <property name="b_track">2</property>
      <property name="mlt_service">mix</property>
      <property name="always_active">1</property>
      <property name="sum">1</property>
    </transition>
    <transition id="transition21">
      <property name="a_track">1</property>
      <property name="b_track">2</property>
      <property name="version">0.9</property>
      <property name="mlt_service">frei0r.cairoblend</property>
      <property name="threads">0</property>
      <property name="disable">0</property>
    </transition>
    <transition id="transition22">
      <property name="a_track">0</property>
      <property name="b_track">3</property>
      <property name="mlt_service">mix</property>
      <property name="always_active">1</property>
      <property name="sum">1</property>
    </transition>
    <transition id="transition23">
      <property name="a_track">1</property>
      <property name="b_track">3</property>
      <property name="version">0.9</property>
      <property name="mlt_service">frei0r.cairoblend</property>
      <property name="threads">0</property>
      <property name="disable">0</property>
    </transition>
    <transition id="transition24">
      <property name="a_track">0</property>
      <property name="b_track">4</property>
      <property name="mlt_service">mix</property>
      <property name="always_active">1</property>
      <property name="sum">1</property>
    </transition>
  </tractor>
</mlt>
