<?xml version="1.0" standalone="no"?>
<mlt LC_NUMERIC="C" version="6.25.0" title="Shotcut version 21.01.29" producer="main_bin">
  <profile description="automatic" width="720" height="540" progressive="1" sample_aspect_num="1" sample_aspect_den="1" display_aspect_num="720" display_aspect_den="540" frame_rate_num="25" frame_rate_den="1" colorspace="601"/>
  <producer id="producer5" in="00:00:00.000" out="00:01:06.960">
    <property name="length">00:01:07.000</property>
    <property name="eof">pause</property>
    <property name="resource">/Users/div/projects/laghu-sangitamrita/media/Мриданга/09 - Техаи/4 - Д.Кахарва тал/01 - Д-кахарва тал/01 - Техай 1.avi</property>
    <property name="audio_index">1</property>
    <property name="video_index">0</property>
    <property name="mute_on_pause">0</property>
    <property name="mlt_service">avformat-novalidate</property>
    <property name="seekable">1</property>
    <property name="aspect_ratio">1</property>
    <property name="creation_time">2021-02-01T20:45:48</property>
    <property name="global_feed">1</property>
    <property name="xml">was here</property>
    <property name="shotcut:hash">3b00ed3ed6e99f26240da7b53dbafc6c</property>
    <property name="ignore_points">1</property>
    <property name="shotcut:caption">01 - Техай 1.avi</property>
  </producer>
  <producer id="producer6" in="00:00:00.000" out="00:00:39.200">
    <property name="length">00:00:39.240</property>
    <property name="eof">pause</property>
    <property name="resource">/Users/div/projects/laghu-sangitamrita/media/Мриданга/09 - Техаи/4 - Д.Кахарва тал/01 - Д-кахарва тал/02 - Техай 2.avi</property>
    <property name="audio_index">1</property>
    <property name="video_index">0</property>
    <property name="mute_on_pause">0</property>
    <property name="mlt_service">avformat-novalidate</property>
    <property name="seekable">1</property>
    <property name="aspect_ratio">1</property>
    <property name="creation_time">2021-02-01T20:45:54</property>
    <property name="global_feed">1</property>
    <property name="xml">was here</property>
    <property name="shotcut:hash">7854c9c34e87ae9a01364c7e5b047728</property>
  </producer>
  <producer id="producer7" in="00:00:00.000" out="00:00:34.040">
    <property name="length">00:00:34.080</property>
    <property name="eof">pause</property>
    <property name="resource">/Users/div/projects/laghu-sangitamrita/media/Мриданга/09 - Техаи/4 - Д.Кахарва тал/01 - Д-кахарва тал/03 - Техай 3.avi</property>
    <property name="audio_index">1</property>
    <property name="video_index">0</property>
    <property name="mute_on_pause">0</property>
    <property name="mlt_service">avformat-novalidate</property>
    <property name="seekable">1</property>
    <property name="aspect_ratio">1</property>
    <property name="creation_time">2021-02-01T20:45:56</property>
    <property name="global_feed">1</property>
    <property name="xml">was here</property>
    <property name="shotcut:hash">669916f26e48083210ff3d40308ddd10</property>
  </producer>
  <producer id="producer8" in="00:00:00.000" out="00:00:49.560">
    <property name="length">00:00:49.600</property>
    <property name="eof">pause</property>
    <property name="resource">/Users/div/projects/laghu-sangitamrita/media/Мриданга/09 - Техаи/4 - Д.Кахарва тал/01 - Д-кахарва тал/04 - Техай 4.avi</property>
    <property name="audio_index">1</property>
    <property name="video_index">0</property>
    <property name="mute_on_pause">0</property>
    <property name="mlt_service">avformat-novalidate</property>
    <property name="seekable">1</property>
    <property name="aspect_ratio">1</property>
    <property name="creation_time">2021-02-01T20:45:58</property>
    <property name="global_feed">1</property>
    <property name="xml">was here</property>
    <property name="shotcut:hash">c8ae12289b2e2bcd6eb5da8b27734cb2</property>
  </producer>
  <producer id="producer9" in="00:00:00.000" out="00:00:43.960">
    <property name="length">00:00:44.000</property>
    <property name="eof">pause</property>
    <property name="resource">/Users/div/projects/laghu-sangitamrita/media/Мриданга/09 - Техаи/4 - Д.Кахарва тал/01 - Д-кахарва тал/05 - Техай 5.avi</property>
    <property name="audio_index">1</property>
    <property name="video_index">0</property>
    <property name="mute_on_pause">0</property>
    <property name="mlt_service">avformat-novalidate</property>
    <property name="seekable">1</property>
    <property name="aspect_ratio">1</property>
    <property name="creation_time">2021-02-01T20:46:02</property>
    <property name="global_feed">1</property>
    <property name="xml">was here</property>
    <property name="shotcut:hash">2fcac136096ec6baca8c35bec3a59270</property>
  </producer>
  <producer id="producer10" in="00:00:00.000" out="00:00:31.400">
    <property name="length">00:00:31.440</property>
    <property name="eof">pause</property>
    <property name="resource">/Users/div/projects/laghu-sangitamrita/media/Мриданга/09 - Техаи/4 - Д.Кахарва тал/01 - Д-кахарва тал/06 - Техай 6.avi</property>
    <property name="audio_index">1</property>
    <property name="video_index">0</property>
    <property name="mute_on_pause">0</property>
    <property name="mlt_service">avformat-novalidate</property>
    <property name="seekable">1</property>
    <property name="aspect_ratio">1</property>
    <property name="creation_time">2021-02-01T20:46:08</property>
    <property name="global_feed">1</property>
    <property name="xml">was here</property>
    <property name="shotcut:hash">c1e1a0d785745e5177709c1b62d72d83</property>
  </producer>
  <producer id="producer11" in="00:00:00.000" out="00:00:37.880">
    <property name="length">00:00:37.920</property>
    <property name="eof">pause</property>
    <property name="resource">/Users/div/projects/laghu-sangitamrita/media/Мриданга/09 - Техаи/4 - Д.Кахарва тал/01 - Д-кахарва тал/07 - Техай 7.avi</property>
    <property name="audio_index">1</property>
    <property name="video_index">0</property>
    <property name="mute_on_pause">0</property>
    <property name="mlt_service">avformat-novalidate</property>
    <property name="seekable">1</property>
    <property name="aspect_ratio">1</property>
    <property name="creation_time">2021-02-01T20:46:10</property>
    <property name="global_feed">1</property>
    <property name="xml">was here</property>
    <property name="shotcut:hash">494e4651ee3dabfd922414f326f95c3c</property>
  </producer>
  <producer id="producer12" in="00:00:00.000" out="00:00:50.040">
    <property name="length">00:00:50.080</property>
    <property name="eof">pause</property>
    <property name="resource">/Users/div/projects/laghu-sangitamrita/media/Мриданга/09 - Техаи/4 - Д.Кахарва тал/01 - Д-кахарва тал/08 - Техай 8.avi</property>
    <property name="audio_index">1</property>
    <property name="video_index">0</property>
    <property name="mute_on_pause">0</property>
    <property name="mlt_service">avformat-novalidate</property>
    <property name="seekable">1</property>
    <property name="aspect_ratio">1</property>
    <property name="creation_time">2021-02-01T20:46:12</property>
    <property name="global_feed">1</property>
    <property name="xml">was here</property>
    <property name="shotcut:hash">823172dd221162088432a9750ed4d3d9</property>
  </producer>
  <producer id="producer13" in="00:00:00.000" out="00:00:25.560">
    <property name="length">00:00:25.600</property>
    <property name="eof">pause</property>
    <property name="resource">/Users/div/projects/laghu-sangitamrita/media/Мриданга/09 - Техаи/4 - Д.Кахарва тал/01 - Д-кахарва тал/09 - Техай 9.avi</property>
    <property name="audio_index">1</property>
    <property name="video_index">0</property>
    <property name="mute_on_pause">0</property>
    <property name="mlt_service">avformat-novalidate</property>
    <property name="seekable">1</property>
    <property name="aspect_ratio">1</property>
    <property name="creation_time">2021-02-01T20:46:16</property>
    <property name="global_feed">1</property>
    <property name="xml">was here</property>
    <property name="shotcut:hash">e5265afc80ef8583052b16e6066515f8</property>
  </producer>
  <producer id="producer14" in="00:00:00.000" out="00:00:26.200">
    <property name="length">00:00:26.240</property>
    <property name="eof">pause</property>
    <property name="resource">/Users/div/projects/laghu-sangitamrita/media/Мриданга/09 - Техаи/4 - Д.Кахарва тал/01 - Д-кахарва тал/10 - Техай 10.avi</property>
    <property name="audio_index">1</property>
    <property name="video_index">0</property>
    <property name="mute_on_pause">0</property>
    <property name="mlt_service">avformat-novalidate</property>
    <property name="seekable">1</property>
    <property name="aspect_ratio">1</property>
    <property name="creation_time">2021-02-01T20:46:18</property>
    <property name="global_feed">1</property>
    <property name="xml">was here</property>
    <property name="shotcut:hash">3004cc91979ba3ee12ad59fe44c12ecd</property>
  </producer>
  <producer id="producer15" in="00:00:00.000" out="00:00:27.760">
    <property name="length">00:00:27.800</property>
    <property name="eof">pause</property>
    <property name="resource">/Users/div/projects/laghu-sangitamrita/media/Мриданга/09 - Техаи/4 - Д.Кахарва тал/01 - Д-кахарва тал/11 - Техай 11.avi</property>
    <property name="audio_index">1</property>
    <property name="video_index">0</property>
    <property name="mute_on_pause">0</property>
    <property name="mlt_service">avformat-novalidate</property>
    <property name="seekable">1</property>
    <property name="aspect_ratio">1</property>
    <property name="creation_time">2021-02-01T20:46:22</property>
    <property name="global_feed">1</property>
    <property name="xml">was here</property>
    <property name="shotcut:hash">75ce459d9711f95804fefdbb72d586a6</property>
  </producer>
  <producer id="producer16" in="00:00:00.000" out="00:00:36.160">
    <property name="length">00:00:36.200</property>
    <property name="eof">pause</property>
    <property name="resource">/Users/div/projects/laghu-sangitamrita/media/Мриданга/09 - Техаи/4 - Д.Кахарва тал/01 - Д-кахарва тал/12 - Техай 12.avi</property>
    <property name="audio_index">1</property>
    <property name="video_index">0</property>
    <property name="mute_on_pause">0</property>
    <property name="mlt_service">avformat-novalidate</property>
    <property name="seekable">1</property>
    <property name="aspect_ratio">1</property>
    <property name="creation_time">2021-02-01T20:46:24</property>
    <property name="global_feed">1</property>
    <property name="xml">was here</property>
    <property name="shotcut:hash">35b2dd7090f582bb250e70bb331e8fe9</property>
  </producer>
  <producer id="producer18" in="00:00:00.000" out="00:00:37.760">
    <property name="length">00:00:37.800</property>
    <property name="eof">pause</property>
    <property name="resource">/Users/div/projects/laghu-sangitamrita/media/Мриданга/09 - Техаи/4 - Д.Кахарва тал/02 - Мантры для игры стоя и Харинам/01 - Техай (мантра 1).avi</property>
    <property name="audio_index">1</property>
    <property name="video_index">0</property>
    <property name="mute_on_pause">0</property>
    <property name="mlt_service">avformat-novalidate</property>
    <property name="seekable">1</property>
    <property name="aspect_ratio">1</property>
    <property name="creation_time">2021-02-01T20:46:26</property>
    <property name="global_feed">1</property>
    <property name="xml">was here</property>
    <property name="shotcut:hash">b190edf4898f55cf010fc72cfaede5b5</property>
    <property name="ignore_points">1</property>
    <property name="shotcut:caption">01 - Техай (мантра 1).avi</property>
  </producer>
  <producer id="producer19" in="00:00:00.000" out="00:00:44.120">
    <property name="length">00:00:44.160</property>
    <property name="eof">pause</property>
    <property name="resource">/Users/div/projects/laghu-sangitamrita/media/Мриданга/09 - Техаи/4 - Д.Кахарва тал/02 - Мантры для игры стоя и Харинам/02 - Техай (мантра 2).avi</property>
    <property name="audio_index">1</property>
    <property name="video_index">0</property>
    <property name="mute_on_pause">0</property>
    <property name="mlt_service">avformat-novalidate</property>
    <property name="seekable">1</property>
    <property name="aspect_ratio">1</property>
    <property name="creation_time">2021-02-01T20:46:32</property>
    <property name="global_feed">1</property>
    <property name="xml">was here</property>
    <property name="shotcut:hash">88bc7267748fe26fa7f6c608a3b8427f</property>
  </producer>
  <playlist id="main_bin" title="Shotcut version 21.01.29">
    <property name="shotcut:projectAudioChannels">2</property>
    <property name="shotcut:projectFolder">1</property>
    <property name="xml_retain">1</property>
    <entry producer="producer5" in="00:00:00.000" out="00:01:06.960"/>
    <entry producer="producer6" in="00:00:00.000" out="00:00:39.200"/>
    <entry producer="producer7" in="00:00:00.000" out="00:00:34.040"/>
    <entry producer="producer8" in="00:00:00.000" out="00:00:49.560"/>
    <entry producer="producer9" in="00:00:00.000" out="00:00:43.960"/>
    <entry producer="producer10" in="00:00:00.000" out="00:00:31.400"/>
    <entry producer="producer11" in="00:00:00.000" out="00:00:37.880"/>
    <entry producer="producer12" in="00:00:00.000" out="00:00:50.040"/>
    <entry producer="producer13" in="00:00:00.000" out="00:00:25.560"/>
    <entry producer="producer14" in="00:00:00.000" out="00:00:26.200"/>
    <entry producer="producer15" in="00:00:00.000" out="00:00:27.760"/>
    <entry producer="producer16" in="00:00:00.000" out="00:00:36.160"/>
    <entry producer="producer18" in="00:00:00.000" out="00:00:37.760"/>
    <entry producer="producer19" in="00:00:00.000" out="00:00:44.120"/>
  </playlist>
  <producer id="black" in="00:00:00.000" out="00:07:47.400">
    <property name="length">00:07:47.440</property>
    <property name="eof">pause</property>
    <property name="resource">0</property>
    <property name="aspect_ratio">1</property>
    <property name="mlt_service">color</property>
    <property name="mlt_image_format">rgb24a</property>
    <property name="set.test_audio">0</property>
  </producer>
  <playlist id="background">
    <entry producer="black" in="00:00:00.000" out="00:07:47.400"/>
  </playlist>
  <producer id="producer0" in="00:00:00.000" out="00:01:06.960">
    <property name="length">00:01:07.000</property>
    <property name="eof">pause</property>
    <property name="resource">/Users/div/projects/laghu-sangitamrita/media/Мриданга/09 - Техаи/4 - Д.Кахарва тал/01 - Д-кахарва тал/01 - Техай 1.avi</property>
    <property name="audio_index">1</property>
    <property name="video_index">0</property>
    <property name="mute_on_pause">0</property>
    <property name="mlt_service">avformat-novalidate</property>
    <property name="seekable">1</property>
    <property name="aspect_ratio">1</property>
    <property name="creation_time">2021-02-01T20:45:48</property>
    <property name="global_feed">1</property>
    <property name="xml">was here</property>
    <property name="shotcut:hash">3b00ed3ed6e99f26240da7b53dbafc6c</property>
    <property name="ignore_points">0</property>
    <property name="shotcut:caption">01 - Техай 1.avi</property>
    <filter id="filter0" out="00:01:06.960">
      <property name="version">0.2</property>
      <property name="mlt_service">frei0r.c0rners</property>
      <property name="0">0.322667</property>
      <property name="1">0.333333</property>
      <property name="2">0.677333</property>
      <property name="3">0.333333</property>
      <property name="4">0.6773</property>
      <property name="5">0.666667</property>
      <property name="6">0.322667</property>
      <property name="7">0.666667</property>
      <property name="8">1</property>
      <property name="9">0.5</property>
      <property name="10">0.5</property>
      <property name="11">0.333333</property>
      <property name="12">1</property>
      <property name="14">0</property>
      <property name="13">0.01</property>
      <property name="shotcut:corner1">0.322667 0.333333 1 1</property>
      <property name="shotcut:corner2">0.677333 0.333333 1 1</property>
      <property name="shotcut:corner3">0.6773 0.666667 1 1</property>
      <property name="shotcut:corner4">0.322667 0.666667 1 1</property>
      <property name="shotcut:animIn">00:00:00.000</property>
      <property name="shotcut:animOut">00:00:00.000</property>
    </filter>
    <filter id="filter1" out="00:01:06.960">
      <property name="version">0.2</property>
      <property name="mlt_service">frei0r.IIRblur</property>
      <property name="shotcut:filter">blur_gaussian</property>
      <property name="1">0.99</property>
      <property name="0">00:00:01.160=0;00:00:01.880=0.428;00:00:02.680=0.425532;00:00:03.000=0</property>
      <property name="shotcut:animIn">00:00:00.000</property>
      <property name="shotcut:animOut">00:00:00.000</property>
    </filter>
  </producer>
  <producer id="producer1" in="00:00:00.000" out="00:00:39.200">
    <property name="length">00:00:39.240</property>
    <property name="eof">pause</property>
    <property name="resource">/Users/div/projects/laghu-sangitamrita/media/Мриданга/09 - Техаи/4 - Д.Кахарва тал/01 - Д-кахарва тал/02 - Техай 2.avi</property>
    <property name="audio_index">1</property>
    <property name="video_index">0</property>
    <property name="mute_on_pause">0</property>
    <property name="mlt_service">avformat-novalidate</property>
    <property name="seekable">1</property>
    <property name="aspect_ratio">1</property>
    <property name="creation_time">2021-02-01T20:45:54</property>
    <property name="global_feed">1</property>
    <property name="xml">was here</property>
    <property name="shotcut:hash">7854c9c34e87ae9a01364c7e5b047728</property>
    <property name="shotcut:caption">02 - Техай 2.avi</property>
    <filter id="filter2" out="00:00:39.200">
      <property name="version">0.2</property>
      <property name="mlt_service">frei0r.c0rners</property>
      <property name="0">0.322667</property>
      <property name="1">0.333333</property>
      <property name="2">0.677333</property>
      <property name="3">0.333333</property>
      <property name="4">0.6773</property>
      <property name="5">0.666667</property>
      <property name="6">0.322667</property>
      <property name="7">0.666667</property>
      <property name="8">1</property>
      <property name="9">0.5</property>
      <property name="10">0.5</property>
      <property name="11">0.333333</property>
      <property name="12">1</property>
      <property name="14">0</property>
      <property name="13">0.01</property>
      <property name="shotcut:corner1">0.322667 0.333333 1 1</property>
      <property name="shotcut:corner2">0.677333 0.333333 1 1</property>
      <property name="shotcut:corner3">0.6773 0.666667 1 1</property>
      <property name="shotcut:corner4">0.322667 0.666667 1 1</property>
      <property name="shotcut:animIn">00:00:00.000</property>
      <property name="shotcut:animOut">00:00:00.000</property>
    </filter>
  </producer>
  <tractor id="tractor0" global_feed="1" in="00:00:00.000" out="00:00:00.120">
    <property name="shotcut:transition">lumaMix</property>
    <track producer="producer0" in="00:01:06.840" out="00:01:06.960"/>
    <track producer="producer1" in="00:00:00.000" out="00:00:00.120"/>
    <transition id="transition0" out="00:00:00.120">
      <property name="a_track">0</property>
      <property name="b_track">1</property>
      <property name="factory">loader</property>
      <property name="mlt_service">luma</property>
      <property name="alpha_over">1</property>
    </transition>
    <transition id="transition1" out="00:00:00.120">
      <property name="a_track">0</property>
      <property name="b_track">1</property>
      <property name="mlt_service">mix</property>
      <property name="start">-1</property>
      <property name="accepts_blanks">1</property>
    </transition>
  </tractor>
  <producer id="producer2" in="00:00:00.000" out="00:00:34.040">
    <property name="length">00:00:34.080</property>
    <property name="eof">pause</property>
    <property name="resource">/Users/div/projects/laghu-sangitamrita/media/Мриданга/09 - Техаи/4 - Д.Кахарва тал/01 - Д-кахарва тал/03 - Техай 3.avi</property>
    <property name="audio_index">1</property>
    <property name="video_index">0</property>
    <property name="mute_on_pause">0</property>
    <property name="mlt_service">avformat-novalidate</property>
    <property name="seekable">1</property>
    <property name="aspect_ratio">1</property>
    <property name="creation_time">2021-02-01T20:45:56</property>
    <property name="global_feed">1</property>
    <property name="xml">was here</property>
    <property name="shotcut:hash">669916f26e48083210ff3d40308ddd10</property>
    <property name="shotcut:caption">03 - Техай 3.avi</property>
    <filter id="filter3" out="00:00:34.040">
      <property name="version">0.2</property>
      <property name="mlt_service">frei0r.c0rners</property>
      <property name="0">0.322667</property>
      <property name="1">0.333333</property>
      <property name="2">0.677333</property>
      <property name="3">0.333333</property>
      <property name="4">0.6773</property>
      <property name="5">0.666667</property>
      <property name="6">0.322667</property>
      <property name="7">0.666667</property>
      <property name="8">1</property>
      <property name="9">0.5</property>
      <property name="10">0.5</property>
      <property name="11">0.333333</property>
      <property name="12">1</property>
      <property name="14">0</property>
      <property name="13">0.01</property>
      <property name="shotcut:corner1">0.322667 0.333333 1 1</property>
      <property name="shotcut:corner2">0.677333 0.333333 1 1</property>
      <property name="shotcut:corner3">0.6773 0.666667 1 1</property>
      <property name="shotcut:corner4">0.322667 0.666667 1 1</property>
      <property name="shotcut:animIn">00:00:00.000</property>
      <property name="shotcut:animOut">00:00:00.000</property>
    </filter>
  </producer>
  <tractor id="tractor1" global_feed="1" in="00:00:00.000" out="00:00:00.160">
    <property name="shotcut:transition">lumaMix</property>
    <track producer="producer1" in="00:00:39.040" out="00:00:39.200"/>
    <track producer="producer2" in="00:00:00.000" out="00:00:00.160"/>
    <transition id="transition2" out="00:00:00.160">
      <property name="a_track">0</property>
      <property name="b_track">1</property>
      <property name="factory">loader</property>
      <property name="mlt_service">luma</property>
      <property name="alpha_over">1</property>
    </transition>
    <transition id="transition3" out="00:00:00.160">
      <property name="a_track">0</property>
      <property name="b_track">1</property>
      <property name="mlt_service">mix</property>
      <property name="start">-1</property>
      <property name="accepts_blanks">1</property>
    </transition>
  </tractor>
  <producer id="producer3" in="00:00:00.000" out="00:00:49.560">
    <property name="length">00:00:49.600</property>
    <property name="eof">pause</property>
    <property name="resource">/Users/div/projects/laghu-sangitamrita/media/Мриданга/09 - Техаи/4 - Д.Кахарва тал/01 - Д-кахарва тал/04 - Техай 4.avi</property>
    <property name="audio_index">1</property>
    <property name="video_index">0</property>
    <property name="mute_on_pause">0</property>
    <property name="mlt_service">avformat-novalidate</property>
    <property name="seekable">1</property>
    <property name="aspect_ratio">1</property>
    <property name="creation_time">2021-02-01T20:45:58</property>
    <property name="global_feed">1</property>
    <property name="xml">was here</property>
    <property name="shotcut:hash">c8ae12289b2e2bcd6eb5da8b27734cb2</property>
    <property name="shotcut:caption">04 - Техай 4.avi</property>
    <filter id="filter4" out="00:00:49.560">
      <property name="version">0.2</property>
      <property name="mlt_service">frei0r.c0rners</property>
      <property name="0">0.322667</property>
      <property name="1">0.333333</property>
      <property name="2">0.677333</property>
      <property name="3">0.333333</property>
      <property name="4">0.6773</property>
      <property name="5">0.666667</property>
      <property name="6">0.322667</property>
      <property name="7">0.666667</property>
      <property name="8">1</property>
      <property name="9">0.5</property>
      <property name="10">0.5</property>
      <property name="11">0.333333</property>
      <property name="12">1</property>
      <property name="14">0</property>
      <property name="13">0.01</property>
      <property name="shotcut:corner1">0.322667 0.333333 1 1</property>
      <property name="shotcut:corner2">0.677333 0.333333 1 1</property>
      <property name="shotcut:corner3">0.6773 0.666667 1 1</property>
      <property name="shotcut:corner4">0.322667 0.666667 1 1</property>
      <property name="shotcut:animIn">00:00:00.000</property>
      <property name="shotcut:animOut">00:00:00.000</property>
    </filter>
  </producer>
  <tractor id="tractor2" global_feed="1" in="00:00:00.000" out="00:00:00.120">
    <property name="shotcut:transition">lumaMix</property>
    <track producer="producer2" in="00:00:33.920" out="00:00:34.040"/>
    <track producer="producer3" in="00:00:00.000" out="00:00:00.120"/>
    <transition id="transition4" out="00:00:00.120">
      <property name="a_track">0</property>
      <property name="b_track">1</property>
      <property name="factory">loader</property>
      <property name="mlt_service">luma</property>
      <property name="alpha_over">1</property>
    </transition>
    <transition id="transition5" out="00:00:00.120">
      <property name="a_track">0</property>
      <property name="b_track">1</property>
      <property name="mlt_service">mix</property>
      <property name="start">-1</property>
      <property name="accepts_blanks">1</property>
    </transition>
  </tractor>
  <producer id="producer4" in="00:00:00.000" out="00:00:43.960">
    <property name="length">00:00:44.000</property>
    <property name="eof">pause</property>
    <property name="resource">/Users/div/projects/laghu-sangitamrita/media/Мриданга/09 - Техаи/4 - Д.Кахарва тал/01 - Д-кахарва тал/05 - Техай 5.avi</property>
    <property name="audio_index">1</property>
    <property name="video_index">0</property>
    <property name="mute_on_pause">0</property>
    <property name="mlt_service">avformat-novalidate</property>
    <property name="seekable">1</property>
    <property name="aspect_ratio">1</property>
    <property name="creation_time">2021-02-01T20:46:02</property>
    <property name="global_feed">1</property>
    <property name="xml">was here</property>
    <property name="shotcut:hash">2fcac136096ec6baca8c35bec3a59270</property>
    <property name="shotcut:caption">05 - Техай 5.avi</property>
    <filter id="filter5" out="00:00:43.960">
      <property name="version">0.2</property>
      <property name="mlt_service">frei0r.c0rners</property>
      <property name="0">0.322667</property>
      <property name="1">0.333333</property>
      <property name="2">0.677333</property>
      <property name="3">0.333333</property>
      <property name="4">0.6773</property>
      <property name="5">0.666667</property>
      <property name="6">0.322667</property>
      <property name="7">0.666667</property>
      <property name="8">1</property>
      <property name="9">0.5</property>
      <property name="10">0.5</property>
      <property name="11">0.333333</property>
      <property name="12">1</property>
      <property name="14">0</property>
      <property name="13">0.01</property>
      <property name="shotcut:corner1">0.322667 0.333333 1 1</property>
      <property name="shotcut:corner2">0.677333 0.333333 1 1</property>
      <property name="shotcut:corner3">0.6773 0.666667 1 1</property>
      <property name="shotcut:corner4">0.322667 0.666667 1 1</property>
      <property name="shotcut:animIn">00:00:00.000</property>
      <property name="shotcut:animOut">00:00:00.000</property>
    </filter>
  </producer>
  <tractor id="tractor3" global_feed="1" in="00:00:00.000" out="00:00:00.120">
    <property name="shotcut:transition">lumaMix</property>
    <track producer="producer3" in="00:00:49.440" out="00:00:49.560"/>
    <track producer="producer4" in="00:00:00.000" out="00:00:00.120"/>
    <transition id="transition6" out="00:00:00.120">
      <property name="a_track">0</property>
      <property name="b_track">1</property>
      <property name="factory">loader</property>
      <property name="mlt_service">luma</property>
      <property name="alpha_over">1</property>
    </transition>
    <transition id="transition7" out="00:00:00.120">
      <property name="a_track">0</property>
      <property name="b_track">1</property>
      <property name="mlt_service">mix</property>
      <property name="start">-1</property>
      <property name="accepts_blanks">1</property>
    </transition>
  </tractor>
  <producer id="producer17" in="00:00:00.000" out="00:00:31.400">
    <property name="length">00:00:31.440</property>
    <property name="eof">pause</property>
    <property name="resource">/Users/div/projects/laghu-sangitamrita/media/Мриданга/09 - Техаи/4 - Д.Кахарва тал/01 - Д-кахарва тал/06 - Техай 6.avi</property>
    <property name="audio_index">1</property>
    <property name="video_index">0</property>
    <property name="mute_on_pause">0</property>
    <property name="mlt_service">avformat-novalidate</property>
    <property name="seekable">1</property>
    <property name="aspect_ratio">1</property>
    <property name="creation_time">2021-02-01T20:46:08</property>
    <property name="global_feed">1</property>
    <property name="xml">was here</property>
    <property name="shotcut:hash">c1e1a0d785745e5177709c1b62d72d83</property>
    <property name="shotcut:caption">06 - Техай 6.avi</property>
    <filter id="filter6" out="00:00:31.400">
      <property name="version">0.2</property>
      <property name="mlt_service">frei0r.c0rners</property>
      <property name="0">0.322667</property>
      <property name="1">0.333333</property>
      <property name="2">0.677333</property>
      <property name="3">0.333333</property>
      <property name="4">0.6773</property>
      <property name="5">0.666667</property>
      <property name="6">0.322667</property>
      <property name="7">0.666667</property>
      <property name="8">1</property>
      <property name="9">0.5</property>
      <property name="10">0.5</property>
      <property name="11">0.333333</property>
      <property name="12">1</property>
      <property name="14">0</property>
      <property name="13">0.01</property>
      <property name="shotcut:corner1">0.322667 0.333333 1 1</property>
      <property name="shotcut:corner2">0.677333 0.333333 1 1</property>
      <property name="shotcut:corner3">0.6773 0.666667 1 1</property>
      <property name="shotcut:corner4">0.322667 0.666667 1 1</property>
      <property name="shotcut:animIn">00:00:00.000</property>
      <property name="shotcut:animOut">00:00:00.000</property>
    </filter>
  </producer>
  <tractor id="tractor4" global_feed="1" in="00:00:00.000" out="00:00:00.160">
    <property name="shotcut:transition">lumaMix</property>
    <track producer="producer4" in="00:00:43.800" out="00:00:43.960"/>
    <track producer="producer17" in="00:00:00.000" out="00:00:00.160"/>
    <transition id="transition8" out="00:00:00.160">
      <property name="a_track">0</property>
      <property name="b_track">1</property>
      <property name="factory">loader</property>
      <property name="mlt_service">luma</property>
      <property name="alpha_over">1</property>
    </transition>
    <transition id="transition9" out="00:00:00.160">
      <property name="a_track">0</property>
      <property name="b_track">1</property>
      <property name="mlt_service">mix</property>
      <property name="start">-1</property>
      <property name="accepts_blanks">1</property>
    </transition>
  </tractor>
  <producer id="producer20" in="00:00:00.000" out="00:00:37.880">
    <property name="length">00:00:37.920</property>
    <property name="eof">pause</property>
    <property name="resource">/Users/div/projects/laghu-sangitamrita/media/Мриданга/09 - Техаи/4 - Д.Кахарва тал/01 - Д-кахарва тал/07 - Техай 7.avi</property>
    <property name="audio_index">1</property>
    <property name="video_index">0</property>
    <property name="mute_on_pause">0</property>
    <property name="mlt_service">avformat-novalidate</property>
    <property name="seekable">1</property>
    <property name="aspect_ratio">1</property>
    <property name="creation_time">2021-02-01T20:46:10</property>
    <property name="global_feed">1</property>
    <property name="xml">was here</property>
    <property name="shotcut:hash">494e4651ee3dabfd922414f326f95c3c</property>
    <property name="shotcut:caption">07 - Техай 7.avi</property>
    <filter id="filter7" out="00:00:37.880">
      <property name="version">0.2</property>
      <property name="mlt_service">frei0r.c0rners</property>
      <property name="0">0.322667</property>
      <property name="1">0.333333</property>
      <property name="2">0.677333</property>
      <property name="3">0.333333</property>
      <property name="4">0.6773</property>
      <property name="5">0.666667</property>
      <property name="6">0.322667</property>
      <property name="7">0.666667</property>
      <property name="8">1</property>
      <property name="9">0.5</property>
      <property name="10">0.5</property>
      <property name="11">0.333333</property>
      <property name="12">1</property>
      <property name="14">0</property>
      <property name="13">0.01</property>
      <property name="shotcut:corner1">0.322667 0.333333 1 1</property>
      <property name="shotcut:corner2">0.677333 0.333333 1 1</property>
      <property name="shotcut:corner3">0.6773 0.666667 1 1</property>
      <property name="shotcut:corner4">0.322667 0.666667 1 1</property>
      <property name="shotcut:animIn">00:00:00.000</property>
      <property name="shotcut:animOut">00:00:00.000</property>
    </filter>
  </producer>
  <tractor id="tractor5" global_feed="1" in="00:00:00.000" out="00:00:00.160">
    <property name="shotcut:transition">lumaMix</property>
    <track producer="producer17" in="00:00:31.240" out="00:00:31.400"/>
    <track producer="producer20" in="00:00:00.000" out="00:00:00.160"/>
    <transition id="transition10" out="00:00:00.160">
      <property name="a_track">0</property>
      <property name="b_track">1</property>
      <property name="factory">loader</property>
      <property name="mlt_service">luma</property>
      <property name="alpha_over">1</property>
    </transition>
    <transition id="transition11" out="00:00:00.160">
      <property name="a_track">0</property>
      <property name="b_track">1</property>
      <property name="mlt_service">mix</property>
      <property name="start">-1</property>
      <property name="accepts_blanks">1</property>
    </transition>
  </tractor>
  <producer id="producer21" in="00:00:00.000" out="00:00:50.040">
    <property name="length">00:00:50.080</property>
    <property name="eof">pause</property>
    <property name="resource">/Users/div/projects/laghu-sangitamrita/media/Мриданга/09 - Техаи/4 - Д.Кахарва тал/01 - Д-кахарва тал/08 - Техай 8.avi</property>
    <property name="audio_index">1</property>
    <property name="video_index">0</property>
    <property name="mute_on_pause">0</property>
    <property name="mlt_service">avformat-novalidate</property>
    <property name="seekable">1</property>
    <property name="aspect_ratio">1</property>
    <property name="creation_time">2021-02-01T20:46:12</property>
    <property name="global_feed">1</property>
    <property name="xml">was here</property>
    <property name="shotcut:hash">823172dd221162088432a9750ed4d3d9</property>
    <property name="shotcut:caption">08 - Техай 8.avi</property>
    <filter id="filter8" out="00:00:50.040">
      <property name="version">0.2</property>
      <property name="mlt_service">frei0r.c0rners</property>
      <property name="0">0.322667</property>
      <property name="1">0.333333</property>
      <property name="2">0.677333</property>
      <property name="3">0.333333</property>
      <property name="4">0.6773</property>
      <property name="5">0.666667</property>
      <property name="6">0.322667</property>
      <property name="7">0.666667</property>
      <property name="8">1</property>
      <property name="9">0.5</property>
      <property name="10">0.5</property>
      <property name="11">0.333333</property>
      <property name="12">1</property>
      <property name="14">0</property>
      <property name="13">0.01</property>
      <property name="shotcut:corner1">0.322667 0.333333 1 1</property>
      <property name="shotcut:corner2">0.677333 0.333333 1 1</property>
      <property name="shotcut:corner3">0.6773 0.666667 1 1</property>
      <property name="shotcut:corner4">0.322667 0.666667 1 1</property>
      <property name="shotcut:animIn">00:00:00.000</property>
      <property name="shotcut:animOut">00:00:00.000</property>
    </filter>
  </producer>
  <tractor id="tractor6" global_feed="1" in="00:00:00.000" out="00:00:00.160">
    <property name="shotcut:transition">lumaMix</property>
    <track producer="producer20" in="00:00:37.720" out="00:00:37.880"/>
    <track producer="producer21" in="00:00:00.000" out="00:00:00.160"/>
    <transition id="transition12" out="00:00:00.160">
      <property name="a_track">0</property>
      <property name="b_track">1</property>
      <property name="factory">loader</property>
      <property name="mlt_service">luma</property>
      <property name="alpha_over">1</property>
    </transition>
    <transition id="transition13" out="00:00:00.160">
      <property name="a_track">0</property>
      <property name="b_track">1</property>
      <property name="mlt_service">mix</property>
      <property name="start">-1</property>
      <property name="accepts_blanks">1</property>
    </transition>
  </tractor>
  <producer id="producer22" in="00:00:00.000" out="00:00:25.560">
    <property name="length">00:00:25.600</property>
    <property name="eof">pause</property>
    <property name="resource">/Users/div/projects/laghu-sangitamrita/media/Мриданга/09 - Техаи/4 - Д.Кахарва тал/01 - Д-кахарва тал/09 - Техай 9.avi</property>
    <property name="audio_index">1</property>
    <property name="video_index">0</property>
    <property name="mute_on_pause">0</property>
    <property name="mlt_service">avformat-novalidate</property>
    <property name="seekable">1</property>
    <property name="aspect_ratio">1</property>
    <property name="creation_time">2021-02-01T20:46:16</property>
    <property name="global_feed">1</property>
    <property name="xml">was here</property>
    <property name="shotcut:hash">e5265afc80ef8583052b16e6066515f8</property>
    <property name="shotcut:caption">09 - Техай 9.avi</property>
    <filter id="filter9" out="00:00:25.560">
      <property name="version">0.2</property>
      <property name="mlt_service">frei0r.c0rners</property>
      <property name="0">0.322667</property>
      <property name="1">0.333333</property>
      <property name="2">0.677333</property>
      <property name="3">0.333333</property>
      <property name="4">0.6773</property>
      <property name="5">0.666667</property>
      <property name="6">0.322667</property>
      <property name="7">0.666667</property>
      <property name="8">1</property>
      <property name="9">0.5</property>
      <property name="10">0.5</property>
      <property name="11">0.333333</property>
      <property name="12">1</property>
      <property name="14">0</property>
      <property name="13">0.01</property>
      <property name="shotcut:corner1">0.322667 0.333333 1 1</property>
      <property name="shotcut:corner2">0.677333 0.333333 1 1</property>
      <property name="shotcut:corner3">0.6773 0.666667 1 1</property>
      <property name="shotcut:corner4">0.322667 0.666667 1 1</property>
      <property name="shotcut:animIn">00:00:00.000</property>
      <property name="shotcut:animOut">00:00:00.000</property>
    </filter>
  </producer>
  <tractor id="tractor7" global_feed="1" in="00:00:00.000" out="00:00:00.000">
    <property name="shotcut:transition">lumaMix</property>
    <track producer="producer21" in="00:00:50.040" out="00:00:50.040"/>
    <track producer="producer22" in="00:00:00.000" out="00:00:00.000"/>
    <transition id="transition14">
      <property name="a_track">0</property>
      <property name="b_track">1</property>
      <property name="factory">loader</property>
      <property name="mlt_service">luma</property>
      <property name="alpha_over">1</property>
    </transition>
    <transition id="transition15">
      <property name="a_track">0</property>
      <property name="b_track">1</property>
      <property name="mlt_service">mix</property>
      <property name="start">-1</property>
      <property name="accepts_blanks">1</property>
    </transition>
  </tractor>
  <producer id="producer23" in="00:00:00.000" out="00:00:26.200">
    <property name="length">00:00:26.240</property>
    <property name="eof">pause</property>
    <property name="resource">/Users/div/projects/laghu-sangitamrita/media/Мриданга/09 - Техаи/4 - Д.Кахарва тал/01 - Д-кахарва тал/10 - Техай 10.avi</property>
    <property name="audio_index">1</property>
    <property name="video_index">0</property>
    <property name="mute_on_pause">0</property>
    <property name="mlt_service">avformat-novalidate</property>
    <property name="seekable">1</property>
    <property name="aspect_ratio">1</property>
    <property name="creation_time">2021-02-01T20:46:18</property>
    <property name="global_feed">1</property>
    <property name="xml">was here</property>
    <property name="shotcut:hash">3004cc91979ba3ee12ad59fe44c12ecd</property>
    <property name="shotcut:caption">10 - Техай 10.avi</property>
    <filter id="filter10" out="00:00:26.200">
      <property name="version">0.2</property>
      <property name="mlt_service">frei0r.c0rners</property>
      <property name="0">0.322667</property>
      <property name="1">0.333333</property>
      <property name="2">0.677333</property>
      <property name="3">0.333333</property>
      <property name="4">0.6773</property>
      <property name="5">0.666667</property>
      <property name="6">0.322667</property>
      <property name="7">0.666667</property>
      <property name="8">1</property>
      <property name="9">0.5</property>
      <property name="10">0.5</property>
      <property name="11">0.333333</property>
      <property name="12">1</property>
      <property name="14">0</property>
      <property name="13">0.01</property>
      <property name="shotcut:corner1">0.322667 0.333333 1 1</property>
      <property name="shotcut:corner2">0.677333 0.333333 1 1</property>
      <property name="shotcut:corner3">0.6773 0.666667 1 1</property>
      <property name="shotcut:corner4">0.322667 0.666667 1 1</property>
      <property name="shotcut:animIn">00:00:00.000</property>
      <property name="shotcut:animOut">00:00:00.000</property>
    </filter>
  </producer>
  <tractor id="tractor8" global_feed="1" in="00:00:00.000" out="00:00:00.120">
    <property name="shotcut:transition">lumaMix</property>
    <track producer="producer22" in="00:00:25.440" out="00:00:25.560"/>
    <track producer="producer23" in="00:00:00.000" out="00:00:00.120"/>
    <transition id="transition16" out="00:00:00.120">
      <property name="a_track">0</property>
      <property name="b_track">1</property>
      <property name="factory">loader</property>
      <property name="mlt_service">luma</property>
      <property name="alpha_over">1</property>
    </transition>
    <transition id="transition17" out="00:00:00.120">
      <property name="a_track">0</property>
      <property name="b_track">1</property>
      <property name="start">-1</property>
      <property name="accepts_blanks">1</property>
      <property name="mlt_service">mix</property>
    </transition>
  </tractor>
  <producer id="producer24" in="00:00:00.000" out="00:00:27.760">
    <property name="length">00:00:27.800</property>
    <property name="eof">pause</property>
    <property name="resource">/Users/div/projects/laghu-sangitamrita/media/Мриданга/09 - Техаи/4 - Д.Кахарва тал/01 - Д-кахарва тал/11 - Техай 11.avi</property>
    <property name="audio_index">1</property>
    <property name="video_index">0</property>
    <property name="mute_on_pause">0</property>
    <property name="mlt_service">avformat-novalidate</property>
    <property name="seekable">1</property>
    <property name="aspect_ratio">1</property>
    <property name="creation_time">2021-02-01T20:46:22</property>
    <property name="global_feed">1</property>
    <property name="xml">was here</property>
    <property name="shotcut:hash">75ce459d9711f95804fefdbb72d586a6</property>
    <property name="shotcut:caption">11 - Техай 11.avi</property>
    <filter id="filter11" out="00:00:27.760">
      <property name="version">0.2</property>
      <property name="mlt_service">frei0r.c0rners</property>
      <property name="0">0.322667</property>
      <property name="1">0.333333</property>
      <property name="2">0.677333</property>
      <property name="3">0.333333</property>
      <property name="4">0.6773</property>
      <property name="5">0.666667</property>
      <property name="6">0.322667</property>
      <property name="7">0.666667</property>
      <property name="8">1</property>
      <property name="9">0.5</property>
      <property name="10">0.5</property>
      <property name="11">0.333333</property>
      <property name="12">1</property>
      <property name="14">0</property>
      <property name="13">0.01</property>
      <property name="shotcut:corner1">0.322667 0.333333 1 1</property>
      <property name="shotcut:corner2">0.677333 0.333333 1 1</property>
      <property name="shotcut:corner3">0.6773 0.666667 1 1</property>
      <property name="shotcut:corner4">0.322667 0.666667 1 1</property>
      <property name="shotcut:animIn">00:00:00.000</property>
      <property name="shotcut:animOut">00:00:00.000</property>
    </filter>
  </producer>
  <tractor id="tractor9" global_feed="1" in="00:00:00.000" out="00:00:00.120">
    <property name="shotcut:transition">lumaMix</property>
    <track producer="producer23" in="00:00:26.080" out="00:00:26.200"/>
    <track producer="producer24" in="00:00:00.000" out="00:00:00.120"/>
    <transition id="transition18" out="00:00:00.120">
      <property name="a_track">0</property>
      <property name="b_track">1</property>
      <property name="factory">loader</property>
      <property name="mlt_service">luma</property>
      <property name="alpha_over">1</property>
    </transition>
    <transition id="transition19" out="00:00:00.120">
      <property name="a_track">0</property>
      <property name="b_track">1</property>
      <property name="start">-1</property>
      <property name="accepts_blanks">1</property>
      <property name="mlt_service">mix</property>
    </transition>
  </tractor>
  <producer id="producer25" in="00:00:00.000" out="00:00:36.160">
    <property name="length">00:00:36.200</property>
    <property name="eof">pause</property>
    <property name="resource">/Users/div/projects/laghu-sangitamrita/media/Мриданга/09 - Техаи/4 - Д.Кахарва тал/01 - Д-кахарва тал/12 - Техай 12.avi</property>
    <property name="audio_index">1</property>
    <property name="video_index">0</property>
    <property name="mute_on_pause">0</property>
    <property name="mlt_service">avformat-novalidate</property>
    <property name="seekable">1</property>
    <property name="aspect_ratio">1</property>
    <property name="creation_time">2021-02-01T20:46:24</property>
    <property name="global_feed">1</property>
    <property name="xml">was here</property>
    <property name="shotcut:hash">35b2dd7090f582bb250e70bb331e8fe9</property>
    <property name="shotcut:caption">12 - Техай 12.avi</property>
    <filter id="filter12" out="00:00:36.160">
      <property name="version">0.2</property>
      <property name="mlt_service">frei0r.c0rners</property>
      <property name="0">0.322667</property>
      <property name="1">0.333333</property>
      <property name="2">0.677333</property>
      <property name="3">0.333333</property>
      <property name="4">0.6773</property>
      <property name="5">0.666667</property>
      <property name="6">0.322667</property>
      <property name="7">0.666667</property>
      <property name="8">1</property>
      <property name="9">0.5</property>
      <property name="10">0.5</property>
      <property name="11">0.333333</property>
      <property name="12">1</property>
      <property name="14">0</property>
      <property name="13">0.01</property>
      <property name="shotcut:corner1">0.322667 0.333333 1 1</property>
      <property name="shotcut:corner2">0.677333 0.333333 1 1</property>
      <property name="shotcut:corner3">0.6773 0.666667 1 1</property>
      <property name="shotcut:corner4">0.322667 0.666667 1 1</property>
      <property name="shotcut:animIn">00:00:00.000</property>
      <property name="shotcut:animOut">00:00:00.000</property>
    </filter>
  </producer>
  <tractor id="tractor10" global_feed="1" in="00:00:00.000" out="00:00:00.080">
    <property name="shotcut:transition">lumaMix</property>
    <track producer="producer24" in="00:00:27.680" out="00:00:27.760"/>
    <track producer="producer25" in="00:00:00.000" out="00:00:00.080"/>
    <transition id="transition20" out="00:00:00.080">
      <property name="a_track">0</property>
      <property name="b_track">1</property>
      <property name="factory">loader</property>
      <property name="mlt_service">luma</property>
      <property name="alpha_over">1</property>
    </transition>
    <transition id="transition21" out="00:00:00.080">
      <property name="a_track">0</property>
      <property name="b_track">1</property>
      <property name="start">-1</property>
      <property name="accepts_blanks">1</property>
      <property name="mlt_service">mix</property>
    </transition>
  </tractor>
  <playlist id="playlist0">
    <property name="shotcut:video">1</property>
    <property name="shotcut:name">V1</property>
    <entry producer="producer0" in="00:00:00.000" out="00:01:06.800"/>
    <entry producer="tractor0" in="00:00:00.000" out="00:00:00.120"/>
    <entry producer="producer1" in="00:00:00.160" out="00:00:39.000"/>
    <entry producer="tractor1" in="00:00:00.000" out="00:00:00.160"/>
    <entry producer="producer2" in="00:00:00.200" out="00:00:33.880"/>
    <entry producer="tractor2" in="00:00:00.000" out="00:00:00.120"/>
    <entry producer="producer3" in="00:00:00.160" out="00:00:49.400"/>
    <entry producer="tractor3" in="00:00:00.000" out="00:00:00.120"/>
    <entry producer="producer4" in="00:00:00.160" out="00:00:43.760"/>
    <entry producer="tractor4" in="00:00:00.000" out="00:00:00.160"/>
    <entry producer="producer17" in="00:00:00.200" out="00:00:31.200"/>
    <entry producer="tractor5" in="00:00:00.000" out="00:00:00.160"/>
    <entry producer="producer20" in="00:00:00.200" out="00:00:37.680"/>
    <entry producer="tractor6" in="00:00:00.000" out="00:00:00.160"/>
    <entry producer="producer21" in="00:00:00.200" out="00:00:50.000"/>
    <entry producer="tractor7" in="00:00:00.000" out="00:00:00.000"/>
    <entry producer="producer22" in="00:00:00.040" out="00:00:25.400"/>
    <entry producer="tractor8" in="00:00:00.000" out="00:00:00.120"/>
    <entry producer="producer23" in="00:00:00.160" out="00:00:26.040"/>
    <entry producer="tractor9" in="00:00:00.000" out="00:00:00.120"/>
    <entry producer="producer24" in="00:00:00.160" out="00:00:27.640"/>
    <entry producer="tractor10" in="00:00:00.000" out="00:00:00.080"/>
    <entry producer="producer25" in="00:00:00.120" out="00:00:36.160"/>
  </playlist>
  <producer id="producer32" in="00:00:00.000" out="03:59:59.960">
    <property name="length">04:00:00.000</property>
    <property name="eof">pause</property>
    <property name="resource">#00000000</property>
    <property name="aspect_ratio">1</property>
    <property name="mlt_service">color</property>
    <property name="mlt_image_format">rgb24a</property>
    <property name="shotcut:caption">transparent</property>
    <property name="shotcut:detail">transparent</property>
    <property name="ignore_points">0</property>
    <property name="global_feed">1</property>
    <property name="xml">was here</property>
    <property name="seekable">1</property>
    <filter id="filter13" out="00:00:02.240">
      <property name="argument">Уроки Игры на Мриданге</property>
      <property name="geometry">111 128 498 77 1</property>
      <property name="family">Jost</property>
      <property name="size">32</property>
      <property name="weight">500</property>
      <property name="style">normal</property>
      <property name="fgcolour">#ffffffff</property>
      <property name="bgcolour">#00000000</property>
      <property name="olcolour">#aa000000</property>
      <property name="pad">0</property>
      <property name="halign">center</property>
      <property name="valign">top</property>
      <property name="outline">0</property>
      <property name="mlt_service">dynamictext</property>
      <property name="shotcut:filter">dynamicText</property>
      <property name="shotcut:usePointSize">1</property>
      <property name="shotcut:pointSize">32</property>
      <property name="shotcut:animIn">00:00:00.000</property>
      <property name="shotcut:animOut">00:00:00.000</property>
    </filter>
    <filter id="filter14" out="00:00:02.240">
      <property name="argument">15. Техай</property>
      <property name="geometry">65 153 586 193 1</property>
      <property name="family">Jost</property>
      <property name="size">64</property>
      <property name="weight">750</property>
      <property name="style">normal</property>
      <property name="fgcolour">#ffffffff</property>
      <property name="bgcolour">#00000000</property>
      <property name="olcolour">#aa000000</property>
      <property name="pad">0</property>
      <property name="halign">center</property>
      <property name="valign">middle</property>
      <property name="outline">0</property>
      <property name="mlt_service">dynamictext</property>
      <property name="shotcut:filter">dynamicText</property>
      <property name="shotcut:usePointSize">1</property>
      <property name="shotcut:animIn">00:00:00.000</property>
      <property name="shotcut:animOut">00:00:00.000</property>
      <property name="shotcut:pointSize">64</property>
    </filter>
    <filter id="filter15" out="00:00:02.240">
      <property name="argument">Дадра и Гарба Тал</property>
      <property name="geometry">126 176 489 187 1</property>
      <property name="family">Jost</property>
      <property name="size">48</property>
      <property name="weight">570</property>
      <property name="style">italic</property>
      <property name="fgcolour">#ffffffff</property>
      <property name="bgcolour">#00000000</property>
      <property name="olcolour">#aa000000</property>
      <property name="pad">0</property>
      <property name="halign">center</property>
      <property name="valign">bottom</property>
      <property name="outline">0</property>
      <property name="mlt_service">dynamictext</property>
      <property name="shotcut:filter">dynamicText</property>
      <property name="shotcut:usePointSize">1</property>
      <property name="shotcut:animIn">00:00:00.000</property>
      <property name="shotcut:animOut">00:00:00.000</property>
      <property name="shotcut:pointSize">48</property>
      <property name="disable">1</property>
    </filter>
    <filter id="filter16" out="00:00:02.240">
      <property name="argument">Дубль Кахарва тал</property>
      <property name="geometry">74 346 560 156 1</property>
      <property name="family">Jost</property>
      <property name="size">48</property>
      <property name="weight">570</property>
      <property name="style">normal</property>
      <property name="fgcolour">#ffffffff</property>
      <property name="bgcolour">#00000000</property>
      <property name="olcolour">#aaffffff</property>
      <property name="pad">0</property>
      <property name="halign">center</property>
      <property name="valign">middle</property>
      <property name="outline">0</property>
      <property name="mlt_service">dynamictext</property>
      <property name="shotcut:filter">dynamicText</property>
      <property name="shotcut:usePointSize">1</property>
      <property name="shotcut:animIn">00:00:00.000</property>
      <property name="shotcut:animOut">00:00:00.000</property>
      <property name="shotcut:pointSize">48</property>
      <property name="disable">0</property>
    </filter>
    <filter id="filter17" out="00:00:02.240">
      <property name="start">1</property>
      <property name="level">1</property>
      <property name="mlt_service">brightness</property>
      <property name="shotcut:filter">fadeOutBrightness</property>
      <property name="alpha">00:00:01.840=1;00:00:02.240=0</property>
      <property name="shotcut:animOut">00:00:00.440</property>
    </filter>
    <filter id="filter18" out="00:00:02.240">
      <property name="background">color:#00000000</property>
      <property name="mlt_service">affine</property>
      <property name="shotcut:filter">affineSizePosition</property>
      <property name="transition.fill">1</property>
      <property name="transition.distort">0</property>
      <property name="transition.rect">00:00:00.000=0 0 720 540 1;00:00:00.280=-5.04 -4 730.08 548 1;00:00:01.480=0 0 720 540 1</property>
      <property name="transition.valign">middle</property>
      <property name="transition.halign">center</property>
      <property name="shotcut:animIn">00:00:01.120</property>
      <property name="shotcut:animOut">00:00:01.240</property>
      <property name="transition.threads">0</property>
      <property name="transition.fix_rotate_x">00:00:00.000=0;00:00:00.280=0;00:00:01.480=0</property>
    </filter>
    <filter id="filter19" out="00:00:02.240">
      <property name="start">1</property>
      <property name="hori">00:00:00.000=5.18636;00:00:00.760=0</property>
      <property name="vert">00:00:00.000=6.98458;00:00:00.600=0</property>
      <property name="mlt_service">boxblur</property>
      <property name="shotcut:animIn">00:00:00.000</property>
      <property name="shotcut:animOut">00:00:00.000</property>
    </filter>
    <filter id="filter20" out="00:00:02.240">
      <property name="version">0.2</property>
      <property name="mlt_service">frei0r.premultiply</property>
      <property name="threads">0</property>
      <property name="0">1</property>
    </filter>
    <filter id="filter21" out="00:00:02.240">
      <property name="start">1</property>
      <property name="level">1</property>
      <property name="mlt_service">brightness</property>
      <property name="shotcut:filter">fadeInBrightness</property>
      <property name="alpha">00:00:00.000=0;00:00:00.400=1</property>
      <property name="shotcut:animIn">00:00:00.440</property>
    </filter>
  </producer>
  <producer id="producer26" in="00:00:00.000" out="03:59:59.960">
    <property name="length">04:00:00.000</property>
    <property name="eof">pause</property>
    <property name="resource">#00000000</property>
    <property name="aspect_ratio">1</property>
    <property name="mlt_service">color</property>
    <property name="mlt_image_format">rgb24a</property>
    <property name="shotcut:caption">transparent</property>
    <property name="shotcut:detail">transparent</property>
    <property name="ignore_points">0</property>
    <property name="global_feed">1</property>
    <property name="xml">was here</property>
    <property name="seekable">1</property>
    <filter id="filter22" in="00:00:06.040" out="00:00:20.480">
      <property name="argument">Техай на дадра тал</property>
      <property name="geometry">83 415 555 91 1</property>
      <property name="family">Jost</property>
      <property name="size">48</property>
      <property name="weight">630</property>
      <property name="style">normal</property>
      <property name="fgcolour">#ffffffff</property>
      <property name="bgcolour">#00000000</property>
      <property name="olcolour">#aa000000</property>
      <property name="pad">0</property>
      <property name="halign">center</property>
      <property name="valign">middle</property>
      <property name="outline">0</property>
      <property name="mlt_service">dynamictext</property>
      <property name="shotcut:filter">dynamicText</property>
      <property name="shotcut:usePointSize">1</property>
      <property name="shotcut:animIn">00:00:00.000</property>
      <property name="shotcut:animOut">00:00:00.000</property>
      <property name="shotcut:pointSize">48</property>
      <property name="disable">1</property>
    </filter>
    <filter id="filter23" in="00:00:06.040" out="00:00:20.480">
      <property name="argument">Дхар – те Дхар ǀ – те Дхар –
– – Дхар Дхар ǀ – Дхар Дхар –</property>
      <property name="geometry">41 381 639 114 1</property>
      <property name="family">Jost</property>
      <property name="size">48</property>
      <property name="weight">500</property>
      <property name="style">normal</property>
      <property name="fgcolour">#ffffffff</property>
      <property name="bgcolour">#00000000</property>
      <property name="olcolour">#aa000000</property>
      <property name="pad">0</property>
      <property name="halign">center</property>
      <property name="valign">middle</property>
      <property name="outline">0</property>
      <property name="mlt_service">dynamictext</property>
      <property name="shotcut:filter">dynamicText</property>
      <property name="shotcut:usePointSize">1</property>
      <property name="shotcut:animIn">00:00:00.000</property>
      <property name="shotcut:animOut">00:00:00.000</property>
      <property name="shotcut:pointSize">48</property>
      <property name="disable">0</property>
    </filter>
    <filter id="filter24" in="00:00:06.040" out="00:00:20.480">
      <property name="start">1</property>
      <property name="level">1</property>
      <property name="mlt_service">brightness</property>
      <property name="shotcut:filter">fadeOutBrightness</property>
      <property name="alpha">00:00:14.160=1;00:00:14.440=0</property>
      <property name="shotcut:animOut">00:00:00.320</property>
    </filter>
    <filter id="filter25" in="00:00:06.040" out="00:00:20.480">
      <property name="start">1</property>
      <property name="level">1</property>
      <property name="mlt_service">brightness</property>
      <property name="shotcut:filter">fadeInBrightness</property>
      <property name="alpha">00:00:00.000=0;00:00:00.280=1</property>
      <property name="shotcut:animIn">00:00:00.320</property>
    </filter>
    <filter id="filter26" in="00:00:06.040" out="00:00:20.480">
      <property name="background">color:#00000000</property>
      <property name="mlt_service">affine</property>
      <property name="shotcut:filter">affineSizePosition</property>
      <property name="transition.fill">1</property>
      <property name="transition.distort">0</property>
      <property name="transition.rect">00:00:00.000=0 0 720 540 1;00:00:13.240=-5.04 -4 730.08 548 1;00:00:14.440=0 0 720 540 1</property>
      <property name="transition.valign">middle</property>
      <property name="transition.halign">center</property>
      <property name="shotcut:animIn">00:00:01.120</property>
      <property name="shotcut:animOut">00:00:01.240</property>
      <property name="transition.threads">0</property>
      <property name="transition.fix_rotate_x">00:00:00.000=0;00:00:13.240=0;00:00:14.440=0</property>
    </filter>
  </producer>
  <producer id="producer27" in="00:00:00.000" out="03:59:59.960">
    <property name="length">04:00:00.000</property>
    <property name="eof">pause</property>
    <property name="resource">#00000000</property>
    <property name="aspect_ratio">1</property>
    <property name="mlt_service">color</property>
    <property name="mlt_image_format">rgb24a</property>
    <property name="shotcut:caption">transparent</property>
    <property name="shotcut:detail">transparent</property>
    <property name="ignore_points">0</property>
    <property name="global_feed">1</property>
    <property name="xml">was here</property>
    <property name="seekable">1</property>
    <filter id="filter27" in="00:00:06.040" out="00:00:08.800">
      <property name="argument">Техай на дадра тал</property>
      <property name="geometry">83 415 555 91 1</property>
      <property name="family">Jost</property>
      <property name="size">48</property>
      <property name="weight">630</property>
      <property name="style">normal</property>
      <property name="fgcolour">#ffffffff</property>
      <property name="bgcolour">#00000000</property>
      <property name="olcolour">#aa000000</property>
      <property name="pad">0</property>
      <property name="halign">center</property>
      <property name="valign">middle</property>
      <property name="outline">0</property>
      <property name="mlt_service">dynamictext</property>
      <property name="shotcut:filter">dynamicText</property>
      <property name="shotcut:usePointSize">1</property>
      <property name="shotcut:animIn">00:00:00.000</property>
      <property name="shotcut:animOut">00:00:00.000</property>
      <property name="shotcut:pointSize">48</property>
      <property name="disable">1</property>
    </filter>
    <filter id="filter28" in="00:00:06.040" out="00:00:08.800">
      <property name="argument">Дхар – те Дхар ǀ – те Дхар –
– – Дхар Дхар ǀ – Дхар Дхар –</property>
      <property name="geometry">41 381 639 114 1</property>
      <property name="family">Jost</property>
      <property name="size">48</property>
      <property name="weight">500</property>
      <property name="style">normal</property>
      <property name="fgcolour">#ffffffff</property>
      <property name="bgcolour">#00000000</property>
      <property name="olcolour">#aa000000</property>
      <property name="pad">0</property>
      <property name="halign">center</property>
      <property name="valign">middle</property>
      <property name="outline">0</property>
      <property name="mlt_service">dynamictext</property>
      <property name="shotcut:filter">dynamicText</property>
      <property name="shotcut:usePointSize">1</property>
      <property name="shotcut:animIn">00:00:00.000</property>
      <property name="shotcut:animOut">00:00:00.000</property>
      <property name="shotcut:pointSize">48</property>
      <property name="disable">0</property>
    </filter>
    <filter id="filter29" in="00:00:06.040" out="00:00:08.800">
      <property name="start">1</property>
      <property name="level">1</property>
      <property name="mlt_service">brightness</property>
      <property name="shotcut:filter">fadeOutBrightness</property>
      <property name="alpha">00:00:02.480=1;00:00:02.760=0</property>
      <property name="shotcut:animOut">00:00:00.320</property>
    </filter>
    <filter id="filter30" in="00:00:06.040" out="00:00:08.800">
      <property name="start">1</property>
      <property name="level">1</property>
      <property name="mlt_service">brightness</property>
      <property name="shotcut:filter">fadeInBrightness</property>
      <property name="alpha">00:00:00.000=0;00:00:00.280=1</property>
      <property name="shotcut:animIn">00:00:00.320</property>
    </filter>
    <filter id="filter31" in="00:00:06.040" out="00:00:08.800">
      <property name="background">color:#00000000</property>
      <property name="mlt_service">affine</property>
      <property name="shotcut:filter">affineSizePosition</property>
      <property name="transition.fill">1</property>
      <property name="transition.distort">0</property>
      <property name="transition.rect">00:00:00.000=0 0 720 540 1;00:00:01.560=-5.04 -4 730.08 548 1;00:00:02.760=0 0 720 540 1</property>
      <property name="transition.valign">middle</property>
      <property name="transition.halign">center</property>
      <property name="shotcut:animIn">00:00:01.120</property>
      <property name="shotcut:animOut">00:00:01.240</property>
      <property name="transition.threads">0</property>
      <property name="transition.fix_rotate_x">00:00:00.000=0;00:00:01.560=0;00:00:02.760=0</property>
    </filter>
  </producer>
  <producer id="producer28" in="00:00:00.000" out="03:59:59.960">
    <property name="length">04:00:00.000</property>
    <property name="eof">pause</property>
    <property name="resource">#00000000</property>
    <property name="aspect_ratio">1</property>
    <property name="mlt_service">color</property>
    <property name="mlt_image_format">rgb24a</property>
    <property name="shotcut:caption">transparent</property>
    <property name="shotcut:detail">transparent</property>
    <property name="ignore_points">0</property>
    <property name="global_feed">1</property>
    <property name="xml">was here</property>
    <property name="seekable">1</property>
    <filter id="filter32" in="00:00:06.040" out="00:00:17.400">
      <property name="argument">Техай на дадра тал</property>
      <property name="geometry">83 415 555 91 1</property>
      <property name="family">Jost</property>
      <property name="size">48</property>
      <property name="weight">630</property>
      <property name="style">normal</property>
      <property name="fgcolour">#ffffffff</property>
      <property name="bgcolour">#00000000</property>
      <property name="olcolour">#aa000000</property>
      <property name="pad">0</property>
      <property name="halign">center</property>
      <property name="valign">middle</property>
      <property name="outline">0</property>
      <property name="mlt_service">dynamictext</property>
      <property name="shotcut:filter">dynamicText</property>
      <property name="shotcut:usePointSize">1</property>
      <property name="shotcut:animIn">00:00:00.000</property>
      <property name="shotcut:animOut">00:00:00.000</property>
      <property name="shotcut:pointSize">48</property>
      <property name="disable">1</property>
    </filter>
    <filter id="filter33" in="00:00:06.040" out="00:00:17.400">
      <property name="argument">Дхар те Дхар – ǀ Дхар те Дхар –
Дхар те Дхар Дхар ǀ – Дхар – –</property>
      <property name="geometry">41 381 639 114 1</property>
      <property name="family">Jost</property>
      <property name="size">48</property>
      <property name="weight">500</property>
      <property name="style">normal</property>
      <property name="fgcolour">#ffffffff</property>
      <property name="bgcolour">#00000000</property>
      <property name="olcolour">#aa000000</property>
      <property name="pad">0</property>
      <property name="halign">center</property>
      <property name="valign">middle</property>
      <property name="outline">0</property>
      <property name="mlt_service">dynamictext</property>
      <property name="shotcut:filter">dynamicText</property>
      <property name="shotcut:usePointSize">1</property>
      <property name="shotcut:animIn">00:00:00.000</property>
      <property name="shotcut:animOut">00:00:00.000</property>
      <property name="shotcut:pointSize">48</property>
      <property name="disable">0</property>
    </filter>
    <filter id="filter34" in="00:00:06.040" out="00:00:17.400">
      <property name="start">1</property>
      <property name="level">1</property>
      <property name="mlt_service">brightness</property>
      <property name="shotcut:filter">fadeOutBrightness</property>
      <property name="alpha">00:00:11.080=1;00:00:11.360=0</property>
      <property name="shotcut:animOut">00:00:00.320</property>
    </filter>
    <filter id="filter35" in="00:00:06.040" out="00:00:17.400">
      <property name="start">1</property>
      <property name="level">1</property>
      <property name="mlt_service">brightness</property>
      <property name="shotcut:filter">fadeInBrightness</property>
      <property name="alpha">00:00:00.000=0;00:00:00.280=1</property>
      <property name="shotcut:animIn">00:00:00.320</property>
    </filter>
    <filter id="filter36" in="00:00:06.040" out="00:00:17.400">
      <property name="background">color:#00000000</property>
      <property name="mlt_service">affine</property>
      <property name="shotcut:filter">affineSizePosition</property>
      <property name="transition.fill">1</property>
      <property name="transition.distort">0</property>
      <property name="transition.rect">00:00:00.000=0 0 720 540 1;00:00:01.560=-5.04 -4 730.08 548 1;00:00:02.760=0 0 720 540 1</property>
      <property name="transition.valign">middle</property>
      <property name="transition.halign">center</property>
      <property name="shotcut:animIn">00:00:01.120</property>
      <property name="shotcut:animOut">00:00:01.240</property>
      <property name="transition.threads">0</property>
      <property name="transition.fix_rotate_x">00:00:00.000=0;00:00:01.560=0;00:00:02.760=0</property>
    </filter>
  </producer>
  <producer id="producer29" in="00:00:00.000" out="03:59:59.960">
    <property name="length">04:00:00.000</property>
    <property name="eof">pause</property>
    <property name="resource">#00000000</property>
    <property name="aspect_ratio">1</property>
    <property name="mlt_service">color</property>
    <property name="mlt_image_format">rgb24a</property>
    <property name="shotcut:caption">transparent</property>
    <property name="shotcut:detail">transparent</property>
    <property name="ignore_points">0</property>
    <property name="global_feed">1</property>
    <property name="xml">was here</property>
    <property name="seekable">1</property>
    <filter id="filter37" in="00:00:06.040" out="00:00:08.840">
      <property name="argument">Техай на дадра тал</property>
      <property name="geometry">83 415 555 91 1</property>
      <property name="family">Jost</property>
      <property name="size">48</property>
      <property name="weight">630</property>
      <property name="style">normal</property>
      <property name="fgcolour">#ffffffff</property>
      <property name="bgcolour">#00000000</property>
      <property name="olcolour">#aa000000</property>
      <property name="pad">0</property>
      <property name="halign">center</property>
      <property name="valign">middle</property>
      <property name="outline">0</property>
      <property name="mlt_service">dynamictext</property>
      <property name="shotcut:filter">dynamicText</property>
      <property name="shotcut:usePointSize">1</property>
      <property name="shotcut:animIn">00:00:00.000</property>
      <property name="shotcut:animOut">00:00:00.000</property>
      <property name="shotcut:pointSize">48</property>
      <property name="disable">1</property>
    </filter>
    <filter id="filter38" in="00:00:06.040" out="00:00:08.840">
      <property name="argument">Дхар те Дхар – ǀ Дхар те Дхар –
ге те Дхар Дхар ǀ – Дхар – –</property>
      <property name="geometry">41 381 639 114 1</property>
      <property name="family">Jost</property>
      <property name="size">48</property>
      <property name="weight">500</property>
      <property name="style">normal</property>
      <property name="fgcolour">#ffffffff</property>
      <property name="bgcolour">#00000000</property>
      <property name="olcolour">#aa000000</property>
      <property name="pad">0</property>
      <property name="halign">center</property>
      <property name="valign">middle</property>
      <property name="outline">0</property>
      <property name="mlt_service">dynamictext</property>
      <property name="shotcut:filter">dynamicText</property>
      <property name="shotcut:usePointSize">1</property>
      <property name="shotcut:animIn">00:00:00.000</property>
      <property name="shotcut:animOut">00:00:00.000</property>
      <property name="shotcut:pointSize">48</property>
      <property name="disable">0</property>
    </filter>
    <filter id="filter39" in="00:00:06.040" out="00:00:08.840">
      <property name="start">1</property>
      <property name="level">1</property>
      <property name="mlt_service">brightness</property>
      <property name="shotcut:filter">fadeOutBrightness</property>
      <property name="alpha">00:00:02.520=1;00:00:02.800=0</property>
      <property name="shotcut:animOut">00:00:00.320</property>
    </filter>
    <filter id="filter40" in="00:00:06.040" out="00:00:08.840">
      <property name="start">1</property>
      <property name="level">1</property>
      <property name="mlt_service">brightness</property>
      <property name="shotcut:filter">fadeInBrightness</property>
      <property name="alpha">00:00:00.000=0;00:00:00.280=1</property>
      <property name="shotcut:animIn">00:00:00.320</property>
    </filter>
    <filter id="filter41" in="00:00:06.040" out="00:00:08.840">
      <property name="background">color:#00000000</property>
      <property name="mlt_service">affine</property>
      <property name="shotcut:filter">affineSizePosition</property>
      <property name="transition.fill">1</property>
      <property name="transition.distort">0</property>
      <property name="transition.rect">00:00:00.000=0 0 720 540 1;00:00:01.600=-5.04 -4 730.08 548 1;00:00:02.800=0 0 720 540 1</property>
      <property name="transition.valign">middle</property>
      <property name="transition.halign">center</property>
      <property name="shotcut:animIn">00:00:01.120</property>
      <property name="shotcut:animOut">00:00:01.240</property>
      <property name="transition.threads">0</property>
      <property name="transition.fix_rotate_x">00:00:00.000=0;00:00:01.600=0;00:00:02.800=0</property>
    </filter>
  </producer>
  <producer id="producer30" in="00:00:00.000" out="03:59:59.960">
    <property name="length">04:00:00.000</property>
    <property name="eof">pause</property>
    <property name="resource">#00000000</property>
    <property name="aspect_ratio">1</property>
    <property name="mlt_service">color</property>
    <property name="mlt_image_format">rgb24a</property>
    <property name="shotcut:caption">transparent</property>
    <property name="shotcut:detail">transparent</property>
    <property name="ignore_points">0</property>
    <property name="global_feed">1</property>
    <property name="xml">was here</property>
    <property name="seekable">1</property>
    <filter id="filter42" in="00:00:06.040" out="00:00:08.840">
      <property name="argument">Техай на дадра тал</property>
      <property name="geometry">83 415 555 91 1</property>
      <property name="family">Jost</property>
      <property name="size">48</property>
      <property name="weight">630</property>
      <property name="style">normal</property>
      <property name="fgcolour">#ffffffff</property>
      <property name="bgcolour">#00000000</property>
      <property name="olcolour">#aa000000</property>
      <property name="pad">0</property>
      <property name="halign">center</property>
      <property name="valign">middle</property>
      <property name="outline">0</property>
      <property name="mlt_service">dynamictext</property>
      <property name="shotcut:filter">dynamicText</property>
      <property name="shotcut:usePointSize">1</property>
      <property name="shotcut:animIn">00:00:00.000</property>
      <property name="shotcut:animOut">00:00:00.000</property>
      <property name="shotcut:pointSize">48</property>
      <property name="disable">1</property>
    </filter>
    <filter id="filter43" in="00:00:06.040" out="00:00:08.840">
      <property name="argument">Дхар – Дхар – ǀ Дхар – Дхар –
Дхар Дхар – Дхар ǀ Дхар – Дхар –</property>
      <property name="geometry">41 381 639 114 1</property>
      <property name="family">Jost</property>
      <property name="size">48</property>
      <property name="weight">500</property>
      <property name="style">normal</property>
      <property name="fgcolour">#ffffffff</property>
      <property name="bgcolour">#00000000</property>
      <property name="olcolour">#aa000000</property>
      <property name="pad">0</property>
      <property name="halign">center</property>
      <property name="valign">middle</property>
      <property name="outline">0</property>
      <property name="mlt_service">dynamictext</property>
      <property name="shotcut:filter">dynamicText</property>
      <property name="shotcut:usePointSize">1</property>
      <property name="shotcut:animIn">00:00:00.000</property>
      <property name="shotcut:animOut">00:00:00.000</property>
      <property name="shotcut:pointSize">48</property>
      <property name="disable">0</property>
    </filter>
    <filter id="filter44" in="00:00:06.040" out="00:00:08.840">
      <property name="start">1</property>
      <property name="level">1</property>
      <property name="mlt_service">brightness</property>
      <property name="shotcut:filter">fadeOutBrightness</property>
      <property name="alpha">00:00:02.520=1;00:00:02.800=0</property>
      <property name="shotcut:animOut">00:00:00.320</property>
    </filter>
    <filter id="filter45" in="00:00:06.040" out="00:00:08.840">
      <property name="start">1</property>
      <property name="level">1</property>
      <property name="mlt_service">brightness</property>
      <property name="shotcut:filter">fadeInBrightness</property>
      <property name="alpha">00:00:00.000=0;00:00:00.280=1</property>
      <property name="shotcut:animIn">00:00:00.320</property>
    </filter>
    <filter id="filter46" in="00:00:06.040" out="00:00:08.840">
      <property name="background">color:#00000000</property>
      <property name="mlt_service">affine</property>
      <property name="shotcut:filter">affineSizePosition</property>
      <property name="transition.fill">1</property>
      <property name="transition.distort">0</property>
      <property name="transition.rect">00:00:00.000=0 0 720 540 1;00:00:01.600=-5.04 -4 730.08 548 1;00:00:02.800=0 0 720 540 1</property>
      <property name="transition.valign">middle</property>
      <property name="transition.halign">center</property>
      <property name="shotcut:animIn">00:00:01.120</property>
      <property name="shotcut:animOut">00:00:01.240</property>
      <property name="transition.threads">0</property>
      <property name="transition.fix_rotate_x">00:00:00.000=0;00:00:01.600=0;00:00:02.800=0</property>
    </filter>
  </producer>
  <producer id="producer31" in="00:00:00.000" out="03:59:59.960">
    <property name="length">04:00:00.000</property>
    <property name="eof">pause</property>
    <property name="resource">#00000000</property>
    <property name="aspect_ratio">1</property>
    <property name="mlt_service">color</property>
    <property name="mlt_image_format">rgb24a</property>
    <property name="shotcut:caption">transparent</property>
    <property name="shotcut:detail">transparent</property>
    <property name="ignore_points">0</property>
    <property name="global_feed">1</property>
    <property name="xml">was here</property>
    <property name="seekable">1</property>
    <filter id="filter47" in="00:00:06.040" out="00:00:09.080">
      <property name="argument">Техай на дадра тал</property>
      <property name="geometry">83 415 555 91 1</property>
      <property name="family">Jost</property>
      <property name="size">48</property>
      <property name="weight">630</property>
      <property name="style">normal</property>
      <property name="fgcolour">#ffffffff</property>
      <property name="bgcolour">#00000000</property>
      <property name="olcolour">#aa000000</property>
      <property name="pad">0</property>
      <property name="halign">center</property>
      <property name="valign">middle</property>
      <property name="outline">0</property>
      <property name="mlt_service">dynamictext</property>
      <property name="shotcut:filter">dynamicText</property>
      <property name="shotcut:usePointSize">1</property>
      <property name="shotcut:animIn">00:00:00.000</property>
      <property name="shotcut:animOut">00:00:00.000</property>
      <property name="shotcut:pointSize">48</property>
      <property name="disable">1</property>
    </filter>
    <filter id="filter48" in="00:00:06.040" out="00:00:09.080">
      <property name="argument">Дхар – Дхар – ǀ Дхар – Дхар –
Дхар Дхар – Дхар ǀ Дхар – Дхар –</property>
      <property name="geometry">41 381 639 114 1</property>
      <property name="family">Jost</property>
      <property name="size">48</property>
      <property name="weight">500</property>
      <property name="style">normal</property>
      <property name="fgcolour">#ffffffff</property>
      <property name="bgcolour">#00000000</property>
      <property name="olcolour">#aa000000</property>
      <property name="pad">0</property>
      <property name="halign">center</property>
      <property name="valign">middle</property>
      <property name="outline">0</property>
      <property name="mlt_service">dynamictext</property>
      <property name="shotcut:filter">dynamicText</property>
      <property name="shotcut:usePointSize">1</property>
      <property name="shotcut:animIn">00:00:00.000</property>
      <property name="shotcut:animOut">00:00:00.000</property>
      <property name="shotcut:pointSize">48</property>
      <property name="disable">0</property>
    </filter>
    <filter id="filter49" in="00:00:06.040" out="00:00:09.080">
      <property name="start">1</property>
      <property name="level">1</property>
      <property name="mlt_service">brightness</property>
      <property name="shotcut:filter">fadeOutBrightness</property>
      <property name="alpha">00:00:02.760=1;00:00:03.040=0</property>
      <property name="shotcut:animOut">00:00:00.320</property>
    </filter>
    <filter id="filter50" in="00:00:06.040" out="00:00:09.080">
      <property name="start">1</property>
      <property name="level">1</property>
      <property name="mlt_service">brightness</property>
      <property name="shotcut:filter">fadeInBrightness</property>
      <property name="alpha">00:00:00.000=0;00:00:00.280=1</property>
      <property name="shotcut:animIn">00:00:00.320</property>
    </filter>
    <filter id="filter51" in="00:00:06.040" out="00:00:09.080">
      <property name="background">color:#00000000</property>
      <property name="mlt_service">affine</property>
      <property name="shotcut:filter">affineSizePosition</property>
      <property name="transition.fill">1</property>
      <property name="transition.distort">0</property>
      <property name="transition.rect">00:00:00.000=0 0 720 540 1;00:00:01.840=-5.04 -4 730.08 548 1;00:00:03.040=0 0 720 540 1</property>
      <property name="transition.valign">middle</property>
      <property name="transition.halign">center</property>
      <property name="shotcut:animIn">00:00:01.120</property>
      <property name="shotcut:animOut">00:00:01.240</property>
      <property name="transition.threads">0</property>
      <property name="transition.fix_rotate_x">00:00:00.000=0;00:00:01.840=0;00:00:03.040=0</property>
    </filter>
  </producer>
  <producer id="producer33" in="00:00:00.000" out="03:59:59.960">
    <property name="length">04:00:00.000</property>
    <property name="eof">pause</property>
    <property name="resource">#00000000</property>
    <property name="aspect_ratio">1</property>
    <property name="mlt_service">color</property>
    <property name="mlt_image_format">rgb24a</property>
    <property name="shotcut:caption">transparent</property>
    <property name="shotcut:detail">transparent</property>
    <property name="ignore_points">0</property>
    <property name="global_feed">1</property>
    <property name="xml">was here</property>
    <property name="seekable">1</property>
    <filter id="filter52" in="00:00:06.040" out="00:00:15.280">
      <property name="argument">Техай на дадра тал</property>
      <property name="geometry">83 415 555 91 1</property>
      <property name="family">Jost</property>
      <property name="size">48</property>
      <property name="weight">630</property>
      <property name="style">normal</property>
      <property name="fgcolour">#ffffffff</property>
      <property name="bgcolour">#00000000</property>
      <property name="olcolour">#aa000000</property>
      <property name="pad">0</property>
      <property name="halign">center</property>
      <property name="valign">middle</property>
      <property name="outline">0</property>
      <property name="mlt_service">dynamictext</property>
      <property name="shotcut:filter">dynamicText</property>
      <property name="shotcut:usePointSize">1</property>
      <property name="shotcut:animIn">00:00:00.000</property>
      <property name="shotcut:animOut">00:00:00.000</property>
      <property name="shotcut:pointSize">48</property>
      <property name="disable">1</property>
    </filter>
    <filter id="filter53" in="00:00:06.040" out="00:00:15.280">
      <property name="argument">те ге та Дхар ǀ те ге та Дхар 
те ге та Дхар ǀ те га Дха та</property>
      <property name="geometry">41 381 639 114 1</property>
      <property name="family">Jost</property>
      <property name="size">48</property>
      <property name="weight">500</property>
      <property name="style">normal</property>
      <property name="fgcolour">#ffffffff</property>
      <property name="bgcolour">#00000000</property>
      <property name="olcolour">#aa000000</property>
      <property name="pad">0</property>
      <property name="halign">center</property>
      <property name="valign">middle</property>
      <property name="outline">0</property>
      <property name="mlt_service">dynamictext</property>
      <property name="shotcut:filter">dynamicText</property>
      <property name="shotcut:usePointSize">1</property>
      <property name="shotcut:animIn">00:00:00.000</property>
      <property name="shotcut:animOut">00:00:00.000</property>
      <property name="shotcut:pointSize">48</property>
      <property name="disable">0</property>
    </filter>
    <filter id="filter54" in="00:00:06.040" out="00:00:15.280">
      <property name="start">1</property>
      <property name="level">1</property>
      <property name="mlt_service">brightness</property>
      <property name="shotcut:filter">fadeOutBrightness</property>
      <property name="alpha">00:00:08.960=1;00:00:09.240=0</property>
      <property name="shotcut:animOut">00:00:00.320</property>
    </filter>
    <filter id="filter55" in="00:00:06.040" out="00:00:15.280">
      <property name="start">1</property>
      <property name="level">1</property>
      <property name="mlt_service">brightness</property>
      <property name="shotcut:filter">fadeInBrightness</property>
      <property name="alpha">00:00:00.000=0;00:00:00.280=1</property>
      <property name="shotcut:animIn">00:00:00.320</property>
    </filter>
    <filter id="filter56" in="00:00:06.040" out="00:00:15.280">
      <property name="background">color:#00000000</property>
      <property name="mlt_service">affine</property>
      <property name="shotcut:filter">affineSizePosition</property>
      <property name="transition.fill">1</property>
      <property name="transition.distort">0</property>
      <property name="transition.rect">00:00:00.000=0 0 720 540 1;00:00:08.040=-5.04 -4 730.08 548 1;00:00:09.240=0 0 720 540 1</property>
      <property name="transition.valign">middle</property>
      <property name="transition.halign">center</property>
      <property name="shotcut:animIn">00:00:01.120</property>
      <property name="shotcut:animOut">00:00:01.240</property>
      <property name="transition.threads">0</property>
      <property name="transition.fix_rotate_x">00:00:00.000=0;00:00:08.040=0;00:00:09.240=0</property>
    </filter>
  </producer>
  <producer id="producer34" in="00:00:00.000" out="03:59:59.960">
    <property name="length">04:00:00.000</property>
    <property name="eof">pause</property>
    <property name="resource">#00000000</property>
    <property name="aspect_ratio">1</property>
    <property name="mlt_service">color</property>
    <property name="mlt_image_format">rgb24a</property>
    <property name="shotcut:caption">transparent</property>
    <property name="shotcut:detail">transparent</property>
    <property name="ignore_points">0</property>
    <property name="global_feed">1</property>
    <property name="xml">was here</property>
    <property name="seekable">1</property>
    <filter id="filter57" in="00:00:06.040" out="00:00:15.520">
      <property name="argument">Техай на дадра тал</property>
      <property name="geometry">83 415 555 91 1</property>
      <property name="family">Jost</property>
      <property name="size">48</property>
      <property name="weight">630</property>
      <property name="style">normal</property>
      <property name="fgcolour">#ffffffff</property>
      <property name="bgcolour">#00000000</property>
      <property name="olcolour">#aa000000</property>
      <property name="pad">0</property>
      <property name="halign">center</property>
      <property name="valign">middle</property>
      <property name="outline">0</property>
      <property name="mlt_service">dynamictext</property>
      <property name="shotcut:filter">dynamicText</property>
      <property name="shotcut:usePointSize">1</property>
      <property name="shotcut:animIn">00:00:00.000</property>
      <property name="shotcut:animOut">00:00:00.000</property>
      <property name="shotcut:pointSize">48</property>
      <property name="disable">1</property>
    </filter>
    <filter id="filter58" in="00:00:06.040" out="00:00:15.520">
      <property name="argument">– – Дхар Дхар | те ге Дхар Дхар 
те ге Дхар Дхар | те ге Дхар та</property>
      <property name="geometry">41 381 639 114 1</property>
      <property name="family">Jost</property>
      <property name="size">48</property>
      <property name="weight">500</property>
      <property name="style">normal</property>
      <property name="fgcolour">#ffffffff</property>
      <property name="bgcolour">#00000000</property>
      <property name="olcolour">#aa000000</property>
      <property name="pad">0</property>
      <property name="halign">center</property>
      <property name="valign">middle</property>
      <property name="outline">0</property>
      <property name="mlt_service">dynamictext</property>
      <property name="shotcut:filter">dynamicText</property>
      <property name="shotcut:usePointSize">1</property>
      <property name="shotcut:animIn">00:00:00.000</property>
      <property name="shotcut:animOut">00:00:00.000</property>
      <property name="shotcut:pointSize">48</property>
      <property name="disable">0</property>
    </filter>
    <filter id="filter59" in="00:00:06.040" out="00:00:15.520">
      <property name="start">1</property>
      <property name="level">1</property>
      <property name="mlt_service">brightness</property>
      <property name="shotcut:filter">fadeOutBrightness</property>
      <property name="alpha">00:00:09.200=1;00:00:09.480=0</property>
      <property name="shotcut:animOut">00:00:00.320</property>
    </filter>
    <filter id="filter60" in="00:00:06.040" out="00:00:15.520">
      <property name="start">1</property>
      <property name="level">1</property>
      <property name="mlt_service">brightness</property>
      <property name="shotcut:filter">fadeInBrightness</property>
      <property name="alpha">00:00:00.000=0;00:00:00.280=1</property>
      <property name="shotcut:animIn">00:00:00.320</property>
    </filter>
    <filter id="filter61" in="00:00:06.040" out="00:00:15.520">
      <property name="background">color:#00000000</property>
      <property name="mlt_service">affine</property>
      <property name="shotcut:filter">affineSizePosition</property>
      <property name="transition.fill">1</property>
      <property name="transition.distort">0</property>
      <property name="transition.rect">00:00:00.000=0 0 720 540 1;00:00:08.280=-5.04 -4 730.08 548 1;00:00:09.480=0 0 720 540 1</property>
      <property name="transition.valign">middle</property>
      <property name="transition.halign">center</property>
      <property name="shotcut:animIn">00:00:01.120</property>
      <property name="shotcut:animOut">00:00:01.240</property>
      <property name="transition.threads">0</property>
      <property name="transition.fix_rotate_x">00:00:00.000=0;00:00:08.280=0;00:00:09.480=0</property>
    </filter>
  </producer>
  <producer id="producer35" in="00:00:00.000" out="03:59:59.960">
    <property name="length">04:00:00.000</property>
    <property name="eof">pause</property>
    <property name="resource">#00000000</property>
    <property name="aspect_ratio">1</property>
    <property name="mlt_service">color</property>
    <property name="mlt_image_format">rgb24a</property>
    <property name="shotcut:caption">transparent</property>
    <property name="shotcut:detail">transparent</property>
    <property name="ignore_points">0</property>
    <property name="global_feed">1</property>
    <property name="xml">was here</property>
    <property name="seekable">1</property>
    <filter id="filter62" in="00:00:06.040" out="00:00:10.320">
      <property name="argument">Техай на дадра тал</property>
      <property name="geometry">83 415 555 91 1</property>
      <property name="family">Jost</property>
      <property name="size">48</property>
      <property name="weight">630</property>
      <property name="style">normal</property>
      <property name="fgcolour">#ffffffff</property>
      <property name="bgcolour">#00000000</property>
      <property name="olcolour">#aa000000</property>
      <property name="pad">0</property>
      <property name="halign">center</property>
      <property name="valign">middle</property>
      <property name="outline">0</property>
      <property name="mlt_service">dynamictext</property>
      <property name="shotcut:filter">dynamicText</property>
      <property name="shotcut:usePointSize">1</property>
      <property name="shotcut:animIn">00:00:00.000</property>
      <property name="shotcut:animOut">00:00:00.000</property>
      <property name="shotcut:pointSize">48</property>
      <property name="disable">1</property>
    </filter>
    <filter id="filter63" in="00:00:06.040" out="00:00:10.320">
      <property name="argument">Дхар те ге Дхар | те ге Дхар –
Дхар те ге Дхар ǀ те ге Дхар –</property>
      <property name="geometry">41 381 639 114 1</property>
      <property name="family">Jost</property>
      <property name="size">48</property>
      <property name="weight">500</property>
      <property name="style">normal</property>
      <property name="fgcolour">#ffffffff</property>
      <property name="bgcolour">#00000000</property>
      <property name="olcolour">#aa000000</property>
      <property name="pad">0</property>
      <property name="halign">center</property>
      <property name="valign">middle</property>
      <property name="outline">0</property>
      <property name="mlt_service">dynamictext</property>
      <property name="shotcut:filter">dynamicText</property>
      <property name="shotcut:usePointSize">1</property>
      <property name="shotcut:animIn">00:00:00.000</property>
      <property name="shotcut:animOut">00:00:00.000</property>
      <property name="shotcut:pointSize">48</property>
      <property name="disable">0</property>
    </filter>
    <filter id="filter64" in="00:00:06.040" out="00:00:10.320">
      <property name="start">1</property>
      <property name="level">1</property>
      <property name="mlt_service">brightness</property>
      <property name="shotcut:filter">fadeOutBrightness</property>
      <property name="alpha">00:00:04.000=1;00:00:04.280=0</property>
      <property name="shotcut:animOut">00:00:00.320</property>
    </filter>
    <filter id="filter65" in="00:00:06.040" out="00:00:10.320">
      <property name="start">1</property>
      <property name="level">1</property>
      <property name="mlt_service">brightness</property>
      <property name="shotcut:filter">fadeInBrightness</property>
      <property name="alpha">00:00:00.000=0;00:00:00.280=1</property>
      <property name="shotcut:animIn">00:00:00.320</property>
    </filter>
    <filter id="filter66" in="00:00:06.040" out="00:00:10.320">
      <property name="background">color:#00000000</property>
      <property name="mlt_service">affine</property>
      <property name="shotcut:filter">affineSizePosition</property>
      <property name="transition.fill">1</property>
      <property name="transition.distort">0</property>
      <property name="transition.rect">00:00:00.000=0 0 720 540 1;00:00:03.080=-5.04 -4 730.08 548 1;00:00:04.280=0 0 720 540 1</property>
      <property name="transition.valign">middle</property>
      <property name="transition.halign">center</property>
      <property name="shotcut:animIn">00:00:01.120</property>
      <property name="shotcut:animOut">00:00:01.240</property>
      <property name="transition.threads">0</property>
      <property name="transition.fix_rotate_x">00:00:00.000=0;00:00:03.080=0;00:00:04.280=0</property>
    </filter>
  </producer>
  <producer id="producer36" in="00:00:00.000" out="03:59:59.960">
    <property name="length">04:00:00.000</property>
    <property name="eof">pause</property>
    <property name="resource">#00000000</property>
    <property name="aspect_ratio">1</property>
    <property name="mlt_service">color</property>
    <property name="mlt_image_format">rgb24a</property>
    <property name="shotcut:caption">transparent</property>
    <property name="shotcut:detail">transparent</property>
    <property name="ignore_points">0</property>
    <property name="global_feed">1</property>
    <property name="xml">was here</property>
    <property name="seekable">1</property>
    <filter id="filter67" in="00:00:06.040" out="00:00:12.320">
      <property name="argument">Техай на дадра тал</property>
      <property name="geometry">83 415 555 91 1</property>
      <property name="family">Jost</property>
      <property name="size">48</property>
      <property name="weight">630</property>
      <property name="style">normal</property>
      <property name="fgcolour">#ffffffff</property>
      <property name="bgcolour">#00000000</property>
      <property name="olcolour">#aa000000</property>
      <property name="pad">0</property>
      <property name="halign">center</property>
      <property name="valign">middle</property>
      <property name="outline">0</property>
      <property name="mlt_service">dynamictext</property>
      <property name="shotcut:filter">dynamicText</property>
      <property name="shotcut:usePointSize">1</property>
      <property name="shotcut:animIn">00:00:00.000</property>
      <property name="shotcut:animOut">00:00:00.000</property>
      <property name="shotcut:pointSize">48</property>
      <property name="disable">1</property>
    </filter>
    <filter id="filter68" in="00:00:06.040" out="00:00:12.320">
      <property name="argument">– – Дхар – ǀ – – Дхар – 
– – Дхе та ǀ – Дхе та –</property>
      <property name="geometry">41 381 639 114 1</property>
      <property name="family">Jost</property>
      <property name="size">48</property>
      <property name="weight">500</property>
      <property name="style">normal</property>
      <property name="fgcolour">#ffffffff</property>
      <property name="bgcolour">#00000000</property>
      <property name="olcolour">#aa000000</property>
      <property name="pad">0</property>
      <property name="halign">center</property>
      <property name="valign">middle</property>
      <property name="outline">0</property>
      <property name="mlt_service">dynamictext</property>
      <property name="shotcut:filter">dynamicText</property>
      <property name="shotcut:usePointSize">1</property>
      <property name="shotcut:animIn">00:00:00.000</property>
      <property name="shotcut:animOut">00:00:00.000</property>
      <property name="shotcut:pointSize">48</property>
      <property name="disable">0</property>
    </filter>
    <filter id="filter69" in="00:00:06.040" out="00:00:12.320">
      <property name="start">1</property>
      <property name="level">1</property>
      <property name="mlt_service">brightness</property>
      <property name="shotcut:filter">fadeOutBrightness</property>
      <property name="alpha">00:00:06.000=1;00:00:06.280=0</property>
      <property name="shotcut:animOut">00:00:00.320</property>
    </filter>
    <filter id="filter70" in="00:00:06.040" out="00:00:12.320">
      <property name="start">1</property>
      <property name="level">1</property>
      <property name="mlt_service">brightness</property>
      <property name="shotcut:filter">fadeInBrightness</property>
      <property name="alpha">00:00:00.000=0;00:00:00.280=1</property>
      <property name="shotcut:animIn">00:00:00.320</property>
    </filter>
    <filter id="filter71" in="00:00:06.040" out="00:00:12.320">
      <property name="background">color:#00000000</property>
      <property name="mlt_service">affine</property>
      <property name="shotcut:filter">affineSizePosition</property>
      <property name="transition.fill">1</property>
      <property name="transition.distort">0</property>
      <property name="transition.rect">00:00:00.000=0 0 720 540 1;00:00:08.040=-5.04 -4 730.08 548 1;00:00:09.240=0 0 720 540 1</property>
      <property name="transition.valign">middle</property>
      <property name="transition.halign">center</property>
      <property name="shotcut:animIn">00:00:01.120</property>
      <property name="shotcut:animOut">00:00:01.240</property>
      <property name="transition.threads">0</property>
      <property name="transition.fix_rotate_x">00:00:00.000=0;00:00:08.040=0;00:00:09.240=0</property>
    </filter>
  </producer>
  <producer id="producer37" in="00:00:00.000" out="03:59:59.960">
    <property name="length">04:00:00.000</property>
    <property name="eof">pause</property>
    <property name="resource">#00000000</property>
    <property name="aspect_ratio">1</property>
    <property name="mlt_service">color</property>
    <property name="mlt_image_format">rgb24a</property>
    <property name="shotcut:caption">transparent</property>
    <property name="shotcut:detail">transparent</property>
    <property name="ignore_points">0</property>
    <property name="global_feed">1</property>
    <property name="xml">was here</property>
    <property name="seekable">1</property>
    <filter id="filter72" in="00:00:06.040" out="00:00:15.480">
      <property name="argument">Техай на дадра тал</property>
      <property name="geometry">83 415 555 91 1</property>
      <property name="family">Jost</property>
      <property name="size">48</property>
      <property name="weight">630</property>
      <property name="style">normal</property>
      <property name="fgcolour">#ffffffff</property>
      <property name="bgcolour">#00000000</property>
      <property name="olcolour">#aa000000</property>
      <property name="pad">0</property>
      <property name="halign">center</property>
      <property name="valign">middle</property>
      <property name="outline">0</property>
      <property name="mlt_service">dynamictext</property>
      <property name="shotcut:filter">dynamicText</property>
      <property name="shotcut:usePointSize">1</property>
      <property name="shotcut:animIn">00:00:00.000</property>
      <property name="shotcut:animOut">00:00:00.000</property>
      <property name="shotcut:pointSize">48</property>
      <property name="disable">1</property>
    </filter>
    <filter id="filter73" in="00:00:06.040" out="00:00:15.480">
      <property name="argument">Дхе – та Дха ǀ те га Дха та
те га та Дха ǀ те га Дха та</property>
      <property name="geometry">41 381 639 114 1</property>
      <property name="family">Jost</property>
      <property name="size">48</property>
      <property name="weight">500</property>
      <property name="style">normal</property>
      <property name="fgcolour">#ffffffff</property>
      <property name="bgcolour">#00000000</property>
      <property name="olcolour">#aa000000</property>
      <property name="pad">0</property>
      <property name="halign">center</property>
      <property name="valign">middle</property>
      <property name="outline">0</property>
      <property name="mlt_service">dynamictext</property>
      <property name="shotcut:filter">dynamicText</property>
      <property name="shotcut:usePointSize">1</property>
      <property name="shotcut:animIn">00:00:00.000</property>
      <property name="shotcut:animOut">00:00:00.000</property>
      <property name="shotcut:pointSize">48</property>
      <property name="disable">0</property>
    </filter>
    <filter id="filter74" in="00:00:06.040" out="00:00:15.480">
      <property name="start">1</property>
      <property name="level">1</property>
      <property name="mlt_service">brightness</property>
      <property name="shotcut:filter">fadeOutBrightness</property>
      <property name="alpha">00:00:09.160=1;00:00:09.440=0</property>
      <property name="shotcut:animOut">00:00:00.320</property>
    </filter>
    <filter id="filter75" in="00:00:06.040" out="00:00:15.480">
      <property name="start">1</property>
      <property name="level">1</property>
      <property name="mlt_service">brightness</property>
      <property name="shotcut:filter">fadeInBrightness</property>
      <property name="alpha">00:00:00.000=0;00:00:00.280=1</property>
      <property name="shotcut:animIn">00:00:00.320</property>
    </filter>
    <filter id="filter76" in="00:00:06.040" out="00:00:15.480">
      <property name="background">color:#00000000</property>
      <property name="mlt_service">affine</property>
      <property name="shotcut:filter">affineSizePosition</property>
      <property name="transition.fill">1</property>
      <property name="transition.distort">0</property>
      <property name="transition.rect">00:00:00.000=0 0 720 540 1;00:00:08.240=-5.04 -4 730.08 548 1;00:00:09.440=0 0 720 540 1</property>
      <property name="transition.valign">middle</property>
      <property name="transition.halign">center</property>
      <property name="shotcut:animIn">00:00:01.120</property>
      <property name="shotcut:animOut">00:00:01.240</property>
      <property name="transition.threads">0</property>
      <property name="transition.fix_rotate_x">00:00:00.000=0;00:00:08.240=0;00:00:09.440=0</property>
    </filter>
  </producer>
  <producer id="producer38" in="00:00:00.000" out="03:59:59.960">
    <property name="length">04:00:00.000</property>
    <property name="eof">pause</property>
    <property name="resource">#00000000</property>
    <property name="aspect_ratio">1</property>
    <property name="mlt_service">color</property>
    <property name="mlt_image_format">rgb24a</property>
    <property name="shotcut:caption">transparent</property>
    <property name="shotcut:detail">transparent</property>
    <property name="ignore_points">0</property>
    <property name="global_feed">1</property>
    <property name="xml">was here</property>
    <property name="seekable">1</property>
    <filter id="filter77" in="00:00:06.040" out="00:00:18.520">
      <property name="argument">Техай на дадра тал</property>
      <property name="geometry">83 415 555 91 1</property>
      <property name="family">Jost</property>
      <property name="size">48</property>
      <property name="weight">630</property>
      <property name="style">normal</property>
      <property name="fgcolour">#ffffffff</property>
      <property name="bgcolour">#00000000</property>
      <property name="olcolour">#aa000000</property>
      <property name="pad">0</property>
      <property name="halign">center</property>
      <property name="valign">middle</property>
      <property name="outline">0</property>
      <property name="mlt_service">dynamictext</property>
      <property name="shotcut:filter">dynamicText</property>
      <property name="shotcut:usePointSize">1</property>
      <property name="shotcut:animIn">00:00:00.000</property>
      <property name="shotcut:animOut">00:00:00.000</property>
      <property name="shotcut:pointSize">48</property>
      <property name="disable">1</property>
    </filter>
    <filter id="filter78" in="00:00:06.040" out="00:00:18.520">
      <property name="argument">– (тирити) Дхар – ǀ – (тирити) Дхар –
та гата га Дхе ǀ та га Дхе та</property>
      <property name="geometry">41 381 639 114 1</property>
      <property name="family">Jost</property>
      <property name="size">48</property>
      <property name="weight">500</property>
      <property name="style">normal</property>
      <property name="fgcolour">#ffffffff</property>
      <property name="bgcolour">#00000000</property>
      <property name="olcolour">#aa000000</property>
      <property name="pad">0</property>
      <property name="halign">center</property>
      <property name="valign">middle</property>
      <property name="outline">0</property>
      <property name="mlt_service">dynamictext</property>
      <property name="shotcut:filter">dynamicText</property>
      <property name="shotcut:usePointSize">1</property>
      <property name="shotcut:animIn">00:00:00.000</property>
      <property name="shotcut:animOut">00:00:00.000</property>
      <property name="shotcut:pointSize">48</property>
      <property name="disable">0</property>
    </filter>
    <filter id="filter79" in="00:00:06.040" out="00:00:18.520">
      <property name="start">1</property>
      <property name="level">1</property>
      <property name="mlt_service">brightness</property>
      <property name="shotcut:filter">fadeOutBrightness</property>
      <property name="alpha">00:00:12.200=1;00:00:12.480=0</property>
      <property name="shotcut:animOut">00:00:00.320</property>
    </filter>
    <filter id="filter80" in="00:00:06.040" out="00:00:18.520">
      <property name="start">1</property>
      <property name="level">1</property>
      <property name="mlt_service">brightness</property>
      <property name="shotcut:filter">fadeInBrightness</property>
      <property name="alpha">00:00:00.000=0;00:00:00.280=1</property>
      <property name="shotcut:animIn">00:00:00.320</property>
    </filter>
    <filter id="filter81" in="00:00:06.040" out="00:00:18.520">
      <property name="background">color:#00000000</property>
      <property name="mlt_service">affine</property>
      <property name="shotcut:filter">affineSizePosition</property>
      <property name="transition.fill">1</property>
      <property name="transition.distort">0</property>
      <property name="transition.rect">00:00:00.000=0 0 720 540 1;00:00:11.280=-5.04 -4 730.08 548 1;00:00:12.480=0 0 720 540 1</property>
      <property name="transition.valign">middle</property>
      <property name="transition.halign">center</property>
      <property name="shotcut:animIn">00:00:01.120</property>
      <property name="shotcut:animOut">00:00:01.240</property>
      <property name="transition.threads">0</property>
      <property name="transition.fix_rotate_x">00:00:00.000=0;00:00:11.280=0;00:00:12.480=0</property>
    </filter>
  </producer>
  <producer id="producer39" in="00:00:00.000" out="03:59:59.960">
    <property name="length">04:00:00.000</property>
    <property name="eof">pause</property>
    <property name="resource">#00000000</property>
    <property name="aspect_ratio">1</property>
    <property name="mlt_service">color</property>
    <property name="mlt_image_format">rgb24a</property>
    <property name="shotcut:caption">transparent</property>
    <property name="shotcut:detail">transparent</property>
    <property name="ignore_points">0</property>
    <property name="global_feed">1</property>
    <property name="xml">was here</property>
    <property name="seekable">1</property>
    <filter id="filter82" in="00:00:06.040" out="00:00:08.200">
      <property name="argument">Техай на дадра тал</property>
      <property name="geometry">83 415 555 91 1</property>
      <property name="family">Jost</property>
      <property name="size">48</property>
      <property name="weight">630</property>
      <property name="style">normal</property>
      <property name="fgcolour">#ffffffff</property>
      <property name="bgcolour">#00000000</property>
      <property name="olcolour">#aa000000</property>
      <property name="pad">0</property>
      <property name="halign">center</property>
      <property name="valign">middle</property>
      <property name="outline">0</property>
      <property name="mlt_service">dynamictext</property>
      <property name="shotcut:filter">dynamicText</property>
      <property name="shotcut:usePointSize">1</property>
      <property name="shotcut:animIn">00:00:00.000</property>
      <property name="shotcut:animOut">00:00:00.000</property>
      <property name="shotcut:pointSize">48</property>
      <property name="disable">1</property>
    </filter>
    <filter id="filter83" in="00:00:06.040" out="00:00:08.200">
      <property name="argument">– – – – ǀ – – – – 
Дхер Дха – Дхер ǀ Дха – Дхар –</property>
      <property name="geometry">41 381 639 114 1</property>
      <property name="family">Jost</property>
      <property name="size">48</property>
      <property name="weight">500</property>
      <property name="style">normal</property>
      <property name="fgcolour">#ffffffff</property>
      <property name="bgcolour">#00000000</property>
      <property name="olcolour">#aa000000</property>
      <property name="pad">0</property>
      <property name="halign">center</property>
      <property name="valign">middle</property>
      <property name="outline">0</property>
      <property name="mlt_service">dynamictext</property>
      <property name="shotcut:filter">dynamicText</property>
      <property name="shotcut:usePointSize">1</property>
      <property name="shotcut:animIn">00:00:00.000</property>
      <property name="shotcut:animOut">00:00:00.000</property>
      <property name="shotcut:pointSize">48</property>
      <property name="disable">0</property>
    </filter>
    <filter id="filter84" in="00:00:06.040" out="00:00:08.200">
      <property name="start">1</property>
      <property name="level">1</property>
      <property name="mlt_service">brightness</property>
      <property name="shotcut:filter">fadeOutBrightness</property>
      <property name="alpha">00:00:01.880=1;00:00:02.160=0</property>
      <property name="shotcut:animOut">00:00:00.320</property>
    </filter>
    <filter id="filter85" in="00:00:06.040" out="00:00:08.200">
      <property name="start">1</property>
      <property name="level">1</property>
      <property name="mlt_service">brightness</property>
      <property name="shotcut:filter">fadeInBrightness</property>
      <property name="alpha">00:00:00.000=0;00:00:00.280=1</property>
      <property name="shotcut:animIn">00:00:00.320</property>
    </filter>
    <filter id="filter86" in="00:00:06.040" out="00:00:08.200">
      <property name="background">color:#00000000</property>
      <property name="mlt_service">affine</property>
      <property name="shotcut:filter">affineSizePosition</property>
      <property name="transition.fill">1</property>
      <property name="transition.distort">0</property>
      <property name="transition.rect">00:00:00.000=0 0 720 540 1;00:00:00.960=-5.04 -4 730.08 548 1;00:00:02.160=0 0 720 540 1</property>
      <property name="transition.valign">middle</property>
      <property name="transition.halign">center</property>
      <property name="shotcut:animIn">00:00:01.120</property>
      <property name="shotcut:animOut">00:00:01.240</property>
      <property name="transition.threads">0</property>
      <property name="transition.fix_rotate_x">00:00:00.000=0;00:00:00.960=0;00:00:02.160=0</property>
    </filter>
  </producer>
  <producer id="producer40" in="00:00:00.000" out="03:59:59.960">
    <property name="length">04:00:00.000</property>
    <property name="eof">pause</property>
    <property name="resource">#00000000</property>
    <property name="aspect_ratio">1</property>
    <property name="mlt_service">color</property>
    <property name="mlt_image_format">rgb24a</property>
    <property name="shotcut:caption">transparent</property>
    <property name="shotcut:detail">transparent</property>
    <property name="ignore_points">0</property>
    <property name="global_feed">1</property>
    <property name="xml">was here</property>
    <property name="seekable">1</property>
    <filter id="filter87" in="00:00:05.320" out="00:00:08.200">
      <property name="argument">Техай на дадра тал</property>
      <property name="geometry">83 415 555 91 1</property>
      <property name="family">Jost</property>
      <property name="size">48</property>
      <property name="weight">630</property>
      <property name="style">normal</property>
      <property name="fgcolour">#ffffffff</property>
      <property name="bgcolour">#00000000</property>
      <property name="olcolour">#aa000000</property>
      <property name="pad">0</property>
      <property name="halign">center</property>
      <property name="valign">middle</property>
      <property name="outline">0</property>
      <property name="mlt_service">dynamictext</property>
      <property name="shotcut:filter">dynamicText</property>
      <property name="shotcut:usePointSize">1</property>
      <property name="shotcut:animIn">00:00:00.000</property>
      <property name="shotcut:animOut">00:00:00.000</property>
      <property name="shotcut:pointSize">48</property>
      <property name="disable">1</property>
    </filter>
    <filter id="filter88" in="00:00:05.320" out="00:00:08.200">
      <property name="argument">– – – – ǀ – – – – 
Дхер Дха – Дхер ǀ Дха – Дхар –</property>
      <property name="geometry">41 381 639 114 1</property>
      <property name="family">Jost</property>
      <property name="size">48</property>
      <property name="weight">500</property>
      <property name="style">normal</property>
      <property name="fgcolour">#ffffffff</property>
      <property name="bgcolour">#00000000</property>
      <property name="olcolour">#aa000000</property>
      <property name="pad">0</property>
      <property name="halign">center</property>
      <property name="valign">middle</property>
      <property name="outline">0</property>
      <property name="mlt_service">dynamictext</property>
      <property name="shotcut:filter">dynamicText</property>
      <property name="shotcut:usePointSize">1</property>
      <property name="shotcut:animIn">00:00:00.000</property>
      <property name="shotcut:animOut">00:00:00.000</property>
      <property name="shotcut:pointSize">48</property>
      <property name="disable">0</property>
    </filter>
    <filter id="filter89" in="00:00:05.320" out="00:00:08.200">
      <property name="start">1</property>
      <property name="level">1</property>
      <property name="mlt_service">brightness</property>
      <property name="shotcut:filter">fadeOutBrightness</property>
      <property name="alpha">00:00:02.600=1;00:00:02.880=0</property>
      <property name="shotcut:animOut">00:00:00.320</property>
    </filter>
    <filter id="filter90" in="00:00:05.320" out="00:00:08.200">
      <property name="start">1</property>
      <property name="level">1</property>
      <property name="mlt_service">brightness</property>
      <property name="shotcut:filter">fadeInBrightness</property>
      <property name="alpha">00:00:00.000=0;00:00:00.280=1</property>
      <property name="shotcut:animIn">00:00:00.320</property>
    </filter>
    <filter id="filter91" in="00:00:05.320" out="00:00:08.200">
      <property name="background">color:#00000000</property>
      <property name="mlt_service">affine</property>
      <property name="shotcut:filter">affineSizePosition</property>
      <property name="transition.fill">1</property>
      <property name="transition.distort">0</property>
      <property name="transition.rect">00:00:00.000=0 0 720 540 1;00:00:00.960=-5.04 -4 730.08 548 1;00:00:02.160=0 0 720 540 1</property>
      <property name="transition.valign">middle</property>
      <property name="transition.halign">center</property>
      <property name="shotcut:animIn">00:00:01.120</property>
      <property name="shotcut:animOut">00:00:01.240</property>
      <property name="transition.threads">0</property>
      <property name="transition.fix_rotate_x">00:00:00.000=0;00:00:00.960=0;00:00:02.160=0</property>
    </filter>
  </producer>
  <producer id="producer41" in="00:00:00.000" out="03:59:59.960">
    <property name="length">04:00:00.000</property>
    <property name="eof">pause</property>
    <property name="resource">#00000000</property>
    <property name="aspect_ratio">1</property>
    <property name="mlt_service">color</property>
    <property name="mlt_image_format">rgb24a</property>
    <property name="shotcut:caption">transparent</property>
    <property name="shotcut:detail">transparent</property>
    <property name="ignore_points">0</property>
    <property name="global_feed">1</property>
    <property name="xml">was here</property>
    <property name="seekable">1</property>
    <filter id="filter92" in="00:00:05.320" out="00:00:08.600">
      <property name="argument">Техай на дадра тал</property>
      <property name="geometry">83 415 555 91 1</property>
      <property name="family">Jost</property>
      <property name="size">48</property>
      <property name="weight">630</property>
      <property name="style">normal</property>
      <property name="fgcolour">#ffffffff</property>
      <property name="bgcolour">#00000000</property>
      <property name="olcolour">#aa000000</property>
      <property name="pad">0</property>
      <property name="halign">center</property>
      <property name="valign">middle</property>
      <property name="outline">0</property>
      <property name="mlt_service">dynamictext</property>
      <property name="shotcut:filter">dynamicText</property>
      <property name="shotcut:usePointSize">1</property>
      <property name="shotcut:animIn">00:00:00.000</property>
      <property name="shotcut:animOut">00:00:00.000</property>
      <property name="shotcut:pointSize">48</property>
      <property name="disable">1</property>
    </filter>
    <filter id="filter93" in="00:00:05.320" out="00:00:08.600">
      <property name="argument">га – та га ǀ – та га –
– га – та ǀ га – га –</property>
      <property name="geometry">41 381 639 114 1</property>
      <property name="family">Jost</property>
      <property name="size">48</property>
      <property name="weight">500</property>
      <property name="style">normal</property>
      <property name="fgcolour">#ffffffff</property>
      <property name="bgcolour">#00000000</property>
      <property name="olcolour">#aa000000</property>
      <property name="pad">0</property>
      <property name="halign">center</property>
      <property name="valign">middle</property>
      <property name="outline">0</property>
      <property name="mlt_service">dynamictext</property>
      <property name="shotcut:filter">dynamicText</property>
      <property name="shotcut:usePointSize">1</property>
      <property name="shotcut:animIn">00:00:00.000</property>
      <property name="shotcut:animOut">00:00:00.000</property>
      <property name="shotcut:pointSize">48</property>
      <property name="disable">0</property>
    </filter>
    <filter id="filter94" in="00:00:05.320" out="00:00:08.600">
      <property name="start">1</property>
      <property name="level">1</property>
      <property name="mlt_service">brightness</property>
      <property name="shotcut:filter">fadeOutBrightness</property>
      <property name="alpha">00:00:03.000=1;00:00:03.280=0</property>
      <property name="shotcut:animOut">00:00:00.320</property>
    </filter>
    <filter id="filter95" in="00:00:05.320" out="00:00:08.600">
      <property name="start">1</property>
      <property name="level">1</property>
      <property name="mlt_service">brightness</property>
      <property name="shotcut:filter">fadeInBrightness</property>
      <property name="alpha">00:00:00.000=0;00:00:00.280=1</property>
      <property name="shotcut:animIn">00:00:00.320</property>
    </filter>
    <filter id="filter96" in="00:00:05.320" out="00:00:08.600">
      <property name="background">color:#00000000</property>
      <property name="mlt_service">affine</property>
      <property name="shotcut:filter">affineSizePosition</property>
      <property name="transition.fill">1</property>
      <property name="transition.distort">0</property>
      <property name="transition.rect">00:00:00.000=0 0 720 540 1;00:00:02.080=-5.04 -4 730.08 548 1;00:00:03.280=0 0 720 540 1</property>
      <property name="transition.valign">middle</property>
      <property name="transition.halign">center</property>
      <property name="shotcut:animIn">00:00:01.120</property>
      <property name="shotcut:animOut">00:00:01.240</property>
      <property name="transition.threads">0</property>
      <property name="transition.fix_rotate_x">00:00:00.000=0;00:00:02.080=0;00:00:03.280=0</property>
    </filter>
  </producer>
  <producer id="producer42" in="00:00:00.000" out="03:59:59.960">
    <property name="length">04:00:00.000</property>
    <property name="eof">pause</property>
    <property name="resource">#00000000</property>
    <property name="aspect_ratio">1</property>
    <property name="mlt_service">color</property>
    <property name="mlt_image_format">rgb24a</property>
    <property name="shotcut:caption">transparent</property>
    <property name="shotcut:detail">transparent</property>
    <property name="ignore_points">0</property>
    <property name="global_feed">1</property>
    <property name="xml">was here</property>
    <property name="seekable">1</property>
    <filter id="filter97" in="00:00:05.560" out="00:00:08.600">
      <property name="argument">Техай на дадра тал</property>
      <property name="geometry">83 415 555 91 1</property>
      <property name="family">Jost</property>
      <property name="size">48</property>
      <property name="weight">630</property>
      <property name="style">normal</property>
      <property name="fgcolour">#ffffffff</property>
      <property name="bgcolour">#00000000</property>
      <property name="olcolour">#aa000000</property>
      <property name="pad">0</property>
      <property name="halign">center</property>
      <property name="valign">middle</property>
      <property name="outline">0</property>
      <property name="mlt_service">dynamictext</property>
      <property name="shotcut:filter">dynamicText</property>
      <property name="shotcut:usePointSize">1</property>
      <property name="shotcut:animIn">00:00:00.000</property>
      <property name="shotcut:animOut">00:00:00.000</property>
      <property name="shotcut:pointSize">48</property>
      <property name="disable">1</property>
    </filter>
    <filter id="filter98" in="00:00:05.560" out="00:00:08.600">
      <property name="argument">га – та га ǀ – та га –
– га – та ǀ га – га –</property>
      <property name="geometry">41 381 639 114 1</property>
      <property name="family">Jost</property>
      <property name="size">48</property>
      <property name="weight">500</property>
      <property name="style">normal</property>
      <property name="fgcolour">#ffffffff</property>
      <property name="bgcolour">#00000000</property>
      <property name="olcolour">#aa000000</property>
      <property name="pad">0</property>
      <property name="halign">center</property>
      <property name="valign">middle</property>
      <property name="outline">0</property>
      <property name="mlt_service">dynamictext</property>
      <property name="shotcut:filter">dynamicText</property>
      <property name="shotcut:usePointSize">1</property>
      <property name="shotcut:animIn">00:00:00.000</property>
      <property name="shotcut:animOut">00:00:00.000</property>
      <property name="shotcut:pointSize">48</property>
      <property name="disable">0</property>
    </filter>
    <filter id="filter99" in="00:00:05.560" out="00:00:08.600">
      <property name="start">1</property>
      <property name="level">1</property>
      <property name="mlt_service">brightness</property>
      <property name="shotcut:filter">fadeOutBrightness</property>
      <property name="alpha">00:00:02.760=1;00:00:03.040=0</property>
      <property name="shotcut:animOut">00:00:00.320</property>
    </filter>
    <filter id="filter100" in="00:00:05.560" out="00:00:08.600">
      <property name="start">1</property>
      <property name="level">1</property>
      <property name="mlt_service">brightness</property>
      <property name="shotcut:filter">fadeInBrightness</property>
      <property name="alpha">00:00:00.000=0;00:00:00.280=1</property>
      <property name="shotcut:animIn">00:00:00.320</property>
    </filter>
    <filter id="filter101" in="00:00:05.560" out="00:00:08.600">
      <property name="background">color:#00000000</property>
      <property name="mlt_service">affine</property>
      <property name="shotcut:filter">affineSizePosition</property>
      <property name="transition.fill">1</property>
      <property name="transition.distort">0</property>
      <property name="transition.rect">00:00:00.000=0 0 720 540 1;00:00:01.840=-5.04 -4 730.08 548 1;00:00:03.040=0 0 720 540 1</property>
      <property name="transition.valign">middle</property>
      <property name="transition.halign">center</property>
      <property name="shotcut:animIn">00:00:01.120</property>
      <property name="shotcut:animOut">00:00:01.240</property>
      <property name="transition.threads">0</property>
      <property name="transition.fix_rotate_x">00:00:00.000=0;00:00:01.840=0;00:00:03.040=0</property>
    </filter>
  </producer>
  <producer id="producer43" in="00:00:00.000" out="03:59:59.960">
    <property name="length">04:00:00.000</property>
    <property name="eof">pause</property>
    <property name="resource">#00000000</property>
    <property name="aspect_ratio">1</property>
    <property name="mlt_service">color</property>
    <property name="mlt_image_format">rgb24a</property>
    <property name="shotcut:caption">transparent</property>
    <property name="shotcut:detail">transparent</property>
    <property name="ignore_points">0</property>
    <property name="global_feed">1</property>
    <property name="xml">was here</property>
    <property name="seekable">1</property>
    <filter id="filter102" in="00:00:05.320" out="00:00:11.640">
      <property name="argument">Техай на дадра тал</property>
      <property name="geometry">83 415 555 91 1</property>
      <property name="family">Jost</property>
      <property name="size">48</property>
      <property name="weight">630</property>
      <property name="style">normal</property>
      <property name="fgcolour">#ffffffff</property>
      <property name="bgcolour">#00000000</property>
      <property name="olcolour">#aa000000</property>
      <property name="pad">0</property>
      <property name="halign">center</property>
      <property name="valign">middle</property>
      <property name="outline">0</property>
      <property name="mlt_service">dynamictext</property>
      <property name="shotcut:filter">dynamicText</property>
      <property name="shotcut:usePointSize">1</property>
      <property name="shotcut:animIn">00:00:00.000</property>
      <property name="shotcut:animOut">00:00:00.000</property>
      <property name="shotcut:pointSize">48</property>
      <property name="disable">1</property>
    </filter>
    <filter id="filter103" in="00:00:05.320" out="00:00:11.640">
      <property name="argument">га – та га ǀ те та га –
та га те та ǀ га – та –</property>
      <property name="geometry">41 381 639 114 1</property>
      <property name="family">Jost</property>
      <property name="size">48</property>
      <property name="weight">500</property>
      <property name="style">normal</property>
      <property name="fgcolour">#ffffffff</property>
      <property name="bgcolour">#00000000</property>
      <property name="olcolour">#aa000000</property>
      <property name="pad">0</property>
      <property name="halign">center</property>
      <property name="valign">middle</property>
      <property name="outline">0</property>
      <property name="mlt_service">dynamictext</property>
      <property name="shotcut:filter">dynamicText</property>
      <property name="shotcut:usePointSize">1</property>
      <property name="shotcut:animIn">00:00:00.000</property>
      <property name="shotcut:animOut">00:00:00.000</property>
      <property name="shotcut:pointSize">48</property>
      <property name="disable">0</property>
    </filter>
    <filter id="filter104" in="00:00:05.320" out="00:00:11.640">
      <property name="start">1</property>
      <property name="level">1</property>
      <property name="mlt_service">brightness</property>
      <property name="shotcut:filter">fadeOutBrightness</property>
      <property name="alpha">00:00:06.040=1;00:00:06.320=0</property>
      <property name="shotcut:animOut">00:00:00.320</property>
    </filter>
    <filter id="filter105" in="00:00:05.320" out="00:00:11.640">
      <property name="start">1</property>
      <property name="level">1</property>
      <property name="mlt_service">brightness</property>
      <property name="shotcut:filter">fadeInBrightness</property>
      <property name="alpha">00:00:00.000=0;00:00:00.280=1</property>
      <property name="shotcut:animIn">00:00:00.320</property>
    </filter>
    <filter id="filter106" in="00:00:05.320" out="00:00:11.640">
      <property name="background">color:#00000000</property>
      <property name="mlt_service">affine</property>
      <property name="shotcut:filter">affineSizePosition</property>
      <property name="transition.fill">1</property>
      <property name="transition.distort">0</property>
      <property name="transition.rect">00:00:00.000=0 0 720 540 1;00:00:02.080=-5.04 -4 730.08 548 1;00:00:03.280=0 0 720 540 1</property>
      <property name="transition.valign">middle</property>
      <property name="transition.halign">center</property>
      <property name="shotcut:animIn">00:00:01.120</property>
      <property name="shotcut:animOut">00:00:01.240</property>
      <property name="transition.threads">0</property>
      <property name="transition.fix_rotate_x">00:00:00.000=0;00:00:02.080=0;00:00:03.280=0</property>
    </filter>
  </producer>
  <producer id="producer44" in="00:00:00.000" out="03:59:59.960">
    <property name="length">04:00:00.000</property>
    <property name="eof">pause</property>
    <property name="resource">#00000000</property>
    <property name="aspect_ratio">1</property>
    <property name="mlt_service">color</property>
    <property name="mlt_image_format">rgb24a</property>
    <property name="shotcut:caption">transparent</property>
    <property name="shotcut:detail">transparent</property>
    <property name="ignore_points">0</property>
    <property name="global_feed">1</property>
    <property name="xml">was here</property>
    <property name="seekable">1</property>
    <filter id="filter107" in="00:00:05.320" out="00:00:07.840">
      <property name="argument">Техай на дадра тал</property>
      <property name="geometry">83 415 555 91 1</property>
      <property name="family">Jost</property>
      <property name="size">48</property>
      <property name="weight">630</property>
      <property name="style">normal</property>
      <property name="fgcolour">#ffffffff</property>
      <property name="bgcolour">#00000000</property>
      <property name="olcolour">#aa000000</property>
      <property name="pad">0</property>
      <property name="halign">center</property>
      <property name="valign">middle</property>
      <property name="outline">0</property>
      <property name="mlt_service">dynamictext</property>
      <property name="shotcut:filter">dynamicText</property>
      <property name="shotcut:usePointSize">1</property>
      <property name="shotcut:animIn">00:00:00.000</property>
      <property name="shotcut:animOut">00:00:00.000</property>
      <property name="shotcut:pointSize">48</property>
      <property name="disable">1</property>
    </filter>
    <filter id="filter108" in="00:00:05.320" out="00:00:07.840">
      <property name="argument">га – та га ǀ те та га –
та га те та ǀ га – та –</property>
      <property name="geometry">41 381 639 114 1</property>
      <property name="family">Jost</property>
      <property name="size">48</property>
      <property name="weight">500</property>
      <property name="style">normal</property>
      <property name="fgcolour">#ffffffff</property>
      <property name="bgcolour">#00000000</property>
      <property name="olcolour">#aa000000</property>
      <property name="pad">0</property>
      <property name="halign">center</property>
      <property name="valign">middle</property>
      <property name="outline">0</property>
      <property name="mlt_service">dynamictext</property>
      <property name="shotcut:filter">dynamicText</property>
      <property name="shotcut:usePointSize">1</property>
      <property name="shotcut:animIn">00:00:00.000</property>
      <property name="shotcut:animOut">00:00:00.000</property>
      <property name="shotcut:pointSize">48</property>
      <property name="disable">0</property>
    </filter>
    <filter id="filter109" in="00:00:05.320" out="00:00:07.840">
      <property name="start">1</property>
      <property name="level">1</property>
      <property name="mlt_service">brightness</property>
      <property name="shotcut:filter">fadeOutBrightness</property>
      <property name="alpha">00:00:02.240=1;00:00:02.520=0</property>
      <property name="shotcut:animOut">00:00:00.320</property>
    </filter>
    <filter id="filter110" in="00:00:05.320" out="00:00:07.840">
      <property name="start">1</property>
      <property name="level">1</property>
      <property name="mlt_service">brightness</property>
      <property name="shotcut:filter">fadeInBrightness</property>
      <property name="alpha">00:00:00.000=0;00:00:00.280=1</property>
      <property name="shotcut:animIn">00:00:00.320</property>
    </filter>
    <filter id="filter111" in="00:00:05.320" out="00:00:07.840">
      <property name="background">color:#00000000</property>
      <property name="mlt_service">affine</property>
      <property name="shotcut:filter">affineSizePosition</property>
      <property name="transition.fill">1</property>
      <property name="transition.distort">0</property>
      <property name="transition.rect">00:00:00.000=0 0 720 540 1;00:00:01.320=-5.04 -4 730.08 548 1;00:00:02.520=0 0 720 540 1</property>
      <property name="transition.valign">middle</property>
      <property name="transition.halign">center</property>
      <property name="shotcut:animIn">00:00:01.120</property>
      <property name="shotcut:animOut">00:00:01.240</property>
      <property name="transition.threads">0</property>
      <property name="transition.fix_rotate_x">00:00:00.000=0;00:00:01.320=0;00:00:02.520=0</property>
    </filter>
  </producer>
  <playlist id="playlist3">
    <property name="shotcut:video">1</property>
    <property name="shotcut:name">V2</property>
    <blank length="00:00:01.080"/>
    <entry producer="producer32" in="00:00:00.000" out="00:00:02.240"/>
    <blank length="00:00:00.160"/>
    <entry producer="producer26" in="00:00:06.040" out="00:00:20.480"/>
    <blank length="00:00:18.720"/>
    <entry producer="producer27" in="00:00:06.040" out="00:00:08.800"/>
    <blank length="00:00:29.360"/>
    <entry producer="producer28" in="00:00:06.040" out="00:00:17.400"/>
    <blank length="00:00:17.440"/>
    <entry producer="producer29" in="00:00:06.040" out="00:00:08.840"/>
    <blank length="00:00:07.840"/>
    <entry producer="producer30" in="00:00:06.040" out="00:00:08.840"/>
    <blank length="00:00:04.480"/>
    <entry producer="producer31" in="00:00:06.040" out="00:00:09.080"/>
    <blank length="00:00:23.400"/>
    <entry producer="producer33" in="00:00:06.040" out="00:00:15.280"/>
    <blank length="00:00:39.240"/>
    <entry producer="producer34" in="00:00:06.040" out="00:00:15.520"/>
    <blank length="00:00:34.320"/>
    <entry producer="producer35" in="00:00:06.040" out="00:00:10.320"/>
    <blank length="00:00:28.640"/>
    <entry producer="producer36" in="00:00:06.040" out="00:00:12.320"/>
    <blank length="00:00:32.560"/>
    <entry producer="producer37" in="00:00:06.040" out="00:00:15.480"/>
    <blank length="00:00:38.680"/>
    <entry producer="producer38" in="00:00:06.040" out="00:00:18.520"/>
    <blank length="00:00:12.040"/>
    <entry producer="producer39" in="00:00:06.040" out="00:00:08.200"/>
    <blank length="00:00:09.000"/>
    <entry producer="producer40" in="00:00:05.320" out="00:00:08.200"/>
    <blank length="00:00:12.000"/>
    <entry producer="producer41" in="00:00:05.320" out="00:00:08.600"/>
    <blank length="00:00:10.240"/>
    <entry producer="producer42" in="00:00:05.560" out="00:00:08.600"/>
    <blank length="00:00:11.800"/>
    <entry producer="producer43" in="00:00:05.320" out="00:00:11.640"/>
    <blank length="00:00:02.920"/>
    <entry producer="producer44" in="00:00:05.320" out="00:00:07.840"/>
  </playlist>
  <playlist id="playlist2">
    <property name="shotcut:audio">1</property>
    <property name="shotcut:name">A1</property>
    <blank length="00:00:00.040"/>
  </playlist>
  <tractor id="tractor11" title="Shotcut version 21.01.29" global_feed="1" in="00:00:00.000" out="00:07:47.400">
    <property name="shotcut">1</property>
    <property name="shotcut:projectAudioChannels">2</property>
    <property name="shotcut:projectFolder">1</property>
    <property name="shotcut:scaleFactor">2.62089</property>
    <property name="shotcut:trackHeight">52</property>
    <track producer="background"/>
    <track producer="playlist0"/>
    <track producer="playlist3"/>
    <track producer="playlist2" hide="video"/>
    <transition id="transition22">
      <property name="a_track">0</property>
      <property name="b_track">1</property>
      <property name="mlt_service">mix</property>
      <property name="always_active">1</property>
      <property name="sum">1</property>
    </transition>
    <transition id="transition23">
      <property name="a_track">0</property>
      <property name="b_track">1</property>
      <property name="version">0.9</property>
      <property name="mlt_service">frei0r.cairoblend</property>
      <property name="threads">0</property>
      <property name="disable">1</property>
    </transition>
    <transition id="transition24">
      <property name="a_track">0</property>
      <property name="b_track">2</property>
      <property name="mlt_service">mix</property>
      <property name="always_active">1</property>
      <property name="sum">1</property>
    </transition>
    <transition id="transition25">
      <property name="a_track">1</property>
      <property name="b_track">2</property>
      <property name="version">0.9</property>
      <property name="mlt_service">frei0r.cairoblend</property>
      <property name="threads">0</property>
      <property name="disable">0</property>
    </transition>
    <transition id="transition26">
      <property name="a_track">0</property>
      <property name="b_track">3</property>
      <property name="mlt_service">mix</property>
      <property name="always_active">1</property>
      <property name="sum">1</property>
    </transition>
  </tractor>
</mlt>
