<?xml version="1.0" standalone="no"?>
<mlt LC_NUMERIC="C" version="6.25.0" title="Shotcut version 21.01.29" producer="main_bin">
  <profile description="automatic" width="720" height="540" progressive="1" sample_aspect_num="1" sample_aspect_den="1" display_aspect_num="720" display_aspect_den="540" frame_rate_num="25" frame_rate_den="1" colorspace="601"/>
  <producer id="producer0" in="00:00:00.000" out="00:00:16.480">
    <property name="length">00:00:16.520</property>
    <property name="eof">pause</property>
    <property name="resource">/Users/div/projects/laghu-sangitamrita/media/Мриданга/03 - Звуки/02 - Правила игры/02 - Правила игры.avi</property>
    <property name="audio_index">1</property>
    <property name="video_index">0</property>
    <property name="mute_on_pause">0</property>
    <property name="mlt_service">avformat-novalidate</property>
    <property name="seekable">1</property>
    <property name="aspect_ratio">1</property>
    <property name="creation_time">2021-02-01T20:41:02</property>
    <property name="global_feed">1</property>
    <property name="xml">was here</property>
    <property name="shotcut:hash">a530c8a8463db256e1664ca8cc925ef4</property>
  </producer>
  <producer id="producer1" in="00:00:00.000" out="00:01:19.800">
    <property name="length">00:01:19.840</property>
    <property name="eof">pause</property>
    <property name="resource">/Users/div/projects/laghu-sangitamrita/media/Мриданга/03 - Звуки/03 - Правая рука/03 - Та.avi</property>
    <property name="audio_index">1</property>
    <property name="video_index">0</property>
    <property name="mute_on_pause">0</property>
    <property name="mlt_service">avformat-novalidate</property>
    <property name="seekable">1</property>
    <property name="aspect_ratio">1</property>
    <property name="creation_time">2021-02-01T20:41:04</property>
    <property name="global_feed">1</property>
    <property name="xml">was here</property>
    <property name="shotcut:hash">946b0708e29306e1f99826509179d771</property>
  </producer>
  <producer id="producer2" in="00:00:00.000" out="00:01:28.040">
    <property name="length">00:01:28.080</property>
    <property name="eof">pause</property>
    <property name="resource">/Users/div/projects/laghu-sangitamrita/media/Мриданга/03 - Звуки/03 - Правая рука/04 - Те.avi</property>
    <property name="audio_index">1</property>
    <property name="video_index">0</property>
    <property name="mute_on_pause">0</property>
    <property name="mlt_service">avformat-novalidate</property>
    <property name="seekable">1</property>
    <property name="aspect_ratio">1</property>
    <property name="creation_time">2021-02-01T20:41:08</property>
    <property name="global_feed">1</property>
    <property name="xml">was here</property>
    <property name="shotcut:hash">97cbd3bcf8b40dd705f476ad8c86a924</property>
  </producer>
  <producer id="producer3" in="00:00:00.000" out="00:00:15.040">
    <property name="length">00:00:15.080</property>
    <property name="eof">pause</property>
    <property name="resource">/Users/div/projects/laghu-sangitamrita/media/Мриданга/03 - Звуки/03 - Правая рука/05 - Ри.avi</property>
    <property name="audio_index">1</property>
    <property name="video_index">0</property>
    <property name="mute_on_pause">0</property>
    <property name="mlt_service">avformat-novalidate</property>
    <property name="seekable">1</property>
    <property name="aspect_ratio">1</property>
    <property name="creation_time">2021-02-01T20:41:16</property>
    <property name="global_feed">1</property>
    <property name="xml">was here</property>
    <property name="shotcut:hash">5f24a05c8ca7f2d31b3b596c982d8cda</property>
  </producer>
  <producer id="producer4" in="00:00:00.000" out="00:01:34.560">
    <property name="length">00:01:34.600</property>
    <property name="eof">pause</property>
    <property name="resource">/Users/div/projects/laghu-sangitamrita/media/Мриданга/03 - Звуки/03 - Правая рука/06 - Ти.avi</property>
    <property name="audio_index">1</property>
    <property name="video_index">0</property>
    <property name="mute_on_pause">0</property>
    <property name="mlt_service">avformat-novalidate</property>
    <property name="seekable">1</property>
    <property name="aspect_ratio">1</property>
    <property name="creation_time">2021-02-01T20:41:16</property>
    <property name="global_feed">1</property>
    <property name="xml">was here</property>
    <property name="shotcut:hash">bf05524ecf2a06406765097177f21750</property>
  </producer>
  <producer id="producer5" in="00:00:00.000" out="00:00:42.440">
    <property name="length">00:00:42.480</property>
    <property name="eof">pause</property>
    <property name="resource">/Users/div/projects/laghu-sangitamrita/media/Мриданга/03 - Звуки/04 - Левая рука/07 - Га.avi</property>
    <property name="audio_index">1</property>
    <property name="video_index">0</property>
    <property name="mute_on_pause">0</property>
    <property name="mlt_service">avformat-novalidate</property>
    <property name="seekable">1</property>
    <property name="aspect_ratio">1</property>
    <property name="creation_time">2021-02-01T20:41:24</property>
    <property name="global_feed">1</property>
    <property name="xml">was here</property>
    <property name="shotcut:hash">7c453d000dc7649aa537ca8d041da086</property>
  </producer>
  <producer id="producer6" in="00:00:00.000" out="00:01:10.520">
    <property name="length">00:01:10.560</property>
    <property name="eof">pause</property>
    <property name="resource">/Users/div/projects/laghu-sangitamrita/media/Мриданга/03 - Звуки/04 - Левая рука/08 - Ге.avi</property>
    <property name="audio_index">1</property>
    <property name="video_index">0</property>
    <property name="mute_on_pause">0</property>
    <property name="mlt_service">avformat-novalidate</property>
    <property name="seekable">1</property>
    <property name="aspect_ratio">1</property>
    <property name="creation_time">2021-02-01T20:41:30</property>
    <property name="global_feed">1</property>
    <property name="xml">was here</property>
    <property name="shotcut:hash">ffc6e8e29e8c8b1693f8d74b86e438cc</property>
  </producer>
  <producer id="producer7" in="00:00:00.000" out="00:01:39.920">
    <property name="length">00:01:39.960</property>
    <property name="eof">pause</property>
    <property name="resource">/Users/div/projects/laghu-sangitamrita/media/Мриданга/03 - Звуки/04 - Левая рука/09 - гам.avi</property>
    <property name="audio_index">1</property>
    <property name="video_index">0</property>
    <property name="mute_on_pause">0</property>
    <property name="mlt_service">avformat-novalidate</property>
    <property name="seekable">1</property>
    <property name="aspect_ratio">1</property>
    <property name="creation_time">2021-02-01T20:41:34</property>
    <property name="global_feed">1</property>
    <property name="xml">was here</property>
    <property name="shotcut:hash">a57bf9473e9df04fb81b41c12784616a</property>
  </producer>
  <producer id="producer8" in="00:00:00.000" out="00:00:13.920">
    <property name="length">00:00:13.960</property>
    <property name="eof">pause</property>
    <property name="resource">/Users/div/projects/laghu-sangitamrita/media/Мриданга/03 - Звуки/05 - Двойные звуки/10 - Дха.avi</property>
    <property name="audio_index">1</property>
    <property name="video_index">0</property>
    <property name="mute_on_pause">0</property>
    <property name="mlt_service">avformat-novalidate</property>
    <property name="seekable">1</property>
    <property name="aspect_ratio">1</property>
    <property name="creation_time">2021-02-01T20:41:42</property>
    <property name="global_feed">1</property>
    <property name="xml">was here</property>
    <property name="shotcut:hash">334856019fd2b9c2150828c4390d2e39</property>
  </producer>
  <producer id="producer9" in="00:00:00.000" out="00:00:07.720">
    <property name="length">00:00:07.760</property>
    <property name="eof">pause</property>
    <property name="resource">/Users/div/projects/laghu-sangitamrita/media/Мриданга/03 - Звуки/05 - Двойные звуки/11 - Дхе.avi</property>
    <property name="audio_index">1</property>
    <property name="video_index">0</property>
    <property name="mute_on_pause">0</property>
    <property name="mlt_service">avformat-novalidate</property>
    <property name="seekable">1</property>
    <property name="aspect_ratio">1</property>
    <property name="creation_time">2021-02-01T20:41:44</property>
    <property name="global_feed">1</property>
    <property name="xml">was here</property>
    <property name="shotcut:hash">50f3629ed364d5a4c820b9c60e59c2b0</property>
  </producer>
  <producer id="producer10" in="00:00:00.000" out="00:00:07.200">
    <property name="length">00:00:07.240</property>
    <property name="eof">pause</property>
    <property name="resource">/Users/div/projects/laghu-sangitamrita/media/Мриданга/03 - Звуки/05 - Двойные звуки/12 - Дхар.avi</property>
    <property name="audio_index">1</property>
    <property name="video_index">0</property>
    <property name="mute_on_pause">0</property>
    <property name="mlt_service">avformat-novalidate</property>
    <property name="seekable">1</property>
    <property name="aspect_ratio">1</property>
    <property name="creation_time">2021-02-01T20:41:44</property>
    <property name="global_feed">1</property>
    <property name="xml">was here</property>
    <property name="shotcut:hash">9257b69fef00bf013ef16790c6e83c7e</property>
  </producer>
  <producer id="producer11" in="00:00:00.000" out="00:00:08.480">
    <property name="length">00:00:08.520</property>
    <property name="eof">pause</property>
    <property name="resource">/Users/div/projects/laghu-sangitamrita/media/Мриданга/03 - Звуки/05 - Двойные звуки/13 - Дхер.avi</property>
    <property name="audio_index">1</property>
    <property name="video_index">0</property>
    <property name="mute_on_pause">0</property>
    <property name="mlt_service">avformat-novalidate</property>
    <property name="seekable">1</property>
    <property name="aspect_ratio">1</property>
    <property name="creation_time">2021-02-01T20:41:44</property>
    <property name="global_feed">1</property>
    <property name="xml">was here</property>
    <property name="shotcut:hash">f8caae76171ec27c1ce3fa49805cd7d0</property>
  </producer>
  <producer id="producer12" in="00:00:00.000" out="00:00:08.720">
    <property name="length">00:00:08.760</property>
    <property name="eof">pause</property>
    <property name="resource">/Users/div/projects/laghu-sangitamrita/media/Мриданга/03 - Звуки/05 - Двойные звуки/14 - Дхам.avi</property>
    <property name="audio_index">1</property>
    <property name="video_index">0</property>
    <property name="mute_on_pause">0</property>
    <property name="mlt_service">avformat-novalidate</property>
    <property name="seekable">1</property>
    <property name="aspect_ratio">1</property>
    <property name="creation_time">2021-02-01T20:41:44</property>
    <property name="global_feed">1</property>
    <property name="xml">was here</property>
    <property name="shotcut:hash">bc23a33248f0ded3278e05526b10ce95</property>
  </producer>
  <producer id="producer13" in="00:00:00.000" out="00:00:07.880">
    <property name="length">00:00:07.920</property>
    <property name="eof">pause</property>
    <property name="resource">/Users/div/projects/laghu-sangitamrita/media/Мриданга/03 - Звуки/05 - Двойные звуки/15 - Дхем.avi</property>
    <property name="audio_index">1</property>
    <property name="video_index">0</property>
    <property name="mute_on_pause">0</property>
    <property name="mlt_service">avformat-novalidate</property>
    <property name="seekable">1</property>
    <property name="aspect_ratio">1</property>
    <property name="creation_time">2021-02-01T20:41:48</property>
    <property name="global_feed">1</property>
    <property name="xml">was here</property>
    <property name="shotcut:hash">d260a138031a600ad422fa7c1471cceb</property>
  </producer>
  <playlist id="main_bin" title="Shotcut version 21.01.29">
    <property name="shotcut:projectAudioChannels">2</property>
    <property name="shotcut:projectFolder">1</property>
    <property name="xml_retain">1</property>
    <entry producer="producer0" in="00:00:00.000" out="00:00:16.480"/>
    <entry producer="producer1" in="00:00:00.000" out="00:01:19.800"/>
    <entry producer="producer2" in="00:00:00.000" out="00:01:28.040"/>
    <entry producer="producer3" in="00:00:00.000" out="00:00:15.040"/>
    <entry producer="producer4" in="00:00:00.000" out="00:01:34.560"/>
    <entry producer="producer5" in="00:00:00.000" out="00:00:42.440"/>
    <entry producer="producer6" in="00:00:00.000" out="00:01:10.520"/>
    <entry producer="producer7" in="00:00:00.000" out="00:01:39.920"/>
    <entry producer="producer8" in="00:00:00.000" out="00:00:13.920"/>
    <entry producer="producer9" in="00:00:00.000" out="00:00:07.720"/>
    <entry producer="producer10" in="00:00:00.000" out="00:00:07.200"/>
    <entry producer="producer11" in="00:00:00.000" out="00:00:08.480"/>
    <entry producer="producer12" in="00:00:00.000" out="00:00:08.720"/>
    <entry producer="producer13" in="00:00:00.000" out="00:00:07.880"/>
  </playlist>
  <producer id="black" in="00:00:00.000" out="00:09:16.240">
    <property name="length">00:09:16.280</property>
    <property name="eof">pause</property>
    <property name="resource">0</property>
    <property name="aspect_ratio">1</property>
    <property name="mlt_service">color</property>
    <property name="mlt_image_format">rgb24a</property>
    <property name="set.test_audio">0</property>
  </producer>
  <playlist id="background">
    <entry producer="black" in="00:00:00.000" out="00:09:16.240"/>
  </playlist>
  <producer id="producer14" in="00:00:00.000" out="00:00:16.480">
    <property name="length">00:00:16.520</property>
    <property name="eof">pause</property>
    <property name="resource">/Users/div/projects/laghu-sangitamrita/media/Мриданга/03 - Звуки/02 - Правила игры/02 - Правила игры.avi</property>
    <property name="audio_index">1</property>
    <property name="video_index">0</property>
    <property name="mute_on_pause">0</property>
    <property name="mlt_service">avformat-novalidate</property>
    <property name="seekable">1</property>
    <property name="aspect_ratio">1</property>
    <property name="creation_time">2021-02-01T20:41:02</property>
    <property name="shotcut:hash">a530c8a8463db256e1664ca8cc925ef4</property>
    <property name="global_feed">1</property>
    <property name="shotcut:caption">02 - Правила игры.avi</property>
    <filter id="filter0" in="00:00:00.040" out="00:00:16.480">
      <property name="version">0.2</property>
      <property name="mlt_service">frei0r.IIRblur</property>
      <property name="shotcut:filter">blur_gaussian</property>
      <property name="1">0.99</property>
      <property name="0">00:00:01.880=0;00:00:03.080=0.244681;00:00:04.000=0.263;00:00:05.440=0</property>
      <property name="shotcut:animIn">00:00:00.000</property>
      <property name="shotcut:animOut">00:00:00.000</property>
    </filter>
    <filter id="filter1" in="00:00:00.040" out="00:00:16.480">
      <property name="version">0.2</property>
      <property name="mlt_service">frei0r.c0rners</property>
      <property name="0">0.322667</property>
      <property name="1">0.333333</property>
      <property name="2">0.677333</property>
      <property name="3">0.333333</property>
      <property name="4">0.6773</property>
      <property name="5">0.666667</property>
      <property name="6">0.322667</property>
      <property name="7">0.666667</property>
      <property name="8">1</property>
      <property name="9">0.5</property>
      <property name="10">0.5</property>
      <property name="11">0.333333</property>
      <property name="12">1</property>
      <property name="14">0</property>
      <property name="13">0.01</property>
      <property name="shotcut:corner1">0.322667 0.333333 1 1</property>
      <property name="shotcut:corner2">0.677333 0.333333 1 1</property>
      <property name="shotcut:corner3">0.6773 0.666667 1 1</property>
      <property name="shotcut:corner4">0.322667 0.666667 1 1</property>
      <property name="shotcut:animIn">00:00:00.000</property>
      <property name="shotcut:animOut">00:00:00.000</property>
    </filter>
  </producer>
  <producer id="producer15" in="00:00:00.000" out="00:01:19.800">
    <property name="length">00:01:19.840</property>
    <property name="eof">pause</property>
    <property name="resource">/Users/div/projects/laghu-sangitamrita/media/Мриданга/03 - Звуки/03 - Правая рука/03 - Та.avi</property>
    <property name="audio_index">1</property>
    <property name="video_index">0</property>
    <property name="mute_on_pause">0</property>
    <property name="mlt_service">avformat-novalidate</property>
    <property name="seekable">1</property>
    <property name="aspect_ratio">1</property>
    <property name="creation_time">2021-02-01T20:41:04</property>
    <property name="shotcut:hash">946b0708e29306e1f99826509179d771</property>
    <property name="global_feed">1</property>
    <property name="shotcut:caption">03 - Та.avi</property>
    <property name="xml">was here</property>
    <filter id="filter2" out="00:01:19.800">
      <property name="version">0.2</property>
      <property name="mlt_service">frei0r.c0rners</property>
      <property name="0">0.322667</property>
      <property name="1">0.333333</property>
      <property name="2">0.677333</property>
      <property name="3">0.333333</property>
      <property name="4">0.6773</property>
      <property name="5">0.666667</property>
      <property name="6">0.322667</property>
      <property name="7">0.666667</property>
      <property name="8">1</property>
      <property name="9">0.5</property>
      <property name="10">0.5</property>
      <property name="11">0.333333</property>
      <property name="12">1</property>
      <property name="14">0</property>
      <property name="13">0.01</property>
      <property name="shotcut:corner1">0.322667 0.333333 1 1</property>
      <property name="shotcut:corner2">0.677333 0.333333 1 1</property>
      <property name="shotcut:corner3">0.6773 0.666667 1 1</property>
      <property name="shotcut:corner4">0.322667 0.666667 1 1</property>
      <property name="shotcut:animIn">00:00:00.000</property>
      <property name="shotcut:animOut">00:00:00.000</property>
    </filter>
  </producer>
  <tractor id="tractor0" global_feed="1" in="00:00:00.000" out="00:00:00.240">
    <property name="shotcut:transition">lumaMix</property>
    <track producer="producer14" in="00:00:16.240" out="00:00:16.480"/>
    <track producer="producer15" in="00:00:00.000" out="00:00:00.240"/>
    <transition id="transition0" out="00:00:00.240">
      <property name="a_track">0</property>
      <property name="b_track">1</property>
      <property name="factory">loader</property>
      <property name="mlt_service">luma</property>
      <property name="alpha_over">1</property>
    </transition>
    <transition id="transition1" out="00:00:00.240">
      <property name="a_track">0</property>
      <property name="b_track">1</property>
      <property name="start">-1</property>
      <property name="accepts_blanks">1</property>
      <property name="mlt_service">mix</property>
    </transition>
  </tractor>
  <producer id="producer16" in="00:00:00.000" out="00:01:28.040">
    <property name="length">00:01:28.080</property>
    <property name="eof">pause</property>
    <property name="resource">/Users/div/projects/laghu-sangitamrita/media/Мриданга/03 - Звуки/03 - Правая рука/04 - Те.avi</property>
    <property name="audio_index">1</property>
    <property name="video_index">0</property>
    <property name="mute_on_pause">0</property>
    <property name="mlt_service">avformat-novalidate</property>
    <property name="seekable">1</property>
    <property name="aspect_ratio">1</property>
    <property name="creation_time">2021-02-01T20:41:08</property>
    <property name="shotcut:hash">97cbd3bcf8b40dd705f476ad8c86a924</property>
    <property name="global_feed">1</property>
    <property name="shotcut:caption">04 - Те.avi</property>
    <filter id="filter3" out="00:01:28.040">
      <property name="version">0.2</property>
      <property name="mlt_service">frei0r.c0rners</property>
      <property name="0">0.322667</property>
      <property name="1">0.333333</property>
      <property name="2">0.677333</property>
      <property name="3">0.333333</property>
      <property name="4">0.6773</property>
      <property name="5">0.666667</property>
      <property name="6">0.322667</property>
      <property name="7">0.666667</property>
      <property name="8">1</property>
      <property name="9">0.5</property>
      <property name="10">0.5</property>
      <property name="11">0.333333</property>
      <property name="12">1</property>
      <property name="14">0</property>
      <property name="13">0.01</property>
      <property name="shotcut:corner1">0.322667 0.333333 1 1</property>
      <property name="shotcut:corner2">0.677333 0.333333 1 1</property>
      <property name="shotcut:corner3">0.6773 0.666667 1 1</property>
      <property name="shotcut:corner4">0.322667 0.666667 1 1</property>
      <property name="shotcut:animIn">00:00:00.000</property>
      <property name="shotcut:animOut">00:00:00.000</property>
    </filter>
  </producer>
  <tractor id="tractor1" global_feed="1" in="00:00:00.000" out="00:00:00.280">
    <property name="shotcut:transition">lumaMix</property>
    <track producer="producer15" in="00:01:19.520" out="00:01:19.800"/>
    <track producer="producer16" in="00:00:00.000" out="00:00:00.280"/>
    <transition id="transition2" out="00:00:00.280">
      <property name="a_track">0</property>
      <property name="b_track">1</property>
      <property name="factory">loader</property>
      <property name="mlt_service">luma</property>
      <property name="alpha_over">1</property>
    </transition>
    <transition id="transition3" out="00:00:00.280">
      <property name="a_track">0</property>
      <property name="b_track">1</property>
      <property name="start">-1</property>
      <property name="accepts_blanks">1</property>
      <property name="mlt_service">mix</property>
    </transition>
  </tractor>
  <producer id="producer17" in="00:00:00.000" out="00:00:15.040">
    <property name="length">00:00:15.080</property>
    <property name="eof">pause</property>
    <property name="resource">/Users/div/projects/laghu-sangitamrita/media/Мриданга/03 - Звуки/03 - Правая рука/05 - Ри.avi</property>
    <property name="audio_index">1</property>
    <property name="video_index">0</property>
    <property name="mute_on_pause">0</property>
    <property name="mlt_service">avformat-novalidate</property>
    <property name="seekable">1</property>
    <property name="aspect_ratio">1</property>
    <property name="creation_time">2021-02-01T20:41:16</property>
    <property name="shotcut:hash">5f24a05c8ca7f2d31b3b596c982d8cda</property>
    <property name="global_feed">1</property>
    <property name="shotcut:caption">05 - Ри.avi</property>
    <filter id="filter4" out="00:00:15.040">
      <property name="version">0.2</property>
      <property name="mlt_service">frei0r.c0rners</property>
      <property name="0">0.322667</property>
      <property name="1">0.333333</property>
      <property name="2">0.677333</property>
      <property name="3">0.333333</property>
      <property name="4">0.6773</property>
      <property name="5">0.666667</property>
      <property name="6">0.322667</property>
      <property name="7">0.666667</property>
      <property name="8">1</property>
      <property name="9">0.5</property>
      <property name="10">0.5</property>
      <property name="11">0.333333</property>
      <property name="12">1</property>
      <property name="14">0</property>
      <property name="13">0.01</property>
      <property name="shotcut:corner1">0.322667 0.333333 1 1</property>
      <property name="shotcut:corner2">0.677333 0.333333 1 1</property>
      <property name="shotcut:corner3">0.6773 0.666667 1 1</property>
      <property name="shotcut:corner4">0.322667 0.666667 1 1</property>
      <property name="shotcut:animIn">00:00:00.000</property>
      <property name="shotcut:animOut">00:00:00.000</property>
    </filter>
  </producer>
  <tractor id="tractor2" global_feed="1" in="00:00:00.000" out="00:00:00.480">
    <property name="shotcut:transition">lumaMix</property>
    <track producer="producer16" in="00:01:27.560" out="00:01:28.040"/>
    <track producer="producer17" in="00:00:00.000" out="00:00:00.480"/>
    <transition id="transition4" out="00:00:00.480">
      <property name="a_track">0</property>
      <property name="b_track">1</property>
      <property name="factory">loader</property>
      <property name="mlt_service">luma</property>
      <property name="alpha_over">1</property>
    </transition>
    <transition id="transition5" out="00:00:00.480">
      <property name="a_track">0</property>
      <property name="b_track">1</property>
      <property name="start">-1</property>
      <property name="accepts_blanks">1</property>
      <property name="mlt_service">mix</property>
    </transition>
  </tractor>
  <producer id="producer18" in="00:00:00.000" out="00:01:34.560">
    <property name="length">00:01:34.600</property>
    <property name="eof">pause</property>
    <property name="resource">/Users/div/projects/laghu-sangitamrita/media/Мриданга/03 - Звуки/03 - Правая рука/06 - Ти.avi</property>
    <property name="audio_index">1</property>
    <property name="video_index">0</property>
    <property name="mute_on_pause">0</property>
    <property name="mlt_service">avformat-novalidate</property>
    <property name="seekable">1</property>
    <property name="aspect_ratio">1</property>
    <property name="creation_time">2021-02-01T20:41:16</property>
    <property name="shotcut:hash">bf05524ecf2a06406765097177f21750</property>
    <property name="global_feed">1</property>
    <property name="shotcut:caption">06 - Ти.avi</property>
    <filter id="filter5" out="00:01:34.560">
      <property name="version">0.2</property>
      <property name="mlt_service">frei0r.c0rners</property>
      <property name="0">0.322667</property>
      <property name="1">0.333333</property>
      <property name="2">0.677333</property>
      <property name="3">0.333333</property>
      <property name="4">0.6773</property>
      <property name="5">0.666667</property>
      <property name="6">0.322667</property>
      <property name="7">0.666667</property>
      <property name="8">1</property>
      <property name="9">0.5</property>
      <property name="10">0.5</property>
      <property name="11">0.333333</property>
      <property name="12">1</property>
      <property name="14">0</property>
      <property name="13">0.01</property>
      <property name="shotcut:corner1">0.322667 0.333333 1 1</property>
      <property name="shotcut:corner2">0.677333 0.333333 1 1</property>
      <property name="shotcut:corner3">0.6773 0.666667 1 1</property>
      <property name="shotcut:corner4">0.322667 0.666667 1 1</property>
      <property name="shotcut:animIn">00:00:00.000</property>
      <property name="shotcut:animOut">00:00:00.000</property>
    </filter>
  </producer>
  <tractor id="tractor3" global_feed="1" in="00:00:00.000" out="00:00:00.360">
    <property name="shotcut:transition">lumaMix</property>
    <track producer="producer17" in="00:00:14.680" out="00:00:15.040"/>
    <track producer="producer18" in="00:00:00.000" out="00:00:00.360"/>
    <transition id="transition6" out="00:00:00.360">
      <property name="a_track">0</property>
      <property name="b_track">1</property>
      <property name="factory">loader</property>
      <property name="mlt_service">luma</property>
      <property name="alpha_over">1</property>
    </transition>
    <transition id="transition7" out="00:00:00.360">
      <property name="a_track">0</property>
      <property name="b_track">1</property>
      <property name="start">-1</property>
      <property name="accepts_blanks">1</property>
      <property name="mlt_service">mix</property>
    </transition>
  </tractor>
  <producer id="producer19" in="00:00:00.000" out="00:00:42.440">
    <property name="length">00:00:42.480</property>
    <property name="eof">pause</property>
    <property name="resource">/Users/div/projects/laghu-sangitamrita/media/Мриданга/03 - Звуки/04 - Левая рука/07 - Га.avi</property>
    <property name="audio_index">1</property>
    <property name="video_index">0</property>
    <property name="mute_on_pause">0</property>
    <property name="mlt_service">avformat-novalidate</property>
    <property name="seekable">1</property>
    <property name="aspect_ratio">1</property>
    <property name="creation_time">2021-02-01T20:41:24</property>
    <property name="shotcut:hash">7c453d000dc7649aa537ca8d041da086</property>
    <property name="global_feed">1</property>
    <property name="shotcut:caption">07 - Га.avi</property>
    <filter id="filter6" in="00:00:00.040" out="00:00:42.440">
      <property name="version">0.2</property>
      <property name="mlt_service">frei0r.c0rners</property>
      <property name="0">0.322667</property>
      <property name="1">0.333333</property>
      <property name="2">0.677333</property>
      <property name="3">0.333333</property>
      <property name="4">0.6773</property>
      <property name="5">0.666667</property>
      <property name="6">0.322667</property>
      <property name="7">0.666667</property>
      <property name="8">1</property>
      <property name="9">0.5</property>
      <property name="10">0.5</property>
      <property name="11">0.333333</property>
      <property name="12">1</property>
      <property name="14">0</property>
      <property name="13">0.01</property>
      <property name="shotcut:corner1">0.322667 0.333333 1 1</property>
      <property name="shotcut:corner2">0.677333 0.333333 1 1</property>
      <property name="shotcut:corner3">0.6773 0.666667 1 1</property>
      <property name="shotcut:corner4">0.322667 0.666667 1 1</property>
      <property name="shotcut:animIn">00:00:00.000</property>
      <property name="shotcut:animOut">00:00:00.000</property>
    </filter>
  </producer>
  <tractor id="tractor4" global_feed="1" in="00:00:00.000" out="00:00:00.160">
    <property name="shotcut:transition">lumaMix</property>
    <track producer="producer18" in="00:01:34.400" out="00:01:34.560"/>
    <track producer="producer19" in="00:00:00.040" out="00:00:00.200"/>
    <transition id="transition8" out="00:00:00.160">
      <property name="a_track">0</property>
      <property name="b_track">1</property>
      <property name="factory">loader</property>
      <property name="mlt_service">luma</property>
      <property name="alpha_over">1</property>
    </transition>
    <transition id="transition9" out="00:00:00.160">
      <property name="a_track">0</property>
      <property name="b_track">1</property>
      <property name="start">-1</property>
      <property name="accepts_blanks">1</property>
      <property name="mlt_service">mix</property>
    </transition>
  </tractor>
  <producer id="producer20" in="00:00:00.000" out="00:01:10.520">
    <property name="length">00:01:10.560</property>
    <property name="eof">pause</property>
    <property name="resource">/Users/div/projects/laghu-sangitamrita/media/Мриданга/03 - Звуки/04 - Левая рука/08 - Ге.avi</property>
    <property name="audio_index">1</property>
    <property name="video_index">0</property>
    <property name="mute_on_pause">0</property>
    <property name="mlt_service">avformat-novalidate</property>
    <property name="seekable">1</property>
    <property name="aspect_ratio">1</property>
    <property name="creation_time">2021-02-01T20:41:30</property>
    <property name="shotcut:hash">ffc6e8e29e8c8b1693f8d74b86e438cc</property>
    <property name="global_feed">1</property>
    <property name="shotcut:caption">08 - Ге.avi</property>
    <filter id="filter7" in="00:00:00.040" out="00:01:10.520">
      <property name="version">0.2</property>
      <property name="mlt_service">frei0r.c0rners</property>
      <property name="0">0.322667</property>
      <property name="1">0.333333</property>
      <property name="2">0.677333</property>
      <property name="3">0.333333</property>
      <property name="4">0.6773</property>
      <property name="5">0.666667</property>
      <property name="6">0.322667</property>
      <property name="7">0.666667</property>
      <property name="8">1</property>
      <property name="9">0.5</property>
      <property name="10">0.5</property>
      <property name="11">0.333333</property>
      <property name="12">1</property>
      <property name="14">0</property>
      <property name="13">0.01</property>
      <property name="shotcut:corner1">0.322667 0.333333 1 1</property>
      <property name="shotcut:corner2">0.677333 0.333333 1 1</property>
      <property name="shotcut:corner3">0.6773 0.666667 1 1</property>
      <property name="shotcut:corner4">0.322667 0.666667 1 1</property>
      <property name="shotcut:animIn">00:00:00.000</property>
      <property name="shotcut:animOut">00:00:00.000</property>
    </filter>
  </producer>
  <tractor id="tractor5" global_feed="1" in="00:00:00.000" out="00:00:00.120">
    <property name="shotcut:transition">lumaMix</property>
    <track producer="producer19" in="00:00:42.320" out="00:00:42.440"/>
    <track producer="producer20" in="00:00:00.040" out="00:00:00.160"/>
    <transition id="transition10" out="00:00:00.120">
      <property name="a_track">0</property>
      <property name="b_track">1</property>
      <property name="factory">loader</property>
      <property name="mlt_service">luma</property>
      <property name="alpha_over">1</property>
    </transition>
    <transition id="transition11" out="00:00:00.120">
      <property name="a_track">0</property>
      <property name="b_track">1</property>
      <property name="start">-1</property>
      <property name="accepts_blanks">1</property>
      <property name="mlt_service">mix</property>
    </transition>
  </tractor>
  <producer id="producer21" in="00:00:00.000" out="00:01:39.920">
    <property name="length">00:01:39.960</property>
    <property name="eof">pause</property>
    <property name="resource">/Users/div/projects/laghu-sangitamrita/media/Мриданга/03 - Звуки/04 - Левая рука/09 - гам.avi</property>
    <property name="audio_index">1</property>
    <property name="video_index">0</property>
    <property name="mute_on_pause">0</property>
    <property name="mlt_service">avformat-novalidate</property>
    <property name="seekable">1</property>
    <property name="aspect_ratio">1</property>
    <property name="creation_time">2021-02-01T20:41:34</property>
    <property name="shotcut:hash">a57bf9473e9df04fb81b41c12784616a</property>
    <property name="global_feed">1</property>
    <property name="shotcut:caption">09 - гам.avi</property>
    <property name="xml">was here</property>
  </producer>
  <tractor id="tractor6" global_feed="1" in="00:00:00.000" out="00:00:00.200">
    <property name="shotcut:transition">lumaMix</property>
    <track producer="producer20" in="00:01:10.320" out="00:01:10.520"/>
    <track producer="producer21" in="00:00:00.040" out="00:00:00.240"/>
    <transition id="transition12" out="00:00:00.200">
      <property name="a_track">0</property>
      <property name="b_track">1</property>
      <property name="factory">loader</property>
      <property name="mlt_service">luma</property>
      <property name="alpha_over">1</property>
    </transition>
    <transition id="transition13" out="00:00:00.200">
      <property name="a_track">0</property>
      <property name="b_track">1</property>
      <property name="start">-1</property>
      <property name="accepts_blanks">1</property>
      <property name="mlt_service">mix</property>
    </transition>
  </tractor>
  <producer id="producer22" in="00:00:00.000" out="00:01:39.920">
    <property name="length">00:01:39.960</property>
    <property name="eof">pause</property>
    <property name="resource">/Users/div/projects/laghu-sangitamrita/media/Мриданга/03 - Звуки/04 - Левая рука/09 - гам.avi</property>
    <property name="audio_index">1</property>
    <property name="video_index">0</property>
    <property name="mute_on_pause">0</property>
    <property name="mlt_service">avformat-novalidate</property>
    <property name="seekable">1</property>
    <property name="aspect_ratio">1</property>
    <property name="creation_time">2021-02-01T20:41:34</property>
    <property name="shotcut:hash">a57bf9473e9df04fb81b41c12784616a</property>
    <property name="global_feed">1</property>
    <property name="shotcut:caption">09 - гам.avi</property>
    <filter id="filter8" in="00:00:00.040" out="00:01:39.920">
      <property name="version">0.2</property>
      <property name="mlt_service">frei0r.c0rners</property>
      <property name="0">0.322667</property>
      <property name="1">0.333333</property>
      <property name="2">0.677333</property>
      <property name="3">0.333333</property>
      <property name="4">0.6773</property>
      <property name="5">0.666667</property>
      <property name="6">0.322667</property>
      <property name="7">0.666667</property>
      <property name="8">1</property>
      <property name="9">0.5</property>
      <property name="10">0.5</property>
      <property name="11">0.333333</property>
      <property name="12">1</property>
      <property name="14">0</property>
      <property name="13">0.01</property>
      <property name="shotcut:corner1">0.322667 0.333333 1 1</property>
      <property name="shotcut:corner2">0.677333 0.333333 1 1</property>
      <property name="shotcut:corner3">0.6773 0.666667 1 1</property>
      <property name="shotcut:corner4">0.322667 0.666667 1 1</property>
      <property name="shotcut:animIn">00:00:00.000</property>
      <property name="shotcut:animOut">00:00:00.000</property>
    </filter>
  </producer>
  <producer id="producer23" in="00:00:00.000" out="00:00:13.920">
    <property name="length">00:00:13.960</property>
    <property name="eof">pause</property>
    <property name="resource">/Users/div/projects/laghu-sangitamrita/media/Мриданга/03 - Звуки/05 - Двойные звуки/10 - Дха.avi</property>
    <property name="audio_index">1</property>
    <property name="video_index">0</property>
    <property name="mute_on_pause">0</property>
    <property name="mlt_service">avformat-novalidate</property>
    <property name="seekable">1</property>
    <property name="aspect_ratio">1</property>
    <property name="creation_time">2021-02-01T20:41:42</property>
    <property name="global_feed">1</property>
    <property name="xml">was here</property>
    <property name="shotcut:hash">334856019fd2b9c2150828c4390d2e39</property>
    <property name="shotcut:caption">10 - Дха.avi</property>
    <filter id="filter9" out="00:00:13.920">
      <property name="version">0.2</property>
      <property name="mlt_service">frei0r.c0rners</property>
      <property name="0">0.322667</property>
      <property name="1">0.333333</property>
      <property name="2">0.677333</property>
      <property name="3">0.333333</property>
      <property name="4">0.6773</property>
      <property name="5">0.666667</property>
      <property name="6">0.322667</property>
      <property name="7">0.666667</property>
      <property name="8">1</property>
      <property name="9">0.5</property>
      <property name="10">0.5</property>
      <property name="11">0.333333</property>
      <property name="12">1</property>
      <property name="14">0</property>
      <property name="13">0.01</property>
      <property name="shotcut:corner1">0.322667 0.333333 1 1</property>
      <property name="shotcut:corner2">0.677333 0.333333 1 1</property>
      <property name="shotcut:corner3">0.6773 0.666667 1 1</property>
      <property name="shotcut:corner4">0.322667 0.666667 1 1</property>
      <property name="shotcut:animIn">00:00:00.000</property>
      <property name="shotcut:animOut">00:00:00.000</property>
    </filter>
  </producer>
  <tractor id="tractor7" global_feed="1" in="00:00:00.000" out="00:00:00.240">
    <property name="shotcut:transition">lumaMix</property>
    <track producer="producer22" in="00:01:39.680" out="00:01:39.920"/>
    <track producer="producer23" in="00:00:00.000" out="00:00:00.240"/>
    <transition id="transition14" out="00:00:00.240">
      <property name="a_track">0</property>
      <property name="b_track">1</property>
      <property name="factory">loader</property>
      <property name="mlt_service">luma</property>
      <property name="alpha_over">1</property>
    </transition>
    <transition id="transition15" out="00:00:00.240">
      <property name="a_track">0</property>
      <property name="b_track">1</property>
      <property name="start">-1</property>
      <property name="accepts_blanks">1</property>
      <property name="mlt_service">mix</property>
    </transition>
  </tractor>
  <producer id="producer24" in="00:00:00.000" out="00:00:07.720">
    <property name="length">00:00:07.760</property>
    <property name="eof">pause</property>
    <property name="resource">/Users/div/projects/laghu-sangitamrita/media/Мриданга/03 - Звуки/05 - Двойные звуки/11 - Дхе.avi</property>
    <property name="audio_index">1</property>
    <property name="video_index">0</property>
    <property name="mute_on_pause">0</property>
    <property name="mlt_service">avformat-novalidate</property>
    <property name="seekable">1</property>
    <property name="aspect_ratio">1</property>
    <property name="creation_time">2021-02-01T20:41:44</property>
    <property name="global_feed">1</property>
    <property name="xml">was here</property>
    <property name="shotcut:hash">50f3629ed364d5a4c820b9c60e59c2b0</property>
    <property name="shotcut:caption">11 - Дхе.avi</property>
    <filter id="filter10" out="00:00:07.720">
      <property name="version">0.2</property>
      <property name="mlt_service">frei0r.c0rners</property>
      <property name="0">0.322667</property>
      <property name="1">0.333333</property>
      <property name="2">0.677333</property>
      <property name="3">0.333333</property>
      <property name="4">0.6773</property>
      <property name="5">0.666667</property>
      <property name="6">0.322667</property>
      <property name="7">0.666667</property>
      <property name="8">1</property>
      <property name="9">0.5</property>
      <property name="10">0.5</property>
      <property name="11">0.333333</property>
      <property name="12">1</property>
      <property name="14">0</property>
      <property name="13">0.01</property>
      <property name="shotcut:corner1">0.322667 0.333333 1 1</property>
      <property name="shotcut:corner2">0.677333 0.333333 1 1</property>
      <property name="shotcut:corner3">0.6773 0.666667 1 1</property>
      <property name="shotcut:corner4">0.322667 0.666667 1 1</property>
      <property name="shotcut:animIn">00:00:00.000</property>
      <property name="shotcut:animOut">00:00:00.000</property>
    </filter>
  </producer>
  <tractor id="tractor8" global_feed="1" in="00:00:00.000" out="00:00:00.080">
    <property name="shotcut:transition">lumaMix</property>
    <track producer="producer23" in="00:00:13.840" out="00:00:13.920"/>
    <track producer="producer24" in="00:00:00.000" out="00:00:00.080"/>
    <transition id="transition16" out="00:00:00.080">
      <property name="a_track">0</property>
      <property name="b_track">1</property>
      <property name="factory">loader</property>
      <property name="mlt_service">luma</property>
      <property name="alpha_over">1</property>
    </transition>
    <transition id="transition17" out="00:00:00.080">
      <property name="a_track">0</property>
      <property name="b_track">1</property>
      <property name="start">-1</property>
      <property name="accepts_blanks">1</property>
      <property name="mlt_service">mix</property>
    </transition>
  </tractor>
  <producer id="producer25" in="00:00:00.000" out="00:00:07.200">
    <property name="length">00:00:07.240</property>
    <property name="eof">pause</property>
    <property name="resource">/Users/div/projects/laghu-sangitamrita/media/Мриданга/03 - Звуки/05 - Двойные звуки/12 - Дхар.avi</property>
    <property name="audio_index">1</property>
    <property name="video_index">0</property>
    <property name="mute_on_pause">0</property>
    <property name="mlt_service">avformat-novalidate</property>
    <property name="seekable">1</property>
    <property name="aspect_ratio">1</property>
    <property name="creation_time">2021-02-01T20:41:44</property>
    <property name="global_feed">1</property>
    <property name="xml">was here</property>
    <property name="shotcut:hash">9257b69fef00bf013ef16790c6e83c7e</property>
    <property name="shotcut:caption">12 - Дхар.avi</property>
    <filter id="filter11" out="00:00:07.200">
      <property name="version">0.2</property>
      <property name="mlt_service">frei0r.c0rners</property>
      <property name="0">0.322667</property>
      <property name="1">0.333333</property>
      <property name="2">0.677333</property>
      <property name="3">0.333333</property>
      <property name="4">0.6773</property>
      <property name="5">0.666667</property>
      <property name="6">0.322667</property>
      <property name="7">0.666667</property>
      <property name="8">1</property>
      <property name="9">0.5</property>
      <property name="10">0.5</property>
      <property name="11">0.333333</property>
      <property name="12">1</property>
      <property name="14">0</property>
      <property name="13">0.01</property>
      <property name="shotcut:corner1">0.322667 0.333333 1 1</property>
      <property name="shotcut:corner2">0.677333 0.333333 1 1</property>
      <property name="shotcut:corner3">0.6773 0.666667 1 1</property>
      <property name="shotcut:corner4">0.322667 0.666667 1 1</property>
      <property name="shotcut:animIn">00:00:00.000</property>
      <property name="shotcut:animOut">00:00:00.000</property>
    </filter>
  </producer>
  <tractor id="tractor9" global_feed="1" in="00:00:00.000" out="00:00:00.200">
    <property name="shotcut:transition">lumaMix</property>
    <track producer="producer24" in="00:00:07.520" out="00:00:07.720"/>
    <track producer="producer25" in="00:00:00.000" out="00:00:00.200"/>
    <transition id="transition18" out="00:00:00.200">
      <property name="a_track">0</property>
      <property name="b_track">1</property>
      <property name="factory">loader</property>
      <property name="mlt_service">luma</property>
      <property name="alpha_over">1</property>
    </transition>
    <transition id="transition19" out="00:00:00.200">
      <property name="a_track">0</property>
      <property name="b_track">1</property>
      <property name="start">-1</property>
      <property name="accepts_blanks">1</property>
      <property name="mlt_service">mix</property>
    </transition>
  </tractor>
  <producer id="producer26" in="00:00:00.000" out="00:00:08.480">
    <property name="length">00:00:08.520</property>
    <property name="eof">pause</property>
    <property name="resource">/Users/div/projects/laghu-sangitamrita/media/Мриданга/03 - Звуки/05 - Двойные звуки/13 - Дхер.avi</property>
    <property name="audio_index">1</property>
    <property name="video_index">0</property>
    <property name="mute_on_pause">0</property>
    <property name="mlt_service">avformat-novalidate</property>
    <property name="seekable">1</property>
    <property name="aspect_ratio">1</property>
    <property name="creation_time">2021-02-01T20:41:44</property>
    <property name="global_feed">1</property>
    <property name="xml">was here</property>
    <property name="shotcut:hash">f8caae76171ec27c1ce3fa49805cd7d0</property>
    <property name="shotcut:caption">13 - Дхер.avi</property>
    <filter id="filter12" out="00:00:07.320">
      <property name="version">0.2</property>
      <property name="mlt_service">frei0r.c0rners</property>
      <property name="0">0.322667</property>
      <property name="1">0.333333</property>
      <property name="2">0.677333</property>
      <property name="3">0.333333</property>
      <property name="4">0.6773</property>
      <property name="5">0.666667</property>
      <property name="6">0.322667</property>
      <property name="7">0.666667</property>
      <property name="8">1</property>
      <property name="9">0.5</property>
      <property name="10">0.5</property>
      <property name="11">0.333333</property>
      <property name="12">1</property>
      <property name="14">0</property>
      <property name="13">0.01</property>
      <property name="shotcut:corner1">0.322667 0.333333 1 1</property>
      <property name="shotcut:corner2">0.677333 0.333333 1 1</property>
      <property name="shotcut:corner3">0.6773 0.666667 1 1</property>
      <property name="shotcut:corner4">0.322667 0.666667 1 1</property>
      <property name="shotcut:animIn">00:00:00.000</property>
      <property name="shotcut:animOut">00:00:00.000</property>
    </filter>
  </producer>
  <tractor id="tractor10" global_feed="1" in="00:00:00.000" out="00:00:00.200">
    <property name="shotcut:transition">lumaMix</property>
    <track producer="producer25" in="00:00:07.000" out="00:00:07.200"/>
    <track producer="producer26" in="00:00:00.000" out="00:00:00.200"/>
    <transition id="transition20" out="00:00:00.200">
      <property name="a_track">0</property>
      <property name="b_track">1</property>
      <property name="factory">loader</property>
      <property name="mlt_service">luma</property>
      <property name="alpha_over">1</property>
    </transition>
    <transition id="transition21" out="00:00:00.200">
      <property name="a_track">0</property>
      <property name="b_track">1</property>
      <property name="start">-1</property>
      <property name="accepts_blanks">1</property>
      <property name="mlt_service">mix</property>
    </transition>
  </tractor>
  <producer id="producer27" in="00:00:00.000" out="00:00:08.720">
    <property name="length">00:00:08.760</property>
    <property name="eof">pause</property>
    <property name="resource">/Users/div/projects/laghu-sangitamrita/media/Мриданга/03 - Звуки/05 - Двойные звуки/14 - Дхам.avi</property>
    <property name="audio_index">1</property>
    <property name="video_index">0</property>
    <property name="mute_on_pause">0</property>
    <property name="mlt_service">avformat-novalidate</property>
    <property name="seekable">1</property>
    <property name="aspect_ratio">1</property>
    <property name="creation_time">2021-02-01T20:41:44</property>
    <property name="global_feed">1</property>
    <property name="xml">was here</property>
    <property name="shotcut:hash">bc23a33248f0ded3278e05526b10ce95</property>
    <property name="shotcut:caption">14 - Дхам.avi</property>
    <filter id="filter13" out="00:00:08.720">
      <property name="version">0.2</property>
      <property name="mlt_service">frei0r.c0rners</property>
      <property name="0">0.322667</property>
      <property name="1">0.333333</property>
      <property name="2">0.677333</property>
      <property name="3">0.333333</property>
      <property name="4">0.6773</property>
      <property name="5">0.666667</property>
      <property name="6">0.322667</property>
      <property name="7">0.666667</property>
      <property name="8">1</property>
      <property name="9">0.5</property>
      <property name="10">0.5</property>
      <property name="11">0.333333</property>
      <property name="12">1</property>
      <property name="14">0</property>
      <property name="13">0.01</property>
      <property name="shotcut:corner1">0.322667 0.333333 1 1</property>
      <property name="shotcut:corner2">0.677333 0.333333 1 1</property>
      <property name="shotcut:corner3">0.6773 0.666667 1 1</property>
      <property name="shotcut:corner4">0.322667 0.666667 1 1</property>
      <property name="shotcut:animIn">00:00:00.000</property>
      <property name="shotcut:animOut">00:00:00.000</property>
    </filter>
  </producer>
  <tractor id="tractor11" global_feed="1" in="00:00:00.000" out="00:00:00.200">
    <property name="shotcut:transition">lumaMix</property>
    <track producer="producer26" in="00:00:07.120" out="00:00:07.320"/>
    <track producer="producer27" in="00:00:00.000" out="00:00:00.200"/>
    <transition id="transition22" out="00:00:00.200">
      <property name="a_track">0</property>
      <property name="b_track">1</property>
      <property name="factory">loader</property>
      <property name="mlt_service">luma</property>
      <property name="alpha_over">1</property>
    </transition>
    <transition id="transition23" out="00:00:00.200">
      <property name="a_track">0</property>
      <property name="b_track">1</property>
      <property name="start">-1</property>
      <property name="accepts_blanks">1</property>
      <property name="mlt_service">mix</property>
    </transition>
  </tractor>
  <producer id="producer28" in="00:00:00.000" out="00:00:07.880">
    <property name="length">00:00:07.920</property>
    <property name="eof">pause</property>
    <property name="resource">/Users/div/projects/laghu-sangitamrita/media/Мриданга/03 - Звуки/05 - Двойные звуки/15 - Дхем.avi</property>
    <property name="audio_index">1</property>
    <property name="video_index">0</property>
    <property name="mute_on_pause">0</property>
    <property name="mlt_service">avformat-novalidate</property>
    <property name="seekable">1</property>
    <property name="aspect_ratio">1</property>
    <property name="creation_time">2021-02-01T20:41:48</property>
    <property name="global_feed">1</property>
    <property name="xml">was here</property>
    <property name="shotcut:hash">d260a138031a600ad422fa7c1471cceb</property>
    <property name="shotcut:caption">15 - Дхем.avi</property>
    <filter id="filter14" out="00:00:07.880">
      <property name="version">0.2</property>
      <property name="mlt_service">frei0r.c0rners</property>
      <property name="0">0.322667</property>
      <property name="1">0.333333</property>
      <property name="2">0.677333</property>
      <property name="3">0.333333</property>
      <property name="4">0.6773</property>
      <property name="5">0.666667</property>
      <property name="6">0.322667</property>
      <property name="7">0.666667</property>
      <property name="8">1</property>
      <property name="9">0.5</property>
      <property name="10">0.5</property>
      <property name="11">0.333333</property>
      <property name="12">1</property>
      <property name="14">0</property>
      <property name="13">0.01</property>
      <property name="shotcut:corner1">0.322667 0.333333 1 1</property>
      <property name="shotcut:corner2">0.677333 0.333333 1 1</property>
      <property name="shotcut:corner3">0.6773 0.666667 1 1</property>
      <property name="shotcut:corner4">0.322667 0.666667 1 1</property>
      <property name="shotcut:animIn">00:00:00.000</property>
      <property name="shotcut:animOut">00:00:00.000</property>
    </filter>
  </producer>
  <tractor id="tractor12" global_feed="1" in="00:00:00.000" out="00:00:00.400">
    <property name="shotcut:transition">lumaMix</property>
    <track producer="producer27" in="00:00:08.320" out="00:00:08.720"/>
    <track producer="producer28" in="00:00:00.000" out="00:00:00.400"/>
    <transition id="transition24" out="00:00:00.400">
      <property name="a_track">0</property>
      <property name="b_track">1</property>
      <property name="factory">loader</property>
      <property name="mlt_service">luma</property>
      <property name="alpha_over">1</property>
    </transition>
    <transition id="transition25" out="00:00:00.400">
      <property name="a_track">0</property>
      <property name="b_track">1</property>
      <property name="start">-1</property>
      <property name="accepts_blanks">1</property>
      <property name="mlt_service">mix</property>
    </transition>
  </tractor>
  <playlist id="playlist0">
    <property name="shotcut:video">1</property>
    <property name="shotcut:name">V1</property>
    <entry producer="producer14" in="00:00:00.040" out="00:00:16.200"/>
    <entry producer="tractor0" in="00:00:00.000" out="00:00:00.240"/>
    <entry producer="producer15" in="00:00:00.280" out="00:01:19.480"/>
    <entry producer="tractor1" in="00:00:00.000" out="00:00:00.280"/>
    <entry producer="producer16" in="00:00:00.320" out="00:01:27.520"/>
    <entry producer="tractor2" in="00:00:00.000" out="00:00:00.480"/>
    <entry producer="producer17" in="00:00:00.520" out="00:00:14.640"/>
    <entry producer="tractor3" in="00:00:00.000" out="00:00:00.360"/>
    <entry producer="producer18" in="00:00:00.400" out="00:01:34.360"/>
    <entry producer="tractor4" in="00:00:00.000" out="00:00:00.160"/>
    <entry producer="producer19" in="00:00:00.240" out="00:00:42.280"/>
    <entry producer="tractor5" in="00:00:00.000" out="00:00:00.120"/>
    <entry producer="producer20" in="00:00:00.200" out="00:01:10.280"/>
    <entry producer="tractor6" in="00:00:00.000" out="00:00:00.200"/>
    <entry producer="producer22" in="00:00:00.280" out="00:01:39.640"/>
    <entry producer="tractor7" in="00:00:00.000" out="00:00:00.240"/>
    <entry producer="producer23" in="00:00:00.280" out="00:00:13.800"/>
    <entry producer="tractor8" in="00:00:00.000" out="00:00:00.080"/>
    <entry producer="producer24" in="00:00:00.120" out="00:00:07.480"/>
    <entry producer="tractor9" in="00:00:00.000" out="00:00:00.200"/>
    <entry producer="producer25" in="00:00:00.240" out="00:00:06.960"/>
    <entry producer="tractor10" in="00:00:00.000" out="00:00:00.200"/>
    <entry producer="producer26" in="00:00:00.240" out="00:00:07.080"/>
    <entry producer="tractor11" in="00:00:00.000" out="00:00:00.200"/>
    <entry producer="producer27" in="00:00:00.240" out="00:00:08.280"/>
    <entry producer="tractor12" in="00:00:00.000" out="00:00:00.400"/>
    <entry producer="producer28" in="00:00:00.440" out="00:00:07.880"/>
  </playlist>
  <producer id="producer32" in="00:00:00.000" out="03:59:59.960">
    <property name="length">04:00:00.000</property>
    <property name="eof">pause</property>
    <property name="resource">#00000000</property>
    <property name="aspect_ratio">1</property>
    <property name="mlt_service">color</property>
    <property name="mlt_image_format">rgb24a</property>
    <property name="shotcut:caption">transparent</property>
    <property name="shotcut:detail">transparent</property>
    <property name="ignore_points">0</property>
    <property name="global_feed">1</property>
    <property name="xml">was here</property>
    <property name="seekable">1</property>
    <filter id="filter15" out="00:00:02.360">
      <property name="argument">Уроки Игры на Мриданге</property>
      <property name="geometry">111 128 498 77 1</property>
      <property name="family">Jost</property>
      <property name="size">32</property>
      <property name="weight">500</property>
      <property name="style">normal</property>
      <property name="fgcolour">#ffffffff</property>
      <property name="bgcolour">#00000000</property>
      <property name="olcolour">#aa000000</property>
      <property name="pad">0</property>
      <property name="halign">center</property>
      <property name="valign">top</property>
      <property name="outline">0</property>
      <property name="mlt_service">dynamictext</property>
      <property name="shotcut:filter">dynamicText</property>
      <property name="shotcut:usePointSize">1</property>
      <property name="shotcut:pointSize">32</property>
      <property name="shotcut:animIn">00:00:00.000</property>
      <property name="shotcut:animOut">00:00:00.000</property>
    </filter>
    <filter id="filter16" out="00:00:02.360">
      <property name="argument">3.  Звуки</property>
      <property name="geometry">0 200 720 189 1</property>
      <property name="family">Jost</property>
      <property name="size">64</property>
      <property name="weight">750</property>
      <property name="style">normal</property>
      <property name="fgcolour">#ffffffff</property>
      <property name="bgcolour">#00000000</property>
      <property name="olcolour">#aa000000</property>
      <property name="pad">0</property>
      <property name="halign">center</property>
      <property name="valign">middle</property>
      <property name="outline">0</property>
      <property name="mlt_service">dynamictext</property>
      <property name="shotcut:filter">dynamicText</property>
      <property name="shotcut:usePointSize">1</property>
      <property name="shotcut:animIn">00:00:00.000</property>
      <property name="shotcut:animOut">00:00:00.000</property>
      <property name="shotcut:pointSize">64</property>
    </filter>
    <filter id="filter17" out="00:00:02.360">
      <property name="argument">* Дубль кахарва</property>
      <property name="geometry">185 261 349 94 1</property>
      <property name="family">Jost</property>
      <property name="size">48</property>
      <property name="weight">630</property>
      <property name="style">italic</property>
      <property name="fgcolour">#ffffffff</property>
      <property name="bgcolour">#00000000</property>
      <property name="olcolour">#aa000000</property>
      <property name="pad">0</property>
      <property name="halign">center</property>
      <property name="valign">bottom</property>
      <property name="outline">0</property>
      <property name="mlt_service">dynamictext</property>
      <property name="shotcut:filter">dynamicText</property>
      <property name="shotcut:usePointSize">1</property>
      <property name="shotcut:animIn">00:00:00.000</property>
      <property name="shotcut:animOut">00:00:00.000</property>
      <property name="shotcut:pointSize">48</property>
      <property name="disable">1</property>
    </filter>
    <filter id="filter18" out="00:00:02.360">
      <property name="argument">Положение</property>
      <property name="geometry">-1 338 721 171 1</property>
      <property name="family">Jost</property>
      <property name="size">48</property>
      <property name="weight">570</property>
      <property name="style">normal</property>
      <property name="fgcolour">#ffffffff</property>
      <property name="bgcolour">#00000000</property>
      <property name="olcolour">#aaffffff</property>
      <property name="pad">0</property>
      <property name="halign">center</property>
      <property name="valign">middle</property>
      <property name="outline">0</property>
      <property name="mlt_service">dynamictext</property>
      <property name="shotcut:filter">dynamicText</property>
      <property name="shotcut:usePointSize">1</property>
      <property name="shotcut:animIn">00:00:00.000</property>
      <property name="shotcut:animOut">00:00:00.000</property>
      <property name="shotcut:pointSize">48</property>
      <property name="disable">1</property>
    </filter>
    <filter id="filter19" out="00:00:02.360">
      <property name="start">1</property>
      <property name="level">1</property>
      <property name="mlt_service">brightness</property>
      <property name="shotcut:filter">fadeOutBrightness</property>
      <property name="alpha">00:00:01.720=1;00:00:02.360=0</property>
      <property name="shotcut:animOut">00:00:00.680</property>
    </filter>
    <filter id="filter20" out="00:00:02.360">
      <property name="background">color:#00000000</property>
      <property name="mlt_service">affine</property>
      <property name="shotcut:filter">affineSizePosition</property>
      <property name="transition.fill">1</property>
      <property name="transition.distort">0</property>
      <property name="transition.rect">00:00:00.000=0 0 720 540 1;00:00:01.560=-5.04 -4 730.08 548 1;00:00:02.760=0 0 720 540 1</property>
      <property name="transition.valign">middle</property>
      <property name="transition.halign">center</property>
      <property name="shotcut:animIn">00:00:01.120</property>
      <property name="shotcut:animOut">00:00:01.240</property>
      <property name="transition.threads">0</property>
      <property name="transition.fix_rotate_x">00:00:00.000=0;00:00:01.560=0;00:00:02.760=0</property>
    </filter>
    <filter id="filter21" out="00:00:02.360">
      <property name="start">1</property>
      <property name="hori">00:00:00.000=5.18636;00:00:00.760=0</property>
      <property name="vert">00:00:00.000=6.98458;00:00:00.600=0</property>
      <property name="mlt_service">boxblur</property>
      <property name="shotcut:animIn">00:00:00.000</property>
      <property name="shotcut:animOut">00:00:00.000</property>
    </filter>
    <filter id="filter22" out="00:00:02.360">
      <property name="version">0.2</property>
      <property name="mlt_service">frei0r.premultiply</property>
      <property name="threads">0</property>
      <property name="0">1</property>
    </filter>
    <filter id="filter23" out="00:00:02.360">
      <property name="start">1</property>
      <property name="level">1</property>
      <property name="mlt_service">brightness</property>
      <property name="shotcut:filter">fadeInBrightness</property>
      <property name="alpha">00:00:00.000=0;00:00:00.400=1</property>
      <property name="shotcut:animIn">00:00:00.440</property>
    </filter>
  </producer>
  <producer id="producer29" in="00:00:00.000" out="03:59:59.960">
    <property name="length">04:00:00.000</property>
    <property name="eof">pause</property>
    <property name="resource">#00000000</property>
    <property name="aspect_ratio">1</property>
    <property name="mlt_service">color</property>
    <property name="mlt_image_format">rgb24a</property>
    <property name="shotcut:caption">transparent</property>
    <property name="shotcut:detail">transparent</property>
    <property name="ignore_points">0</property>
    <property name="global_feed">1</property>
    <property name="xml">was here</property>
    <property name="seekable">1</property>
    <filter id="filter24" out="00:00:02.200">
      <property name="argument">та</property>
      <property name="geometry">-18 424 431 88 1</property>
      <property name="family">Jost</property>
      <property name="size">48</property>
      <property name="weight">630</property>
      <property name="style">normal</property>
      <property name="fgcolour">#ffffffff</property>
      <property name="bgcolour">#00000000</property>
      <property name="olcolour">#aa000000</property>
      <property name="pad">0</property>
      <property name="halign">center</property>
      <property name="valign">middle</property>
      <property name="outline">0</property>
      <property name="mlt_service">dynamictext</property>
      <property name="shotcut:filter">dynamicText</property>
      <property name="shotcut:usePointSize">1</property>
      <property name="shotcut:animIn">00:00:00.000</property>
      <property name="shotcut:animOut">00:00:00.000</property>
      <property name="shotcut:pointSize">48</property>
      <property name="disable">0</property>
    </filter>
    <filter id="filter25" out="00:00:02.200">
      <property name="argument">– открытый удар</property>
      <property name="geometry">241 419 336 100 1</property>
      <property name="family">Jost</property>
      <property name="size">48</property>
      <property name="weight">500</property>
      <property name="style">normal</property>
      <property name="fgcolour">#ffffffff</property>
      <property name="bgcolour">#00000000</property>
      <property name="olcolour">#aa000000</property>
      <property name="pad">0</property>
      <property name="halign">left</property>
      <property name="valign">middle</property>
      <property name="outline">0</property>
      <property name="mlt_service">dynamictext</property>
      <property name="shotcut:filter">dynamicText</property>
      <property name="shotcut:usePointSize">1</property>
      <property name="shotcut:animIn">00:00:00.000</property>
      <property name="shotcut:animOut">00:00:00.000</property>
      <property name="shotcut:pointSize">48</property>
      <property name="disable">0</property>
    </filter>
    <filter id="filter26" out="00:00:02.200">
      <property name="start">1</property>
      <property name="level">1</property>
      <property name="mlt_service">brightness</property>
      <property name="shotcut:filter">fadeOutBrightness</property>
      <property name="alpha">00:00:01.920=1;00:00:02.200=0</property>
      <property name="shotcut:animOut">00:00:00.320</property>
    </filter>
    <filter id="filter27" out="00:00:02.200">
      <property name="start">1</property>
      <property name="level">1</property>
      <property name="mlt_service">brightness</property>
      <property name="shotcut:filter">fadeInBrightness</property>
      <property name="alpha">00:00:00.000=0;00:00:00.280=1</property>
      <property name="shotcut:animIn">00:00:00.320</property>
    </filter>
    <filter id="filter28" out="00:00:02.200">
      <property name="background">color:#00000000</property>
      <property name="mlt_service">affine</property>
      <property name="shotcut:filter">affineSizePosition</property>
      <property name="transition.fill">1</property>
      <property name="transition.distort">0</property>
      <property name="transition.rect">00:00:00.000=0 0 720 540 1;00:00:01.000=-5.04 -4 730.08 548 1;00:00:02.200=0 0 720 540 1</property>
      <property name="transition.valign">middle</property>
      <property name="transition.halign">center</property>
      <property name="shotcut:animIn">00:00:01.120</property>
      <property name="shotcut:animOut">00:00:01.240</property>
      <property name="transition.threads">0</property>
      <property name="transition.fix_rotate_x">00:00:00.000=0;00:00:01.000=0;00:00:02.200=0</property>
    </filter>
  </producer>
  <producer id="producer30" in="00:00:00.000" out="03:59:59.960">
    <property name="length">04:00:00.000</property>
    <property name="eof">pause</property>
    <property name="resource">#00000000</property>
    <property name="aspect_ratio">1</property>
    <property name="mlt_service">color</property>
    <property name="mlt_image_format">rgb24a</property>
    <property name="shotcut:caption">transparent</property>
    <property name="shotcut:detail">transparent</property>
    <property name="ignore_points">0</property>
    <property name="global_feed">1</property>
    <property name="xml">was here</property>
    <property name="seekable">1</property>
    <filter id="filter29" out="00:00:02.200">
      <property name="argument">те</property>
      <property name="geometry">-18 424 431 88 1</property>
      <property name="family">Jost</property>
      <property name="size">48</property>
      <property name="weight">630</property>
      <property name="style">normal</property>
      <property name="fgcolour">#ffffffff</property>
      <property name="bgcolour">#00000000</property>
      <property name="olcolour">#aa000000</property>
      <property name="pad">0</property>
      <property name="halign">center</property>
      <property name="valign">middle</property>
      <property name="outline">0</property>
      <property name="mlt_service">dynamictext</property>
      <property name="shotcut:filter">dynamicText</property>
      <property name="shotcut:usePointSize">1</property>
      <property name="shotcut:animIn">00:00:00.000</property>
      <property name="shotcut:animOut">00:00:00.000</property>
      <property name="shotcut:pointSize">48</property>
      <property name="disable">0</property>
    </filter>
    <filter id="filter30" out="00:00:02.200">
      <property name="argument">– закрытый удар</property>
      <property name="geometry">232 418 353 101 1</property>
      <property name="family">Jost</property>
      <property name="size">48</property>
      <property name="weight">500</property>
      <property name="style">normal</property>
      <property name="fgcolour">#ffffffff</property>
      <property name="bgcolour">#00000000</property>
      <property name="olcolour">#aa000000</property>
      <property name="pad">0</property>
      <property name="halign">left</property>
      <property name="valign">middle</property>
      <property name="outline">0</property>
      <property name="mlt_service">dynamictext</property>
      <property name="shotcut:filter">dynamicText</property>
      <property name="shotcut:usePointSize">1</property>
      <property name="shotcut:animIn">00:00:00.000</property>
      <property name="shotcut:animOut">00:00:00.000</property>
      <property name="shotcut:pointSize">48</property>
      <property name="disable">0</property>
    </filter>
    <filter id="filter31" out="00:00:02.200">
      <property name="start">1</property>
      <property name="level">1</property>
      <property name="mlt_service">brightness</property>
      <property name="shotcut:filter">fadeOutBrightness</property>
      <property name="alpha">00:00:01.920=1;00:00:02.200=0</property>
      <property name="shotcut:animOut">00:00:00.320</property>
    </filter>
    <filter id="filter32" out="00:00:02.200">
      <property name="start">1</property>
      <property name="level">1</property>
      <property name="mlt_service">brightness</property>
      <property name="shotcut:filter">fadeInBrightness</property>
      <property name="alpha">00:00:00.000=0;00:00:00.280=1</property>
      <property name="shotcut:animIn">00:00:00.320</property>
    </filter>
    <filter id="filter33" out="00:00:02.200">
      <property name="background">color:#00000000</property>
      <property name="mlt_service">affine</property>
      <property name="shotcut:filter">affineSizePosition</property>
      <property name="transition.fill">1</property>
      <property name="transition.distort">0</property>
      <property name="transition.rect">00:00:00.000=0 0 720 540 1;00:00:01.000=-5.04 -4 730.08 548 1;00:00:02.200=0 0 720 540 1</property>
      <property name="transition.valign">middle</property>
      <property name="transition.halign">center</property>
      <property name="shotcut:animIn">00:00:01.120</property>
      <property name="shotcut:animOut">00:00:01.240</property>
      <property name="transition.threads">0</property>
      <property name="transition.fix_rotate_x">00:00:00.000=0;00:00:01.000=0;00:00:02.200=0</property>
    </filter>
  </producer>
  <producer id="producer31" in="00:00:00.000" out="03:59:59.960">
    <property name="length">04:00:00.000</property>
    <property name="eof">pause</property>
    <property name="resource">#00000000</property>
    <property name="aspect_ratio">1</property>
    <property name="mlt_service">color</property>
    <property name="mlt_image_format">rgb24a</property>
    <property name="shotcut:caption">transparent</property>
    <property name="shotcut:detail">transparent</property>
    <property name="ignore_points">0</property>
    <property name="global_feed">1</property>
    <property name="xml">was here</property>
    <property name="seekable">1</property>
    <filter id="filter34" out="00:00:02.200">
      <property name="argument">ри</property>
      <property name="geometry">-18 424 431 88 1</property>
      <property name="family">Jost</property>
      <property name="size">48</property>
      <property name="weight">630</property>
      <property name="style">normal</property>
      <property name="fgcolour">#ffffffff</property>
      <property name="bgcolour">#00000000</property>
      <property name="olcolour">#aa000000</property>
      <property name="pad">0</property>
      <property name="halign">center</property>
      <property name="valign">middle</property>
      <property name="outline">0</property>
      <property name="mlt_service">dynamictext</property>
      <property name="shotcut:filter">dynamicText</property>
      <property name="shotcut:usePointSize">1</property>
      <property name="shotcut:animIn">00:00:00.000</property>
      <property name="shotcut:animOut">00:00:00.000</property>
      <property name="shotcut:pointSize">48</property>
      <property name="disable">0</property>
    </filter>
    <filter id="filter35" out="00:00:02.200">
      <property name="argument">– закрытый удар</property>
      <property name="geometry">242 418 369 101 1</property>
      <property name="family">Jost</property>
      <property name="size">48</property>
      <property name="weight">500</property>
      <property name="style">normal</property>
      <property name="fgcolour">#ffffffff</property>
      <property name="bgcolour">#00000000</property>
      <property name="olcolour">#aa000000</property>
      <property name="pad">0</property>
      <property name="halign">left</property>
      <property name="valign">middle</property>
      <property name="outline">0</property>
      <property name="mlt_service">dynamictext</property>
      <property name="shotcut:filter">dynamicText</property>
      <property name="shotcut:usePointSize">1</property>
      <property name="shotcut:animIn">00:00:00.000</property>
      <property name="shotcut:animOut">00:00:00.000</property>
      <property name="shotcut:pointSize">48</property>
      <property name="disable">0</property>
    </filter>
    <filter id="filter36" out="00:00:02.200">
      <property name="start">1</property>
      <property name="level">1</property>
      <property name="mlt_service">brightness</property>
      <property name="shotcut:filter">fadeOutBrightness</property>
      <property name="alpha">00:00:01.920=1;00:00:02.200=0</property>
      <property name="shotcut:animOut">00:00:00.320</property>
    </filter>
    <filter id="filter37" out="00:00:02.200">
      <property name="start">1</property>
      <property name="level">1</property>
      <property name="mlt_service">brightness</property>
      <property name="shotcut:filter">fadeInBrightness</property>
      <property name="alpha">00:00:00.000=0;00:00:00.280=1</property>
      <property name="shotcut:animIn">00:00:00.320</property>
    </filter>
    <filter id="filter38" out="00:00:02.200">
      <property name="background">color:#00000000</property>
      <property name="mlt_service">affine</property>
      <property name="shotcut:filter">affineSizePosition</property>
      <property name="transition.fill">1</property>
      <property name="transition.distort">0</property>
      <property name="transition.rect">00:00:00.000=0 0 720 540 1;00:00:01.000=-5.04 -4 730.08 548 1;00:00:02.200=0 0 720 540 1</property>
      <property name="transition.valign">middle</property>
      <property name="transition.halign">center</property>
      <property name="shotcut:animIn">00:00:01.120</property>
      <property name="shotcut:animOut">00:00:01.240</property>
      <property name="transition.threads">0</property>
      <property name="transition.fix_rotate_x">00:00:00.000=0;00:00:01.000=0;00:00:02.200=0</property>
    </filter>
  </producer>
  <producer id="producer33" in="00:00:00.000" out="03:59:59.960">
    <property name="length">04:00:00.000</property>
    <property name="eof">pause</property>
    <property name="resource">#00000000</property>
    <property name="aspect_ratio">1</property>
    <property name="mlt_service">color</property>
    <property name="mlt_image_format">rgb24a</property>
    <property name="shotcut:caption">transparent</property>
    <property name="shotcut:detail">transparent</property>
    <property name="ignore_points">0</property>
    <property name="global_feed">1</property>
    <property name="xml">was here</property>
    <property name="seekable">1</property>
    <filter id="filter39" out="00:00:02.200">
      <property name="argument">ти</property>
      <property name="geometry">-18 424 431 88 1</property>
      <property name="family">Jost</property>
      <property name="size">48</property>
      <property name="weight">630</property>
      <property name="style">normal</property>
      <property name="fgcolour">#ffffffff</property>
      <property name="bgcolour">#00000000</property>
      <property name="olcolour">#aa000000</property>
      <property name="pad">0</property>
      <property name="halign">center</property>
      <property name="valign">middle</property>
      <property name="outline">0</property>
      <property name="mlt_service">dynamictext</property>
      <property name="shotcut:filter">dynamicText</property>
      <property name="shotcut:usePointSize">1</property>
      <property name="shotcut:animIn">00:00:00.000</property>
      <property name="shotcut:animOut">00:00:00.000</property>
      <property name="shotcut:pointSize">48</property>
      <property name="disable">0</property>
    </filter>
    <filter id="filter40" out="00:00:02.200">
      <property name="argument">– закрытый удар</property>
      <property name="geometry">232 417 386 102 1</property>
      <property name="family">Jost</property>
      <property name="size">48</property>
      <property name="weight">500</property>
      <property name="style">normal</property>
      <property name="fgcolour">#ffffffff</property>
      <property name="bgcolour">#00000000</property>
      <property name="olcolour">#aa000000</property>
      <property name="pad">0</property>
      <property name="halign">left</property>
      <property name="valign">middle</property>
      <property name="outline">0</property>
      <property name="mlt_service">dynamictext</property>
      <property name="shotcut:filter">dynamicText</property>
      <property name="shotcut:usePointSize">1</property>
      <property name="shotcut:animIn">00:00:00.000</property>
      <property name="shotcut:animOut">00:00:00.000</property>
      <property name="shotcut:pointSize">48</property>
      <property name="disable">0</property>
    </filter>
    <filter id="filter41" out="00:00:02.200">
      <property name="start">1</property>
      <property name="level">1</property>
      <property name="mlt_service">brightness</property>
      <property name="shotcut:filter">fadeOutBrightness</property>
      <property name="alpha">00:00:01.920=1;00:00:02.200=0</property>
      <property name="shotcut:animOut">00:00:00.320</property>
    </filter>
    <filter id="filter42" out="00:00:02.200">
      <property name="start">1</property>
      <property name="level">1</property>
      <property name="mlt_service">brightness</property>
      <property name="shotcut:filter">fadeInBrightness</property>
      <property name="alpha">00:00:00.000=0;00:00:00.280=1</property>
      <property name="shotcut:animIn">00:00:00.320</property>
    </filter>
    <filter id="filter43" out="00:00:02.200">
      <property name="background">color:#00000000</property>
      <property name="mlt_service">affine</property>
      <property name="shotcut:filter">affineSizePosition</property>
      <property name="transition.fill">1</property>
      <property name="transition.distort">0</property>
      <property name="transition.rect">00:00:00.000=0 0 720 540 1;00:00:01.000=-5.04 -4 730.08 548 1;00:00:02.200=0 0 720 540 1</property>
      <property name="transition.valign">middle</property>
      <property name="transition.halign">center</property>
      <property name="shotcut:animIn">00:00:01.120</property>
      <property name="shotcut:animOut">00:00:01.240</property>
      <property name="transition.threads">0</property>
      <property name="transition.fix_rotate_x">00:00:00.000=0;00:00:01.000=0;00:00:02.200=0</property>
    </filter>
  </producer>
  <producer id="producer34" in="00:00:00.000" out="03:59:59.960">
    <property name="length">04:00:00.000</property>
    <property name="eof">pause</property>
    <property name="resource">#00000000</property>
    <property name="aspect_ratio">1</property>
    <property name="mlt_service">color</property>
    <property name="mlt_image_format">rgb24a</property>
    <property name="shotcut:caption">transparent</property>
    <property name="shotcut:detail">transparent</property>
    <property name="ignore_points">0</property>
    <property name="global_feed">1</property>
    <property name="xml">was here</property>
    <property name="seekable">1</property>
    <filter id="filter44" out="00:00:02.200">
      <property name="argument">га</property>
      <property name="geometry">-18 424 431 88 1</property>
      <property name="family">Jost</property>
      <property name="size">48</property>
      <property name="weight">630</property>
      <property name="style">normal</property>
      <property name="fgcolour">#ffffffff</property>
      <property name="bgcolour">#00000000</property>
      <property name="olcolour">#aa000000</property>
      <property name="pad">0</property>
      <property name="halign">center</property>
      <property name="valign">middle</property>
      <property name="outline">0</property>
      <property name="mlt_service">dynamictext</property>
      <property name="shotcut:filter">dynamicText</property>
      <property name="shotcut:usePointSize">1</property>
      <property name="shotcut:animIn">00:00:00.000</property>
      <property name="shotcut:animOut">00:00:00.000</property>
      <property name="shotcut:pointSize">48</property>
      <property name="disable">0</property>
    </filter>
    <filter id="filter45" out="00:00:02.200">
      <property name="argument">– открытый удар</property>
      <property name="geometry">232 418 346 101 1</property>
      <property name="family">Jost</property>
      <property name="size">48</property>
      <property name="weight">500</property>
      <property name="style">normal</property>
      <property name="fgcolour">#ffffffff</property>
      <property name="bgcolour">#00000000</property>
      <property name="olcolour">#aa000000</property>
      <property name="pad">0</property>
      <property name="halign">left</property>
      <property name="valign">middle</property>
      <property name="outline">0</property>
      <property name="mlt_service">dynamictext</property>
      <property name="shotcut:filter">dynamicText</property>
      <property name="shotcut:usePointSize">1</property>
      <property name="shotcut:animIn">00:00:00.000</property>
      <property name="shotcut:animOut">00:00:00.000</property>
      <property name="shotcut:pointSize">48</property>
      <property name="disable">0</property>
    </filter>
    <filter id="filter46" out="00:00:02.200">
      <property name="start">1</property>
      <property name="level">1</property>
      <property name="mlt_service">brightness</property>
      <property name="shotcut:filter">fadeOutBrightness</property>
      <property name="alpha">00:00:01.920=1;00:00:02.200=0</property>
      <property name="shotcut:animOut">00:00:00.320</property>
    </filter>
    <filter id="filter47" out="00:00:02.200">
      <property name="start">1</property>
      <property name="level">1</property>
      <property name="mlt_service">brightness</property>
      <property name="shotcut:filter">fadeInBrightness</property>
      <property name="alpha">00:00:00.000=0;00:00:00.280=1</property>
      <property name="shotcut:animIn">00:00:00.320</property>
    </filter>
    <filter id="filter48" out="00:00:02.200">
      <property name="background">color:#00000000</property>
      <property name="mlt_service">affine</property>
      <property name="shotcut:filter">affineSizePosition</property>
      <property name="transition.fill">1</property>
      <property name="transition.distort">0</property>
      <property name="transition.rect">00:00:00.000=0 0 720 540 1;00:00:01.000=-5.04 -4 730.08 548 1;00:00:02.200=0 0 720 540 1</property>
      <property name="transition.valign">middle</property>
      <property name="transition.halign">center</property>
      <property name="shotcut:animIn">00:00:01.120</property>
      <property name="shotcut:animOut">00:00:01.240</property>
      <property name="transition.threads">0</property>
      <property name="transition.fix_rotate_x">00:00:00.000=0;00:00:01.000=0;00:00:02.200=0</property>
    </filter>
  </producer>
  <producer id="producer35" in="00:00:00.000" out="03:59:59.960">
    <property name="length">04:00:00.000</property>
    <property name="eof">pause</property>
    <property name="resource">#00000000</property>
    <property name="aspect_ratio">1</property>
    <property name="mlt_service">color</property>
    <property name="mlt_image_format">rgb24a</property>
    <property name="shotcut:caption">transparent</property>
    <property name="shotcut:detail">transparent</property>
    <property name="ignore_points">0</property>
    <property name="global_feed">1</property>
    <property name="xml">was here</property>
    <property name="seekable">1</property>
    <filter id="filter49" out="00:00:02.200">
      <property name="argument">ге</property>
      <property name="geometry">-18 424 431 88 1</property>
      <property name="family">Jost</property>
      <property name="size">48</property>
      <property name="weight">630</property>
      <property name="style">normal</property>
      <property name="fgcolour">#ffffffff</property>
      <property name="bgcolour">#00000000</property>
      <property name="olcolour">#aa000000</property>
      <property name="pad">0</property>
      <property name="halign">center</property>
      <property name="valign">middle</property>
      <property name="outline">0</property>
      <property name="mlt_service">dynamictext</property>
      <property name="shotcut:filter">dynamicText</property>
      <property name="shotcut:usePointSize">1</property>
      <property name="shotcut:animIn">00:00:00.000</property>
      <property name="shotcut:animOut">00:00:00.000</property>
      <property name="shotcut:pointSize">48</property>
      <property name="disable">0</property>
    </filter>
    <filter id="filter50" out="00:00:02.200">
      <property name="argument">– закрытый удар</property>
      <property name="geometry">232 417 351 102 1</property>
      <property name="family">Jost</property>
      <property name="size">48</property>
      <property name="weight">500</property>
      <property name="style">normal</property>
      <property name="fgcolour">#ffffffff</property>
      <property name="bgcolour">#00000000</property>
      <property name="olcolour">#aa000000</property>
      <property name="pad">0</property>
      <property name="halign">left</property>
      <property name="valign">middle</property>
      <property name="outline">0</property>
      <property name="mlt_service">dynamictext</property>
      <property name="shotcut:filter">dynamicText</property>
      <property name="shotcut:usePointSize">1</property>
      <property name="shotcut:animIn">00:00:00.000</property>
      <property name="shotcut:animOut">00:00:00.000</property>
      <property name="shotcut:pointSize">48</property>
      <property name="disable">0</property>
    </filter>
    <filter id="filter51" out="00:00:02.200">
      <property name="start">1</property>
      <property name="level">1</property>
      <property name="mlt_service">brightness</property>
      <property name="shotcut:filter">fadeOutBrightness</property>
      <property name="alpha">00:00:01.920=1;00:00:02.200=0</property>
      <property name="shotcut:animOut">00:00:00.320</property>
    </filter>
    <filter id="filter52" out="00:00:02.200">
      <property name="start">1</property>
      <property name="level">1</property>
      <property name="mlt_service">brightness</property>
      <property name="shotcut:filter">fadeInBrightness</property>
      <property name="alpha">00:00:00.000=0;00:00:00.280=1</property>
      <property name="shotcut:animIn">00:00:00.320</property>
    </filter>
    <filter id="filter53" out="00:00:02.200">
      <property name="background">color:#00000000</property>
      <property name="mlt_service">affine</property>
      <property name="shotcut:filter">affineSizePosition</property>
      <property name="transition.fill">1</property>
      <property name="transition.distort">0</property>
      <property name="transition.rect">00:00:00.000=0 0 720 540 1;00:00:01.000=-5.04 -4 730.08 548 1;00:00:02.200=0 0 720 540 1</property>
      <property name="transition.valign">middle</property>
      <property name="transition.halign">center</property>
      <property name="shotcut:animIn">00:00:01.120</property>
      <property name="shotcut:animOut">00:00:01.240</property>
      <property name="transition.threads">0</property>
      <property name="transition.fix_rotate_x">00:00:00.000=0;00:00:01.000=0;00:00:02.200=0</property>
    </filter>
  </producer>
  <producer id="producer36" in="00:00:00.000" out="03:59:59.960">
    <property name="length">04:00:00.000</property>
    <property name="eof">pause</property>
    <property name="resource">#00000000</property>
    <property name="aspect_ratio">1</property>
    <property name="mlt_service">color</property>
    <property name="mlt_image_format">rgb24a</property>
    <property name="shotcut:caption">transparent</property>
    <property name="shotcut:detail">transparent</property>
    <property name="ignore_points">0</property>
    <property name="global_feed">1</property>
    <property name="xml">was here</property>
    <property name="seekable">1</property>
    <filter id="filter54" out="00:00:02.200">
      <property name="argument">гам</property>
      <property name="geometry">-43 423 431 88 1</property>
      <property name="family">Jost</property>
      <property name="size">48</property>
      <property name="weight">630</property>
      <property name="style">normal</property>
      <property name="fgcolour">#ffffffff</property>
      <property name="bgcolour">#00000000</property>
      <property name="olcolour">#aa000000</property>
      <property name="pad">0</property>
      <property name="halign">center</property>
      <property name="valign">middle</property>
      <property name="outline">0</property>
      <property name="mlt_service">dynamictext</property>
      <property name="shotcut:filter">dynamicText</property>
      <property name="shotcut:usePointSize">1</property>
      <property name="shotcut:animIn">00:00:00.000</property>
      <property name="shotcut:animOut">00:00:00.000</property>
      <property name="shotcut:pointSize">48</property>
      <property name="disable">0</property>
    </filter>
    <filter id="filter55" out="00:00:02.200">
      <property name="argument">– открытый удар</property>
      <property name="geometry">232 418 350 101 1</property>
      <property name="family">Jost</property>
      <property name="size">48</property>
      <property name="weight">500</property>
      <property name="style">normal</property>
      <property name="fgcolour">#ffffffff</property>
      <property name="bgcolour">#00000000</property>
      <property name="olcolour">#aa000000</property>
      <property name="pad">0</property>
      <property name="halign">left</property>
      <property name="valign">middle</property>
      <property name="outline">0</property>
      <property name="mlt_service">dynamictext</property>
      <property name="shotcut:filter">dynamicText</property>
      <property name="shotcut:usePointSize">1</property>
      <property name="shotcut:animIn">00:00:00.000</property>
      <property name="shotcut:animOut">00:00:00.000</property>
      <property name="shotcut:pointSize">48</property>
      <property name="disable">0</property>
    </filter>
    <filter id="filter56" out="00:00:02.200">
      <property name="start">1</property>
      <property name="level">1</property>
      <property name="mlt_service">brightness</property>
      <property name="shotcut:filter">fadeOutBrightness</property>
      <property name="alpha">00:00:01.920=1;00:00:02.200=0</property>
      <property name="shotcut:animOut">00:00:00.320</property>
    </filter>
    <filter id="filter57" out="00:00:02.200">
      <property name="start">1</property>
      <property name="level">1</property>
      <property name="mlt_service">brightness</property>
      <property name="shotcut:filter">fadeInBrightness</property>
      <property name="alpha">00:00:00.000=0;00:00:00.280=1</property>
      <property name="shotcut:animIn">00:00:00.320</property>
    </filter>
    <filter id="filter58" out="00:00:02.200">
      <property name="background">color:#00000000</property>
      <property name="mlt_service">affine</property>
      <property name="shotcut:filter">affineSizePosition</property>
      <property name="transition.fill">1</property>
      <property name="transition.distort">0</property>
      <property name="transition.rect">00:00:00.000=0 0 720 540 1;00:00:01.000=-5.04 -4 730.08 548 1;00:00:02.200=0 0 720 540 1</property>
      <property name="transition.valign">middle</property>
      <property name="transition.halign">center</property>
      <property name="shotcut:animIn">00:00:01.120</property>
      <property name="shotcut:animOut">00:00:01.240</property>
      <property name="transition.threads">0</property>
      <property name="transition.fix_rotate_x">00:00:00.000=0;00:00:01.000=0;00:00:02.200=0</property>
    </filter>
  </producer>
  <producer id="producer37" in="00:00:00.000" out="03:59:59.960">
    <property name="length">04:00:00.000</property>
    <property name="eof">pause</property>
    <property name="resource">#00000000</property>
    <property name="aspect_ratio">1</property>
    <property name="mlt_service">color</property>
    <property name="mlt_image_format">rgb24a</property>
    <property name="shotcut:caption">transparent</property>
    <property name="shotcut:detail">transparent</property>
    <property name="ignore_points">0</property>
    <property name="global_feed">1</property>
    <property name="xml">was here</property>
    <property name="seekable">1</property>
    <filter id="filter59" out="00:00:02.520">
      <property name="argument">га + та = Дха</property>
      <property name="geometry">26 422 448 87 1</property>
      <property name="family">Jost</property>
      <property name="size">48</property>
      <property name="weight">630</property>
      <property name="style">normal</property>
      <property name="fgcolour">#ffffffff</property>
      <property name="bgcolour">#00000000</property>
      <property name="olcolour">#aa000000</property>
      <property name="pad">0</property>
      <property name="halign">center</property>
      <property name="valign">middle</property>
      <property name="outline">0</property>
      <property name="mlt_service">dynamictext</property>
      <property name="shotcut:filter">dynamicText</property>
      <property name="shotcut:usePointSize">1</property>
      <property name="shotcut:animIn">00:00:00.000</property>
      <property name="shotcut:animOut">00:00:00.000</property>
      <property name="shotcut:pointSize">48</property>
      <property name="disable">0</property>
    </filter>
    <filter id="filter60" out="00:00:02.520">
      <property name="argument">(открытый)</property>
      <property name="geometry">422 419 200 94 1</property>
      <property name="family">Jost</property>
      <property name="size">48</property>
      <property name="weight">500</property>
      <property name="style">normal</property>
      <property name="fgcolour">#ffffffff</property>
      <property name="bgcolour">#00000000</property>
      <property name="olcolour">#aa000000</property>
      <property name="pad">0</property>
      <property name="halign">left</property>
      <property name="valign">middle</property>
      <property name="outline">0</property>
      <property name="mlt_service">dynamictext</property>
      <property name="shotcut:filter">dynamicText</property>
      <property name="shotcut:usePointSize">1</property>
      <property name="shotcut:animIn">00:00:00.000</property>
      <property name="shotcut:animOut">00:00:00.000</property>
      <property name="shotcut:pointSize">48</property>
      <property name="disable">0</property>
    </filter>
    <filter id="filter61" out="00:00:02.520">
      <property name="start">1</property>
      <property name="level">1</property>
      <property name="mlt_service">brightness</property>
      <property name="shotcut:filter">fadeOutBrightness</property>
      <property name="alpha">00:00:02.240=1;00:00:02.520=0</property>
      <property name="shotcut:animOut">00:00:00.320</property>
    </filter>
    <filter id="filter62" out="00:00:02.520">
      <property name="start">1</property>
      <property name="level">1</property>
      <property name="mlt_service">brightness</property>
      <property name="shotcut:filter">fadeInBrightness</property>
      <property name="alpha">00:00:00.000=0;00:00:00.280=1</property>
      <property name="shotcut:animIn">00:00:00.320</property>
    </filter>
    <filter id="filter63" out="00:00:02.520">
      <property name="background">color:#00000000</property>
      <property name="mlt_service">affine</property>
      <property name="shotcut:filter">affineSizePosition</property>
      <property name="transition.fill">1</property>
      <property name="transition.distort">0</property>
      <property name="transition.rect">00:00:00.000=0 0 720 540 1;00:00:01.320=-5.04 -4 730.08 548 1;00:00:02.520=0 0 720 540 1</property>
      <property name="transition.valign">middle</property>
      <property name="transition.halign">center</property>
      <property name="shotcut:animIn">00:00:01.120</property>
      <property name="shotcut:animOut">00:00:01.240</property>
      <property name="transition.threads">0</property>
      <property name="transition.fix_rotate_x">00:00:00.000=0;00:00:01.320=0;00:00:02.520=0</property>
    </filter>
  </producer>
  <producer id="producer38" in="00:00:00.000" out="03:59:59.960">
    <property name="length">04:00:00.000</property>
    <property name="eof">pause</property>
    <property name="resource">#00000000</property>
    <property name="aspect_ratio">1</property>
    <property name="mlt_service">color</property>
    <property name="mlt_image_format">rgb24a</property>
    <property name="shotcut:caption">transparent</property>
    <property name="shotcut:detail">transparent</property>
    <property name="ignore_points">0</property>
    <property name="global_feed">1</property>
    <property name="xml">was here</property>
    <property name="seekable">1</property>
    <filter id="filter64" out="00:00:02.520">
      <property name="argument">га + те = Дхе</property>
      <property name="geometry">26 422 448 87 1</property>
      <property name="family">Jost</property>
      <property name="size">48</property>
      <property name="weight">630</property>
      <property name="style">normal</property>
      <property name="fgcolour">#ffffffff</property>
      <property name="bgcolour">#00000000</property>
      <property name="olcolour">#aa000000</property>
      <property name="pad">0</property>
      <property name="halign">center</property>
      <property name="valign">middle</property>
      <property name="outline">0</property>
      <property name="mlt_service">dynamictext</property>
      <property name="shotcut:filter">dynamicText</property>
      <property name="shotcut:usePointSize">1</property>
      <property name="shotcut:animIn">00:00:00.000</property>
      <property name="shotcut:animOut">00:00:00.000</property>
      <property name="shotcut:pointSize">48</property>
      <property name="disable">0</property>
    </filter>
    <filter id="filter65" out="00:00:02.520">
      <property name="argument">(открытый)</property>
      <property name="geometry">422 419 200 94 1</property>
      <property name="family">Jost</property>
      <property name="size">48</property>
      <property name="weight">500</property>
      <property name="style">normal</property>
      <property name="fgcolour">#ffffffff</property>
      <property name="bgcolour">#00000000</property>
      <property name="olcolour">#aa000000</property>
      <property name="pad">0</property>
      <property name="halign">left</property>
      <property name="valign">middle</property>
      <property name="outline">0</property>
      <property name="mlt_service">dynamictext</property>
      <property name="shotcut:filter">dynamicText</property>
      <property name="shotcut:usePointSize">1</property>
      <property name="shotcut:animIn">00:00:00.000</property>
      <property name="shotcut:animOut">00:00:00.000</property>
      <property name="shotcut:pointSize">48</property>
      <property name="disable">0</property>
    </filter>
    <filter id="filter66" out="00:00:02.520">
      <property name="start">1</property>
      <property name="level">1</property>
      <property name="mlt_service">brightness</property>
      <property name="shotcut:filter">fadeOutBrightness</property>
      <property name="alpha">00:00:02.240=1;00:00:02.520=0</property>
      <property name="shotcut:animOut">00:00:00.320</property>
    </filter>
    <filter id="filter67" out="00:00:02.520">
      <property name="start">1</property>
      <property name="level">1</property>
      <property name="mlt_service">brightness</property>
      <property name="shotcut:filter">fadeInBrightness</property>
      <property name="alpha">00:00:00.000=0;00:00:00.280=1</property>
      <property name="shotcut:animIn">00:00:00.320</property>
    </filter>
    <filter id="filter68" out="00:00:02.520">
      <property name="background">color:#00000000</property>
      <property name="mlt_service">affine</property>
      <property name="shotcut:filter">affineSizePosition</property>
      <property name="transition.fill">1</property>
      <property name="transition.distort">0</property>
      <property name="transition.rect">00:00:00.000=0 0 720 540 1;00:00:01.320=-5.04 -4 730.08 548 1;00:00:02.520=0 0 720 540 1</property>
      <property name="transition.valign">middle</property>
      <property name="transition.halign">center</property>
      <property name="shotcut:animIn">00:00:01.120</property>
      <property name="shotcut:animOut">00:00:01.240</property>
      <property name="transition.threads">0</property>
      <property name="transition.fix_rotate_x">00:00:00.000=0;00:00:01.320=0;00:00:02.520=0</property>
    </filter>
  </producer>
  <producer id="producer39" in="00:00:00.000" out="03:59:59.960">
    <property name="length">04:00:00.000</property>
    <property name="eof">pause</property>
    <property name="resource">#00000000</property>
    <property name="aspect_ratio">1</property>
    <property name="mlt_service">color</property>
    <property name="mlt_image_format">rgb24a</property>
    <property name="shotcut:caption">transparent</property>
    <property name="shotcut:detail">transparent</property>
    <property name="ignore_points">0</property>
    <property name="global_feed">1</property>
    <property name="xml">was here</property>
    <property name="seekable">1</property>
    <filter id="filter69" out="00:00:02.520">
      <property name="argument">ге + та = Дхар</property>
      <property name="geometry">26 422 448 87 1</property>
      <property name="family">Jost</property>
      <property name="size">48</property>
      <property name="weight">630</property>
      <property name="style">normal</property>
      <property name="fgcolour">#ffffffff</property>
      <property name="bgcolour">#00000000</property>
      <property name="olcolour">#aa000000</property>
      <property name="pad">0</property>
      <property name="halign">center</property>
      <property name="valign">middle</property>
      <property name="outline">0</property>
      <property name="mlt_service">dynamictext</property>
      <property name="shotcut:filter">dynamicText</property>
      <property name="shotcut:usePointSize">1</property>
      <property name="shotcut:animIn">00:00:00.000</property>
      <property name="shotcut:animOut">00:00:00.000</property>
      <property name="shotcut:pointSize">48</property>
      <property name="disable">0</property>
    </filter>
    <filter id="filter70" out="00:00:02.520">
      <property name="argument">(закрытый)</property>
      <property name="geometry">433 419 200 94 1</property>
      <property name="family">Jost</property>
      <property name="size">48</property>
      <property name="weight">500</property>
      <property name="style">normal</property>
      <property name="fgcolour">#ffffffff</property>
      <property name="bgcolour">#00000000</property>
      <property name="olcolour">#aa000000</property>
      <property name="pad">0</property>
      <property name="halign">left</property>
      <property name="valign">middle</property>
      <property name="outline">0</property>
      <property name="mlt_service">dynamictext</property>
      <property name="shotcut:filter">dynamicText</property>
      <property name="shotcut:usePointSize">1</property>
      <property name="shotcut:animIn">00:00:00.000</property>
      <property name="shotcut:animOut">00:00:00.000</property>
      <property name="shotcut:pointSize">48</property>
      <property name="disable">0</property>
    </filter>
    <filter id="filter71" out="00:00:02.520">
      <property name="start">1</property>
      <property name="level">1</property>
      <property name="mlt_service">brightness</property>
      <property name="shotcut:filter">fadeOutBrightness</property>
      <property name="alpha">00:00:02.240=1;00:00:02.520=0</property>
      <property name="shotcut:animOut">00:00:00.320</property>
    </filter>
    <filter id="filter72" out="00:00:02.520">
      <property name="start">1</property>
      <property name="level">1</property>
      <property name="mlt_service">brightness</property>
      <property name="shotcut:filter">fadeInBrightness</property>
      <property name="alpha">00:00:00.000=0;00:00:00.280=1</property>
      <property name="shotcut:animIn">00:00:00.320</property>
    </filter>
    <filter id="filter73" out="00:00:02.520">
      <property name="background">color:#00000000</property>
      <property name="mlt_service">affine</property>
      <property name="shotcut:filter">affineSizePosition</property>
      <property name="transition.fill">1</property>
      <property name="transition.distort">0</property>
      <property name="transition.rect">00:00:00.000=0 0 720 540 1;00:00:01.320=-5.04 -4 730.08 548 1;00:00:02.520=0 0 720 540 1</property>
      <property name="transition.valign">middle</property>
      <property name="transition.halign">center</property>
      <property name="shotcut:animIn">00:00:01.120</property>
      <property name="shotcut:animOut">00:00:01.240</property>
      <property name="transition.threads">0</property>
      <property name="transition.fix_rotate_x">00:00:00.000=0;00:00:01.320=0;00:00:02.520=0</property>
    </filter>
  </producer>
  <producer id="producer40" in="00:00:00.000" out="03:59:59.960">
    <property name="length">04:00:00.000</property>
    <property name="eof">pause</property>
    <property name="resource">#00000000</property>
    <property name="aspect_ratio">1</property>
    <property name="mlt_service">color</property>
    <property name="mlt_image_format">rgb24a</property>
    <property name="shotcut:caption">transparent</property>
    <property name="shotcut:detail">transparent</property>
    <property name="ignore_points">0</property>
    <property name="global_feed">1</property>
    <property name="xml">was here</property>
    <property name="seekable">1</property>
    <filter id="filter74" out="00:00:02.520">
      <property name="argument">ге + те = Дхер</property>
      <property name="geometry">26 422 448 87 1</property>
      <property name="family">Jost</property>
      <property name="size">48</property>
      <property name="weight">630</property>
      <property name="style">normal</property>
      <property name="fgcolour">#ffffffff</property>
      <property name="bgcolour">#00000000</property>
      <property name="olcolour">#aa000000</property>
      <property name="pad">0</property>
      <property name="halign">center</property>
      <property name="valign">middle</property>
      <property name="outline">0</property>
      <property name="mlt_service">dynamictext</property>
      <property name="shotcut:filter">dynamicText</property>
      <property name="shotcut:usePointSize">1</property>
      <property name="shotcut:animIn">00:00:00.000</property>
      <property name="shotcut:animOut">00:00:00.000</property>
      <property name="shotcut:pointSize">48</property>
      <property name="disable">0</property>
    </filter>
    <filter id="filter75" out="00:00:02.520">
      <property name="argument">(закрытый)</property>
      <property name="geometry">433 419 200 94 1</property>
      <property name="family">Jost</property>
      <property name="size">48</property>
      <property name="weight">500</property>
      <property name="style">normal</property>
      <property name="fgcolour">#ffffffff</property>
      <property name="bgcolour">#00000000</property>
      <property name="olcolour">#aa000000</property>
      <property name="pad">0</property>
      <property name="halign">left</property>
      <property name="valign">middle</property>
      <property name="outline">0</property>
      <property name="mlt_service">dynamictext</property>
      <property name="shotcut:filter">dynamicText</property>
      <property name="shotcut:usePointSize">1</property>
      <property name="shotcut:animIn">00:00:00.000</property>
      <property name="shotcut:animOut">00:00:00.000</property>
      <property name="shotcut:pointSize">48</property>
      <property name="disable">0</property>
    </filter>
    <filter id="filter76" out="00:00:02.520">
      <property name="start">1</property>
      <property name="level">1</property>
      <property name="mlt_service">brightness</property>
      <property name="shotcut:filter">fadeOutBrightness</property>
      <property name="alpha">00:00:02.240=1;00:00:02.520=0</property>
      <property name="shotcut:animOut">00:00:00.320</property>
    </filter>
    <filter id="filter77" out="00:00:02.520">
      <property name="start">1</property>
      <property name="level">1</property>
      <property name="mlt_service">brightness</property>
      <property name="shotcut:filter">fadeInBrightness</property>
      <property name="alpha">00:00:00.000=0;00:00:00.280=1</property>
      <property name="shotcut:animIn">00:00:00.320</property>
    </filter>
    <filter id="filter78" out="00:00:02.520">
      <property name="background">color:#00000000</property>
      <property name="mlt_service">affine</property>
      <property name="shotcut:filter">affineSizePosition</property>
      <property name="transition.fill">1</property>
      <property name="transition.distort">0</property>
      <property name="transition.rect">00:00:00.000=0 0 720 540 1;00:00:01.320=-5.04 -4 730.08 548 1;00:00:02.520=0 0 720 540 1</property>
      <property name="transition.valign">middle</property>
      <property name="transition.halign">center</property>
      <property name="shotcut:animIn">00:00:01.120</property>
      <property name="shotcut:animOut">00:00:01.240</property>
      <property name="transition.threads">0</property>
      <property name="transition.fix_rotate_x">00:00:00.000=0;00:00:01.320=0;00:00:02.520=0</property>
    </filter>
  </producer>
  <producer id="producer41" in="00:00:00.000" out="03:59:59.960">
    <property name="length">04:00:00.000</property>
    <property name="eof">pause</property>
    <property name="resource">#00000000</property>
    <property name="aspect_ratio">1</property>
    <property name="mlt_service">color</property>
    <property name="mlt_image_format">rgb24a</property>
    <property name="shotcut:caption">transparent</property>
    <property name="shotcut:detail">transparent</property>
    <property name="ignore_points">0</property>
    <property name="global_feed">1</property>
    <property name="xml">was here</property>
    <property name="seekable">1</property>
    <filter id="filter79" out="00:00:02.520">
      <property name="argument">гам + та = Дхам</property>
      <property name="geometry">26 422 448 87 1</property>
      <property name="family">Jost</property>
      <property name="size">48</property>
      <property name="weight">630</property>
      <property name="style">normal</property>
      <property name="fgcolour">#ffffffff</property>
      <property name="bgcolour">#00000000</property>
      <property name="olcolour">#aa000000</property>
      <property name="pad">0</property>
      <property name="halign">center</property>
      <property name="valign">middle</property>
      <property name="outline">0</property>
      <property name="mlt_service">dynamictext</property>
      <property name="shotcut:filter">dynamicText</property>
      <property name="shotcut:usePointSize">1</property>
      <property name="shotcut:animIn">00:00:00.000</property>
      <property name="shotcut:animOut">00:00:00.000</property>
      <property name="shotcut:pointSize">48</property>
      <property name="disable">0</property>
    </filter>
    <filter id="filter80" out="00:00:02.520">
      <property name="argument">(открытый)</property>
      <property name="geometry">449 418 200 94 1</property>
      <property name="family">Jost</property>
      <property name="size">48</property>
      <property name="weight">500</property>
      <property name="style">normal</property>
      <property name="fgcolour">#ffffffff</property>
      <property name="bgcolour">#00000000</property>
      <property name="olcolour">#aa000000</property>
      <property name="pad">0</property>
      <property name="halign">left</property>
      <property name="valign">middle</property>
      <property name="outline">0</property>
      <property name="mlt_service">dynamictext</property>
      <property name="shotcut:filter">dynamicText</property>
      <property name="shotcut:usePointSize">1</property>
      <property name="shotcut:animIn">00:00:00.000</property>
      <property name="shotcut:animOut">00:00:00.000</property>
      <property name="shotcut:pointSize">48</property>
      <property name="disable">0</property>
    </filter>
    <filter id="filter81" out="00:00:02.520">
      <property name="start">1</property>
      <property name="level">1</property>
      <property name="mlt_service">brightness</property>
      <property name="shotcut:filter">fadeOutBrightness</property>
      <property name="alpha">00:00:02.240=1;00:00:02.520=0</property>
      <property name="shotcut:animOut">00:00:00.320</property>
    </filter>
    <filter id="filter82" out="00:00:02.520">
      <property name="start">1</property>
      <property name="level">1</property>
      <property name="mlt_service">brightness</property>
      <property name="shotcut:filter">fadeInBrightness</property>
      <property name="alpha">00:00:00.000=0;00:00:00.280=1</property>
      <property name="shotcut:animIn">00:00:00.320</property>
    </filter>
    <filter id="filter83" out="00:00:02.520">
      <property name="background">color:#00000000</property>
      <property name="mlt_service">affine</property>
      <property name="shotcut:filter">affineSizePosition</property>
      <property name="transition.fill">1</property>
      <property name="transition.distort">0</property>
      <property name="transition.rect">00:00:00.000=0 0 720 540 1;00:00:01.320=-5.04 -4 730.08 548 1;00:00:02.520=0 0 720 540 1</property>
      <property name="transition.valign">middle</property>
      <property name="transition.halign">center</property>
      <property name="shotcut:animIn">00:00:01.120</property>
      <property name="shotcut:animOut">00:00:01.240</property>
      <property name="transition.threads">0</property>
      <property name="transition.fix_rotate_x">00:00:00.000=0;00:00:01.320=0;00:00:02.520=0</property>
    </filter>
  </producer>
  <producer id="producer42" in="00:00:00.000" out="03:59:59.960">
    <property name="length">04:00:00.000</property>
    <property name="eof">pause</property>
    <property name="resource">#00000000</property>
    <property name="aspect_ratio">1</property>
    <property name="mlt_service">color</property>
    <property name="mlt_image_format">rgb24a</property>
    <property name="shotcut:caption">transparent</property>
    <property name="shotcut:detail">transparent</property>
    <property name="ignore_points">0</property>
    <property name="global_feed">1</property>
    <property name="xml">was here</property>
    <property name="seekable">1</property>
    <filter id="filter84" out="00:00:02.520">
      <property name="argument">гам + те = Дхем</property>
      <property name="geometry">26 422 448 87 1</property>
      <property name="family">Jost</property>
      <property name="size">48</property>
      <property name="weight">630</property>
      <property name="style">normal</property>
      <property name="fgcolour">#ffffffff</property>
      <property name="bgcolour">#00000000</property>
      <property name="olcolour">#aa000000</property>
      <property name="pad">0</property>
      <property name="halign">center</property>
      <property name="valign">middle</property>
      <property name="outline">0</property>
      <property name="mlt_service">dynamictext</property>
      <property name="shotcut:filter">dynamicText</property>
      <property name="shotcut:usePointSize">1</property>
      <property name="shotcut:animIn">00:00:00.000</property>
      <property name="shotcut:animOut">00:00:00.000</property>
      <property name="shotcut:pointSize">48</property>
      <property name="disable">0</property>
    </filter>
    <filter id="filter85" out="00:00:02.520">
      <property name="argument">(открытый)</property>
      <property name="geometry">449 418 200 94 1</property>
      <property name="family">Jost</property>
      <property name="size">48</property>
      <property name="weight">500</property>
      <property name="style">normal</property>
      <property name="fgcolour">#ffffffff</property>
      <property name="bgcolour">#00000000</property>
      <property name="olcolour">#aa000000</property>
      <property name="pad">0</property>
      <property name="halign">left</property>
      <property name="valign">middle</property>
      <property name="outline">0</property>
      <property name="mlt_service">dynamictext</property>
      <property name="shotcut:filter">dynamicText</property>
      <property name="shotcut:usePointSize">1</property>
      <property name="shotcut:animIn">00:00:00.000</property>
      <property name="shotcut:animOut">00:00:00.000</property>
      <property name="shotcut:pointSize">48</property>
      <property name="disable">0</property>
    </filter>
    <filter id="filter86" out="00:00:02.520">
      <property name="start">1</property>
      <property name="level">1</property>
      <property name="mlt_service">brightness</property>
      <property name="shotcut:filter">fadeOutBrightness</property>
      <property name="alpha">00:00:02.240=1;00:00:02.520=0</property>
      <property name="shotcut:animOut">00:00:00.320</property>
    </filter>
    <filter id="filter87" out="00:00:02.520">
      <property name="start">1</property>
      <property name="level">1</property>
      <property name="mlt_service">brightness</property>
      <property name="shotcut:filter">fadeInBrightness</property>
      <property name="alpha">00:00:00.000=0;00:00:00.280=1</property>
      <property name="shotcut:animIn">00:00:00.320</property>
    </filter>
    <filter id="filter88" out="00:00:02.520">
      <property name="background">color:#00000000</property>
      <property name="mlt_service">affine</property>
      <property name="shotcut:filter">affineSizePosition</property>
      <property name="transition.fill">1</property>
      <property name="transition.distort">0</property>
      <property name="transition.rect">00:00:00.000=0 0 720 540 1;00:00:01.320=-5.04 -4 730.08 548 1;00:00:02.520=0 0 720 540 1</property>
      <property name="transition.valign">middle</property>
      <property name="transition.halign">center</property>
      <property name="shotcut:animIn">00:00:01.120</property>
      <property name="shotcut:animOut">00:00:01.240</property>
      <property name="transition.threads">0</property>
      <property name="transition.fix_rotate_x">00:00:00.000=0;00:00:01.320=0;00:00:02.520=0</property>
    </filter>
  </producer>
  <playlist id="playlist3">
    <property name="shotcut:video">1</property>
    <property name="shotcut:name">V2</property>
    <blank length="00:00:02.120"/>
    <entry producer="producer32" in="00:00:00.000" out="00:00:02.360"/>
    <blank length="00:00:11.920"/>
    <entry producer="producer29" in="00:00:00.000" out="00:00:02.200"/>
    <blank length="00:01:17.440"/>
    <entry producer="producer30" in="00:00:00.000" out="00:00:02.200"/>
    <blank length="00:01:25.680"/>
    <entry producer="producer31" in="00:00:00.000" out="00:00:02.200"/>
    <blank length="00:00:12.120"/>
    <entry producer="producer33" in="00:00:00.000" out="00:00:02.200"/>
    <blank length="00:01:36.040"/>
    <entry producer="producer34" in="00:00:00.000" out="00:00:02.200"/>
    <blank length="00:00:37.000"/>
    <entry producer="producer35" in="00:00:00.000" out="00:00:02.200"/>
    <blank length="00:01:07.200"/>
    <entry producer="producer36" in="00:00:00.000" out="00:00:02.200"/>
    <blank length="00:01:42.920"/>
    <entry producer="producer37" in="00:00:00.000" out="00:00:02.520"/>
    <blank length="00:00:06.520"/>
    <entry producer="producer38" in="00:00:00.000" out="00:00:02.520"/>
    <blank length="00:00:05.000"/>
    <entry producer="producer39" in="00:00:00.000" out="00:00:02.520"/>
    <blank length="00:00:05.240"/>
    <entry producer="producer40" in="00:00:00.000" out="00:00:02.520"/>
    <blank length="00:00:02.680"/>
    <entry producer="producer41" in="00:00:00.000" out="00:00:02.520"/>
    <blank length="00:00:06.680"/>
    <entry producer="producer42" in="00:00:00.000" out="00:00:02.520"/>
  </playlist>
  <playlist id="playlist2">
    <property name="shotcut:audio">1</property>
    <property name="shotcut:name">A1</property>
    <blank length="00:00:00.040"/>
  </playlist>
  <tractor id="tractor13" title="Shotcut version 21.01.29" global_feed="1" in="00:00:00.000" out="00:09:16.240">
    <property name="shotcut">1</property>
    <property name="shotcut:projectAudioChannels">2</property>
    <property name="shotcut:projectFolder">1</property>
    <property name="shotcut:scaleFactor">1.15933</property>
    <property name="shotcut:trackHeight">52</property>
    <track producer="background"/>
    <track producer="playlist0"/>
    <track producer="playlist3"/>
    <track producer="playlist2" hide="video"/>
    <transition id="transition26">
      <property name="a_track">0</property>
      <property name="b_track">1</property>
      <property name="mlt_service">mix</property>
      <property name="always_active">1</property>
      <property name="sum">1</property>
    </transition>
    <transition id="transition27">
      <property name="a_track">0</property>
      <property name="b_track">1</property>
      <property name="version">0.9</property>
      <property name="mlt_service">frei0r.cairoblend</property>
      <property name="threads">0</property>
      <property name="disable">1</property>
    </transition>
    <transition id="transition28">
      <property name="a_track">0</property>
      <property name="b_track">2</property>
      <property name="mlt_service">mix</property>
      <property name="always_active">1</property>
      <property name="sum">1</property>
    </transition>
    <transition id="transition29">
      <property name="a_track">1</property>
      <property name="b_track">2</property>
      <property name="version">0.9</property>
      <property name="mlt_service">frei0r.cairoblend</property>
      <property name="threads">0</property>
      <property name="disable">0</property>
    </transition>
    <transition id="transition30">
      <property name="a_track">0</property>
      <property name="b_track">3</property>
      <property name="mlt_service">mix</property>
      <property name="always_active">1</property>
      <property name="sum">1</property>
    </transition>
  </tractor>
</mlt>
