<?xml version="1.0" standalone="no"?>
<mlt LC_NUMERIC="C" version="6.25.0" title="Shotcut version 21.01.29" producer="main_bin">
  <profile description="automatic" width="720" height="540" progressive="1" sample_aspect_num="1" sample_aspect_den="1" display_aspect_num="720" display_aspect_den="540" frame_rate_num="25" frame_rate_den="1" colorspace="601"/>
  <producer id="producer0" in="00:00:00.000" out="00:01:58.800">
    <property name="length">00:01:58.840</property>
    <property name="eof">pause</property>
    <property name="resource">/Users/div/projects/laghu-sangitamrita/media/Мриданга/08 - Дубль кахарва тал/1 - Д. - хакарва тал/01 - Мантра 1.avi</property>
    <property name="audio_index">1</property>
    <property name="video_index">0</property>
    <property name="mute_on_pause">0</property>
    <property name="mlt_service">avformat-novalidate</property>
    <property name="seekable">1</property>
    <property name="aspect_ratio">1</property>
    <property name="creation_time">2021-02-01T20:43:42</property>
    <property name="global_feed">1</property>
    <property name="xml">was here</property>
    <property name="shotcut:hash">cb4e84f34516e0cfdb6b9e2c54185508</property>
  </producer>
  <producer id="producer1" in="00:00:00.000" out="00:01:22.040">
    <property name="length">00:01:22.080</property>
    <property name="eof">pause</property>
    <property name="resource">/Users/div/projects/laghu-sangitamrita/media/Мриданга/08 - Дубль кахарва тал/1 - Д. - хакарва тал/02 - Мантра 2.avi</property>
    <property name="audio_index">1</property>
    <property name="video_index">0</property>
    <property name="mute_on_pause">0</property>
    <property name="mlt_service">avformat-novalidate</property>
    <property name="seekable">1</property>
    <property name="aspect_ratio">1</property>
    <property name="creation_time">2021-02-01T20:43:48</property>
    <property name="global_feed">1</property>
    <property name="xml">was here</property>
    <property name="shotcut:hash">eab8a2b95d6c3af3b833062a22b3d294</property>
  </producer>
  <producer id="producer2" in="00:00:00.000" out="00:00:46.880">
    <property name="length">00:00:46.920</property>
    <property name="eof">pause</property>
    <property name="resource">/Users/div/projects/laghu-sangitamrita/media/Мриданга/08 - Дубль кахарва тал/1 - Д. - хакарва тал/03 - Мантра 3.avi</property>
    <property name="audio_index">1</property>
    <property name="video_index">0</property>
    <property name="mute_on_pause">0</property>
    <property name="mlt_service">avformat-novalidate</property>
    <property name="seekable">1</property>
    <property name="aspect_ratio">1</property>
    <property name="creation_time">2021-02-01T20:43:58</property>
    <property name="global_feed">1</property>
    <property name="xml">was here</property>
    <property name="shotcut:hash">430283ed4a2dfdcbf876cbf29e9d4c29</property>
  </producer>
  <producer id="producer3" in="00:00:00.000" out="00:01:06.000">
    <property name="length">00:01:06.040</property>
    <property name="eof">pause</property>
    <property name="resource">/Users/div/projects/laghu-sangitamrita/media/Мриданга/08 - Дубль кахарва тал/1 - Д. - хакарва тал/04 - Мантра 4.avi</property>
    <property name="audio_index">1</property>
    <property name="video_index">0</property>
    <property name="mute_on_pause">0</property>
    <property name="mlt_service">avformat-novalidate</property>
    <property name="seekable">1</property>
    <property name="aspect_ratio">1</property>
    <property name="creation_time">2021-02-01T20:44:00</property>
    <property name="global_feed">1</property>
    <property name="xml">was here</property>
    <property name="shotcut:hash">33699956f66eb9efbdfb531c1c78593c</property>
  </producer>
  <playlist id="main_bin" title="Shotcut version 21.01.29">
    <property name="shotcut:projectAudioChannels">2</property>
    <property name="shotcut:projectFolder">1</property>
    <property name="xml_retain">1</property>
    <entry producer="producer0" in="00:00:00.000" out="00:01:58.800"/>
    <entry producer="producer1" in="00:00:00.000" out="00:01:22.040"/>
    <entry producer="producer2" in="00:00:00.000" out="00:00:46.880"/>
    <entry producer="producer3" in="00:00:00.000" out="00:01:06.000"/>
  </playlist>
  <producer id="black" in="00:00:00.000" out="00:05:13.200">
    <property name="length">00:05:13.240</property>
    <property name="eof">pause</property>
    <property name="resource">0</property>
    <property name="aspect_ratio">1</property>
    <property name="mlt_service">color</property>
    <property name="mlt_image_format">rgb24a</property>
    <property name="set.test_audio">0</property>
  </producer>
  <playlist id="background">
    <entry producer="black" in="00:00:00.000" out="00:05:13.200"/>
  </playlist>
  <producer id="producer4" in="00:00:00.000" out="00:01:58.800">
    <property name="length">00:01:58.840</property>
    <property name="eof">pause</property>
    <property name="resource">/Users/div/projects/laghu-sangitamrita/media/Мриданга/08 - Дубль кахарва тал/1 - Д. - хакарва тал/01 - Мантра 1.avi</property>
    <property name="audio_index">1</property>
    <property name="video_index">0</property>
    <property name="mute_on_pause">0</property>
    <property name="mlt_service">avformat-novalidate</property>
    <property name="seekable">1</property>
    <property name="aspect_ratio">1</property>
    <property name="creation_time">2021-02-01T20:43:42</property>
    <property name="global_feed">1</property>
    <property name="xml">was here</property>
    <property name="shotcut:hash">cb4e84f34516e0cfdb6b9e2c54185508</property>
    <property name="shotcut:caption">01 - Мантра 1.avi</property>
    <filter id="filter0" out="00:01:58.800">
      <property name="version">0.2</property>
      <property name="mlt_service">frei0r.IIRblur</property>
      <property name="shotcut:filter">blur_gaussian</property>
      <property name="1">0.99</property>
      <property name="0">00:00:01.440=0;00:00:01.880=0.39588;00:00:03.400=0.393617;00:00:03.720=0</property>
      <property name="shotcut:animIn">00:00:00.000</property>
      <property name="shotcut:animOut">00:00:00.000</property>
    </filter>
    <filter id="filter1" out="00:01:58.800">
      <property name="version">0.2</property>
      <property name="mlt_service">frei0r.c0rners</property>
      <property name="0">0.322667</property>
      <property name="1">0.333333</property>
      <property name="2">0.677333</property>
      <property name="3">0.333333</property>
      <property name="4">0.6773</property>
      <property name="5">0.666667</property>
      <property name="6">0.322667</property>
      <property name="7">0.666667</property>
      <property name="8">1</property>
      <property name="9">0.5</property>
      <property name="10">0.5</property>
      <property name="11">0.333333</property>
      <property name="12">1</property>
      <property name="14">0</property>
      <property name="13">0.01</property>
      <property name="shotcut:corner1">0.322667 0.333333 1 1</property>
      <property name="shotcut:corner2">0.677333 0.333333 1 1</property>
      <property name="shotcut:corner3">0.6773 0.666667 1 1</property>
      <property name="shotcut:corner4">0.322667 0.666667 1 1</property>
      <property name="shotcut:animIn">00:00:00.000</property>
      <property name="shotcut:animOut">00:00:00.000</property>
    </filter>
  </producer>
  <producer id="producer5" in="00:00:00.000" out="00:01:22.040">
    <property name="length">00:01:22.080</property>
    <property name="eof">pause</property>
    <property name="resource">/Users/div/projects/laghu-sangitamrita/media/Мриданга/08 - Дубль кахарва тал/1 - Д. - хакарва тал/02 - Мантра 2.avi</property>
    <property name="audio_index">1</property>
    <property name="video_index">0</property>
    <property name="mute_on_pause">0</property>
    <property name="mlt_service">avformat-novalidate</property>
    <property name="seekable">1</property>
    <property name="aspect_ratio">1</property>
    <property name="creation_time">2021-02-01T20:43:48</property>
    <property name="global_feed">1</property>
    <property name="xml">was here</property>
    <property name="shotcut:hash">eab8a2b95d6c3af3b833062a22b3d294</property>
    <property name="shotcut:caption">02 - Мантра 2.avi</property>
    <filter id="filter2" out="00:01:22.040">
      <property name="version">0.2</property>
      <property name="mlt_service">frei0r.c0rners</property>
      <property name="0">0.322667</property>
      <property name="1">0.333333</property>
      <property name="2">0.677333</property>
      <property name="3">0.333333</property>
      <property name="4">0.6773</property>
      <property name="5">0.666667</property>
      <property name="6">0.322667</property>
      <property name="7">0.666667</property>
      <property name="8">1</property>
      <property name="9">0.5</property>
      <property name="10">0.5</property>
      <property name="11">0.333333</property>
      <property name="12">1</property>
      <property name="14">0</property>
      <property name="13">0.01</property>
      <property name="shotcut:corner1">0.322667 0.333333 1 1</property>
      <property name="shotcut:corner2">0.677333 0.333333 1 1</property>
      <property name="shotcut:corner3">0.6773 0.666667 1 1</property>
      <property name="shotcut:corner4">0.322667 0.666667 1 1</property>
      <property name="shotcut:animIn">00:00:00.000</property>
      <property name="shotcut:animOut">00:00:00.000</property>
    </filter>
  </producer>
  <tractor id="tractor0" global_feed="1" in="00:00:00.000" out="00:00:00.080">
    <property name="shotcut:transition">lumaMix</property>
    <track producer="producer4" in="00:01:58.720" out="00:01:58.800"/>
    <track producer="producer5" in="00:00:00.000" out="00:00:00.080"/>
    <transition id="transition0" out="00:00:00.080">
      <property name="a_track">0</property>
      <property name="b_track">1</property>
      <property name="factory">loader</property>
      <property name="mlt_service">luma</property>
      <property name="alpha_over">1</property>
    </transition>
    <transition id="transition1" out="00:00:00.080">
      <property name="a_track">0</property>
      <property name="b_track">1</property>
      <property name="mlt_service">mix</property>
      <property name="start">-1</property>
      <property name="accepts_blanks">1</property>
    </transition>
  </tractor>
  <producer id="producer6" in="00:00:00.000" out="00:00:46.880">
    <property name="length">00:00:46.920</property>
    <property name="eof">pause</property>
    <property name="resource">/Users/div/projects/laghu-sangitamrita/media/Мриданга/08 - Дубль кахарва тал/1 - Д. - хакарва тал/03 - Мантра 3.avi</property>
    <property name="audio_index">1</property>
    <property name="video_index">0</property>
    <property name="mute_on_pause">0</property>
    <property name="mlt_service">avformat-novalidate</property>
    <property name="seekable">1</property>
    <property name="aspect_ratio">1</property>
    <property name="creation_time">2021-02-01T20:43:58</property>
    <property name="global_feed">1</property>
    <property name="xml">was here</property>
    <property name="shotcut:hash">430283ed4a2dfdcbf876cbf29e9d4c29</property>
    <property name="shotcut:caption">03 - Мантра 3.avi</property>
    <filter id="filter3" out="00:00:46.880">
      <property name="version">0.2</property>
      <property name="mlt_service">frei0r.c0rners</property>
      <property name="0">0.322667</property>
      <property name="1">0.333333</property>
      <property name="2">0.677333</property>
      <property name="3">0.333333</property>
      <property name="4">0.6773</property>
      <property name="5">0.666667</property>
      <property name="6">0.322667</property>
      <property name="7">0.666667</property>
      <property name="8">1</property>
      <property name="9">0.5</property>
      <property name="10">0.5</property>
      <property name="11">0.333333</property>
      <property name="12">1</property>
      <property name="14">0</property>
      <property name="13">0.01</property>
      <property name="shotcut:corner1">0.322667 0.333333 1 1</property>
      <property name="shotcut:corner2">0.677333 0.333333 1 1</property>
      <property name="shotcut:corner3">0.6773 0.666667 1 1</property>
      <property name="shotcut:corner4">0.322667 0.666667 1 1</property>
      <property name="shotcut:animIn">00:00:00.000</property>
      <property name="shotcut:animOut">00:00:00.000</property>
    </filter>
  </producer>
  <tractor id="tractor1" global_feed="1" in="00:00:00.000" out="00:00:00.200">
    <property name="shotcut:transition">lumaMix</property>
    <track producer="producer5" in="00:01:21.840" out="00:01:22.040"/>
    <track producer="producer6" in="00:00:00.000" out="00:00:00.200"/>
    <transition id="transition2" out="00:00:00.200">
      <property name="a_track">0</property>
      <property name="b_track">1</property>
      <property name="factory">loader</property>
      <property name="mlt_service">luma</property>
      <property name="alpha_over">1</property>
    </transition>
    <transition id="transition3" out="00:00:00.200">
      <property name="a_track">0</property>
      <property name="b_track">1</property>
      <property name="mlt_service">mix</property>
      <property name="start">-1</property>
      <property name="accepts_blanks">1</property>
    </transition>
  </tractor>
  <producer id="producer7" in="00:00:00.000" out="00:01:06.000">
    <property name="length">00:01:06.040</property>
    <property name="eof">pause</property>
    <property name="resource">/Users/div/projects/laghu-sangitamrita/media/Мриданга/08 - Дубль кахарва тал/1 - Д. - хакарва тал/04 - Мантра 4.avi</property>
    <property name="audio_index">1</property>
    <property name="video_index">0</property>
    <property name="mute_on_pause">0</property>
    <property name="mlt_service">avformat-novalidate</property>
    <property name="seekable">1</property>
    <property name="aspect_ratio">1</property>
    <property name="creation_time">2021-02-01T20:44:00</property>
    <property name="global_feed">1</property>
    <property name="xml">was here</property>
    <property name="shotcut:hash">33699956f66eb9efbdfb531c1c78593c</property>
    <property name="shotcut:caption">04 - Мантра 4.avi</property>
    <filter id="filter4" out="00:01:06.000">
      <property name="version">0.2</property>
      <property name="mlt_service">frei0r.c0rners</property>
      <property name="0">0.322667</property>
      <property name="1">0.333333</property>
      <property name="2">0.677333</property>
      <property name="3">0.333333</property>
      <property name="4">0.6773</property>
      <property name="5">0.666667</property>
      <property name="6">0.322667</property>
      <property name="7">0.666667</property>
      <property name="8">1</property>
      <property name="9">0.5</property>
      <property name="10">0.5</property>
      <property name="11">0.333333</property>
      <property name="12">1</property>
      <property name="14">0</property>
      <property name="13">0.01</property>
      <property name="shotcut:corner1">0.322667 0.333333 1 1</property>
      <property name="shotcut:corner2">0.677333 0.333333 1 1</property>
      <property name="shotcut:corner3">0.6773 0.666667 1 1</property>
      <property name="shotcut:corner4">0.322667 0.666667 1 1</property>
      <property name="shotcut:animIn">00:00:00.000</property>
      <property name="shotcut:animOut">00:00:00.000</property>
    </filter>
  </producer>
  <tractor id="tractor2" global_feed="1" in="00:00:00.000" out="00:00:00.240">
    <property name="shotcut:transition">lumaMix</property>
    <track producer="producer6" in="00:00:46.640" out="00:00:46.880"/>
    <track producer="producer7" in="00:00:00.000" out="00:00:00.240"/>
    <transition id="transition4" out="00:00:00.240">
      <property name="a_track">0</property>
      <property name="b_track">1</property>
      <property name="factory">loader</property>
      <property name="mlt_service">luma</property>
      <property name="alpha_over">1</property>
    </transition>
    <transition id="transition5" out="00:00:00.240">
      <property name="a_track">0</property>
      <property name="b_track">1</property>
      <property name="mlt_service">mix</property>
      <property name="start">-1</property>
      <property name="accepts_blanks">1</property>
    </transition>
  </tractor>
  <playlist id="playlist0">
    <property name="shotcut:video">1</property>
    <property name="shotcut:name">V1</property>
    <entry producer="producer4" in="00:00:00.000" out="00:01:58.680"/>
    <entry producer="tractor0" in="00:00:00.000" out="00:00:00.080"/>
    <entry producer="producer5" in="00:00:00.120" out="00:01:21.800"/>
    <entry producer="tractor1" in="00:00:00.000" out="00:00:00.200"/>
    <entry producer="producer6" in="00:00:00.240" out="00:00:46.600"/>
    <entry producer="tractor2" in="00:00:00.000" out="00:00:00.240"/>
    <entry producer="producer7" in="00:00:00.280" out="00:01:06.000"/>
  </playlist>
  <producer id="producer32" in="00:00:00.000" out="03:59:59.960">
    <property name="length">04:00:00.000</property>
    <property name="eof">pause</property>
    <property name="resource">#00000000</property>
    <property name="aspect_ratio">1</property>
    <property name="mlt_service">color</property>
    <property name="mlt_image_format">rgb24a</property>
    <property name="shotcut:caption">transparent</property>
    <property name="shotcut:detail">transparent</property>
    <property name="ignore_points">0</property>
    <property name="global_feed">1</property>
    <property name="xml">was here</property>
    <property name="seekable">1</property>
    <filter id="filter6" in="00:00:00.600" out="00:00:02.880">
      <property name="argument">Уроки Игры на Мриданге</property>
      <property name="geometry">111 128 498 77 1</property>
      <property name="family">Jost</property>
      <property name="size">32</property>
      <property name="weight">500</property>
      <property name="style">normal</property>
      <property name="fgcolour">#ffffffff</property>
      <property name="bgcolour">#00000000</property>
      <property name="olcolour">#aa000000</property>
      <property name="pad">0</property>
      <property name="halign">center</property>
      <property name="valign">top</property>
      <property name="outline">0</property>
      <property name="mlt_service">dynamictext</property>
      <property name="shotcut:filter">dynamicText</property>
      <property name="shotcut:usePointSize">1</property>
      <property name="shotcut:pointSize">32</property>
      <property name="shotcut:animIn">00:00:00.000</property>
      <property name="shotcut:animOut">00:00:00.000</property>
    </filter>
    <filter id="filter7" in="00:00:00.600" out="00:00:02.880">
      <property name="argument">9. Д-Кахарва Тал</property>
      <property name="geometry">0 154 701 189 1</property>
      <property name="family">Jost</property>
      <property name="size">64</property>
      <property name="weight">750</property>
      <property name="style">normal</property>
      <property name="fgcolour">#ffffffff</property>
      <property name="bgcolour">#00000000</property>
      <property name="olcolour">#aa000000</property>
      <property name="pad">0</property>
      <property name="halign">center</property>
      <property name="valign">middle</property>
      <property name="outline">0</property>
      <property name="mlt_service">dynamictext</property>
      <property name="shotcut:filter">dynamicText</property>
      <property name="shotcut:usePointSize">1</property>
      <property name="shotcut:animIn">00:00:00.000</property>
      <property name="shotcut:animOut">00:00:00.000</property>
      <property name="shotcut:pointSize">64</property>
    </filter>
    <filter id="filter8" in="00:00:00.600" out="00:00:02.880">
      <property name="argument">Средний темп</property>
      <property name="geometry">180 236 360 129 1</property>
      <property name="family">Jost</property>
      <property name="size">48</property>
      <property name="weight">570</property>
      <property name="style">italic</property>
      <property name="fgcolour">#ffffffff</property>
      <property name="bgcolour">#00000000</property>
      <property name="olcolour">#aa000000</property>
      <property name="pad">0</property>
      <property name="halign">center</property>
      <property name="valign">bottom</property>
      <property name="outline">0</property>
      <property name="mlt_service">dynamictext</property>
      <property name="shotcut:filter">dynamicText</property>
      <property name="shotcut:usePointSize">1</property>
      <property name="shotcut:animIn">00:00:00.000</property>
      <property name="shotcut:animOut">00:00:00.000</property>
      <property name="shotcut:pointSize">48</property>
      <property name="disable">1</property>
    </filter>
    <filter id="filter9" in="00:00:00.600" out="00:00:02.880">
      <property name="argument">Размер 4/4</property>
      <property name="geometry">114 350 492 146 1</property>
      <property name="family">Jost</property>
      <property name="size">48</property>
      <property name="weight">570</property>
      <property name="style">normal</property>
      <property name="fgcolour">#ffffffff</property>
      <property name="bgcolour">#00000000</property>
      <property name="olcolour">#aaffffff</property>
      <property name="pad">0</property>
      <property name="halign">center</property>
      <property name="valign">middle</property>
      <property name="outline">0</property>
      <property name="mlt_service">dynamictext</property>
      <property name="shotcut:filter">dynamicText</property>
      <property name="shotcut:usePointSize">1</property>
      <property name="shotcut:animIn">00:00:00.000</property>
      <property name="shotcut:animOut">00:00:00.000</property>
      <property name="shotcut:pointSize">48</property>
      <property name="disable">0</property>
    </filter>
    <filter id="filter10" in="00:00:00.600" out="00:00:02.880">
      <property name="start">1</property>
      <property name="level">1</property>
      <property name="mlt_service">brightness</property>
      <property name="shotcut:filter">fadeOutBrightness</property>
      <property name="alpha">00:00:01.880=1;00:00:02.280=0</property>
      <property name="shotcut:animOut">00:00:00.440</property>
    </filter>
    <filter id="filter11" in="00:00:00.600" out="00:00:02.880">
      <property name="background">color:#00000000</property>
      <property name="mlt_service">affine</property>
      <property name="shotcut:filter">affineSizePosition</property>
      <property name="transition.fill">1</property>
      <property name="transition.distort">0</property>
      <property name="transition.rect">00:00:00.000=0 0 720 540 1;00:00:00.600=-5.04 -4 730.08 548 1;00:00:01.800=0 0 720 540 1</property>
      <property name="transition.valign">middle</property>
      <property name="transition.halign">center</property>
      <property name="shotcut:animIn">00:00:01.120</property>
      <property name="shotcut:animOut">00:00:01.240</property>
      <property name="transition.threads">0</property>
      <property name="transition.fix_rotate_x">00:00:00.000=0;00:00:00.600=0;00:00:01.800=0</property>
    </filter>
    <filter id="filter12" in="00:00:00.600" out="00:00:02.880">
      <property name="start">1</property>
      <property name="hori">00:00:00.000=5.18636;00:00:00.760=0</property>
      <property name="vert">00:00:00.000=6.98458;00:00:00.600=0</property>
      <property name="mlt_service">boxblur</property>
      <property name="shotcut:animIn">00:00:00.000</property>
      <property name="shotcut:animOut">00:00:00.000</property>
    </filter>
    <filter id="filter13" in="00:00:00.600" out="00:00:02.880">
      <property name="version">0.2</property>
      <property name="mlt_service">frei0r.premultiply</property>
      <property name="threads">0</property>
      <property name="0">1</property>
    </filter>
    <filter id="filter14" in="00:00:00.600" out="00:00:02.880">
      <property name="start">1</property>
      <property name="level">1</property>
      <property name="mlt_service">brightness</property>
      <property name="shotcut:filter">fadeInBrightness</property>
      <property name="alpha">00:00:00.000=0;00:00:00.400=1</property>
      <property name="shotcut:animIn">00:00:00.440</property>
    </filter>
  </producer>
  <producer id="producer28" in="00:00:00.000" out="03:59:59.960">
    <property name="length">04:00:00.000</property>
    <property name="eof">pause</property>
    <property name="resource">#00000000</property>
    <property name="aspect_ratio">1</property>
    <property name="mlt_service">color</property>
    <property name="mlt_image_format">rgb24a</property>
    <property name="shotcut:caption">transparent</property>
    <property name="shotcut:detail">transparent</property>
    <property name="ignore_points">0</property>
    <property name="global_feed">1</property>
    <property name="xml">was here</property>
    <property name="seekable">1</property>
    <filter id="filter16" in="00:00:04.760" out="00:00:05.840">
      <property name="argument">Мантра 1</property>
      <property name="geometry">83 415 555 91 1</property>
      <property name="family">Jost</property>
      <property name="size">48</property>
      <property name="weight">630</property>
      <property name="style">normal</property>
      <property name="fgcolour">#ffffffff</property>
      <property name="bgcolour">#00000000</property>
      <property name="olcolour">#aa000000</property>
      <property name="pad">0</property>
      <property name="halign">center</property>
      <property name="valign">middle</property>
      <property name="outline">0</property>
      <property name="mlt_service">dynamictext</property>
      <property name="shotcut:filter">dynamicText</property>
      <property name="shotcut:usePointSize">1</property>
      <property name="shotcut:animIn">00:00:00.000</property>
      <property name="shotcut:animOut">00:00:00.000</property>
      <property name="shotcut:pointSize">48</property>
      <property name="disable">0</property>
    </filter>
    <filter id="filter17" in="00:00:04.760" out="00:00:05.840">
      <property name="argument"></property>
      <property name="geometry">72 412 576 107 1</property>
      <property name="family">Jost</property>
      <property name="size">48</property>
      <property name="weight">500</property>
      <property name="style">normal</property>
      <property name="fgcolour">#ffffffff</property>
      <property name="bgcolour">#00000000</property>
      <property name="olcolour">#aa000000</property>
      <property name="pad">0</property>
      <property name="halign">center</property>
      <property name="valign">middle</property>
      <property name="outline">0</property>
      <property name="mlt_service">dynamictext</property>
      <property name="shotcut:filter">dynamicText</property>
      <property name="shotcut:usePointSize">1</property>
      <property name="shotcut:animIn">00:00:00.000</property>
      <property name="shotcut:animOut">00:00:00.000</property>
      <property name="shotcut:pointSize">48</property>
      <property name="disable">1</property>
    </filter>
    <filter id="filter18" in="00:00:04.760" out="00:00:05.840">
      <property name="start">1</property>
      <property name="level">1</property>
      <property name="mlt_service">brightness</property>
      <property name="shotcut:filter">fadeOutBrightness</property>
      <property name="alpha">00:00:00.800=1;00:00:01.080=0</property>
      <property name="shotcut:animOut">00:00:00.320</property>
    </filter>
    <filter id="filter19" in="00:00:04.760" out="00:00:05.840">
      <property name="start">1</property>
      <property name="level">1</property>
      <property name="mlt_service">brightness</property>
      <property name="shotcut:filter">fadeInBrightness</property>
      <property name="alpha">00:00:00.000=0;00:00:00.280=1</property>
      <property name="shotcut:animIn">00:00:00.320</property>
    </filter>
    <filter id="filter20" in="00:00:04.760" out="00:00:05.840">
      <property name="background">color:#00000000</property>
      <property name="mlt_service">affine</property>
      <property name="shotcut:filter">affineSizePosition</property>
      <property name="transition.fill">1</property>
      <property name="transition.distort">0</property>
      <property name="transition.rect">00:00:00.000=0 0 720 540 1;00:00:00.280=-5.04 -4 730.08 548 1;00:00:01.480=0 0 720 540 1</property>
      <property name="transition.valign">middle</property>
      <property name="transition.halign">center</property>
      <property name="shotcut:animIn">00:00:01.120</property>
      <property name="shotcut:animOut">00:00:01.240</property>
      <property name="transition.threads">0</property>
      <property name="transition.fix_rotate_x">00:00:00.000=0;00:00:00.280=0;00:00:01.480=0</property>
    </filter>
  </producer>
  <producer id="producer8" in="00:00:00.000" out="03:59:59.960">
    <property name="length">04:00:00.000</property>
    <property name="eof">pause</property>
    <property name="resource">#00000000</property>
    <property name="aspect_ratio">1</property>
    <property name="mlt_service">color</property>
    <property name="mlt_image_format">rgb24a</property>
    <property name="shotcut:caption">transparent</property>
    <property name="shotcut:detail">transparent</property>
    <property name="ignore_points">0</property>
    <property name="global_feed">1</property>
    <property name="xml">was here</property>
    <property name="seekable">1</property>
    <filter id="filter15" in="00:00:00.520" out="00:00:05.360">
      <property name="argument">та</property>
      <property name="geometry">-18 424 431 88 1</property>
      <property name="family">Jost</property>
      <property name="size">48</property>
      <property name="weight">630</property>
      <property name="style">normal</property>
      <property name="fgcolour">#ffffffff</property>
      <property name="bgcolour">#00000000</property>
      <property name="olcolour">#aa000000</property>
      <property name="pad">0</property>
      <property name="halign">center</property>
      <property name="valign">middle</property>
      <property name="outline">0</property>
      <property name="mlt_service">dynamictext</property>
      <property name="shotcut:filter">dynamicText</property>
      <property name="shotcut:usePointSize">1</property>
      <property name="shotcut:animIn">00:00:00.000</property>
      <property name="shotcut:animOut">00:00:00.000</property>
      <property name="shotcut:pointSize">48</property>
      <property name="disable">1</property>
    </filter>
    <filter id="filter21" in="00:00:00.520" out="00:00:05.360">
      <property name="argument">Дхе – та Дхар ǀ те га Дха та</property>
      <property name="geometry">76 383 574 148 1</property>
      <property name="family">Jost</property>
      <property name="size">48</property>
      <property name="weight">500</property>
      <property name="style">normal</property>
      <property name="fgcolour">#ffffffff</property>
      <property name="bgcolour">#00000000</property>
      <property name="olcolour">#aa000000</property>
      <property name="pad">0</property>
      <property name="halign">center</property>
      <property name="valign">middle</property>
      <property name="outline">0</property>
      <property name="mlt_service">dynamictext</property>
      <property name="shotcut:filter">dynamicText</property>
      <property name="shotcut:usePointSize">1</property>
      <property name="shotcut:animIn">00:00:00.000</property>
      <property name="shotcut:animOut">00:00:00.000</property>
      <property name="shotcut:pointSize">48</property>
      <property name="disable">0</property>
    </filter>
    <filter id="filter22" in="00:00:00.520" out="00:00:05.360">
      <property name="start">1</property>
      <property name="level">1</property>
      <property name="mlt_service">brightness</property>
      <property name="shotcut:filter">fadeOutBrightness</property>
      <property name="alpha">00:00:04.560=1;00:00:04.840=0</property>
      <property name="shotcut:animOut">00:00:00.320</property>
    </filter>
    <filter id="filter23" in="00:00:00.520" out="00:00:05.360">
      <property name="start">1</property>
      <property name="level">1</property>
      <property name="mlt_service">brightness</property>
      <property name="shotcut:filter">fadeInBrightness</property>
      <property name="alpha">00:00:00.000=0;00:00:00.280=1</property>
      <property name="shotcut:animIn">00:00:00.320</property>
    </filter>
    <filter id="filter24" in="00:00:00.520" out="00:00:05.360">
      <property name="background">color:#00000000</property>
      <property name="mlt_service">affine</property>
      <property name="shotcut:filter">affineSizePosition</property>
      <property name="transition.fill">1</property>
      <property name="transition.distort">0</property>
      <property name="transition.rect">00:00:00.000=0 0 720 540 1;00:00:03.640=-5.04 -4 730.08 548 1;00:00:04.840=0 0 720 540 1</property>
      <property name="transition.valign">middle</property>
      <property name="transition.halign">center</property>
      <property name="shotcut:animIn">00:00:01.120</property>
      <property name="shotcut:animOut">00:00:01.240</property>
      <property name="transition.threads">0</property>
      <property name="transition.fix_rotate_x">00:00:00.000=0;00:00:03.640=0;00:00:04.840=0</property>
    </filter>
  </producer>
  <producer id="producer9" in="00:00:00.000" out="03:59:59.960">
    <property name="length">04:00:00.000</property>
    <property name="eof">pause</property>
    <property name="resource">#00000000</property>
    <property name="aspect_ratio">1</property>
    <property name="mlt_service">color</property>
    <property name="mlt_image_format">rgb24a</property>
    <property name="shotcut:caption">transparent</property>
    <property name="shotcut:detail">transparent</property>
    <property name="ignore_points">0</property>
    <property name="global_feed">1</property>
    <property name="xml">was here</property>
    <property name="seekable">1</property>
    <filter id="filter5" in="00:00:00.520" out="00:00:03.840">
      <property name="argument">та</property>
      <property name="geometry">-18 424 431 88 1</property>
      <property name="family">Jost</property>
      <property name="size">48</property>
      <property name="weight">630</property>
      <property name="style">normal</property>
      <property name="fgcolour">#ffffffff</property>
      <property name="bgcolour">#00000000</property>
      <property name="olcolour">#aa000000</property>
      <property name="pad">0</property>
      <property name="halign">center</property>
      <property name="valign">middle</property>
      <property name="outline">0</property>
      <property name="mlt_service">dynamictext</property>
      <property name="shotcut:filter">dynamicText</property>
      <property name="shotcut:usePointSize">1</property>
      <property name="shotcut:animIn">00:00:00.000</property>
      <property name="shotcut:animOut">00:00:00.000</property>
      <property name="shotcut:pointSize">48</property>
      <property name="disable">1</property>
    </filter>
    <filter id="filter25" in="00:00:00.520" out="00:00:03.840">
      <property name="argument">Дхе – та Дхар ǀ те га Дха та   </property>
      <property name="geometry">76 383 574 148 1</property>
      <property name="family">Jost</property>
      <property name="size">48</property>
      <property name="weight">500</property>
      <property name="style">normal</property>
      <property name="fgcolour">#ffffffff</property>
      <property name="bgcolour">#00000000</property>
      <property name="olcolour">#aa000000</property>
      <property name="pad">0</property>
      <property name="halign">center</property>
      <property name="valign">middle</property>
      <property name="outline">0</property>
      <property name="mlt_service">dynamictext</property>
      <property name="shotcut:filter">dynamicText</property>
      <property name="shotcut:usePointSize">1</property>
      <property name="shotcut:animIn">00:00:00.000</property>
      <property name="shotcut:animOut">00:00:00.000</property>
      <property name="shotcut:pointSize">48</property>
      <property name="disable">0</property>
    </filter>
    <filter id="filter26" in="00:00:00.520" out="00:00:03.840">
      <property name="start">1</property>
      <property name="level">1</property>
      <property name="mlt_service">brightness</property>
      <property name="shotcut:filter">fadeOutBrightness</property>
      <property name="alpha">00:00:03.040=1;00:00:03.320=0</property>
      <property name="shotcut:animOut">00:00:00.320</property>
    </filter>
    <filter id="filter27" in="00:00:00.520" out="00:00:03.840">
      <property name="start">1</property>
      <property name="level">1</property>
      <property name="mlt_service">brightness</property>
      <property name="shotcut:filter">fadeInBrightness</property>
      <property name="alpha">00:00:00.000=0;00:00:00.280=1</property>
      <property name="shotcut:animIn">00:00:00.320</property>
    </filter>
    <filter id="filter28" in="00:00:00.520" out="00:00:03.840">
      <property name="background">color:#00000000</property>
      <property name="mlt_service">affine</property>
      <property name="shotcut:filter">affineSizePosition</property>
      <property name="transition.fill">1</property>
      <property name="transition.distort">0</property>
      <property name="transition.rect">00:00:00.000=0 0 720 540 1;00:00:02.120=-5.04 -4 730.08 548 1;00:00:03.320=0 0 720 540 1</property>
      <property name="transition.valign">middle</property>
      <property name="transition.halign">center</property>
      <property name="shotcut:animIn">00:00:01.120</property>
      <property name="shotcut:animOut">00:00:01.240</property>
      <property name="transition.threads">0</property>
      <property name="transition.fix_rotate_x">00:00:00.000=0;00:00:02.120=0;00:00:03.320=0</property>
    </filter>
  </producer>
  <producer id="producer10" in="00:00:00.000" out="03:59:59.960">
    <property name="length">04:00:00.000</property>
    <property name="eof">pause</property>
    <property name="resource">#00000000</property>
    <property name="aspect_ratio">1</property>
    <property name="mlt_service">color</property>
    <property name="mlt_image_format">rgb24a</property>
    <property name="shotcut:caption">transparent</property>
    <property name="shotcut:detail">transparent</property>
    <property name="ignore_points">0</property>
    <property name="global_feed">1</property>
    <property name="xml">was here</property>
    <property name="seekable">1</property>
    <filter id="filter29" in="00:00:00.520" out="00:00:05.400">
      <property name="argument">та</property>
      <property name="geometry">-18 424 431 88 1</property>
      <property name="family">Jost</property>
      <property name="size">48</property>
      <property name="weight">630</property>
      <property name="style">normal</property>
      <property name="fgcolour">#ffffffff</property>
      <property name="bgcolour">#00000000</property>
      <property name="olcolour">#aa000000</property>
      <property name="pad">0</property>
      <property name="halign">center</property>
      <property name="valign">middle</property>
      <property name="outline">0</property>
      <property name="mlt_service">dynamictext</property>
      <property name="shotcut:filter">dynamicText</property>
      <property name="shotcut:usePointSize">1</property>
      <property name="shotcut:animIn">00:00:00.000</property>
      <property name="shotcut:animOut">00:00:00.000</property>
      <property name="shotcut:pointSize">48</property>
      <property name="disable">1</property>
    </filter>
    <filter id="filter30" in="00:00:00.520" out="00:00:05.400">
      <property name="argument">Дхе – та Дхар ǀ те га Дхам та   </property>
      <property name="geometry">76 383 574 148 1</property>
      <property name="family">Jost</property>
      <property name="size">48</property>
      <property name="weight">500</property>
      <property name="style">normal</property>
      <property name="fgcolour">#ffffffff</property>
      <property name="bgcolour">#00000000</property>
      <property name="olcolour">#aa000000</property>
      <property name="pad">0</property>
      <property name="halign">center</property>
      <property name="valign">middle</property>
      <property name="outline">0</property>
      <property name="mlt_service">dynamictext</property>
      <property name="shotcut:filter">dynamicText</property>
      <property name="shotcut:usePointSize">1</property>
      <property name="shotcut:animIn">00:00:00.000</property>
      <property name="shotcut:animOut">00:00:00.000</property>
      <property name="shotcut:pointSize">48</property>
      <property name="disable">0</property>
    </filter>
    <filter id="filter31" in="00:00:00.520" out="00:00:05.400">
      <property name="start">1</property>
      <property name="level">1</property>
      <property name="mlt_service">brightness</property>
      <property name="shotcut:filter">fadeOutBrightness</property>
      <property name="alpha">00:00:04.600=1;00:00:04.880=0</property>
      <property name="shotcut:animOut">00:00:00.320</property>
    </filter>
    <filter id="filter32" in="00:00:00.520" out="00:00:05.400">
      <property name="start">1</property>
      <property name="level">1</property>
      <property name="mlt_service">brightness</property>
      <property name="shotcut:filter">fadeInBrightness</property>
      <property name="alpha">00:00:00.000=0;00:00:00.280=1</property>
      <property name="shotcut:animIn">00:00:00.320</property>
    </filter>
    <filter id="filter33" in="00:00:00.520" out="00:00:05.400">
      <property name="background">color:#00000000</property>
      <property name="mlt_service">affine</property>
      <property name="shotcut:filter">affineSizePosition</property>
      <property name="transition.fill">1</property>
      <property name="transition.distort">0</property>
      <property name="transition.rect">00:00:00.000=0 0 720 540 1;00:00:04.880=-5.04 -4 730.08 548 1;00:00:06.080=0 0 720 540 1</property>
      <property name="transition.valign">middle</property>
      <property name="transition.halign">center</property>
      <property name="shotcut:animIn">00:00:01.120</property>
      <property name="shotcut:animOut">00:00:01.240</property>
      <property name="transition.threads">0</property>
      <property name="transition.fix_rotate_x">00:00:00.000=0;00:00:04.880=0;00:00:06.080=0</property>
    </filter>
  </producer>
  <producer id="producer11" in="00:00:00.000" out="03:59:59.960">
    <property name="length">04:00:00.000</property>
    <property name="eof">pause</property>
    <property name="resource">#00000000</property>
    <property name="aspect_ratio">1</property>
    <property name="mlt_service">color</property>
    <property name="mlt_image_format">rgb24a</property>
    <property name="shotcut:caption">transparent</property>
    <property name="shotcut:detail">transparent</property>
    <property name="ignore_points">0</property>
    <property name="global_feed">1</property>
    <property name="xml">was here</property>
    <property name="seekable">1</property>
    <filter id="filter34" in="00:00:00.520" out="00:00:05.400">
      <property name="argument">та</property>
      <property name="geometry">-18 424 431 88 1</property>
      <property name="family">Jost</property>
      <property name="size">48</property>
      <property name="weight">630</property>
      <property name="style">normal</property>
      <property name="fgcolour">#ffffffff</property>
      <property name="bgcolour">#00000000</property>
      <property name="olcolour">#aa000000</property>
      <property name="pad">0</property>
      <property name="halign">center</property>
      <property name="valign">middle</property>
      <property name="outline">0</property>
      <property name="mlt_service">dynamictext</property>
      <property name="shotcut:filter">dynamicText</property>
      <property name="shotcut:usePointSize">1</property>
      <property name="shotcut:animIn">00:00:00.000</property>
      <property name="shotcut:animOut">00:00:00.000</property>
      <property name="shotcut:pointSize">48</property>
      <property name="disable">1</property>
    </filter>
    <filter id="filter35" in="00:00:00.520" out="00:00:05.400">
      <property name="argument">Дха – те Дхар ǀ та га Дхе та</property>
      <property name="geometry">76 383 574 148 1</property>
      <property name="family">Jost</property>
      <property name="size">48</property>
      <property name="weight">500</property>
      <property name="style">normal</property>
      <property name="fgcolour">#ffffffff</property>
      <property name="bgcolour">#00000000</property>
      <property name="olcolour">#aa000000</property>
      <property name="pad">0</property>
      <property name="halign">center</property>
      <property name="valign">middle</property>
      <property name="outline">0</property>
      <property name="mlt_service">dynamictext</property>
      <property name="shotcut:filter">dynamicText</property>
      <property name="shotcut:usePointSize">1</property>
      <property name="shotcut:animIn">00:00:00.000</property>
      <property name="shotcut:animOut">00:00:00.000</property>
      <property name="shotcut:pointSize">48</property>
      <property name="disable">0</property>
    </filter>
    <filter id="filter36" in="00:00:00.520" out="00:00:05.400">
      <property name="start">1</property>
      <property name="level">1</property>
      <property name="mlt_service">brightness</property>
      <property name="shotcut:filter">fadeOutBrightness</property>
      <property name="alpha">00:00:04.600=1;00:00:04.880=0</property>
      <property name="shotcut:animOut">00:00:00.320</property>
    </filter>
    <filter id="filter37" in="00:00:00.520" out="00:00:05.400">
      <property name="start">1</property>
      <property name="level">1</property>
      <property name="mlt_service">brightness</property>
      <property name="shotcut:filter">fadeInBrightness</property>
      <property name="alpha">00:00:00.000=0;00:00:00.280=1</property>
      <property name="shotcut:animIn">00:00:00.320</property>
    </filter>
    <filter id="filter38" in="00:00:00.520" out="00:00:05.400">
      <property name="background">color:#00000000</property>
      <property name="mlt_service">affine</property>
      <property name="shotcut:filter">affineSizePosition</property>
      <property name="transition.fill">1</property>
      <property name="transition.distort">0</property>
      <property name="transition.rect">00:00:00.000=0 0 720 540 1;00:00:04.880=-5.04 -4 730.08 548 1;00:00:06.080=0 0 720 540 1</property>
      <property name="transition.valign">middle</property>
      <property name="transition.halign">center</property>
      <property name="shotcut:animIn">00:00:01.120</property>
      <property name="shotcut:animOut">00:00:01.240</property>
      <property name="transition.threads">0</property>
      <property name="transition.fix_rotate_x">00:00:00.000=0;00:00:04.880=0;00:00:06.080=0</property>
    </filter>
  </producer>
  <producer id="producer12" in="00:00:00.000" out="03:59:59.960">
    <property name="length">04:00:00.000</property>
    <property name="eof">pause</property>
    <property name="resource">#00000000</property>
    <property name="aspect_ratio">1</property>
    <property name="mlt_service">color</property>
    <property name="mlt_image_format">rgb24a</property>
    <property name="shotcut:caption">transparent</property>
    <property name="shotcut:detail">transparent</property>
    <property name="ignore_points">0</property>
    <property name="global_feed">1</property>
    <property name="xml">was here</property>
    <property name="seekable">1</property>
    <filter id="filter39" in="00:00:00.520" out="00:00:05.400">
      <property name="argument">та</property>
      <property name="geometry">-18 424 431 88 1</property>
      <property name="family">Jost</property>
      <property name="size">48</property>
      <property name="weight">630</property>
      <property name="style">normal</property>
      <property name="fgcolour">#ffffffff</property>
      <property name="bgcolour">#00000000</property>
      <property name="olcolour">#aa000000</property>
      <property name="pad">0</property>
      <property name="halign">center</property>
      <property name="valign">middle</property>
      <property name="outline">0</property>
      <property name="mlt_service">dynamictext</property>
      <property name="shotcut:filter">dynamicText</property>
      <property name="shotcut:usePointSize">1</property>
      <property name="shotcut:animIn">00:00:00.000</property>
      <property name="shotcut:animOut">00:00:00.000</property>
      <property name="shotcut:pointSize">48</property>
      <property name="disable">1</property>
    </filter>
    <filter id="filter40" in="00:00:00.520" out="00:00:05.400">
      <property name="argument">Дха – те Дхар ǀ та га Дхе та</property>
      <property name="geometry">76 383 574 148 1</property>
      <property name="family">Jost</property>
      <property name="size">48</property>
      <property name="weight">500</property>
      <property name="style">normal</property>
      <property name="fgcolour">#ffffffff</property>
      <property name="bgcolour">#00000000</property>
      <property name="olcolour">#aa000000</property>
      <property name="pad">0</property>
      <property name="halign">center</property>
      <property name="valign">middle</property>
      <property name="outline">0</property>
      <property name="mlt_service">dynamictext</property>
      <property name="shotcut:filter">dynamicText</property>
      <property name="shotcut:usePointSize">1</property>
      <property name="shotcut:animIn">00:00:00.000</property>
      <property name="shotcut:animOut">00:00:00.000</property>
      <property name="shotcut:pointSize">48</property>
      <property name="disable">0</property>
    </filter>
    <filter id="filter41" in="00:00:00.520" out="00:00:05.400">
      <property name="start">1</property>
      <property name="level">1</property>
      <property name="mlt_service">brightness</property>
      <property name="shotcut:filter">fadeOutBrightness</property>
      <property name="alpha">00:00:04.600=1;00:00:04.880=0</property>
      <property name="shotcut:animOut">00:00:00.320</property>
    </filter>
    <filter id="filter42" in="00:00:00.520" out="00:00:05.400">
      <property name="start">1</property>
      <property name="level">1</property>
      <property name="mlt_service">brightness</property>
      <property name="shotcut:filter">fadeInBrightness</property>
      <property name="alpha">00:00:00.000=0;00:00:00.280=1</property>
      <property name="shotcut:animIn">00:00:00.320</property>
    </filter>
    <filter id="filter43" in="00:00:00.520" out="00:00:05.400">
      <property name="background">color:#00000000</property>
      <property name="mlt_service">affine</property>
      <property name="shotcut:filter">affineSizePosition</property>
      <property name="transition.fill">1</property>
      <property name="transition.distort">0</property>
      <property name="transition.rect">00:00:00.000=0 0 720 540 1;00:00:04.880=-5.04 -4 730.08 548 1;00:00:06.080=0 0 720 540 1</property>
      <property name="transition.valign">middle</property>
      <property name="transition.halign">center</property>
      <property name="shotcut:animIn">00:00:01.120</property>
      <property name="shotcut:animOut">00:00:01.240</property>
      <property name="transition.threads">0</property>
      <property name="transition.fix_rotate_x">00:00:00.000=0;00:00:04.880=0;00:00:06.080=0</property>
    </filter>
  </producer>
  <producer id="producer13" in="00:00:00.000" out="03:59:59.960">
    <property name="length">04:00:00.000</property>
    <property name="eof">pause</property>
    <property name="resource">#00000000</property>
    <property name="aspect_ratio">1</property>
    <property name="mlt_service">color</property>
    <property name="mlt_image_format">rgb24a</property>
    <property name="shotcut:caption">transparent</property>
    <property name="shotcut:detail">transparent</property>
    <property name="ignore_points">0</property>
    <property name="global_feed">1</property>
    <property name="xml">was here</property>
    <property name="seekable">1</property>
    <filter id="filter44" in="00:00:04.360" out="00:00:05.840">
      <property name="argument">Мантра 2</property>
      <property name="geometry">83 415 555 91 1</property>
      <property name="family">Jost</property>
      <property name="size">48</property>
      <property name="weight">630</property>
      <property name="style">normal</property>
      <property name="fgcolour">#ffffffff</property>
      <property name="bgcolour">#00000000</property>
      <property name="olcolour">#aa000000</property>
      <property name="pad">0</property>
      <property name="halign">center</property>
      <property name="valign">middle</property>
      <property name="outline">0</property>
      <property name="mlt_service">dynamictext</property>
      <property name="shotcut:filter">dynamicText</property>
      <property name="shotcut:usePointSize">1</property>
      <property name="shotcut:animIn">00:00:00.000</property>
      <property name="shotcut:animOut">00:00:00.000</property>
      <property name="shotcut:pointSize">48</property>
      <property name="disable">0</property>
    </filter>
    <filter id="filter45" in="00:00:04.360" out="00:00:05.840">
      <property name="argument"></property>
      <property name="geometry">72 412 576 107 1</property>
      <property name="family">Jost</property>
      <property name="size">48</property>
      <property name="weight">500</property>
      <property name="style">normal</property>
      <property name="fgcolour">#ffffffff</property>
      <property name="bgcolour">#00000000</property>
      <property name="olcolour">#aa000000</property>
      <property name="pad">0</property>
      <property name="halign">center</property>
      <property name="valign">middle</property>
      <property name="outline">0</property>
      <property name="mlt_service">dynamictext</property>
      <property name="shotcut:filter">dynamicText</property>
      <property name="shotcut:usePointSize">1</property>
      <property name="shotcut:animIn">00:00:00.000</property>
      <property name="shotcut:animOut">00:00:00.000</property>
      <property name="shotcut:pointSize">48</property>
      <property name="disable">1</property>
    </filter>
    <filter id="filter46" in="00:00:04.360" out="00:00:05.840">
      <property name="start">1</property>
      <property name="level">1</property>
      <property name="mlt_service">brightness</property>
      <property name="shotcut:filter">fadeOutBrightness</property>
      <property name="alpha">00:00:01.200=1;00:00:01.480=0</property>
      <property name="shotcut:animOut">00:00:00.320</property>
    </filter>
    <filter id="filter47" in="00:00:04.360" out="00:00:05.840">
      <property name="start">1</property>
      <property name="level">1</property>
      <property name="mlt_service">brightness</property>
      <property name="shotcut:filter">fadeInBrightness</property>
      <property name="alpha">00:00:00.000=0;00:00:00.280=1</property>
      <property name="shotcut:animIn">00:00:00.320</property>
    </filter>
    <filter id="filter48" in="00:00:04.360" out="00:00:05.840">
      <property name="background">color:#00000000</property>
      <property name="mlt_service">affine</property>
      <property name="shotcut:filter">affineSizePosition</property>
      <property name="transition.fill">1</property>
      <property name="transition.distort">0</property>
      <property name="transition.rect">00:00:00.000=0 0 720 540 1;00:00:00.280=-5.04 -4 730.08 548 1;00:00:01.480=0 0 720 540 1</property>
      <property name="transition.valign">middle</property>
      <property name="transition.halign">center</property>
      <property name="shotcut:animIn">00:00:01.120</property>
      <property name="shotcut:animOut">00:00:01.240</property>
      <property name="transition.threads">0</property>
      <property name="transition.fix_rotate_x">00:00:00.000=0;00:00:00.280=0;00:00:01.480=0</property>
    </filter>
  </producer>
  <producer id="producer14" in="00:00:00.000" out="03:59:59.960">
    <property name="length">04:00:00.000</property>
    <property name="eof">pause</property>
    <property name="resource">#00000000</property>
    <property name="aspect_ratio">1</property>
    <property name="mlt_service">color</property>
    <property name="mlt_image_format">rgb24a</property>
    <property name="shotcut:caption">transparent</property>
    <property name="shotcut:detail">transparent</property>
    <property name="ignore_points">0</property>
    <property name="global_feed">1</property>
    <property name="xml">was here</property>
    <property name="seekable">1</property>
    <filter id="filter49" in="00:00:00.520" out="00:00:04.600">
      <property name="argument">та</property>
      <property name="geometry">-18 424 431 88 1</property>
      <property name="family">Jost</property>
      <property name="size">48</property>
      <property name="weight">630</property>
      <property name="style">normal</property>
      <property name="fgcolour">#ffffffff</property>
      <property name="bgcolour">#00000000</property>
      <property name="olcolour">#aa000000</property>
      <property name="pad">0</property>
      <property name="halign">center</property>
      <property name="valign">middle</property>
      <property name="outline">0</property>
      <property name="mlt_service">dynamictext</property>
      <property name="shotcut:filter">dynamicText</property>
      <property name="shotcut:usePointSize">1</property>
      <property name="shotcut:animIn">00:00:00.000</property>
      <property name="shotcut:animOut">00:00:00.000</property>
      <property name="shotcut:pointSize">48</property>
      <property name="disable">1</property>
    </filter>
    <filter id="filter50" in="00:00:00.520" out="00:00:04.600">
      <property name="argument">га – те Дхар ǀ – га Дхе та</property>
      <property name="geometry">76 383 574 148 1</property>
      <property name="family">Jost</property>
      <property name="size">48</property>
      <property name="weight">500</property>
      <property name="style">normal</property>
      <property name="fgcolour">#ffffffff</property>
      <property name="bgcolour">#00000000</property>
      <property name="olcolour">#aa000000</property>
      <property name="pad">0</property>
      <property name="halign">center</property>
      <property name="valign">middle</property>
      <property name="outline">0</property>
      <property name="mlt_service">dynamictext</property>
      <property name="shotcut:filter">dynamicText</property>
      <property name="shotcut:usePointSize">1</property>
      <property name="shotcut:animIn">00:00:00.000</property>
      <property name="shotcut:animOut">00:00:00.000</property>
      <property name="shotcut:pointSize">48</property>
      <property name="disable">0</property>
    </filter>
    <filter id="filter51" in="00:00:00.520" out="00:00:04.600">
      <property name="start">1</property>
      <property name="level">1</property>
      <property name="mlt_service">brightness</property>
      <property name="shotcut:filter">fadeOutBrightness</property>
      <property name="alpha">00:00:03.800=1;00:00:04.080=0</property>
      <property name="shotcut:animOut">00:00:00.320</property>
    </filter>
    <filter id="filter52" in="00:00:00.520" out="00:00:04.600">
      <property name="start">1</property>
      <property name="level">1</property>
      <property name="mlt_service">brightness</property>
      <property name="shotcut:filter">fadeInBrightness</property>
      <property name="alpha">00:00:00.000=0;00:00:00.280=1</property>
      <property name="shotcut:animIn">00:00:00.320</property>
    </filter>
    <filter id="filter53" in="00:00:00.520" out="00:00:04.600">
      <property name="background">color:#00000000</property>
      <property name="mlt_service">affine</property>
      <property name="shotcut:filter">affineSizePosition</property>
      <property name="transition.fill">1</property>
      <property name="transition.distort">0</property>
      <property name="transition.rect">00:00:00.000=0 0 720 540 1;00:00:02.880=-5.04 -4 730.08 548 1;00:00:04.080=0 0 720 540 1</property>
      <property name="transition.valign">middle</property>
      <property name="transition.halign">center</property>
      <property name="shotcut:animIn">00:00:01.120</property>
      <property name="shotcut:animOut">00:00:01.240</property>
      <property name="transition.threads">0</property>
      <property name="transition.fix_rotate_x">00:00:00.000=0;00:00:02.880=0;00:00:04.080=0</property>
    </filter>
  </producer>
  <producer id="producer15" in="00:00:00.000" out="03:59:59.960">
    <property name="length">04:00:00.000</property>
    <property name="eof">pause</property>
    <property name="resource">#00000000</property>
    <property name="aspect_ratio">1</property>
    <property name="mlt_service">color</property>
    <property name="mlt_image_format">rgb24a</property>
    <property name="shotcut:caption">transparent</property>
    <property name="shotcut:detail">transparent</property>
    <property name="ignore_points">0</property>
    <property name="global_feed">1</property>
    <property name="xml">was here</property>
    <property name="seekable">1</property>
    <filter id="filter54" in="00:00:00.520" out="00:00:05.400">
      <property name="argument">та</property>
      <property name="geometry">-18 424 431 88 1</property>
      <property name="family">Jost</property>
      <property name="size">48</property>
      <property name="weight">630</property>
      <property name="style">normal</property>
      <property name="fgcolour">#ffffffff</property>
      <property name="bgcolour">#00000000</property>
      <property name="olcolour">#aa000000</property>
      <property name="pad">0</property>
      <property name="halign">center</property>
      <property name="valign">middle</property>
      <property name="outline">0</property>
      <property name="mlt_service">dynamictext</property>
      <property name="shotcut:filter">dynamicText</property>
      <property name="shotcut:usePointSize">1</property>
      <property name="shotcut:animIn">00:00:00.000</property>
      <property name="shotcut:animOut">00:00:00.000</property>
      <property name="shotcut:pointSize">48</property>
      <property name="disable">1</property>
    </filter>
    <filter id="filter55" in="00:00:00.520" out="00:00:05.400">
      <property name="argument">га – те Дхар ǀ – га Дхе та</property>
      <property name="geometry">76 383 574 148 1</property>
      <property name="family">Jost</property>
      <property name="size">48</property>
      <property name="weight">500</property>
      <property name="style">normal</property>
      <property name="fgcolour">#ffffffff</property>
      <property name="bgcolour">#00000000</property>
      <property name="olcolour">#aa000000</property>
      <property name="pad">0</property>
      <property name="halign">center</property>
      <property name="valign">middle</property>
      <property name="outline">0</property>
      <property name="mlt_service">dynamictext</property>
      <property name="shotcut:filter">dynamicText</property>
      <property name="shotcut:usePointSize">1</property>
      <property name="shotcut:animIn">00:00:00.000</property>
      <property name="shotcut:animOut">00:00:00.000</property>
      <property name="shotcut:pointSize">48</property>
      <property name="disable">0</property>
    </filter>
    <filter id="filter56" in="00:00:00.520" out="00:00:05.400">
      <property name="start">1</property>
      <property name="level">1</property>
      <property name="mlt_service">brightness</property>
      <property name="shotcut:filter">fadeOutBrightness</property>
      <property name="alpha">00:00:04.600=1;00:00:04.880=0</property>
      <property name="shotcut:animOut">00:00:00.320</property>
    </filter>
    <filter id="filter57" in="00:00:00.520" out="00:00:05.400">
      <property name="start">1</property>
      <property name="level">1</property>
      <property name="mlt_service">brightness</property>
      <property name="shotcut:filter">fadeInBrightness</property>
      <property name="alpha">00:00:00.000=0;00:00:00.280=1</property>
      <property name="shotcut:animIn">00:00:00.320</property>
    </filter>
    <filter id="filter58" in="00:00:00.520" out="00:00:05.400">
      <property name="background">color:#00000000</property>
      <property name="mlt_service">affine</property>
      <property name="shotcut:filter">affineSizePosition</property>
      <property name="transition.fill">1</property>
      <property name="transition.distort">0</property>
      <property name="transition.rect">00:00:00.000=0 0 720 540 1;00:00:04.880=-5.04 -4 730.08 548 1;00:00:06.080=0 0 720 540 1</property>
      <property name="transition.valign">middle</property>
      <property name="transition.halign">center</property>
      <property name="shotcut:animIn">00:00:01.120</property>
      <property name="shotcut:animOut">00:00:01.240</property>
      <property name="transition.threads">0</property>
      <property name="transition.fix_rotate_x">00:00:00.000=0;00:00:04.880=0;00:00:06.080=0</property>
    </filter>
  </producer>
  <producer id="producer16" in="00:00:00.000" out="03:59:59.960">
    <property name="length">04:00:00.000</property>
    <property name="eof">pause</property>
    <property name="resource">#00000000</property>
    <property name="aspect_ratio">1</property>
    <property name="mlt_service">color</property>
    <property name="mlt_image_format">rgb24a</property>
    <property name="shotcut:caption">transparent</property>
    <property name="shotcut:detail">transparent</property>
    <property name="ignore_points">0</property>
    <property name="global_feed">1</property>
    <property name="xml">was here</property>
    <property name="seekable">1</property>
    <filter id="filter59" in="00:00:04.360" out="00:00:05.840">
      <property name="argument">Мантра 3</property>
      <property name="geometry">83 415 555 91 1</property>
      <property name="family">Jost</property>
      <property name="size">48</property>
      <property name="weight">630</property>
      <property name="style">normal</property>
      <property name="fgcolour">#ffffffff</property>
      <property name="bgcolour">#00000000</property>
      <property name="olcolour">#aa000000</property>
      <property name="pad">0</property>
      <property name="halign">center</property>
      <property name="valign">middle</property>
      <property name="outline">0</property>
      <property name="mlt_service">dynamictext</property>
      <property name="shotcut:filter">dynamicText</property>
      <property name="shotcut:usePointSize">1</property>
      <property name="shotcut:animIn">00:00:00.000</property>
      <property name="shotcut:animOut">00:00:00.000</property>
      <property name="shotcut:pointSize">48</property>
      <property name="disable">0</property>
    </filter>
    <filter id="filter60" in="00:00:04.360" out="00:00:05.840">
      <property name="argument"></property>
      <property name="geometry">72 412 576 107 1</property>
      <property name="family">Jost</property>
      <property name="size">48</property>
      <property name="weight">500</property>
      <property name="style">normal</property>
      <property name="fgcolour">#ffffffff</property>
      <property name="bgcolour">#00000000</property>
      <property name="olcolour">#aa000000</property>
      <property name="pad">0</property>
      <property name="halign">center</property>
      <property name="valign">middle</property>
      <property name="outline">0</property>
      <property name="mlt_service">dynamictext</property>
      <property name="shotcut:filter">dynamicText</property>
      <property name="shotcut:usePointSize">1</property>
      <property name="shotcut:animIn">00:00:00.000</property>
      <property name="shotcut:animOut">00:00:00.000</property>
      <property name="shotcut:pointSize">48</property>
      <property name="disable">1</property>
    </filter>
    <filter id="filter61" in="00:00:04.360" out="00:00:05.840">
      <property name="start">1</property>
      <property name="level">1</property>
      <property name="mlt_service">brightness</property>
      <property name="shotcut:filter">fadeOutBrightness</property>
      <property name="alpha">00:00:01.200=1;00:00:01.480=0</property>
      <property name="shotcut:animOut">00:00:00.320</property>
    </filter>
    <filter id="filter62" in="00:00:04.360" out="00:00:05.840">
      <property name="start">1</property>
      <property name="level">1</property>
      <property name="mlt_service">brightness</property>
      <property name="shotcut:filter">fadeInBrightness</property>
      <property name="alpha">00:00:00.000=0;00:00:00.280=1</property>
      <property name="shotcut:animIn">00:00:00.320</property>
    </filter>
    <filter id="filter63" in="00:00:04.360" out="00:00:05.840">
      <property name="background">color:#00000000</property>
      <property name="mlt_service">affine</property>
      <property name="shotcut:filter">affineSizePosition</property>
      <property name="transition.fill">1</property>
      <property name="transition.distort">0</property>
      <property name="transition.rect">00:00:00.000=0 0 720 540 1;00:00:00.280=-5.04 -4 730.08 548 1;00:00:01.480=0 0 720 540 1</property>
      <property name="transition.valign">middle</property>
      <property name="transition.halign">center</property>
      <property name="shotcut:animIn">00:00:01.120</property>
      <property name="shotcut:animOut">00:00:01.240</property>
      <property name="transition.threads">0</property>
      <property name="transition.fix_rotate_x">00:00:00.000=0;00:00:00.280=0;00:00:01.480=0</property>
    </filter>
  </producer>
  <producer id="producer17" in="00:00:00.000" out="03:59:59.960">
    <property name="length">04:00:00.000</property>
    <property name="eof">pause</property>
    <property name="resource">#00000000</property>
    <property name="aspect_ratio">1</property>
    <property name="mlt_service">color</property>
    <property name="mlt_image_format">rgb24a</property>
    <property name="shotcut:caption">transparent</property>
    <property name="shotcut:detail">transparent</property>
    <property name="ignore_points">0</property>
    <property name="global_feed">1</property>
    <property name="xml">was here</property>
    <property name="seekable">1</property>
    <filter id="filter64" in="00:00:00.520" out="00:00:04.320">
      <property name="argument">та</property>
      <property name="geometry">-18 424 431 88 1</property>
      <property name="family">Jost</property>
      <property name="size">48</property>
      <property name="weight">630</property>
      <property name="style">normal</property>
      <property name="fgcolour">#ffffffff</property>
      <property name="bgcolour">#00000000</property>
      <property name="olcolour">#aa000000</property>
      <property name="pad">0</property>
      <property name="halign">center</property>
      <property name="valign">middle</property>
      <property name="outline">0</property>
      <property name="mlt_service">dynamictext</property>
      <property name="shotcut:filter">dynamicText</property>
      <property name="shotcut:usePointSize">1</property>
      <property name="shotcut:animIn">00:00:00.000</property>
      <property name="shotcut:animOut">00:00:00.000</property>
      <property name="shotcut:pointSize">48</property>
      <property name="disable">1</property>
    </filter>
    <filter id="filter65" in="00:00:00.520" out="00:00:04.320">
      <property name="argument">Дхе – Дхар Дхар ǀ те га Дха та</property>
      <property name="geometry">76 383 574 148 1</property>
      <property name="family">Jost</property>
      <property name="size">48</property>
      <property name="weight">500</property>
      <property name="style">normal</property>
      <property name="fgcolour">#ffffffff</property>
      <property name="bgcolour">#00000000</property>
      <property name="olcolour">#aa000000</property>
      <property name="pad">0</property>
      <property name="halign">center</property>
      <property name="valign">middle</property>
      <property name="outline">0</property>
      <property name="mlt_service">dynamictext</property>
      <property name="shotcut:filter">dynamicText</property>
      <property name="shotcut:usePointSize">1</property>
      <property name="shotcut:animIn">00:00:00.000</property>
      <property name="shotcut:animOut">00:00:00.000</property>
      <property name="shotcut:pointSize">48</property>
      <property name="disable">0</property>
    </filter>
    <filter id="filter66" in="00:00:00.520" out="00:00:04.320">
      <property name="start">1</property>
      <property name="level">1</property>
      <property name="mlt_service">brightness</property>
      <property name="shotcut:filter">fadeOutBrightness</property>
      <property name="alpha">00:00:03.520=1;00:00:03.800=0</property>
      <property name="shotcut:animOut">00:00:00.320</property>
    </filter>
    <filter id="filter67" in="00:00:00.520" out="00:00:04.320">
      <property name="start">1</property>
      <property name="level">1</property>
      <property name="mlt_service">brightness</property>
      <property name="shotcut:filter">fadeInBrightness</property>
      <property name="alpha">00:00:00.000=0;00:00:00.280=1</property>
      <property name="shotcut:animIn">00:00:00.320</property>
    </filter>
    <filter id="filter68" in="00:00:00.520" out="00:00:04.320">
      <property name="background">color:#00000000</property>
      <property name="mlt_service">affine</property>
      <property name="shotcut:filter">affineSizePosition</property>
      <property name="transition.fill">1</property>
      <property name="transition.distort">0</property>
      <property name="transition.rect">00:00:00.000=0 0 720 540 1;00:00:02.600=-5.04 -4 730.08 548 1;00:00:03.800=0 0 720 540 1</property>
      <property name="transition.valign">middle</property>
      <property name="transition.halign">center</property>
      <property name="shotcut:animIn">00:00:01.120</property>
      <property name="shotcut:animOut">00:00:01.240</property>
      <property name="transition.threads">0</property>
      <property name="transition.fix_rotate_x">00:00:00.000=0;00:00:02.600=0;00:00:03.800=0</property>
    </filter>
  </producer>
  <producer id="producer18" in="00:00:00.000" out="03:59:59.960">
    <property name="length">04:00:00.000</property>
    <property name="eof">pause</property>
    <property name="resource">#00000000</property>
    <property name="aspect_ratio">1</property>
    <property name="mlt_service">color</property>
    <property name="mlt_image_format">rgb24a</property>
    <property name="shotcut:caption">transparent</property>
    <property name="shotcut:detail">transparent</property>
    <property name="ignore_points">0</property>
    <property name="global_feed">1</property>
    <property name="xml">was here</property>
    <property name="seekable">1</property>
    <filter id="filter69" in="00:00:00.520" out="00:00:04.320">
      <property name="argument">та</property>
      <property name="geometry">-18 424 431 88 1</property>
      <property name="family">Jost</property>
      <property name="size">48</property>
      <property name="weight">630</property>
      <property name="style">normal</property>
      <property name="fgcolour">#ffffffff</property>
      <property name="bgcolour">#00000000</property>
      <property name="olcolour">#aa000000</property>
      <property name="pad">0</property>
      <property name="halign">center</property>
      <property name="valign">middle</property>
      <property name="outline">0</property>
      <property name="mlt_service">dynamictext</property>
      <property name="shotcut:filter">dynamicText</property>
      <property name="shotcut:usePointSize">1</property>
      <property name="shotcut:animIn">00:00:00.000</property>
      <property name="shotcut:animOut">00:00:00.000</property>
      <property name="shotcut:pointSize">48</property>
      <property name="disable">1</property>
    </filter>
    <filter id="filter70" in="00:00:00.520" out="00:00:04.320">
      <property name="argument">Дхе – Дхар Дхар ǀ те га Дха та</property>
      <property name="geometry">76 383 574 148 1</property>
      <property name="family">Jost</property>
      <property name="size">48</property>
      <property name="weight">500</property>
      <property name="style">normal</property>
      <property name="fgcolour">#ffffffff</property>
      <property name="bgcolour">#00000000</property>
      <property name="olcolour">#aa000000</property>
      <property name="pad">0</property>
      <property name="halign">center</property>
      <property name="valign">middle</property>
      <property name="outline">0</property>
      <property name="mlt_service">dynamictext</property>
      <property name="shotcut:filter">dynamicText</property>
      <property name="shotcut:usePointSize">1</property>
      <property name="shotcut:animIn">00:00:00.000</property>
      <property name="shotcut:animOut">00:00:00.000</property>
      <property name="shotcut:pointSize">48</property>
      <property name="disable">0</property>
    </filter>
    <filter id="filter71" in="00:00:00.520" out="00:00:04.320">
      <property name="start">1</property>
      <property name="level">1</property>
      <property name="mlt_service">brightness</property>
      <property name="shotcut:filter">fadeOutBrightness</property>
      <property name="alpha">00:00:03.520=1;00:00:03.800=0</property>
      <property name="shotcut:animOut">00:00:00.320</property>
    </filter>
    <filter id="filter72" in="00:00:00.520" out="00:00:04.320">
      <property name="start">1</property>
      <property name="level">1</property>
      <property name="mlt_service">brightness</property>
      <property name="shotcut:filter">fadeInBrightness</property>
      <property name="alpha">00:00:00.000=0;00:00:00.280=1</property>
      <property name="shotcut:animIn">00:00:00.320</property>
    </filter>
    <filter id="filter73" in="00:00:00.520" out="00:00:04.320">
      <property name="background">color:#00000000</property>
      <property name="mlt_service">affine</property>
      <property name="shotcut:filter">affineSizePosition</property>
      <property name="transition.fill">1</property>
      <property name="transition.distort">0</property>
      <property name="transition.rect">00:00:00.000=0 0 720 540 1;00:00:02.600=-5.04 -4 730.08 548 1;00:00:03.800=0 0 720 540 1</property>
      <property name="transition.valign">middle</property>
      <property name="transition.halign">center</property>
      <property name="shotcut:animIn">00:00:01.120</property>
      <property name="shotcut:animOut">00:00:01.240</property>
      <property name="transition.threads">0</property>
      <property name="transition.fix_rotate_x">00:00:00.000=0;00:00:02.600=0;00:00:03.800=0</property>
    </filter>
  </producer>
  <producer id="producer19" in="00:00:00.000" out="03:59:59.960">
    <property name="length">04:00:00.000</property>
    <property name="eof">pause</property>
    <property name="resource">#00000000</property>
    <property name="aspect_ratio">1</property>
    <property name="mlt_service">color</property>
    <property name="mlt_image_format">rgb24a</property>
    <property name="shotcut:caption">transparent</property>
    <property name="shotcut:detail">transparent</property>
    <property name="ignore_points">0</property>
    <property name="global_feed">1</property>
    <property name="xml">was here</property>
    <property name="seekable">1</property>
    <filter id="filter74" in="00:00:04.360" out="00:00:05.840">
      <property name="argument">Мантра 4</property>
      <property name="geometry">83 415 555 91 1</property>
      <property name="family">Jost</property>
      <property name="size">48</property>
      <property name="weight">630</property>
      <property name="style">normal</property>
      <property name="fgcolour">#ffffffff</property>
      <property name="bgcolour">#00000000</property>
      <property name="olcolour">#aa000000</property>
      <property name="pad">0</property>
      <property name="halign">center</property>
      <property name="valign">middle</property>
      <property name="outline">0</property>
      <property name="mlt_service">dynamictext</property>
      <property name="shotcut:filter">dynamicText</property>
      <property name="shotcut:usePointSize">1</property>
      <property name="shotcut:animIn">00:00:00.000</property>
      <property name="shotcut:animOut">00:00:00.000</property>
      <property name="shotcut:pointSize">48</property>
      <property name="disable">0</property>
    </filter>
    <filter id="filter75" in="00:00:04.360" out="00:00:05.840">
      <property name="argument"></property>
      <property name="geometry">72 412 576 107 1</property>
      <property name="family">Jost</property>
      <property name="size">48</property>
      <property name="weight">500</property>
      <property name="style">normal</property>
      <property name="fgcolour">#ffffffff</property>
      <property name="bgcolour">#00000000</property>
      <property name="olcolour">#aa000000</property>
      <property name="pad">0</property>
      <property name="halign">center</property>
      <property name="valign">middle</property>
      <property name="outline">0</property>
      <property name="mlt_service">dynamictext</property>
      <property name="shotcut:filter">dynamicText</property>
      <property name="shotcut:usePointSize">1</property>
      <property name="shotcut:animIn">00:00:00.000</property>
      <property name="shotcut:animOut">00:00:00.000</property>
      <property name="shotcut:pointSize">48</property>
      <property name="disable">1</property>
    </filter>
    <filter id="filter76" in="00:00:04.360" out="00:00:05.840">
      <property name="start">1</property>
      <property name="level">1</property>
      <property name="mlt_service">brightness</property>
      <property name="shotcut:filter">fadeOutBrightness</property>
      <property name="alpha">00:00:01.200=1;00:00:01.480=0</property>
      <property name="shotcut:animOut">00:00:00.320</property>
    </filter>
    <filter id="filter77" in="00:00:04.360" out="00:00:05.840">
      <property name="start">1</property>
      <property name="level">1</property>
      <property name="mlt_service">brightness</property>
      <property name="shotcut:filter">fadeInBrightness</property>
      <property name="alpha">00:00:00.000=0;00:00:00.280=1</property>
      <property name="shotcut:animIn">00:00:00.320</property>
    </filter>
    <filter id="filter78" in="00:00:04.360" out="00:00:05.840">
      <property name="background">color:#00000000</property>
      <property name="mlt_service">affine</property>
      <property name="shotcut:filter">affineSizePosition</property>
      <property name="transition.fill">1</property>
      <property name="transition.distort">0</property>
      <property name="transition.rect">00:00:00.000=0 0 720 540 1;00:00:00.280=-5.04 -4 730.08 548 1;00:00:01.480=0 0 720 540 1</property>
      <property name="transition.valign">middle</property>
      <property name="transition.halign">center</property>
      <property name="shotcut:animIn">00:00:01.120</property>
      <property name="shotcut:animOut">00:00:01.240</property>
      <property name="transition.threads">0</property>
      <property name="transition.fix_rotate_x">00:00:00.000=0;00:00:00.280=0;00:00:01.480=0</property>
    </filter>
  </producer>
  <producer id="producer20" in="00:00:00.000" out="03:59:59.960">
    <property name="length">04:00:00.000</property>
    <property name="eof">pause</property>
    <property name="resource">#00000000</property>
    <property name="aspect_ratio">1</property>
    <property name="mlt_service">color</property>
    <property name="mlt_image_format">rgb24a</property>
    <property name="shotcut:caption">transparent</property>
    <property name="shotcut:detail">transparent</property>
    <property name="ignore_points">0</property>
    <property name="global_feed">1</property>
    <property name="xml">was here</property>
    <property name="seekable">1</property>
    <filter id="filter79" in="00:00:00.520" out="00:00:04.320">
      <property name="argument">та</property>
      <property name="geometry">-18 424 431 88 1</property>
      <property name="family">Jost</property>
      <property name="size">48</property>
      <property name="weight">630</property>
      <property name="style">normal</property>
      <property name="fgcolour">#ffffffff</property>
      <property name="bgcolour">#00000000</property>
      <property name="olcolour">#aa000000</property>
      <property name="pad">0</property>
      <property name="halign">center</property>
      <property name="valign">middle</property>
      <property name="outline">0</property>
      <property name="mlt_service">dynamictext</property>
      <property name="shotcut:filter">dynamicText</property>
      <property name="shotcut:usePointSize">1</property>
      <property name="shotcut:animIn">00:00:00.000</property>
      <property name="shotcut:animOut">00:00:00.000</property>
      <property name="shotcut:pointSize">48</property>
      <property name="disable">1</property>
    </filter>
    <filter id="filter80" in="00:00:00.520" out="00:00:04.320">
      <property name="argument">Дхе – та ге ǀ те га Дха –</property>
      <property name="geometry">76 383 574 148 1</property>
      <property name="family">Jost</property>
      <property name="size">48</property>
      <property name="weight">500</property>
      <property name="style">normal</property>
      <property name="fgcolour">#ffffffff</property>
      <property name="bgcolour">#00000000</property>
      <property name="olcolour">#aa000000</property>
      <property name="pad">0</property>
      <property name="halign">center</property>
      <property name="valign">middle</property>
      <property name="outline">0</property>
      <property name="mlt_service">dynamictext</property>
      <property name="shotcut:filter">dynamicText</property>
      <property name="shotcut:usePointSize">1</property>
      <property name="shotcut:animIn">00:00:00.000</property>
      <property name="shotcut:animOut">00:00:00.000</property>
      <property name="shotcut:pointSize">48</property>
      <property name="disable">0</property>
    </filter>
    <filter id="filter81" in="00:00:00.520" out="00:00:04.320">
      <property name="start">1</property>
      <property name="level">1</property>
      <property name="mlt_service">brightness</property>
      <property name="shotcut:filter">fadeOutBrightness</property>
      <property name="alpha">00:00:03.520=1;00:00:03.800=0</property>
      <property name="shotcut:animOut">00:00:00.320</property>
    </filter>
    <filter id="filter82" in="00:00:00.520" out="00:00:04.320">
      <property name="start">1</property>
      <property name="level">1</property>
      <property name="mlt_service">brightness</property>
      <property name="shotcut:filter">fadeInBrightness</property>
      <property name="alpha">00:00:00.000=0;00:00:00.280=1</property>
      <property name="shotcut:animIn">00:00:00.320</property>
    </filter>
    <filter id="filter83" in="00:00:00.520" out="00:00:04.320">
      <property name="background">color:#00000000</property>
      <property name="mlt_service">affine</property>
      <property name="shotcut:filter">affineSizePosition</property>
      <property name="transition.fill">1</property>
      <property name="transition.distort">0</property>
      <property name="transition.rect">00:00:00.000=0 0 720 540 1;00:00:02.600=-5.04 -4 730.08 548 1;00:00:03.800=0 0 720 540 1</property>
      <property name="transition.valign">middle</property>
      <property name="transition.halign">center</property>
      <property name="shotcut:animIn">00:00:01.120</property>
      <property name="shotcut:animOut">00:00:01.240</property>
      <property name="transition.threads">0</property>
      <property name="transition.fix_rotate_x">00:00:00.000=0;00:00:02.600=0;00:00:03.800=0</property>
    </filter>
  </producer>
  <producer id="producer21" in="00:00:00.000" out="03:59:59.960">
    <property name="length">04:00:00.000</property>
    <property name="eof">pause</property>
    <property name="resource">#00000000</property>
    <property name="aspect_ratio">1</property>
    <property name="mlt_service">color</property>
    <property name="mlt_image_format">rgb24a</property>
    <property name="shotcut:caption">transparent</property>
    <property name="shotcut:detail">transparent</property>
    <property name="ignore_points">0</property>
    <property name="global_feed">1</property>
    <property name="xml">was here</property>
    <property name="seekable">1</property>
    <filter id="filter84" in="00:00:00.520" out="00:00:03.920">
      <property name="argument">та</property>
      <property name="geometry">-18 424 431 88 1</property>
      <property name="family">Jost</property>
      <property name="size">48</property>
      <property name="weight">630</property>
      <property name="style">normal</property>
      <property name="fgcolour">#ffffffff</property>
      <property name="bgcolour">#00000000</property>
      <property name="olcolour">#aa000000</property>
      <property name="pad">0</property>
      <property name="halign">center</property>
      <property name="valign">middle</property>
      <property name="outline">0</property>
      <property name="mlt_service">dynamictext</property>
      <property name="shotcut:filter">dynamicText</property>
      <property name="shotcut:usePointSize">1</property>
      <property name="shotcut:animIn">00:00:00.000</property>
      <property name="shotcut:animOut">00:00:00.000</property>
      <property name="shotcut:pointSize">48</property>
      <property name="disable">1</property>
    </filter>
    <filter id="filter85" in="00:00:00.520" out="00:00:03.920">
      <property name="argument">Дхе – та ге ǀ те га Дха –</property>
      <property name="geometry">76 383 574 148 1</property>
      <property name="family">Jost</property>
      <property name="size">48</property>
      <property name="weight">500</property>
      <property name="style">normal</property>
      <property name="fgcolour">#ffffffff</property>
      <property name="bgcolour">#00000000</property>
      <property name="olcolour">#aa000000</property>
      <property name="pad">0</property>
      <property name="halign">center</property>
      <property name="valign">middle</property>
      <property name="outline">0</property>
      <property name="mlt_service">dynamictext</property>
      <property name="shotcut:filter">dynamicText</property>
      <property name="shotcut:usePointSize">1</property>
      <property name="shotcut:animIn">00:00:00.000</property>
      <property name="shotcut:animOut">00:00:00.000</property>
      <property name="shotcut:pointSize">48</property>
      <property name="disable">0</property>
    </filter>
    <filter id="filter86" in="00:00:00.520" out="00:00:03.920">
      <property name="start">1</property>
      <property name="level">1</property>
      <property name="mlt_service">brightness</property>
      <property name="shotcut:filter">fadeOutBrightness</property>
      <property name="alpha">00:00:03.120=1;00:00:03.400=0</property>
      <property name="shotcut:animOut">00:00:00.320</property>
    </filter>
    <filter id="filter87" in="00:00:00.520" out="00:00:03.920">
      <property name="start">1</property>
      <property name="level">1</property>
      <property name="mlt_service">brightness</property>
      <property name="shotcut:filter">fadeInBrightness</property>
      <property name="alpha">00:00:00.000=0;00:00:00.280=1</property>
      <property name="shotcut:animIn">00:00:00.320</property>
    </filter>
    <filter id="filter88" in="00:00:00.520" out="00:00:03.920">
      <property name="background">color:#00000000</property>
      <property name="mlt_service">affine</property>
      <property name="shotcut:filter">affineSizePosition</property>
      <property name="transition.fill">1</property>
      <property name="transition.distort">0</property>
      <property name="transition.rect">00:00:00.000=0 0 720 540 1;00:00:02.600=-5.04 -4 730.08 548 1;00:00:03.800=0 0 720 540 1</property>
      <property name="transition.valign">middle</property>
      <property name="transition.halign">center</property>
      <property name="shotcut:animIn">00:00:01.120</property>
      <property name="shotcut:animOut">00:00:01.240</property>
      <property name="transition.threads">0</property>
      <property name="transition.fix_rotate_x">00:00:00.000=0;00:00:02.600=0;00:00:03.800=0</property>
    </filter>
  </producer>
  <producer id="producer22" in="00:00:00.000" out="03:59:59.960">
    <property name="length">04:00:00.000</property>
    <property name="eof">pause</property>
    <property name="resource">#00000000</property>
    <property name="aspect_ratio">1</property>
    <property name="mlt_service">color</property>
    <property name="mlt_image_format">rgb24a</property>
    <property name="shotcut:caption">transparent</property>
    <property name="shotcut:detail">transparent</property>
    <property name="ignore_points">0</property>
    <property name="global_feed">1</property>
    <property name="xml">was here</property>
    <property name="seekable">1</property>
    <filter id="filter89" in="00:00:00.520" out="00:00:03.760">
      <property name="argument">та</property>
      <property name="geometry">-18 424 431 88 1</property>
      <property name="family">Jost</property>
      <property name="size">48</property>
      <property name="weight">630</property>
      <property name="style">normal</property>
      <property name="fgcolour">#ffffffff</property>
      <property name="bgcolour">#00000000</property>
      <property name="olcolour">#aa000000</property>
      <property name="pad">0</property>
      <property name="halign">center</property>
      <property name="valign">middle</property>
      <property name="outline">0</property>
      <property name="mlt_service">dynamictext</property>
      <property name="shotcut:filter">dynamicText</property>
      <property name="shotcut:usePointSize">1</property>
      <property name="shotcut:animIn">00:00:00.000</property>
      <property name="shotcut:animOut">00:00:00.000</property>
      <property name="shotcut:pointSize">48</property>
      <property name="disable">1</property>
    </filter>
    <filter id="filter90" in="00:00:00.520" out="00:00:03.760">
      <property name="argument">Дхем – та ге ǀ те га Дха –</property>
      <property name="geometry">76 383 574 148 1</property>
      <property name="family">Jost</property>
      <property name="size">48</property>
      <property name="weight">500</property>
      <property name="style">normal</property>
      <property name="fgcolour">#ffffffff</property>
      <property name="bgcolour">#00000000</property>
      <property name="olcolour">#aa000000</property>
      <property name="pad">0</property>
      <property name="halign">center</property>
      <property name="valign">middle</property>
      <property name="outline">0</property>
      <property name="mlt_service">dynamictext</property>
      <property name="shotcut:filter">dynamicText</property>
      <property name="shotcut:usePointSize">1</property>
      <property name="shotcut:animIn">00:00:00.000</property>
      <property name="shotcut:animOut">00:00:00.000</property>
      <property name="shotcut:pointSize">48</property>
      <property name="disable">0</property>
    </filter>
    <filter id="filter91" in="00:00:00.520" out="00:00:03.760">
      <property name="start">1</property>
      <property name="level">1</property>
      <property name="mlt_service">brightness</property>
      <property name="shotcut:filter">fadeOutBrightness</property>
      <property name="alpha">00:00:02.960=1;00:00:03.240=0</property>
      <property name="shotcut:animOut">00:00:00.320</property>
    </filter>
    <filter id="filter92" in="00:00:00.520" out="00:00:03.760">
      <property name="start">1</property>
      <property name="level">1</property>
      <property name="mlt_service">brightness</property>
      <property name="shotcut:filter">fadeInBrightness</property>
      <property name="alpha">00:00:00.000=0;00:00:00.280=1</property>
      <property name="shotcut:animIn">00:00:00.320</property>
    </filter>
    <filter id="filter93" in="00:00:00.520" out="00:00:03.760">
      <property name="background">color:#00000000</property>
      <property name="mlt_service">affine</property>
      <property name="shotcut:filter">affineSizePosition</property>
      <property name="transition.fill">1</property>
      <property name="transition.distort">0</property>
      <property name="transition.rect">00:00:00.000=0 0 720 540 1;00:00:02.040=-5.04 -4 730.08 548 1;00:00:03.240=0 0 720 540 1</property>
      <property name="transition.valign">middle</property>
      <property name="transition.halign">center</property>
      <property name="shotcut:animIn">00:00:01.120</property>
      <property name="shotcut:animOut">00:00:01.240</property>
      <property name="transition.threads">0</property>
      <property name="transition.fix_rotate_x">00:00:00.000=0;00:00:02.040=0;00:00:03.240=0</property>
    </filter>
  </producer>
  <playlist id="playlist3">
    <property name="shotcut:video">1</property>
    <property name="shotcut:name">V2</property>
    <blank length="00:00:01.400"/>
    <entry producer="producer32" in="00:00:00.600" out="00:00:02.880"/>
    <entry producer="producer28" in="00:00:04.760" out="00:00:05.840"/>
    <entry producer="producer8" in="00:00:00.520" out="00:00:05.360"/>
    <blank length="00:00:12.840"/>
    <entry producer="producer9" in="00:00:00.520" out="00:00:03.840"/>
    <blank length="00:00:29.080"/>
    <entry producer="producer10" in="00:00:00.520" out="00:00:05.400"/>
    <blank length="00:00:22.960"/>
    <entry producer="producer11" in="00:00:00.520" out="00:00:05.400"/>
    <blank length="00:00:05.840"/>
    <entry producer="producer12" in="00:00:00.520" out="00:00:05.400"/>
    <blank length="00:00:20.200"/>
    <entry producer="producer13" in="00:00:04.400" out="00:00:05.840"/>
    <blank length="00:00:00.920"/>
    <entry producer="producer14" in="00:00:00.520" out="00:00:04.600"/>
    <blank length="00:00:08.880"/>
    <entry producer="producer15" in="00:00:00.520" out="00:00:05.400"/>
    <blank length="00:01:01.720"/>
    <entry producer="producer16" in="00:00:04.400" out="00:00:05.840"/>
    <blank length="00:00:01.040"/>
    <entry producer="producer17" in="00:00:00.520" out="00:00:04.320"/>
    <blank length="00:00:02.320"/>
    <entry producer="producer18" in="00:00:00.520" out="00:00:04.320"/>
    <blank length="00:00:34.240"/>
    <entry producer="producer19" in="00:00:04.400" out="00:00:05.840"/>
    <blank length="00:00:00.960"/>
    <entry producer="producer20" in="00:00:00.520" out="00:00:04.320"/>
    <blank length="00:00:04.200"/>
    <entry producer="producer21" in="00:00:00.520" out="00:00:03.920"/>
    <blank length="00:00:38.720"/>
    <entry producer="producer22" in="00:00:00.520" out="00:00:03.760"/>
  </playlist>
  <playlist id="playlist2">
    <property name="shotcut:audio">1</property>
    <property name="shotcut:name">A1</property>
    <blank length="00:00:00.040"/>
  </playlist>
  <tractor id="tractor9" title="Shotcut version 21.01.29" global_feed="1" in="00:00:00.000" out="00:05:13.200">
    <property name="shotcut">1</property>
    <property name="shotcut:projectAudioChannels">2</property>
    <property name="shotcut:projectFolder">1</property>
    <property name="shotcut:scaleFactor">1.97245</property>
    <property name="shotcut:trackHeight">52</property>
    <track producer="background"/>
    <track producer="playlist0"/>
    <track producer="playlist3"/>
    <track producer="playlist2" hide="video"/>
    <transition id="transition18">
      <property name="a_track">0</property>
      <property name="b_track">1</property>
      <property name="mlt_service">mix</property>
      <property name="always_active">1</property>
      <property name="sum">1</property>
    </transition>
    <transition id="transition19">
      <property name="a_track">0</property>
      <property name="b_track">1</property>
      <property name="version">0.9</property>
      <property name="mlt_service">frei0r.cairoblend</property>
      <property name="threads">0</property>
      <property name="disable">1</property>
    </transition>
    <transition id="transition22">
      <property name="a_track">0</property>
      <property name="b_track">2</property>
      <property name="mlt_service">mix</property>
      <property name="always_active">1</property>
      <property name="sum">1</property>
    </transition>
    <transition id="transition23">
      <property name="a_track">1</property>
      <property name="b_track">2</property>
      <property name="version">0.9</property>
      <property name="mlt_service">frei0r.cairoblend</property>
      <property name="threads">0</property>
      <property name="disable">0</property>
    </transition>
    <transition id="transition24">
      <property name="a_track">0</property>
      <property name="b_track">3</property>
      <property name="mlt_service">mix</property>
      <property name="always_active">1</property>
      <property name="sum">1</property>
    </transition>
  </tractor>
</mlt>
